G04 EAGLE Gerber RS-274X export*
G75*
%MOMM*%
%FSLAX34Y34*%
%LPD*%
%INTop Silkscreen*%
%IPPOS*%
%AMOC8*
5,1,8,0,0,1.08239X$1,22.5*%
G01*
%ADD10C,0.101600*%
%ADD11C,0.127000*%
%ADD12C,0.250000*%
%ADD13C,0.152400*%
%ADD14C,0.200000*%
%ADD15C,0.076200*%
%ADD16C,0.050800*%
%ADD17C,0.203200*%
%ADD18C,0.063400*%
%ADD19C,0.250000*%


D10*
X408492Y339508D02*
X396808Y339508D01*
X396808Y342754D01*
X396810Y342867D01*
X396816Y342980D01*
X396826Y343093D01*
X396840Y343206D01*
X396857Y343318D01*
X396879Y343429D01*
X396904Y343539D01*
X396934Y343649D01*
X396967Y343757D01*
X397004Y343864D01*
X397044Y343970D01*
X397089Y344074D01*
X397137Y344177D01*
X397188Y344278D01*
X397243Y344377D01*
X397301Y344474D01*
X397363Y344569D01*
X397428Y344662D01*
X397496Y344752D01*
X397567Y344840D01*
X397642Y344926D01*
X397719Y345009D01*
X397799Y345089D01*
X397882Y345166D01*
X397968Y345241D01*
X398056Y345312D01*
X398146Y345380D01*
X398239Y345445D01*
X398334Y345507D01*
X398431Y345565D01*
X398530Y345620D01*
X398631Y345671D01*
X398734Y345719D01*
X398838Y345764D01*
X398944Y345804D01*
X399051Y345841D01*
X399159Y345874D01*
X399269Y345904D01*
X399379Y345929D01*
X399490Y345951D01*
X399602Y345968D01*
X399715Y345982D01*
X399828Y345992D01*
X399941Y345998D01*
X400054Y346000D01*
X400167Y345998D01*
X400280Y345992D01*
X400393Y345982D01*
X400506Y345968D01*
X400618Y345951D01*
X400729Y345929D01*
X400839Y345904D01*
X400949Y345874D01*
X401057Y345841D01*
X401164Y345804D01*
X401270Y345764D01*
X401374Y345719D01*
X401477Y345671D01*
X401578Y345620D01*
X401677Y345565D01*
X401774Y345507D01*
X401869Y345445D01*
X401962Y345380D01*
X402052Y345312D01*
X402140Y345241D01*
X402226Y345166D01*
X402309Y345089D01*
X402389Y345009D01*
X402466Y344926D01*
X402541Y344840D01*
X402612Y344752D01*
X402680Y344662D01*
X402745Y344569D01*
X402807Y344474D01*
X402865Y344377D01*
X402920Y344278D01*
X402971Y344177D01*
X403019Y344074D01*
X403064Y343970D01*
X403104Y343864D01*
X403141Y343757D01*
X403174Y343649D01*
X403204Y343539D01*
X403229Y343429D01*
X403251Y343318D01*
X403268Y343206D01*
X403282Y343093D01*
X403292Y342980D01*
X403298Y342867D01*
X403300Y342754D01*
X403299Y342754D02*
X403299Y339508D01*
X403299Y343403D02*
X408492Y345999D01*
X408492Y351415D02*
X396808Y351415D01*
X396808Y354660D01*
X396810Y354773D01*
X396816Y354886D01*
X396826Y354999D01*
X396840Y355112D01*
X396857Y355224D01*
X396879Y355335D01*
X396904Y355445D01*
X396934Y355555D01*
X396967Y355663D01*
X397004Y355770D01*
X397044Y355876D01*
X397089Y355980D01*
X397137Y356083D01*
X397188Y356184D01*
X397243Y356283D01*
X397301Y356380D01*
X397363Y356475D01*
X397428Y356568D01*
X397496Y356658D01*
X397567Y356746D01*
X397642Y356832D01*
X397719Y356915D01*
X397799Y356995D01*
X397882Y357072D01*
X397968Y357147D01*
X398056Y357218D01*
X398146Y357286D01*
X398239Y357351D01*
X398334Y357413D01*
X398431Y357471D01*
X398530Y357526D01*
X398631Y357577D01*
X398734Y357625D01*
X398838Y357670D01*
X398944Y357710D01*
X399051Y357747D01*
X399159Y357780D01*
X399269Y357810D01*
X399379Y357835D01*
X399490Y357857D01*
X399602Y357874D01*
X399715Y357888D01*
X399828Y357898D01*
X399941Y357904D01*
X400054Y357906D01*
X400167Y357904D01*
X400280Y357898D01*
X400393Y357888D01*
X400506Y357874D01*
X400618Y357857D01*
X400729Y357835D01*
X400839Y357810D01*
X400949Y357780D01*
X401057Y357747D01*
X401164Y357710D01*
X401270Y357670D01*
X401374Y357625D01*
X401477Y357577D01*
X401578Y357526D01*
X401677Y357471D01*
X401774Y357413D01*
X401869Y357351D01*
X401962Y357286D01*
X402052Y357218D01*
X402140Y357147D01*
X402226Y357072D01*
X402309Y356995D01*
X402389Y356915D01*
X402466Y356832D01*
X402541Y356746D01*
X402612Y356658D01*
X402680Y356568D01*
X402745Y356475D01*
X402807Y356380D01*
X402865Y356283D01*
X402920Y356184D01*
X402971Y356083D01*
X403019Y355980D01*
X403064Y355876D01*
X403104Y355770D01*
X403141Y355663D01*
X403174Y355555D01*
X403204Y355445D01*
X403229Y355335D01*
X403251Y355224D01*
X403268Y355112D01*
X403282Y354999D01*
X403292Y354886D01*
X403298Y354773D01*
X403300Y354660D01*
X403299Y354660D02*
X403299Y351415D01*
X408492Y363254D02*
X396808Y363254D01*
X408492Y361956D02*
X408492Y364552D01*
X396808Y364552D02*
X396808Y361956D01*
X30508Y385508D02*
X30508Y397192D01*
X30508Y385508D02*
X35701Y385508D01*
X40010Y388754D02*
X40010Y393946D01*
X40012Y394059D01*
X40018Y394172D01*
X40028Y394285D01*
X40042Y394398D01*
X40059Y394510D01*
X40081Y394621D01*
X40106Y394731D01*
X40136Y394841D01*
X40169Y394949D01*
X40206Y395056D01*
X40246Y395162D01*
X40291Y395266D01*
X40339Y395369D01*
X40390Y395470D01*
X40445Y395569D01*
X40503Y395666D01*
X40565Y395761D01*
X40630Y395854D01*
X40698Y395944D01*
X40769Y396032D01*
X40844Y396118D01*
X40921Y396201D01*
X41001Y396281D01*
X41084Y396358D01*
X41170Y396433D01*
X41258Y396504D01*
X41348Y396572D01*
X41441Y396637D01*
X41536Y396699D01*
X41633Y396757D01*
X41732Y396812D01*
X41833Y396863D01*
X41936Y396911D01*
X42040Y396956D01*
X42146Y396996D01*
X42253Y397033D01*
X42361Y397066D01*
X42471Y397096D01*
X42581Y397121D01*
X42692Y397143D01*
X42804Y397160D01*
X42917Y397174D01*
X43030Y397184D01*
X43143Y397190D01*
X43256Y397192D01*
X43369Y397190D01*
X43482Y397184D01*
X43595Y397174D01*
X43708Y397160D01*
X43820Y397143D01*
X43931Y397121D01*
X44041Y397096D01*
X44151Y397066D01*
X44259Y397033D01*
X44366Y396996D01*
X44472Y396956D01*
X44576Y396911D01*
X44679Y396863D01*
X44780Y396812D01*
X44879Y396757D01*
X44976Y396699D01*
X45071Y396637D01*
X45164Y396572D01*
X45254Y396504D01*
X45342Y396433D01*
X45428Y396358D01*
X45511Y396281D01*
X45591Y396201D01*
X45668Y396118D01*
X45743Y396032D01*
X45814Y395944D01*
X45882Y395854D01*
X45947Y395761D01*
X46009Y395666D01*
X46067Y395569D01*
X46122Y395470D01*
X46173Y395369D01*
X46221Y395266D01*
X46266Y395162D01*
X46306Y395056D01*
X46343Y394949D01*
X46376Y394841D01*
X46406Y394731D01*
X46431Y394621D01*
X46453Y394510D01*
X46470Y394398D01*
X46484Y394285D01*
X46494Y394172D01*
X46500Y394059D01*
X46502Y393946D01*
X46502Y388754D01*
X46500Y388641D01*
X46494Y388528D01*
X46484Y388415D01*
X46470Y388302D01*
X46453Y388190D01*
X46431Y388079D01*
X46406Y387969D01*
X46376Y387859D01*
X46343Y387751D01*
X46306Y387644D01*
X46266Y387538D01*
X46221Y387434D01*
X46173Y387331D01*
X46122Y387230D01*
X46067Y387131D01*
X46009Y387034D01*
X45947Y386939D01*
X45882Y386846D01*
X45814Y386756D01*
X45743Y386668D01*
X45668Y386582D01*
X45591Y386499D01*
X45511Y386419D01*
X45428Y386342D01*
X45342Y386267D01*
X45254Y386196D01*
X45164Y386128D01*
X45071Y386063D01*
X44976Y386001D01*
X44879Y385943D01*
X44780Y385888D01*
X44679Y385837D01*
X44576Y385789D01*
X44472Y385744D01*
X44366Y385704D01*
X44259Y385667D01*
X44151Y385634D01*
X44041Y385604D01*
X43931Y385579D01*
X43820Y385557D01*
X43708Y385540D01*
X43595Y385526D01*
X43482Y385516D01*
X43369Y385510D01*
X43256Y385508D01*
X43143Y385510D01*
X43030Y385516D01*
X42917Y385526D01*
X42804Y385540D01*
X42692Y385557D01*
X42581Y385579D01*
X42471Y385604D01*
X42361Y385634D01*
X42253Y385667D01*
X42146Y385704D01*
X42040Y385744D01*
X41936Y385789D01*
X41833Y385837D01*
X41732Y385888D01*
X41633Y385943D01*
X41536Y386001D01*
X41441Y386063D01*
X41348Y386128D01*
X41258Y386196D01*
X41170Y386267D01*
X41084Y386342D01*
X41001Y386419D01*
X40921Y386499D01*
X40844Y386582D01*
X40769Y386668D01*
X40698Y386756D01*
X40630Y386846D01*
X40565Y386939D01*
X40503Y387034D01*
X40445Y387131D01*
X40390Y387230D01*
X40339Y387331D01*
X40291Y387434D01*
X40246Y387538D01*
X40206Y387644D01*
X40169Y387751D01*
X40136Y387859D01*
X40106Y387969D01*
X40081Y388079D01*
X40059Y388190D01*
X40042Y388302D01*
X40028Y388415D01*
X40018Y388528D01*
X40012Y388641D01*
X40010Y388754D01*
X51895Y385508D02*
X51895Y397192D01*
X55141Y397192D01*
X55254Y397190D01*
X55367Y397184D01*
X55480Y397174D01*
X55593Y397160D01*
X55705Y397143D01*
X55816Y397121D01*
X55926Y397096D01*
X56036Y397066D01*
X56144Y397033D01*
X56251Y396996D01*
X56357Y396956D01*
X56461Y396911D01*
X56564Y396863D01*
X56665Y396812D01*
X56764Y396757D01*
X56861Y396699D01*
X56956Y396637D01*
X57049Y396572D01*
X57139Y396504D01*
X57227Y396433D01*
X57313Y396358D01*
X57396Y396281D01*
X57476Y396201D01*
X57553Y396118D01*
X57628Y396032D01*
X57699Y395944D01*
X57767Y395854D01*
X57832Y395761D01*
X57894Y395666D01*
X57952Y395569D01*
X58007Y395470D01*
X58058Y395369D01*
X58106Y395266D01*
X58151Y395162D01*
X58191Y395056D01*
X58228Y394949D01*
X58261Y394841D01*
X58291Y394731D01*
X58316Y394621D01*
X58338Y394510D01*
X58355Y394398D01*
X58369Y394285D01*
X58379Y394172D01*
X58385Y394059D01*
X58387Y393946D01*
X58385Y393833D01*
X58379Y393720D01*
X58369Y393607D01*
X58355Y393494D01*
X58338Y393382D01*
X58316Y393271D01*
X58291Y393161D01*
X58261Y393051D01*
X58228Y392943D01*
X58191Y392836D01*
X58151Y392730D01*
X58106Y392626D01*
X58058Y392523D01*
X58007Y392422D01*
X57952Y392323D01*
X57894Y392226D01*
X57832Y392131D01*
X57767Y392038D01*
X57699Y391948D01*
X57628Y391860D01*
X57553Y391774D01*
X57476Y391691D01*
X57396Y391611D01*
X57313Y391534D01*
X57227Y391459D01*
X57139Y391388D01*
X57049Y391320D01*
X56956Y391255D01*
X56861Y391193D01*
X56764Y391135D01*
X56665Y391080D01*
X56564Y391029D01*
X56461Y390981D01*
X56357Y390936D01*
X56251Y390896D01*
X56144Y390859D01*
X56036Y390826D01*
X55926Y390796D01*
X55816Y390771D01*
X55705Y390749D01*
X55593Y390732D01*
X55480Y390718D01*
X55367Y390708D01*
X55254Y390702D01*
X55141Y390700D01*
X55141Y390701D02*
X51895Y390701D01*
X55790Y390701D02*
X58386Y385508D01*
X62602Y385508D02*
X66497Y397192D01*
X70392Y385508D01*
X69418Y388429D02*
X63576Y388429D01*
X74681Y394596D02*
X77927Y397192D01*
X77927Y385508D01*
X81172Y385508D02*
X74681Y385508D01*
X220508Y385508D02*
X220508Y397192D01*
X220508Y385508D02*
X225701Y385508D01*
X230010Y388754D02*
X230010Y393946D01*
X230012Y394059D01*
X230018Y394172D01*
X230028Y394285D01*
X230042Y394398D01*
X230059Y394510D01*
X230081Y394621D01*
X230106Y394731D01*
X230136Y394841D01*
X230169Y394949D01*
X230206Y395056D01*
X230246Y395162D01*
X230291Y395266D01*
X230339Y395369D01*
X230390Y395470D01*
X230445Y395569D01*
X230503Y395666D01*
X230565Y395761D01*
X230630Y395854D01*
X230698Y395944D01*
X230769Y396032D01*
X230844Y396118D01*
X230921Y396201D01*
X231001Y396281D01*
X231084Y396358D01*
X231170Y396433D01*
X231258Y396504D01*
X231348Y396572D01*
X231441Y396637D01*
X231536Y396699D01*
X231633Y396757D01*
X231732Y396812D01*
X231833Y396863D01*
X231936Y396911D01*
X232040Y396956D01*
X232146Y396996D01*
X232253Y397033D01*
X232361Y397066D01*
X232471Y397096D01*
X232581Y397121D01*
X232692Y397143D01*
X232804Y397160D01*
X232917Y397174D01*
X233030Y397184D01*
X233143Y397190D01*
X233256Y397192D01*
X233369Y397190D01*
X233482Y397184D01*
X233595Y397174D01*
X233708Y397160D01*
X233820Y397143D01*
X233931Y397121D01*
X234041Y397096D01*
X234151Y397066D01*
X234259Y397033D01*
X234366Y396996D01*
X234472Y396956D01*
X234576Y396911D01*
X234679Y396863D01*
X234780Y396812D01*
X234879Y396757D01*
X234976Y396699D01*
X235071Y396637D01*
X235164Y396572D01*
X235254Y396504D01*
X235342Y396433D01*
X235428Y396358D01*
X235511Y396281D01*
X235591Y396201D01*
X235668Y396118D01*
X235743Y396032D01*
X235814Y395944D01*
X235882Y395854D01*
X235947Y395761D01*
X236009Y395666D01*
X236067Y395569D01*
X236122Y395470D01*
X236173Y395369D01*
X236221Y395266D01*
X236266Y395162D01*
X236306Y395056D01*
X236343Y394949D01*
X236376Y394841D01*
X236406Y394731D01*
X236431Y394621D01*
X236453Y394510D01*
X236470Y394398D01*
X236484Y394285D01*
X236494Y394172D01*
X236500Y394059D01*
X236502Y393946D01*
X236502Y388754D01*
X236500Y388641D01*
X236494Y388528D01*
X236484Y388415D01*
X236470Y388302D01*
X236453Y388190D01*
X236431Y388079D01*
X236406Y387969D01*
X236376Y387859D01*
X236343Y387751D01*
X236306Y387644D01*
X236266Y387538D01*
X236221Y387434D01*
X236173Y387331D01*
X236122Y387230D01*
X236067Y387131D01*
X236009Y387034D01*
X235947Y386939D01*
X235882Y386846D01*
X235814Y386756D01*
X235743Y386668D01*
X235668Y386582D01*
X235591Y386499D01*
X235511Y386419D01*
X235428Y386342D01*
X235342Y386267D01*
X235254Y386196D01*
X235164Y386128D01*
X235071Y386063D01*
X234976Y386001D01*
X234879Y385943D01*
X234780Y385888D01*
X234679Y385837D01*
X234576Y385789D01*
X234472Y385744D01*
X234366Y385704D01*
X234259Y385667D01*
X234151Y385634D01*
X234041Y385604D01*
X233931Y385579D01*
X233820Y385557D01*
X233708Y385540D01*
X233595Y385526D01*
X233482Y385516D01*
X233369Y385510D01*
X233256Y385508D01*
X233143Y385510D01*
X233030Y385516D01*
X232917Y385526D01*
X232804Y385540D01*
X232692Y385557D01*
X232581Y385579D01*
X232471Y385604D01*
X232361Y385634D01*
X232253Y385667D01*
X232146Y385704D01*
X232040Y385744D01*
X231936Y385789D01*
X231833Y385837D01*
X231732Y385888D01*
X231633Y385943D01*
X231536Y386001D01*
X231441Y386063D01*
X231348Y386128D01*
X231258Y386196D01*
X231170Y386267D01*
X231084Y386342D01*
X231001Y386419D01*
X230921Y386499D01*
X230844Y386582D01*
X230769Y386668D01*
X230698Y386756D01*
X230630Y386846D01*
X230565Y386939D01*
X230503Y387034D01*
X230445Y387131D01*
X230390Y387230D01*
X230339Y387331D01*
X230291Y387434D01*
X230246Y387538D01*
X230206Y387644D01*
X230169Y387751D01*
X230136Y387859D01*
X230106Y387969D01*
X230081Y388079D01*
X230059Y388190D01*
X230042Y388302D01*
X230028Y388415D01*
X230018Y388528D01*
X230012Y388641D01*
X230010Y388754D01*
X241895Y385508D02*
X241895Y397192D01*
X245141Y397192D01*
X245254Y397190D01*
X245367Y397184D01*
X245480Y397174D01*
X245593Y397160D01*
X245705Y397143D01*
X245816Y397121D01*
X245926Y397096D01*
X246036Y397066D01*
X246144Y397033D01*
X246251Y396996D01*
X246357Y396956D01*
X246461Y396911D01*
X246564Y396863D01*
X246665Y396812D01*
X246764Y396757D01*
X246861Y396699D01*
X246956Y396637D01*
X247049Y396572D01*
X247139Y396504D01*
X247227Y396433D01*
X247313Y396358D01*
X247396Y396281D01*
X247476Y396201D01*
X247553Y396118D01*
X247628Y396032D01*
X247699Y395944D01*
X247767Y395854D01*
X247832Y395761D01*
X247894Y395666D01*
X247952Y395569D01*
X248007Y395470D01*
X248058Y395369D01*
X248106Y395266D01*
X248151Y395162D01*
X248191Y395056D01*
X248228Y394949D01*
X248261Y394841D01*
X248291Y394731D01*
X248316Y394621D01*
X248338Y394510D01*
X248355Y394398D01*
X248369Y394285D01*
X248379Y394172D01*
X248385Y394059D01*
X248387Y393946D01*
X248385Y393833D01*
X248379Y393720D01*
X248369Y393607D01*
X248355Y393494D01*
X248338Y393382D01*
X248316Y393271D01*
X248291Y393161D01*
X248261Y393051D01*
X248228Y392943D01*
X248191Y392836D01*
X248151Y392730D01*
X248106Y392626D01*
X248058Y392523D01*
X248007Y392422D01*
X247952Y392323D01*
X247894Y392226D01*
X247832Y392131D01*
X247767Y392038D01*
X247699Y391948D01*
X247628Y391860D01*
X247553Y391774D01*
X247476Y391691D01*
X247396Y391611D01*
X247313Y391534D01*
X247227Y391459D01*
X247139Y391388D01*
X247049Y391320D01*
X246956Y391255D01*
X246861Y391193D01*
X246764Y391135D01*
X246665Y391080D01*
X246564Y391029D01*
X246461Y390981D01*
X246357Y390936D01*
X246251Y390896D01*
X246144Y390859D01*
X246036Y390826D01*
X245926Y390796D01*
X245816Y390771D01*
X245705Y390749D01*
X245593Y390732D01*
X245480Y390718D01*
X245367Y390708D01*
X245254Y390702D01*
X245141Y390700D01*
X245141Y390701D02*
X241895Y390701D01*
X245790Y390701D02*
X248386Y385508D01*
X252602Y385508D02*
X256497Y397192D01*
X260392Y385508D01*
X259418Y388429D02*
X253576Y388429D01*
X268251Y397192D02*
X268358Y397190D01*
X268464Y397184D01*
X268570Y397174D01*
X268676Y397161D01*
X268782Y397143D01*
X268886Y397122D01*
X268990Y397097D01*
X269093Y397068D01*
X269194Y397036D01*
X269294Y396999D01*
X269393Y396959D01*
X269491Y396916D01*
X269587Y396869D01*
X269681Y396818D01*
X269773Y396764D01*
X269863Y396707D01*
X269951Y396647D01*
X270036Y396583D01*
X270119Y396516D01*
X270200Y396446D01*
X270278Y396374D01*
X270354Y396298D01*
X270426Y396220D01*
X270496Y396139D01*
X270563Y396056D01*
X270627Y395971D01*
X270687Y395883D01*
X270744Y395793D01*
X270798Y395701D01*
X270849Y395607D01*
X270896Y395511D01*
X270939Y395413D01*
X270979Y395314D01*
X271016Y395214D01*
X271048Y395113D01*
X271077Y395010D01*
X271102Y394906D01*
X271123Y394802D01*
X271141Y394696D01*
X271154Y394590D01*
X271164Y394484D01*
X271170Y394378D01*
X271172Y394271D01*
X268251Y397192D02*
X268130Y397190D01*
X268009Y397184D01*
X267889Y397174D01*
X267768Y397161D01*
X267649Y397143D01*
X267529Y397122D01*
X267411Y397097D01*
X267294Y397068D01*
X267177Y397035D01*
X267062Y396999D01*
X266948Y396958D01*
X266835Y396915D01*
X266723Y396867D01*
X266614Y396816D01*
X266506Y396761D01*
X266399Y396703D01*
X266295Y396642D01*
X266193Y396577D01*
X266093Y396509D01*
X265995Y396438D01*
X265899Y396364D01*
X265806Y396287D01*
X265716Y396206D01*
X265628Y396123D01*
X265543Y396037D01*
X265460Y395948D01*
X265381Y395857D01*
X265304Y395763D01*
X265231Y395667D01*
X265161Y395569D01*
X265094Y395468D01*
X265030Y395365D01*
X264970Y395260D01*
X264913Y395153D01*
X264859Y395045D01*
X264809Y394935D01*
X264763Y394823D01*
X264720Y394710D01*
X264681Y394595D01*
X270199Y391999D02*
X270278Y392076D01*
X270354Y392157D01*
X270427Y392240D01*
X270497Y392325D01*
X270564Y392413D01*
X270628Y392503D01*
X270688Y392595D01*
X270745Y392690D01*
X270799Y392786D01*
X270850Y392884D01*
X270897Y392984D01*
X270941Y393086D01*
X270981Y393189D01*
X271017Y393293D01*
X271049Y393399D01*
X271078Y393505D01*
X271103Y393613D01*
X271125Y393721D01*
X271142Y393831D01*
X271156Y393940D01*
X271165Y394050D01*
X271171Y394161D01*
X271173Y394271D01*
X270199Y391999D02*
X264681Y385508D01*
X271172Y385508D01*
X48999Y77104D02*
X48997Y77005D01*
X48991Y76905D01*
X48982Y76806D01*
X48969Y76708D01*
X48952Y76610D01*
X48931Y76512D01*
X48906Y76416D01*
X48878Y76321D01*
X48846Y76227D01*
X48811Y76134D01*
X48772Y76042D01*
X48729Y75952D01*
X48684Y75864D01*
X48634Y75777D01*
X48582Y75693D01*
X48526Y75610D01*
X48468Y75530D01*
X48406Y75452D01*
X48341Y75377D01*
X48273Y75304D01*
X48203Y75234D01*
X48130Y75166D01*
X48055Y75101D01*
X47977Y75039D01*
X47897Y74981D01*
X47814Y74925D01*
X47730Y74873D01*
X47643Y74823D01*
X47555Y74778D01*
X47465Y74735D01*
X47373Y74696D01*
X47280Y74661D01*
X47186Y74629D01*
X47091Y74601D01*
X46995Y74576D01*
X46897Y74555D01*
X46799Y74538D01*
X46701Y74525D01*
X46602Y74516D01*
X46502Y74510D01*
X46403Y74508D01*
X46259Y74510D01*
X46114Y74516D01*
X45970Y74525D01*
X45827Y74538D01*
X45683Y74555D01*
X45540Y74576D01*
X45398Y74601D01*
X45257Y74629D01*
X45116Y74661D01*
X44976Y74697D01*
X44837Y74736D01*
X44699Y74779D01*
X44563Y74826D01*
X44427Y74876D01*
X44293Y74930D01*
X44161Y74987D01*
X44030Y75048D01*
X43901Y75112D01*
X43773Y75180D01*
X43647Y75250D01*
X43523Y75325D01*
X43402Y75402D01*
X43282Y75483D01*
X43164Y75566D01*
X43049Y75653D01*
X42936Y75743D01*
X42825Y75836D01*
X42717Y75931D01*
X42611Y76030D01*
X42508Y76131D01*
X42833Y83596D02*
X42835Y83695D01*
X42841Y83795D01*
X42850Y83894D01*
X42863Y83992D01*
X42880Y84090D01*
X42901Y84188D01*
X42926Y84284D01*
X42954Y84379D01*
X42986Y84473D01*
X43021Y84566D01*
X43060Y84658D01*
X43103Y84748D01*
X43148Y84836D01*
X43198Y84923D01*
X43250Y85007D01*
X43306Y85090D01*
X43364Y85170D01*
X43426Y85248D01*
X43491Y85323D01*
X43559Y85396D01*
X43629Y85466D01*
X43702Y85534D01*
X43777Y85599D01*
X43855Y85661D01*
X43935Y85719D01*
X44018Y85775D01*
X44102Y85827D01*
X44189Y85877D01*
X44277Y85922D01*
X44367Y85965D01*
X44459Y86004D01*
X44552Y86039D01*
X44646Y86071D01*
X44741Y86099D01*
X44838Y86124D01*
X44935Y86145D01*
X45033Y86162D01*
X45131Y86175D01*
X45230Y86184D01*
X45330Y86190D01*
X45429Y86192D01*
X45565Y86190D01*
X45701Y86184D01*
X45837Y86175D01*
X45973Y86162D01*
X46108Y86144D01*
X46242Y86124D01*
X46376Y86099D01*
X46510Y86071D01*
X46642Y86038D01*
X46773Y86003D01*
X46904Y85963D01*
X47033Y85920D01*
X47161Y85874D01*
X47287Y85823D01*
X47413Y85770D01*
X47536Y85712D01*
X47658Y85652D01*
X47778Y85588D01*
X47897Y85520D01*
X48013Y85450D01*
X48127Y85376D01*
X48240Y85299D01*
X48350Y85218D01*
X44131Y81324D02*
X44045Y81377D01*
X43961Y81434D01*
X43879Y81493D01*
X43799Y81556D01*
X43722Y81622D01*
X43647Y81690D01*
X43575Y81762D01*
X43506Y81836D01*
X43440Y81913D01*
X43377Y81992D01*
X43317Y82074D01*
X43260Y82158D01*
X43206Y82244D01*
X43156Y82332D01*
X43109Y82422D01*
X43065Y82513D01*
X43026Y82607D01*
X42989Y82701D01*
X42957Y82797D01*
X42928Y82895D01*
X42903Y82993D01*
X42882Y83092D01*
X42864Y83192D01*
X42851Y83292D01*
X42841Y83393D01*
X42835Y83495D01*
X42833Y83596D01*
X47701Y79376D02*
X47787Y79323D01*
X47871Y79266D01*
X47953Y79207D01*
X48033Y79144D01*
X48110Y79078D01*
X48185Y79010D01*
X48257Y78938D01*
X48326Y78864D01*
X48392Y78787D01*
X48455Y78708D01*
X48515Y78626D01*
X48572Y78542D01*
X48626Y78456D01*
X48676Y78368D01*
X48723Y78278D01*
X48767Y78187D01*
X48806Y78093D01*
X48843Y77999D01*
X48875Y77903D01*
X48904Y77805D01*
X48929Y77707D01*
X48950Y77608D01*
X48968Y77508D01*
X48981Y77408D01*
X48991Y77307D01*
X48997Y77205D01*
X48999Y77104D01*
X47701Y79376D02*
X44131Y81324D01*
X53134Y86192D02*
X55730Y74508D01*
X58327Y82297D01*
X60923Y74508D01*
X63519Y86192D01*
X70598Y74508D02*
X73195Y74508D01*
X70598Y74508D02*
X70499Y74510D01*
X70399Y74516D01*
X70300Y74525D01*
X70202Y74538D01*
X70104Y74555D01*
X70006Y74576D01*
X69910Y74601D01*
X69815Y74629D01*
X69721Y74661D01*
X69628Y74696D01*
X69536Y74735D01*
X69446Y74778D01*
X69358Y74823D01*
X69271Y74873D01*
X69187Y74925D01*
X69104Y74981D01*
X69024Y75039D01*
X68946Y75101D01*
X68871Y75166D01*
X68798Y75234D01*
X68728Y75304D01*
X68660Y75377D01*
X68595Y75452D01*
X68533Y75530D01*
X68475Y75610D01*
X68419Y75693D01*
X68367Y75777D01*
X68317Y75864D01*
X68272Y75952D01*
X68229Y76042D01*
X68190Y76134D01*
X68155Y76227D01*
X68123Y76321D01*
X68095Y76416D01*
X68070Y76512D01*
X68049Y76610D01*
X68032Y76708D01*
X68019Y76806D01*
X68010Y76905D01*
X68004Y77005D01*
X68002Y77104D01*
X68002Y83596D01*
X68004Y83695D01*
X68010Y83795D01*
X68019Y83894D01*
X68032Y83992D01*
X68049Y84090D01*
X68070Y84188D01*
X68095Y84284D01*
X68123Y84379D01*
X68155Y84473D01*
X68190Y84566D01*
X68229Y84658D01*
X68272Y84748D01*
X68317Y84836D01*
X68367Y84923D01*
X68419Y85007D01*
X68475Y85090D01*
X68533Y85170D01*
X68595Y85248D01*
X68660Y85323D01*
X68728Y85396D01*
X68798Y85466D01*
X68871Y85534D01*
X68946Y85599D01*
X69024Y85661D01*
X69104Y85719D01*
X69187Y85775D01*
X69271Y85827D01*
X69358Y85877D01*
X69446Y85922D01*
X69536Y85965D01*
X69628Y86004D01*
X69720Y86039D01*
X69815Y86071D01*
X69910Y86099D01*
X70006Y86124D01*
X70104Y86145D01*
X70202Y86162D01*
X70300Y86175D01*
X70399Y86184D01*
X70499Y86190D01*
X70598Y86192D01*
X73195Y86192D01*
X77964Y86192D02*
X77964Y74508D01*
X83156Y74508D01*
X88016Y74508D02*
X88016Y86192D01*
X94507Y86192D02*
X88016Y79052D01*
X90613Y81648D02*
X94507Y74508D01*
X48999Y51104D02*
X48997Y51005D01*
X48991Y50905D01*
X48982Y50806D01*
X48969Y50708D01*
X48952Y50610D01*
X48931Y50512D01*
X48906Y50416D01*
X48878Y50321D01*
X48846Y50227D01*
X48811Y50134D01*
X48772Y50042D01*
X48729Y49952D01*
X48684Y49864D01*
X48634Y49777D01*
X48582Y49693D01*
X48526Y49610D01*
X48468Y49530D01*
X48406Y49452D01*
X48341Y49377D01*
X48273Y49304D01*
X48203Y49234D01*
X48130Y49166D01*
X48055Y49101D01*
X47977Y49039D01*
X47897Y48981D01*
X47814Y48925D01*
X47730Y48873D01*
X47643Y48823D01*
X47555Y48778D01*
X47465Y48735D01*
X47373Y48696D01*
X47280Y48661D01*
X47186Y48629D01*
X47091Y48601D01*
X46995Y48576D01*
X46897Y48555D01*
X46799Y48538D01*
X46701Y48525D01*
X46602Y48516D01*
X46502Y48510D01*
X46403Y48508D01*
X46259Y48510D01*
X46114Y48516D01*
X45970Y48525D01*
X45827Y48538D01*
X45683Y48555D01*
X45540Y48576D01*
X45398Y48601D01*
X45257Y48629D01*
X45116Y48661D01*
X44976Y48697D01*
X44837Y48736D01*
X44699Y48779D01*
X44563Y48826D01*
X44427Y48876D01*
X44293Y48930D01*
X44161Y48987D01*
X44030Y49048D01*
X43901Y49112D01*
X43773Y49180D01*
X43647Y49250D01*
X43523Y49325D01*
X43402Y49402D01*
X43282Y49483D01*
X43164Y49566D01*
X43049Y49653D01*
X42936Y49743D01*
X42825Y49836D01*
X42717Y49931D01*
X42611Y50030D01*
X42508Y50131D01*
X42833Y57596D02*
X42835Y57695D01*
X42841Y57795D01*
X42850Y57894D01*
X42863Y57992D01*
X42880Y58090D01*
X42901Y58188D01*
X42926Y58284D01*
X42954Y58379D01*
X42986Y58473D01*
X43021Y58566D01*
X43060Y58658D01*
X43103Y58748D01*
X43148Y58836D01*
X43198Y58923D01*
X43250Y59007D01*
X43306Y59090D01*
X43364Y59170D01*
X43426Y59248D01*
X43491Y59323D01*
X43559Y59396D01*
X43629Y59466D01*
X43702Y59534D01*
X43777Y59599D01*
X43855Y59661D01*
X43935Y59719D01*
X44018Y59775D01*
X44102Y59827D01*
X44189Y59877D01*
X44277Y59922D01*
X44367Y59965D01*
X44459Y60004D01*
X44552Y60039D01*
X44646Y60071D01*
X44741Y60099D01*
X44838Y60124D01*
X44935Y60145D01*
X45033Y60162D01*
X45131Y60175D01*
X45230Y60184D01*
X45330Y60190D01*
X45429Y60192D01*
X45565Y60190D01*
X45701Y60184D01*
X45837Y60175D01*
X45973Y60162D01*
X46108Y60144D01*
X46242Y60124D01*
X46376Y60099D01*
X46510Y60071D01*
X46642Y60038D01*
X46773Y60003D01*
X46904Y59963D01*
X47033Y59920D01*
X47161Y59874D01*
X47287Y59823D01*
X47413Y59770D01*
X47536Y59712D01*
X47658Y59652D01*
X47778Y59588D01*
X47897Y59520D01*
X48013Y59450D01*
X48127Y59376D01*
X48240Y59299D01*
X48350Y59218D01*
X44131Y55324D02*
X44045Y55377D01*
X43961Y55434D01*
X43879Y55493D01*
X43799Y55556D01*
X43722Y55622D01*
X43647Y55690D01*
X43575Y55762D01*
X43506Y55836D01*
X43440Y55913D01*
X43377Y55992D01*
X43317Y56074D01*
X43260Y56158D01*
X43206Y56244D01*
X43156Y56332D01*
X43109Y56422D01*
X43065Y56513D01*
X43026Y56607D01*
X42989Y56701D01*
X42957Y56797D01*
X42928Y56895D01*
X42903Y56993D01*
X42882Y57092D01*
X42864Y57192D01*
X42851Y57292D01*
X42841Y57393D01*
X42835Y57495D01*
X42833Y57596D01*
X47701Y53376D02*
X47787Y53323D01*
X47871Y53266D01*
X47953Y53207D01*
X48033Y53144D01*
X48110Y53078D01*
X48185Y53010D01*
X48257Y52938D01*
X48326Y52864D01*
X48392Y52787D01*
X48455Y52708D01*
X48515Y52626D01*
X48572Y52542D01*
X48626Y52456D01*
X48676Y52368D01*
X48723Y52278D01*
X48767Y52187D01*
X48806Y52093D01*
X48843Y51999D01*
X48875Y51903D01*
X48904Y51805D01*
X48929Y51707D01*
X48950Y51608D01*
X48968Y51508D01*
X48981Y51408D01*
X48991Y51307D01*
X48997Y51205D01*
X48999Y51104D01*
X47701Y53376D02*
X44131Y55324D01*
X53134Y60192D02*
X55730Y48508D01*
X58327Y56297D01*
X60923Y48508D01*
X63519Y60192D01*
X68416Y60192D02*
X68416Y48508D01*
X68416Y60192D02*
X71662Y60192D01*
X71775Y60190D01*
X71888Y60184D01*
X72001Y60174D01*
X72114Y60160D01*
X72226Y60143D01*
X72337Y60121D01*
X72447Y60096D01*
X72557Y60066D01*
X72665Y60033D01*
X72772Y59996D01*
X72878Y59956D01*
X72982Y59911D01*
X73085Y59863D01*
X73186Y59812D01*
X73285Y59757D01*
X73382Y59699D01*
X73477Y59637D01*
X73570Y59572D01*
X73660Y59504D01*
X73748Y59433D01*
X73834Y59358D01*
X73917Y59281D01*
X73997Y59201D01*
X74074Y59118D01*
X74149Y59032D01*
X74220Y58944D01*
X74288Y58854D01*
X74353Y58761D01*
X74415Y58666D01*
X74473Y58569D01*
X74528Y58470D01*
X74579Y58369D01*
X74627Y58266D01*
X74672Y58162D01*
X74712Y58056D01*
X74749Y57949D01*
X74782Y57841D01*
X74812Y57731D01*
X74837Y57621D01*
X74859Y57510D01*
X74876Y57398D01*
X74890Y57285D01*
X74900Y57172D01*
X74906Y57059D01*
X74908Y56946D01*
X74907Y56946D02*
X74907Y51754D01*
X74908Y51754D02*
X74906Y51641D01*
X74900Y51528D01*
X74890Y51415D01*
X74876Y51302D01*
X74859Y51190D01*
X74837Y51079D01*
X74812Y50969D01*
X74782Y50859D01*
X74749Y50751D01*
X74712Y50644D01*
X74672Y50538D01*
X74627Y50434D01*
X74579Y50331D01*
X74528Y50230D01*
X74473Y50131D01*
X74415Y50034D01*
X74353Y49939D01*
X74288Y49846D01*
X74220Y49756D01*
X74149Y49668D01*
X74074Y49582D01*
X73997Y49499D01*
X73917Y49419D01*
X73834Y49342D01*
X73748Y49267D01*
X73660Y49196D01*
X73570Y49128D01*
X73477Y49063D01*
X73382Y49001D01*
X73285Y48943D01*
X73186Y48888D01*
X73085Y48837D01*
X72982Y48789D01*
X72878Y48744D01*
X72772Y48704D01*
X72665Y48667D01*
X72557Y48634D01*
X72447Y48604D01*
X72337Y48579D01*
X72226Y48557D01*
X72114Y48540D01*
X72001Y48526D01*
X71888Y48516D01*
X71775Y48510D01*
X71662Y48508D01*
X68416Y48508D01*
X81187Y48508D02*
X81187Y60192D01*
X79888Y48508D02*
X82485Y48508D01*
X82485Y60192D02*
X79888Y60192D01*
X87085Y56946D02*
X87085Y51754D01*
X87084Y56946D02*
X87086Y57059D01*
X87092Y57172D01*
X87102Y57285D01*
X87116Y57398D01*
X87133Y57510D01*
X87155Y57621D01*
X87180Y57731D01*
X87210Y57841D01*
X87243Y57949D01*
X87280Y58056D01*
X87320Y58162D01*
X87365Y58266D01*
X87413Y58369D01*
X87464Y58470D01*
X87519Y58569D01*
X87577Y58666D01*
X87639Y58761D01*
X87704Y58854D01*
X87772Y58944D01*
X87843Y59032D01*
X87918Y59118D01*
X87995Y59201D01*
X88075Y59281D01*
X88158Y59358D01*
X88244Y59433D01*
X88332Y59504D01*
X88422Y59572D01*
X88515Y59637D01*
X88610Y59699D01*
X88707Y59757D01*
X88806Y59812D01*
X88907Y59863D01*
X89010Y59911D01*
X89114Y59956D01*
X89220Y59996D01*
X89327Y60033D01*
X89435Y60066D01*
X89545Y60096D01*
X89655Y60121D01*
X89766Y60143D01*
X89878Y60160D01*
X89991Y60174D01*
X90104Y60184D01*
X90217Y60190D01*
X90330Y60192D01*
X90443Y60190D01*
X90556Y60184D01*
X90669Y60174D01*
X90782Y60160D01*
X90894Y60143D01*
X91005Y60121D01*
X91115Y60096D01*
X91225Y60066D01*
X91333Y60033D01*
X91440Y59996D01*
X91546Y59956D01*
X91650Y59911D01*
X91753Y59863D01*
X91854Y59812D01*
X91953Y59757D01*
X92050Y59699D01*
X92145Y59637D01*
X92238Y59572D01*
X92328Y59504D01*
X92416Y59433D01*
X92502Y59358D01*
X92585Y59281D01*
X92665Y59201D01*
X92742Y59118D01*
X92817Y59032D01*
X92888Y58944D01*
X92956Y58854D01*
X93021Y58761D01*
X93083Y58666D01*
X93141Y58569D01*
X93196Y58470D01*
X93247Y58369D01*
X93295Y58266D01*
X93340Y58162D01*
X93380Y58056D01*
X93417Y57949D01*
X93450Y57841D01*
X93480Y57731D01*
X93505Y57621D01*
X93527Y57510D01*
X93544Y57398D01*
X93558Y57285D01*
X93568Y57172D01*
X93574Y57059D01*
X93576Y56946D01*
X93576Y51754D01*
X93574Y51641D01*
X93568Y51528D01*
X93558Y51415D01*
X93544Y51302D01*
X93527Y51190D01*
X93505Y51079D01*
X93480Y50969D01*
X93450Y50859D01*
X93417Y50751D01*
X93380Y50644D01*
X93340Y50538D01*
X93295Y50434D01*
X93247Y50331D01*
X93196Y50230D01*
X93141Y50131D01*
X93083Y50034D01*
X93021Y49939D01*
X92956Y49846D01*
X92888Y49756D01*
X92817Y49668D01*
X92742Y49582D01*
X92665Y49499D01*
X92585Y49419D01*
X92502Y49342D01*
X92416Y49267D01*
X92328Y49196D01*
X92238Y49128D01*
X92145Y49063D01*
X92050Y49001D01*
X91953Y48943D01*
X91854Y48888D01*
X91753Y48837D01*
X91650Y48789D01*
X91546Y48744D01*
X91440Y48704D01*
X91333Y48667D01*
X91225Y48634D01*
X91115Y48604D01*
X91005Y48579D01*
X90894Y48557D01*
X90782Y48540D01*
X90669Y48526D01*
X90556Y48516D01*
X90443Y48510D01*
X90330Y48508D01*
X90217Y48510D01*
X90104Y48516D01*
X89991Y48526D01*
X89878Y48540D01*
X89766Y48557D01*
X89655Y48579D01*
X89545Y48604D01*
X89435Y48634D01*
X89327Y48667D01*
X89220Y48704D01*
X89114Y48744D01*
X89010Y48789D01*
X88907Y48837D01*
X88806Y48888D01*
X88707Y48943D01*
X88610Y49001D01*
X88515Y49063D01*
X88422Y49128D01*
X88332Y49196D01*
X88244Y49267D01*
X88158Y49342D01*
X88075Y49419D01*
X87995Y49499D01*
X87918Y49582D01*
X87843Y49668D01*
X87772Y49756D01*
X87704Y49846D01*
X87639Y49939D01*
X87577Y50034D01*
X87519Y50131D01*
X87464Y50230D01*
X87413Y50331D01*
X87365Y50434D01*
X87320Y50538D01*
X87280Y50644D01*
X87243Y50751D01*
X87210Y50859D01*
X87180Y50969D01*
X87155Y51079D01*
X87133Y51190D01*
X87116Y51302D01*
X87102Y51415D01*
X87092Y51528D01*
X87086Y51641D01*
X87084Y51754D01*
X48999Y29999D02*
X47052Y29999D01*
X48999Y29999D02*
X48999Y23508D01*
X45104Y23508D01*
X45005Y23510D01*
X44905Y23516D01*
X44806Y23525D01*
X44708Y23538D01*
X44610Y23555D01*
X44512Y23576D01*
X44416Y23601D01*
X44321Y23629D01*
X44227Y23661D01*
X44134Y23696D01*
X44042Y23735D01*
X43952Y23778D01*
X43864Y23823D01*
X43777Y23873D01*
X43693Y23925D01*
X43610Y23981D01*
X43530Y24039D01*
X43452Y24101D01*
X43377Y24166D01*
X43304Y24234D01*
X43234Y24304D01*
X43166Y24377D01*
X43101Y24452D01*
X43039Y24530D01*
X42981Y24610D01*
X42925Y24693D01*
X42873Y24777D01*
X42823Y24864D01*
X42778Y24952D01*
X42735Y25042D01*
X42696Y25134D01*
X42661Y25227D01*
X42629Y25321D01*
X42601Y25416D01*
X42576Y25512D01*
X42555Y25610D01*
X42538Y25708D01*
X42525Y25806D01*
X42516Y25905D01*
X42510Y26005D01*
X42508Y26104D01*
X42508Y32596D01*
X42510Y32695D01*
X42516Y32795D01*
X42525Y32894D01*
X42538Y32992D01*
X42555Y33090D01*
X42576Y33188D01*
X42601Y33284D01*
X42629Y33379D01*
X42661Y33473D01*
X42696Y33566D01*
X42735Y33658D01*
X42778Y33748D01*
X42823Y33836D01*
X42873Y33923D01*
X42925Y34007D01*
X42981Y34090D01*
X43039Y34170D01*
X43101Y34248D01*
X43166Y34323D01*
X43234Y34396D01*
X43304Y34466D01*
X43377Y34534D01*
X43452Y34599D01*
X43530Y34661D01*
X43610Y34719D01*
X43693Y34775D01*
X43777Y34827D01*
X43864Y34877D01*
X43952Y34922D01*
X44042Y34965D01*
X44134Y35004D01*
X44226Y35039D01*
X44321Y35071D01*
X44416Y35099D01*
X44512Y35124D01*
X44610Y35145D01*
X44708Y35162D01*
X44806Y35175D01*
X44905Y35184D01*
X45005Y35190D01*
X45104Y35192D01*
X48999Y35192D01*
X54700Y35192D02*
X54700Y23508D01*
X61191Y23508D02*
X54700Y35192D01*
X61191Y35192D02*
X61191Y23508D01*
X66892Y23508D02*
X66892Y35192D01*
X70137Y35192D01*
X70250Y35190D01*
X70363Y35184D01*
X70476Y35174D01*
X70589Y35160D01*
X70701Y35143D01*
X70812Y35121D01*
X70922Y35096D01*
X71032Y35066D01*
X71140Y35033D01*
X71247Y34996D01*
X71353Y34956D01*
X71457Y34911D01*
X71560Y34863D01*
X71661Y34812D01*
X71760Y34757D01*
X71857Y34699D01*
X71952Y34637D01*
X72045Y34572D01*
X72135Y34504D01*
X72223Y34433D01*
X72309Y34358D01*
X72392Y34281D01*
X72472Y34201D01*
X72549Y34118D01*
X72624Y34032D01*
X72695Y33944D01*
X72763Y33854D01*
X72828Y33761D01*
X72890Y33666D01*
X72948Y33569D01*
X73003Y33470D01*
X73054Y33369D01*
X73102Y33266D01*
X73147Y33162D01*
X73187Y33056D01*
X73224Y32949D01*
X73257Y32841D01*
X73287Y32731D01*
X73312Y32621D01*
X73334Y32510D01*
X73351Y32398D01*
X73365Y32285D01*
X73375Y32172D01*
X73381Y32059D01*
X73383Y31946D01*
X73383Y26754D01*
X73384Y26754D02*
X73382Y26641D01*
X73376Y26528D01*
X73366Y26415D01*
X73352Y26302D01*
X73335Y26190D01*
X73313Y26079D01*
X73288Y25969D01*
X73258Y25859D01*
X73225Y25751D01*
X73188Y25644D01*
X73148Y25538D01*
X73103Y25434D01*
X73055Y25331D01*
X73004Y25230D01*
X72949Y25131D01*
X72891Y25034D01*
X72829Y24939D01*
X72764Y24846D01*
X72696Y24756D01*
X72625Y24668D01*
X72550Y24582D01*
X72473Y24499D01*
X72393Y24419D01*
X72310Y24342D01*
X72224Y24267D01*
X72136Y24196D01*
X72046Y24128D01*
X71953Y24063D01*
X71858Y24001D01*
X71761Y23943D01*
X71662Y23888D01*
X71561Y23837D01*
X71458Y23789D01*
X71354Y23744D01*
X71248Y23704D01*
X71141Y23667D01*
X71033Y23634D01*
X70923Y23604D01*
X70813Y23579D01*
X70702Y23557D01*
X70590Y23540D01*
X70477Y23526D01*
X70364Y23516D01*
X70251Y23510D01*
X70138Y23508D01*
X70137Y23508D02*
X66892Y23508D01*
X189609Y141808D02*
X192206Y141808D01*
X189609Y141808D02*
X189510Y141810D01*
X189410Y141816D01*
X189311Y141825D01*
X189213Y141838D01*
X189115Y141855D01*
X189017Y141876D01*
X188921Y141901D01*
X188826Y141929D01*
X188732Y141961D01*
X188639Y141996D01*
X188547Y142035D01*
X188457Y142078D01*
X188369Y142123D01*
X188282Y142173D01*
X188198Y142225D01*
X188115Y142281D01*
X188035Y142339D01*
X187957Y142401D01*
X187882Y142466D01*
X187809Y142534D01*
X187739Y142604D01*
X187671Y142677D01*
X187606Y142752D01*
X187544Y142830D01*
X187486Y142910D01*
X187430Y142993D01*
X187378Y143077D01*
X187328Y143164D01*
X187283Y143252D01*
X187240Y143342D01*
X187201Y143434D01*
X187166Y143527D01*
X187134Y143621D01*
X187106Y143716D01*
X187081Y143812D01*
X187060Y143910D01*
X187043Y144008D01*
X187030Y144106D01*
X187021Y144205D01*
X187015Y144305D01*
X187013Y144404D01*
X187013Y150896D01*
X187015Y150995D01*
X187021Y151095D01*
X187030Y151194D01*
X187043Y151292D01*
X187060Y151390D01*
X187081Y151488D01*
X187106Y151584D01*
X187134Y151679D01*
X187166Y151773D01*
X187201Y151866D01*
X187240Y151958D01*
X187283Y152048D01*
X187328Y152136D01*
X187378Y152223D01*
X187430Y152307D01*
X187486Y152390D01*
X187544Y152470D01*
X187606Y152548D01*
X187671Y152623D01*
X187739Y152696D01*
X187809Y152766D01*
X187882Y152834D01*
X187957Y152899D01*
X188035Y152961D01*
X188115Y153019D01*
X188198Y153075D01*
X188282Y153127D01*
X188369Y153177D01*
X188457Y153222D01*
X188547Y153265D01*
X188639Y153304D01*
X188731Y153339D01*
X188826Y153371D01*
X188921Y153399D01*
X189017Y153424D01*
X189115Y153445D01*
X189213Y153462D01*
X189311Y153475D01*
X189410Y153484D01*
X189510Y153490D01*
X189609Y153492D01*
X192206Y153492D01*
X196571Y150896D02*
X199816Y153492D01*
X199816Y141808D01*
X196571Y141808D02*
X203062Y141808D01*
X208001Y148299D02*
X211896Y148299D01*
X211995Y148297D01*
X212095Y148291D01*
X212194Y148282D01*
X212292Y148269D01*
X212390Y148252D01*
X212488Y148231D01*
X212584Y148206D01*
X212679Y148178D01*
X212773Y148146D01*
X212866Y148111D01*
X212958Y148072D01*
X213048Y148029D01*
X213136Y147984D01*
X213223Y147934D01*
X213307Y147882D01*
X213390Y147826D01*
X213470Y147768D01*
X213548Y147706D01*
X213623Y147641D01*
X213696Y147573D01*
X213766Y147503D01*
X213834Y147430D01*
X213899Y147355D01*
X213961Y147277D01*
X214019Y147197D01*
X214075Y147114D01*
X214127Y147030D01*
X214177Y146943D01*
X214222Y146855D01*
X214265Y146765D01*
X214304Y146673D01*
X214339Y146580D01*
X214371Y146486D01*
X214399Y146391D01*
X214424Y146295D01*
X214445Y146197D01*
X214462Y146099D01*
X214475Y146001D01*
X214484Y145902D01*
X214490Y145802D01*
X214492Y145703D01*
X214492Y145054D01*
X214490Y144941D01*
X214484Y144828D01*
X214474Y144715D01*
X214460Y144602D01*
X214443Y144490D01*
X214421Y144379D01*
X214396Y144269D01*
X214366Y144159D01*
X214333Y144051D01*
X214296Y143944D01*
X214256Y143838D01*
X214211Y143734D01*
X214163Y143631D01*
X214112Y143530D01*
X214057Y143431D01*
X213999Y143334D01*
X213937Y143239D01*
X213872Y143146D01*
X213804Y143056D01*
X213733Y142968D01*
X213658Y142882D01*
X213581Y142799D01*
X213501Y142719D01*
X213418Y142642D01*
X213332Y142567D01*
X213244Y142496D01*
X213154Y142428D01*
X213061Y142363D01*
X212966Y142301D01*
X212869Y142243D01*
X212770Y142188D01*
X212669Y142137D01*
X212566Y142089D01*
X212462Y142044D01*
X212356Y142004D01*
X212249Y141967D01*
X212141Y141934D01*
X212031Y141904D01*
X211921Y141879D01*
X211810Y141857D01*
X211698Y141840D01*
X211585Y141826D01*
X211472Y141816D01*
X211359Y141810D01*
X211246Y141808D01*
X211133Y141810D01*
X211020Y141816D01*
X210907Y141826D01*
X210794Y141840D01*
X210682Y141857D01*
X210571Y141879D01*
X210461Y141904D01*
X210351Y141934D01*
X210243Y141967D01*
X210136Y142004D01*
X210030Y142044D01*
X209926Y142089D01*
X209823Y142137D01*
X209722Y142188D01*
X209623Y142243D01*
X209526Y142301D01*
X209431Y142363D01*
X209338Y142428D01*
X209248Y142496D01*
X209160Y142567D01*
X209074Y142642D01*
X208991Y142719D01*
X208911Y142799D01*
X208834Y142882D01*
X208759Y142968D01*
X208688Y143056D01*
X208620Y143146D01*
X208555Y143239D01*
X208493Y143334D01*
X208435Y143431D01*
X208380Y143530D01*
X208329Y143631D01*
X208281Y143734D01*
X208236Y143838D01*
X208196Y143944D01*
X208159Y144051D01*
X208126Y144159D01*
X208096Y144269D01*
X208071Y144379D01*
X208049Y144490D01*
X208032Y144602D01*
X208018Y144715D01*
X208008Y144828D01*
X208002Y144941D01*
X208000Y145054D01*
X208001Y145054D02*
X208001Y148299D01*
X208003Y148442D01*
X208009Y148585D01*
X208019Y148728D01*
X208033Y148870D01*
X208050Y149012D01*
X208072Y149154D01*
X208097Y149295D01*
X208127Y149435D01*
X208160Y149574D01*
X208197Y149712D01*
X208238Y149849D01*
X208282Y149985D01*
X208331Y150120D01*
X208383Y150253D01*
X208438Y150385D01*
X208498Y150515D01*
X208561Y150644D01*
X208627Y150771D01*
X208697Y150895D01*
X208770Y151018D01*
X208847Y151139D01*
X208927Y151258D01*
X209010Y151374D01*
X209096Y151489D01*
X209185Y151600D01*
X209278Y151710D01*
X209373Y151816D01*
X209472Y151920D01*
X209573Y152021D01*
X209677Y152120D01*
X209783Y152215D01*
X209893Y152308D01*
X210004Y152397D01*
X210119Y152483D01*
X210235Y152566D01*
X210354Y152646D01*
X210475Y152723D01*
X210597Y152796D01*
X210722Y152866D01*
X210849Y152932D01*
X210978Y152995D01*
X211108Y153055D01*
X211240Y153110D01*
X211373Y153162D01*
X211508Y153211D01*
X211644Y153255D01*
X211781Y153296D01*
X211919Y153333D01*
X212058Y153366D01*
X212198Y153396D01*
X212339Y153421D01*
X212481Y153443D01*
X212623Y153460D01*
X212765Y153474D01*
X212908Y153484D01*
X213051Y153490D01*
X213194Y153492D01*
X50297Y104052D02*
X42508Y104052D01*
X46403Y107946D02*
X46403Y100157D01*
X55349Y99508D02*
X58595Y99508D01*
X58708Y99510D01*
X58821Y99516D01*
X58934Y99526D01*
X59047Y99540D01*
X59159Y99557D01*
X59270Y99579D01*
X59380Y99604D01*
X59490Y99634D01*
X59598Y99667D01*
X59705Y99704D01*
X59811Y99744D01*
X59915Y99789D01*
X60018Y99837D01*
X60119Y99888D01*
X60218Y99943D01*
X60315Y100001D01*
X60410Y100063D01*
X60503Y100128D01*
X60593Y100196D01*
X60681Y100267D01*
X60767Y100342D01*
X60850Y100419D01*
X60930Y100499D01*
X61007Y100582D01*
X61082Y100668D01*
X61153Y100756D01*
X61221Y100846D01*
X61286Y100939D01*
X61348Y101034D01*
X61406Y101131D01*
X61461Y101230D01*
X61512Y101331D01*
X61560Y101434D01*
X61605Y101538D01*
X61645Y101644D01*
X61682Y101751D01*
X61715Y101859D01*
X61745Y101969D01*
X61770Y102079D01*
X61792Y102190D01*
X61809Y102302D01*
X61823Y102415D01*
X61833Y102528D01*
X61839Y102641D01*
X61841Y102754D01*
X61839Y102867D01*
X61833Y102980D01*
X61823Y103093D01*
X61809Y103206D01*
X61792Y103318D01*
X61770Y103429D01*
X61745Y103539D01*
X61715Y103649D01*
X61682Y103757D01*
X61645Y103864D01*
X61605Y103970D01*
X61560Y104074D01*
X61512Y104177D01*
X61461Y104278D01*
X61406Y104377D01*
X61348Y104474D01*
X61286Y104569D01*
X61221Y104662D01*
X61153Y104752D01*
X61082Y104840D01*
X61007Y104926D01*
X60930Y105009D01*
X60850Y105089D01*
X60767Y105166D01*
X60681Y105241D01*
X60593Y105312D01*
X60503Y105380D01*
X60410Y105445D01*
X60315Y105507D01*
X60218Y105565D01*
X60119Y105620D01*
X60018Y105671D01*
X59915Y105719D01*
X59811Y105764D01*
X59705Y105804D01*
X59598Y105841D01*
X59490Y105874D01*
X59380Y105904D01*
X59270Y105929D01*
X59159Y105951D01*
X59047Y105968D01*
X58934Y105982D01*
X58821Y105992D01*
X58708Y105998D01*
X58595Y106000D01*
X59244Y111192D02*
X55349Y111192D01*
X59244Y111192D02*
X59345Y111190D01*
X59445Y111184D01*
X59545Y111174D01*
X59645Y111161D01*
X59744Y111143D01*
X59843Y111122D01*
X59940Y111097D01*
X60037Y111068D01*
X60132Y111035D01*
X60226Y110999D01*
X60318Y110959D01*
X60409Y110916D01*
X60498Y110869D01*
X60585Y110819D01*
X60671Y110765D01*
X60754Y110708D01*
X60834Y110648D01*
X60913Y110585D01*
X60989Y110518D01*
X61062Y110449D01*
X61132Y110377D01*
X61200Y110303D01*
X61265Y110226D01*
X61326Y110146D01*
X61385Y110064D01*
X61440Y109980D01*
X61492Y109894D01*
X61541Y109806D01*
X61586Y109716D01*
X61628Y109624D01*
X61666Y109531D01*
X61700Y109436D01*
X61731Y109341D01*
X61758Y109244D01*
X61781Y109146D01*
X61801Y109047D01*
X61816Y108947D01*
X61828Y108847D01*
X61836Y108747D01*
X61840Y108646D01*
X61840Y108546D01*
X61836Y108445D01*
X61828Y108345D01*
X61816Y108245D01*
X61801Y108145D01*
X61781Y108046D01*
X61758Y107948D01*
X61731Y107851D01*
X61700Y107756D01*
X61666Y107661D01*
X61628Y107568D01*
X61586Y107476D01*
X61541Y107386D01*
X61492Y107298D01*
X61440Y107212D01*
X61385Y107128D01*
X61326Y107046D01*
X61265Y106966D01*
X61200Y106889D01*
X61132Y106815D01*
X61062Y106743D01*
X60989Y106674D01*
X60913Y106607D01*
X60834Y106544D01*
X60754Y106484D01*
X60671Y106427D01*
X60585Y106373D01*
X60498Y106323D01*
X60409Y106276D01*
X60318Y106233D01*
X60226Y106193D01*
X60132Y106157D01*
X60037Y106124D01*
X59940Y106095D01*
X59843Y106070D01*
X59744Y106049D01*
X59645Y106031D01*
X59545Y106018D01*
X59445Y106008D01*
X59345Y106002D01*
X59244Y106000D01*
X59244Y105999D02*
X56647Y105999D01*
X66130Y111192D02*
X70025Y99508D01*
X73919Y111192D01*
X78209Y99508D02*
X81455Y99508D01*
X81568Y99510D01*
X81681Y99516D01*
X81794Y99526D01*
X81907Y99540D01*
X82019Y99557D01*
X82130Y99579D01*
X82240Y99604D01*
X82350Y99634D01*
X82458Y99667D01*
X82565Y99704D01*
X82671Y99744D01*
X82775Y99789D01*
X82878Y99837D01*
X82979Y99888D01*
X83078Y99943D01*
X83175Y100001D01*
X83270Y100063D01*
X83363Y100128D01*
X83453Y100196D01*
X83541Y100267D01*
X83627Y100342D01*
X83710Y100419D01*
X83790Y100499D01*
X83867Y100582D01*
X83942Y100668D01*
X84013Y100756D01*
X84081Y100846D01*
X84146Y100939D01*
X84208Y101034D01*
X84266Y101131D01*
X84321Y101230D01*
X84372Y101331D01*
X84420Y101434D01*
X84465Y101538D01*
X84505Y101644D01*
X84542Y101751D01*
X84575Y101859D01*
X84605Y101969D01*
X84630Y102079D01*
X84652Y102190D01*
X84669Y102302D01*
X84683Y102415D01*
X84693Y102528D01*
X84699Y102641D01*
X84701Y102754D01*
X84699Y102867D01*
X84693Y102980D01*
X84683Y103093D01*
X84669Y103206D01*
X84652Y103318D01*
X84630Y103429D01*
X84605Y103539D01*
X84575Y103649D01*
X84542Y103757D01*
X84505Y103864D01*
X84465Y103970D01*
X84420Y104074D01*
X84372Y104177D01*
X84321Y104278D01*
X84266Y104377D01*
X84208Y104474D01*
X84146Y104569D01*
X84081Y104662D01*
X84013Y104752D01*
X83942Y104840D01*
X83867Y104926D01*
X83790Y105009D01*
X83710Y105089D01*
X83627Y105166D01*
X83541Y105241D01*
X83453Y105312D01*
X83363Y105380D01*
X83270Y105445D01*
X83175Y105507D01*
X83078Y105565D01*
X82979Y105620D01*
X82878Y105671D01*
X82775Y105719D01*
X82671Y105764D01*
X82565Y105804D01*
X82458Y105841D01*
X82350Y105874D01*
X82240Y105904D01*
X82130Y105929D01*
X82019Y105951D01*
X81907Y105968D01*
X81794Y105982D01*
X81681Y105992D01*
X81568Y105998D01*
X81455Y106000D01*
X82104Y111192D02*
X78209Y111192D01*
X82104Y111192D02*
X82205Y111190D01*
X82305Y111184D01*
X82405Y111174D01*
X82505Y111161D01*
X82604Y111143D01*
X82703Y111122D01*
X82800Y111097D01*
X82897Y111068D01*
X82992Y111035D01*
X83086Y110999D01*
X83178Y110959D01*
X83269Y110916D01*
X83358Y110869D01*
X83445Y110819D01*
X83531Y110765D01*
X83614Y110708D01*
X83694Y110648D01*
X83773Y110585D01*
X83849Y110518D01*
X83922Y110449D01*
X83992Y110377D01*
X84060Y110303D01*
X84125Y110226D01*
X84186Y110146D01*
X84245Y110064D01*
X84300Y109980D01*
X84352Y109894D01*
X84401Y109806D01*
X84446Y109716D01*
X84488Y109624D01*
X84526Y109531D01*
X84560Y109436D01*
X84591Y109341D01*
X84618Y109244D01*
X84641Y109146D01*
X84661Y109047D01*
X84676Y108947D01*
X84688Y108847D01*
X84696Y108747D01*
X84700Y108646D01*
X84700Y108546D01*
X84696Y108445D01*
X84688Y108345D01*
X84676Y108245D01*
X84661Y108145D01*
X84641Y108046D01*
X84618Y107948D01*
X84591Y107851D01*
X84560Y107756D01*
X84526Y107661D01*
X84488Y107568D01*
X84446Y107476D01*
X84401Y107386D01*
X84352Y107298D01*
X84300Y107212D01*
X84245Y107128D01*
X84186Y107046D01*
X84125Y106966D01*
X84060Y106889D01*
X83992Y106815D01*
X83922Y106743D01*
X83849Y106674D01*
X83773Y106607D01*
X83694Y106544D01*
X83614Y106484D01*
X83531Y106427D01*
X83445Y106373D01*
X83358Y106323D01*
X83269Y106276D01*
X83178Y106233D01*
X83086Y106193D01*
X82992Y106157D01*
X82897Y106124D01*
X82800Y106095D01*
X82703Y106070D01*
X82604Y106049D01*
X82505Y106031D01*
X82405Y106018D01*
X82305Y106008D01*
X82205Y106002D01*
X82104Y106000D01*
X82104Y105999D02*
X79507Y105999D01*
X449754Y370508D02*
X449754Y382192D01*
X452999Y382192D02*
X446508Y382192D01*
X456527Y370508D02*
X464316Y382192D01*
X456527Y382192D02*
X464316Y370508D01*
X447508Y357192D02*
X447508Y345508D01*
X447508Y357192D02*
X450754Y357192D01*
X450867Y357190D01*
X450980Y357184D01*
X451093Y357174D01*
X451206Y357160D01*
X451318Y357143D01*
X451429Y357121D01*
X451539Y357096D01*
X451649Y357066D01*
X451757Y357033D01*
X451864Y356996D01*
X451970Y356956D01*
X452074Y356911D01*
X452177Y356863D01*
X452278Y356812D01*
X452377Y356757D01*
X452474Y356699D01*
X452569Y356637D01*
X452662Y356572D01*
X452752Y356504D01*
X452840Y356433D01*
X452926Y356358D01*
X453009Y356281D01*
X453089Y356201D01*
X453166Y356118D01*
X453241Y356032D01*
X453312Y355944D01*
X453380Y355854D01*
X453445Y355761D01*
X453507Y355666D01*
X453565Y355569D01*
X453620Y355470D01*
X453671Y355369D01*
X453719Y355266D01*
X453764Y355162D01*
X453804Y355056D01*
X453841Y354949D01*
X453874Y354841D01*
X453904Y354731D01*
X453929Y354621D01*
X453951Y354510D01*
X453968Y354398D01*
X453982Y354285D01*
X453992Y354172D01*
X453998Y354059D01*
X454000Y353946D01*
X453998Y353833D01*
X453992Y353720D01*
X453982Y353607D01*
X453968Y353494D01*
X453951Y353382D01*
X453929Y353271D01*
X453904Y353161D01*
X453874Y353051D01*
X453841Y352943D01*
X453804Y352836D01*
X453764Y352730D01*
X453719Y352626D01*
X453671Y352523D01*
X453620Y352422D01*
X453565Y352323D01*
X453507Y352226D01*
X453445Y352131D01*
X453380Y352038D01*
X453312Y351948D01*
X453241Y351860D01*
X453166Y351774D01*
X453089Y351691D01*
X453009Y351611D01*
X452926Y351534D01*
X452840Y351459D01*
X452752Y351388D01*
X452662Y351320D01*
X452569Y351255D01*
X452474Y351193D01*
X452377Y351135D01*
X452278Y351080D01*
X452177Y351029D01*
X452074Y350981D01*
X451970Y350936D01*
X451864Y350896D01*
X451757Y350859D01*
X451649Y350826D01*
X451539Y350796D01*
X451429Y350771D01*
X451318Y350749D01*
X451206Y350732D01*
X451093Y350718D01*
X450980Y350708D01*
X450867Y350702D01*
X450754Y350700D01*
X450754Y350701D02*
X447508Y350701D01*
X451403Y350701D02*
X453999Y345508D01*
X458215Y345508D02*
X466005Y357192D01*
X458215Y357192D02*
X466005Y345508D01*
X392808Y237754D02*
X395404Y234508D01*
X392808Y237754D02*
X404492Y237754D01*
X404492Y240999D02*
X404492Y234508D01*
X392808Y249508D02*
X392810Y249615D01*
X392816Y249721D01*
X392826Y249827D01*
X392839Y249933D01*
X392857Y250039D01*
X392878Y250143D01*
X392903Y250247D01*
X392932Y250350D01*
X392964Y250451D01*
X393001Y250551D01*
X393041Y250650D01*
X393084Y250748D01*
X393131Y250844D01*
X393182Y250938D01*
X393236Y251030D01*
X393293Y251120D01*
X393353Y251208D01*
X393417Y251293D01*
X393484Y251376D01*
X393554Y251457D01*
X393626Y251535D01*
X393702Y251611D01*
X393780Y251683D01*
X393861Y251753D01*
X393944Y251820D01*
X394029Y251884D01*
X394117Y251944D01*
X394207Y252001D01*
X394299Y252055D01*
X394393Y252106D01*
X394489Y252153D01*
X394587Y252196D01*
X394686Y252236D01*
X394786Y252273D01*
X394887Y252305D01*
X394990Y252334D01*
X395094Y252359D01*
X395198Y252380D01*
X395304Y252398D01*
X395410Y252411D01*
X395516Y252421D01*
X395622Y252427D01*
X395729Y252429D01*
X392808Y249508D02*
X392810Y249387D01*
X392816Y249266D01*
X392826Y249146D01*
X392839Y249025D01*
X392857Y248906D01*
X392878Y248786D01*
X392903Y248668D01*
X392932Y248551D01*
X392965Y248434D01*
X393001Y248319D01*
X393042Y248205D01*
X393085Y248092D01*
X393133Y247980D01*
X393184Y247871D01*
X393239Y247763D01*
X393297Y247656D01*
X393358Y247552D01*
X393423Y247450D01*
X393491Y247350D01*
X393562Y247252D01*
X393636Y247156D01*
X393713Y247063D01*
X393794Y246973D01*
X393877Y246885D01*
X393963Y246800D01*
X394052Y246717D01*
X394143Y246638D01*
X394237Y246561D01*
X394333Y246488D01*
X394431Y246418D01*
X394532Y246351D01*
X394635Y246287D01*
X394740Y246227D01*
X394847Y246169D01*
X394955Y246116D01*
X395065Y246066D01*
X395177Y246020D01*
X395290Y245977D01*
X395405Y245938D01*
X398001Y251455D02*
X397923Y251534D01*
X397843Y251610D01*
X397760Y251683D01*
X397674Y251753D01*
X397587Y251820D01*
X397496Y251884D01*
X397404Y251944D01*
X397310Y252002D01*
X397213Y252056D01*
X397115Y252106D01*
X397015Y252153D01*
X396914Y252197D01*
X396811Y252237D01*
X396706Y252273D01*
X396601Y252305D01*
X396494Y252334D01*
X396387Y252359D01*
X396278Y252381D01*
X396169Y252398D01*
X396060Y252412D01*
X395950Y252421D01*
X395839Y252427D01*
X395729Y252429D01*
X398001Y251455D02*
X404492Y245938D01*
X404492Y252429D01*
X404492Y260614D02*
X392808Y256719D01*
X392808Y264508D02*
X404492Y260614D01*
X147078Y44946D02*
X147078Y41052D01*
X149350Y38131D01*
X147078Y41052D02*
X144806Y38131D01*
X147078Y41052D02*
X150648Y42350D01*
X147078Y41052D02*
X143508Y42350D01*
X161740Y39754D02*
X161740Y44946D01*
X161739Y44946D02*
X161741Y45059D01*
X161747Y45172D01*
X161757Y45285D01*
X161771Y45398D01*
X161788Y45510D01*
X161810Y45621D01*
X161835Y45731D01*
X161865Y45841D01*
X161898Y45949D01*
X161935Y46056D01*
X161975Y46162D01*
X162020Y46266D01*
X162068Y46369D01*
X162119Y46470D01*
X162174Y46569D01*
X162232Y46666D01*
X162294Y46761D01*
X162359Y46854D01*
X162427Y46944D01*
X162498Y47032D01*
X162573Y47118D01*
X162650Y47201D01*
X162730Y47281D01*
X162813Y47358D01*
X162899Y47433D01*
X162987Y47504D01*
X163077Y47572D01*
X163170Y47637D01*
X163265Y47699D01*
X163362Y47757D01*
X163461Y47812D01*
X163562Y47863D01*
X163665Y47911D01*
X163769Y47956D01*
X163875Y47996D01*
X163982Y48033D01*
X164090Y48066D01*
X164200Y48096D01*
X164310Y48121D01*
X164421Y48143D01*
X164533Y48160D01*
X164646Y48174D01*
X164759Y48184D01*
X164872Y48190D01*
X164985Y48192D01*
X165098Y48190D01*
X165211Y48184D01*
X165324Y48174D01*
X165437Y48160D01*
X165549Y48143D01*
X165660Y48121D01*
X165770Y48096D01*
X165880Y48066D01*
X165988Y48033D01*
X166095Y47996D01*
X166201Y47956D01*
X166305Y47911D01*
X166408Y47863D01*
X166509Y47812D01*
X166608Y47757D01*
X166705Y47699D01*
X166800Y47637D01*
X166893Y47572D01*
X166983Y47504D01*
X167071Y47433D01*
X167157Y47358D01*
X167240Y47281D01*
X167320Y47201D01*
X167397Y47118D01*
X167472Y47032D01*
X167543Y46944D01*
X167611Y46854D01*
X167676Y46761D01*
X167738Y46666D01*
X167796Y46569D01*
X167851Y46470D01*
X167902Y46369D01*
X167950Y46266D01*
X167995Y46162D01*
X168035Y46056D01*
X168072Y45949D01*
X168105Y45841D01*
X168135Y45731D01*
X168160Y45621D01*
X168182Y45510D01*
X168199Y45398D01*
X168213Y45285D01*
X168223Y45172D01*
X168229Y45059D01*
X168231Y44946D01*
X168231Y39754D01*
X168229Y39641D01*
X168223Y39528D01*
X168213Y39415D01*
X168199Y39302D01*
X168182Y39190D01*
X168160Y39079D01*
X168135Y38969D01*
X168105Y38859D01*
X168072Y38751D01*
X168035Y38644D01*
X167995Y38538D01*
X167950Y38434D01*
X167902Y38331D01*
X167851Y38230D01*
X167796Y38131D01*
X167738Y38034D01*
X167676Y37939D01*
X167611Y37846D01*
X167543Y37756D01*
X167472Y37668D01*
X167397Y37582D01*
X167320Y37499D01*
X167240Y37419D01*
X167157Y37342D01*
X167071Y37267D01*
X166983Y37196D01*
X166893Y37128D01*
X166800Y37063D01*
X166705Y37001D01*
X166608Y36943D01*
X166509Y36888D01*
X166408Y36837D01*
X166305Y36789D01*
X166201Y36744D01*
X166095Y36704D01*
X165988Y36667D01*
X165880Y36634D01*
X165770Y36604D01*
X165660Y36579D01*
X165549Y36557D01*
X165437Y36540D01*
X165324Y36526D01*
X165211Y36516D01*
X165098Y36510D01*
X164985Y36508D01*
X164872Y36510D01*
X164759Y36516D01*
X164646Y36526D01*
X164533Y36540D01*
X164421Y36557D01*
X164310Y36579D01*
X164200Y36604D01*
X164090Y36634D01*
X163982Y36667D01*
X163875Y36704D01*
X163769Y36744D01*
X163665Y36789D01*
X163562Y36837D01*
X163461Y36888D01*
X163362Y36943D01*
X163265Y37001D01*
X163170Y37063D01*
X163077Y37128D01*
X162987Y37196D01*
X162899Y37267D01*
X162813Y37342D01*
X162730Y37419D01*
X162650Y37499D01*
X162573Y37582D01*
X162498Y37668D01*
X162427Y37756D01*
X162359Y37846D01*
X162294Y37939D01*
X162232Y38034D01*
X162174Y38131D01*
X162119Y38230D01*
X162068Y38331D01*
X162020Y38434D01*
X161975Y38538D01*
X161935Y38644D01*
X161898Y38751D01*
X161865Y38859D01*
X161835Y38969D01*
X161810Y39079D01*
X161788Y39190D01*
X161771Y39302D01*
X161757Y39415D01*
X161747Y39528D01*
X161741Y39641D01*
X161739Y39754D01*
X173438Y36508D02*
X173438Y44297D01*
X176683Y44297D01*
X176770Y44295D01*
X176858Y44289D01*
X176944Y44279D01*
X177031Y44266D01*
X177116Y44248D01*
X177201Y44227D01*
X177285Y44202D01*
X177367Y44173D01*
X177448Y44140D01*
X177528Y44104D01*
X177606Y44065D01*
X177682Y44021D01*
X177756Y43975D01*
X177827Y43925D01*
X177897Y43872D01*
X177964Y43816D01*
X178028Y43757D01*
X178090Y43696D01*
X178149Y43631D01*
X178205Y43564D01*
X178258Y43494D01*
X178308Y43423D01*
X178354Y43349D01*
X178398Y43273D01*
X178437Y43195D01*
X178473Y43115D01*
X178506Y43034D01*
X178535Y42952D01*
X178560Y42868D01*
X178581Y42783D01*
X178599Y42698D01*
X178612Y42611D01*
X178622Y42525D01*
X178628Y42437D01*
X178630Y42350D01*
X178631Y42350D02*
X178631Y36508D01*
X183874Y38455D02*
X183874Y48192D01*
X183875Y38455D02*
X183877Y38368D01*
X183883Y38280D01*
X183893Y38194D01*
X183906Y38107D01*
X183924Y38022D01*
X183945Y37937D01*
X183970Y37853D01*
X183999Y37771D01*
X184032Y37690D01*
X184068Y37610D01*
X184107Y37532D01*
X184151Y37456D01*
X184197Y37382D01*
X184247Y37311D01*
X184300Y37241D01*
X184356Y37174D01*
X184415Y37110D01*
X184477Y37048D01*
X184541Y36989D01*
X184608Y36933D01*
X184678Y36880D01*
X184749Y36830D01*
X184823Y36784D01*
X184899Y36740D01*
X184977Y36701D01*
X185057Y36665D01*
X185138Y36632D01*
X185220Y36603D01*
X185304Y36578D01*
X185389Y36557D01*
X185474Y36539D01*
X185561Y36526D01*
X185647Y36516D01*
X185735Y36510D01*
X185822Y36508D01*
X189440Y32613D02*
X190738Y32613D01*
X194632Y44297D01*
X189440Y44297D02*
X192036Y36508D01*
X204093Y44297D02*
X207988Y44297D01*
X205392Y48192D02*
X205392Y38455D01*
X205394Y38368D01*
X205400Y38280D01*
X205410Y38194D01*
X205423Y38107D01*
X205441Y38022D01*
X205462Y37937D01*
X205487Y37853D01*
X205516Y37771D01*
X205549Y37690D01*
X205585Y37610D01*
X205624Y37532D01*
X205668Y37456D01*
X205714Y37382D01*
X205764Y37311D01*
X205817Y37241D01*
X205873Y37174D01*
X205932Y37110D01*
X205994Y37048D01*
X206058Y36989D01*
X206125Y36933D01*
X206195Y36880D01*
X206266Y36830D01*
X206340Y36784D01*
X206416Y36740D01*
X206494Y36701D01*
X206574Y36665D01*
X206655Y36632D01*
X206737Y36603D01*
X206821Y36578D01*
X206906Y36557D01*
X206991Y36539D01*
X207078Y36526D01*
X207164Y36516D01*
X207252Y36510D01*
X207339Y36508D01*
X207988Y36508D01*
X212300Y39104D02*
X212300Y41701D01*
X212302Y41802D01*
X212308Y41902D01*
X212318Y42002D01*
X212331Y42102D01*
X212349Y42201D01*
X212370Y42300D01*
X212395Y42397D01*
X212424Y42494D01*
X212457Y42589D01*
X212493Y42683D01*
X212533Y42775D01*
X212576Y42866D01*
X212623Y42955D01*
X212673Y43042D01*
X212727Y43128D01*
X212784Y43211D01*
X212844Y43291D01*
X212907Y43370D01*
X212974Y43446D01*
X213043Y43519D01*
X213115Y43589D01*
X213189Y43657D01*
X213266Y43722D01*
X213346Y43783D01*
X213428Y43842D01*
X213512Y43897D01*
X213598Y43949D01*
X213686Y43998D01*
X213776Y44043D01*
X213868Y44085D01*
X213961Y44123D01*
X214056Y44157D01*
X214151Y44188D01*
X214248Y44215D01*
X214346Y44238D01*
X214445Y44258D01*
X214545Y44273D01*
X214645Y44285D01*
X214745Y44293D01*
X214846Y44297D01*
X214946Y44297D01*
X215047Y44293D01*
X215147Y44285D01*
X215247Y44273D01*
X215347Y44258D01*
X215446Y44238D01*
X215544Y44215D01*
X215641Y44188D01*
X215736Y44157D01*
X215831Y44123D01*
X215924Y44085D01*
X216016Y44043D01*
X216106Y43998D01*
X216194Y43949D01*
X216280Y43897D01*
X216364Y43842D01*
X216446Y43783D01*
X216526Y43722D01*
X216603Y43657D01*
X216677Y43589D01*
X216749Y43519D01*
X216818Y43446D01*
X216885Y43370D01*
X216948Y43291D01*
X217008Y43211D01*
X217065Y43128D01*
X217119Y43042D01*
X217169Y42955D01*
X217216Y42866D01*
X217259Y42775D01*
X217299Y42683D01*
X217335Y42589D01*
X217368Y42494D01*
X217397Y42397D01*
X217422Y42300D01*
X217443Y42201D01*
X217461Y42102D01*
X217474Y42002D01*
X217484Y41902D01*
X217490Y41802D01*
X217492Y41701D01*
X217492Y39104D01*
X217490Y39003D01*
X217484Y38903D01*
X217474Y38803D01*
X217461Y38703D01*
X217443Y38604D01*
X217422Y38505D01*
X217397Y38408D01*
X217368Y38311D01*
X217335Y38216D01*
X217299Y38122D01*
X217259Y38030D01*
X217216Y37939D01*
X217169Y37850D01*
X217119Y37763D01*
X217065Y37677D01*
X217008Y37594D01*
X216948Y37514D01*
X216885Y37435D01*
X216818Y37359D01*
X216749Y37286D01*
X216677Y37216D01*
X216603Y37148D01*
X216526Y37083D01*
X216446Y37022D01*
X216364Y36963D01*
X216280Y36908D01*
X216194Y36856D01*
X216106Y36807D01*
X216016Y36762D01*
X215924Y36720D01*
X215831Y36682D01*
X215736Y36648D01*
X215641Y36617D01*
X215544Y36590D01*
X215446Y36567D01*
X215347Y36547D01*
X215247Y36532D01*
X215147Y36520D01*
X215047Y36512D01*
X214946Y36508D01*
X214846Y36508D01*
X214745Y36512D01*
X214645Y36520D01*
X214545Y36532D01*
X214445Y36547D01*
X214346Y36567D01*
X214248Y36590D01*
X214151Y36617D01*
X214056Y36648D01*
X213961Y36682D01*
X213868Y36720D01*
X213776Y36762D01*
X213686Y36807D01*
X213598Y36856D01*
X213512Y36908D01*
X213428Y36963D01*
X213346Y37022D01*
X213266Y37083D01*
X213189Y37148D01*
X213115Y37216D01*
X213043Y37286D01*
X212974Y37359D01*
X212907Y37435D01*
X212844Y37514D01*
X212784Y37594D01*
X212727Y37677D01*
X212673Y37763D01*
X212623Y37850D01*
X212576Y37939D01*
X212533Y38030D01*
X212493Y38122D01*
X212457Y38216D01*
X212424Y38311D01*
X212395Y38408D01*
X212370Y38505D01*
X212349Y38604D01*
X212331Y38703D01*
X212318Y38803D01*
X212308Y38903D01*
X212302Y39003D01*
X212300Y39104D01*
X228741Y36508D02*
X228741Y48192D01*
X228741Y36508D02*
X231987Y36508D01*
X232074Y36510D01*
X232162Y36516D01*
X232248Y36526D01*
X232335Y36539D01*
X232420Y36557D01*
X232505Y36578D01*
X232589Y36603D01*
X232671Y36632D01*
X232752Y36665D01*
X232832Y36701D01*
X232910Y36740D01*
X232986Y36784D01*
X233060Y36830D01*
X233131Y36880D01*
X233201Y36933D01*
X233268Y36989D01*
X233332Y37048D01*
X233394Y37109D01*
X233453Y37174D01*
X233509Y37241D01*
X233562Y37311D01*
X233612Y37382D01*
X233658Y37456D01*
X233702Y37532D01*
X233741Y37610D01*
X233777Y37690D01*
X233810Y37771D01*
X233839Y37853D01*
X233864Y37937D01*
X233885Y38022D01*
X233903Y38107D01*
X233916Y38194D01*
X233926Y38280D01*
X233932Y38368D01*
X233934Y38455D01*
X233934Y42350D01*
X233932Y42437D01*
X233926Y42525D01*
X233916Y42611D01*
X233903Y42698D01*
X233885Y42783D01*
X233864Y42868D01*
X233839Y42952D01*
X233810Y43034D01*
X233777Y43115D01*
X233741Y43195D01*
X233702Y43273D01*
X233658Y43349D01*
X233612Y43423D01*
X233562Y43494D01*
X233509Y43564D01*
X233453Y43631D01*
X233394Y43695D01*
X233332Y43757D01*
X233268Y43816D01*
X233201Y43872D01*
X233131Y43925D01*
X233060Y43975D01*
X232986Y44021D01*
X232910Y44065D01*
X232832Y44104D01*
X232752Y44140D01*
X232671Y44173D01*
X232589Y44202D01*
X232505Y44227D01*
X232420Y44248D01*
X232335Y44266D01*
X232248Y44279D01*
X232162Y44289D01*
X232074Y44295D01*
X231987Y44297D01*
X228741Y44297D01*
X240536Y36508D02*
X243781Y36508D01*
X240536Y36508D02*
X240449Y36510D01*
X240361Y36516D01*
X240275Y36526D01*
X240188Y36539D01*
X240103Y36557D01*
X240018Y36578D01*
X239934Y36603D01*
X239852Y36632D01*
X239771Y36665D01*
X239691Y36701D01*
X239613Y36740D01*
X239537Y36784D01*
X239463Y36830D01*
X239392Y36880D01*
X239322Y36933D01*
X239255Y36989D01*
X239191Y37048D01*
X239129Y37110D01*
X239070Y37174D01*
X239014Y37241D01*
X238961Y37311D01*
X238911Y37382D01*
X238865Y37456D01*
X238821Y37532D01*
X238782Y37610D01*
X238746Y37690D01*
X238713Y37771D01*
X238684Y37853D01*
X238659Y37937D01*
X238638Y38022D01*
X238620Y38107D01*
X238607Y38194D01*
X238597Y38280D01*
X238591Y38368D01*
X238589Y38455D01*
X238589Y41701D01*
X238591Y41802D01*
X238597Y41902D01*
X238607Y42002D01*
X238620Y42102D01*
X238638Y42201D01*
X238659Y42300D01*
X238684Y42397D01*
X238713Y42494D01*
X238746Y42589D01*
X238782Y42683D01*
X238822Y42775D01*
X238865Y42866D01*
X238912Y42955D01*
X238962Y43042D01*
X239016Y43128D01*
X239073Y43211D01*
X239133Y43291D01*
X239196Y43370D01*
X239263Y43446D01*
X239332Y43519D01*
X239404Y43589D01*
X239478Y43657D01*
X239555Y43722D01*
X239635Y43783D01*
X239717Y43842D01*
X239801Y43897D01*
X239887Y43949D01*
X239975Y43998D01*
X240065Y44043D01*
X240157Y44085D01*
X240250Y44123D01*
X240345Y44157D01*
X240440Y44188D01*
X240537Y44215D01*
X240635Y44238D01*
X240734Y44258D01*
X240834Y44273D01*
X240934Y44285D01*
X241034Y44293D01*
X241135Y44297D01*
X241235Y44297D01*
X241336Y44293D01*
X241436Y44285D01*
X241536Y44273D01*
X241636Y44258D01*
X241735Y44238D01*
X241833Y44215D01*
X241930Y44188D01*
X242025Y44157D01*
X242120Y44123D01*
X242213Y44085D01*
X242305Y44043D01*
X242395Y43998D01*
X242483Y43949D01*
X242569Y43897D01*
X242653Y43842D01*
X242735Y43783D01*
X242815Y43722D01*
X242892Y43657D01*
X242966Y43589D01*
X243038Y43519D01*
X243107Y43446D01*
X243174Y43370D01*
X243237Y43291D01*
X243297Y43211D01*
X243354Y43128D01*
X243408Y43042D01*
X243458Y42955D01*
X243505Y42866D01*
X243548Y42775D01*
X243588Y42683D01*
X243624Y42589D01*
X243657Y42494D01*
X243686Y42397D01*
X243711Y42300D01*
X243732Y42201D01*
X243750Y42102D01*
X243763Y42002D01*
X243773Y41902D01*
X243779Y41802D01*
X243781Y41701D01*
X243781Y40403D01*
X238589Y40403D01*
X254972Y38455D02*
X254972Y44297D01*
X254972Y38455D02*
X254974Y38368D01*
X254980Y38280D01*
X254990Y38194D01*
X255003Y38107D01*
X255021Y38022D01*
X255042Y37937D01*
X255067Y37853D01*
X255096Y37771D01*
X255129Y37690D01*
X255165Y37610D01*
X255204Y37532D01*
X255248Y37456D01*
X255294Y37382D01*
X255344Y37311D01*
X255397Y37241D01*
X255453Y37174D01*
X255512Y37110D01*
X255574Y37048D01*
X255638Y36989D01*
X255705Y36933D01*
X255775Y36880D01*
X255846Y36830D01*
X255920Y36784D01*
X255996Y36740D01*
X256074Y36701D01*
X256154Y36665D01*
X256235Y36632D01*
X256317Y36603D01*
X256401Y36578D01*
X256486Y36557D01*
X256571Y36539D01*
X256658Y36526D01*
X256744Y36516D01*
X256832Y36510D01*
X256919Y36508D01*
X260164Y36508D01*
X260164Y44297D01*
X266232Y41052D02*
X269478Y39754D01*
X266232Y41051D02*
X266157Y41084D01*
X266083Y41120D01*
X266011Y41159D01*
X265941Y41202D01*
X265874Y41248D01*
X265808Y41298D01*
X265746Y41350D01*
X265685Y41406D01*
X265628Y41464D01*
X265573Y41525D01*
X265522Y41589D01*
X265474Y41655D01*
X265429Y41724D01*
X265387Y41794D01*
X265349Y41867D01*
X265314Y41941D01*
X265283Y42017D01*
X265256Y42094D01*
X265233Y42173D01*
X265213Y42252D01*
X265198Y42333D01*
X265186Y42414D01*
X265178Y42496D01*
X265174Y42577D01*
X265175Y42659D01*
X265179Y42741D01*
X265187Y42823D01*
X265199Y42904D01*
X265215Y42984D01*
X265235Y43064D01*
X265259Y43142D01*
X265287Y43219D01*
X265318Y43295D01*
X265353Y43369D01*
X265391Y43441D01*
X265433Y43512D01*
X265479Y43580D01*
X265527Y43646D01*
X265579Y43709D01*
X265634Y43770D01*
X265692Y43828D01*
X265752Y43884D01*
X265815Y43936D01*
X265881Y43985D01*
X265949Y44031D01*
X266019Y44073D01*
X266091Y44113D01*
X266165Y44148D01*
X266240Y44180D01*
X266317Y44208D01*
X266395Y44232D01*
X266475Y44253D01*
X266555Y44270D01*
X266636Y44282D01*
X266717Y44291D01*
X266799Y44296D01*
X266881Y44297D01*
X267058Y44293D01*
X267235Y44284D01*
X267412Y44270D01*
X267589Y44253D01*
X267764Y44231D01*
X267940Y44206D01*
X268114Y44175D01*
X268288Y44141D01*
X268461Y44103D01*
X268633Y44060D01*
X268804Y44013D01*
X268974Y43963D01*
X269143Y43908D01*
X269310Y43849D01*
X269475Y43786D01*
X269640Y43719D01*
X269802Y43648D01*
X269478Y39754D02*
X269553Y39721D01*
X269627Y39685D01*
X269699Y39646D01*
X269769Y39603D01*
X269836Y39557D01*
X269902Y39507D01*
X269964Y39455D01*
X270025Y39399D01*
X270082Y39341D01*
X270137Y39280D01*
X270188Y39216D01*
X270236Y39150D01*
X270281Y39081D01*
X270323Y39011D01*
X270361Y38938D01*
X270396Y38864D01*
X270427Y38788D01*
X270454Y38711D01*
X270477Y38632D01*
X270497Y38553D01*
X270512Y38472D01*
X270524Y38391D01*
X270532Y38309D01*
X270536Y38228D01*
X270535Y38146D01*
X270531Y38064D01*
X270523Y37982D01*
X270511Y37901D01*
X270495Y37821D01*
X270475Y37741D01*
X270451Y37663D01*
X270423Y37586D01*
X270392Y37510D01*
X270357Y37436D01*
X270319Y37364D01*
X270277Y37293D01*
X270231Y37225D01*
X270183Y37159D01*
X270131Y37096D01*
X270076Y37035D01*
X270018Y36977D01*
X269958Y36921D01*
X269895Y36869D01*
X269829Y36820D01*
X269761Y36774D01*
X269691Y36732D01*
X269619Y36692D01*
X269545Y36657D01*
X269470Y36625D01*
X269393Y36597D01*
X269315Y36573D01*
X269235Y36552D01*
X269155Y36535D01*
X269074Y36523D01*
X268993Y36514D01*
X268911Y36509D01*
X268829Y36508D01*
X268569Y36515D01*
X268309Y36528D01*
X268049Y36547D01*
X267790Y36572D01*
X267531Y36604D01*
X267274Y36641D01*
X267017Y36685D01*
X266761Y36734D01*
X266507Y36790D01*
X266254Y36851D01*
X266003Y36919D01*
X265753Y36993D01*
X265505Y37072D01*
X265259Y37157D01*
X277112Y36508D02*
X280357Y36508D01*
X277112Y36508D02*
X277025Y36510D01*
X276937Y36516D01*
X276851Y36526D01*
X276764Y36539D01*
X276679Y36557D01*
X276594Y36578D01*
X276510Y36603D01*
X276428Y36632D01*
X276347Y36665D01*
X276267Y36701D01*
X276189Y36740D01*
X276113Y36784D01*
X276039Y36830D01*
X275968Y36880D01*
X275898Y36933D01*
X275831Y36989D01*
X275767Y37048D01*
X275705Y37110D01*
X275646Y37174D01*
X275590Y37241D01*
X275537Y37311D01*
X275487Y37382D01*
X275441Y37456D01*
X275397Y37532D01*
X275358Y37610D01*
X275322Y37690D01*
X275289Y37771D01*
X275260Y37853D01*
X275235Y37937D01*
X275214Y38022D01*
X275196Y38107D01*
X275183Y38194D01*
X275173Y38280D01*
X275167Y38368D01*
X275165Y38455D01*
X275165Y41701D01*
X275167Y41802D01*
X275173Y41902D01*
X275183Y42002D01*
X275196Y42102D01*
X275214Y42201D01*
X275235Y42300D01*
X275260Y42397D01*
X275289Y42494D01*
X275322Y42589D01*
X275358Y42683D01*
X275398Y42775D01*
X275441Y42866D01*
X275488Y42955D01*
X275538Y43042D01*
X275592Y43128D01*
X275649Y43211D01*
X275709Y43291D01*
X275772Y43370D01*
X275839Y43446D01*
X275908Y43519D01*
X275980Y43589D01*
X276054Y43657D01*
X276131Y43722D01*
X276211Y43783D01*
X276293Y43842D01*
X276377Y43897D01*
X276463Y43949D01*
X276551Y43998D01*
X276641Y44043D01*
X276733Y44085D01*
X276826Y44123D01*
X276921Y44157D01*
X277016Y44188D01*
X277113Y44215D01*
X277211Y44238D01*
X277310Y44258D01*
X277410Y44273D01*
X277510Y44285D01*
X277610Y44293D01*
X277711Y44297D01*
X277811Y44297D01*
X277912Y44293D01*
X278012Y44285D01*
X278112Y44273D01*
X278212Y44258D01*
X278311Y44238D01*
X278409Y44215D01*
X278506Y44188D01*
X278601Y44157D01*
X278696Y44123D01*
X278789Y44085D01*
X278881Y44043D01*
X278971Y43998D01*
X279059Y43949D01*
X279145Y43897D01*
X279229Y43842D01*
X279311Y43783D01*
X279391Y43722D01*
X279468Y43657D01*
X279542Y43589D01*
X279614Y43519D01*
X279683Y43446D01*
X279750Y43370D01*
X279813Y43291D01*
X279873Y43211D01*
X279930Y43128D01*
X279984Y43042D01*
X280034Y42955D01*
X280081Y42866D01*
X280124Y42775D01*
X280164Y42683D01*
X280200Y42589D01*
X280233Y42494D01*
X280262Y42397D01*
X280287Y42300D01*
X280308Y42201D01*
X280326Y42102D01*
X280339Y42002D01*
X280349Y41902D01*
X280355Y41802D01*
X280357Y41701D01*
X280357Y40403D01*
X275165Y40403D01*
X290205Y36508D02*
X290205Y48192D01*
X290205Y36508D02*
X286959Y36508D01*
X286872Y36510D01*
X286784Y36516D01*
X286698Y36526D01*
X286611Y36539D01*
X286526Y36557D01*
X286441Y36578D01*
X286357Y36603D01*
X286275Y36632D01*
X286194Y36665D01*
X286114Y36701D01*
X286036Y36740D01*
X285960Y36784D01*
X285886Y36830D01*
X285815Y36880D01*
X285745Y36933D01*
X285678Y36989D01*
X285614Y37048D01*
X285552Y37110D01*
X285493Y37174D01*
X285437Y37241D01*
X285384Y37311D01*
X285334Y37382D01*
X285288Y37456D01*
X285244Y37532D01*
X285205Y37610D01*
X285169Y37690D01*
X285136Y37771D01*
X285107Y37853D01*
X285082Y37937D01*
X285061Y38022D01*
X285043Y38107D01*
X285030Y38194D01*
X285020Y38280D01*
X285014Y38368D01*
X285012Y38455D01*
X285012Y42350D01*
X285014Y42437D01*
X285020Y42525D01*
X285030Y42611D01*
X285043Y42698D01*
X285061Y42783D01*
X285082Y42868D01*
X285107Y42952D01*
X285136Y43034D01*
X285169Y43115D01*
X285205Y43195D01*
X285244Y43273D01*
X285288Y43349D01*
X285334Y43423D01*
X285384Y43494D01*
X285437Y43564D01*
X285493Y43631D01*
X285552Y43695D01*
X285614Y43757D01*
X285678Y43816D01*
X285745Y43872D01*
X285815Y43925D01*
X285886Y43975D01*
X285960Y44021D01*
X286036Y44065D01*
X286114Y44104D01*
X286194Y44140D01*
X286275Y44173D01*
X286357Y44202D01*
X286441Y44227D01*
X286526Y44248D01*
X286611Y44266D01*
X286698Y44279D01*
X286784Y44289D01*
X286872Y44295D01*
X286959Y44297D01*
X290205Y44297D01*
X301893Y48192D02*
X301893Y36508D01*
X305139Y36508D01*
X305226Y36510D01*
X305314Y36516D01*
X305400Y36526D01*
X305487Y36539D01*
X305572Y36557D01*
X305657Y36578D01*
X305741Y36603D01*
X305823Y36632D01*
X305904Y36665D01*
X305984Y36701D01*
X306062Y36740D01*
X306138Y36784D01*
X306212Y36830D01*
X306283Y36880D01*
X306353Y36933D01*
X306420Y36989D01*
X306484Y37048D01*
X306546Y37109D01*
X306605Y37174D01*
X306661Y37241D01*
X306714Y37311D01*
X306764Y37382D01*
X306810Y37456D01*
X306854Y37532D01*
X306893Y37610D01*
X306929Y37690D01*
X306962Y37771D01*
X306991Y37853D01*
X307016Y37937D01*
X307037Y38022D01*
X307055Y38107D01*
X307068Y38194D01*
X307078Y38280D01*
X307084Y38368D01*
X307086Y38455D01*
X307086Y42350D01*
X307084Y42437D01*
X307078Y42525D01*
X307068Y42611D01*
X307055Y42698D01*
X307037Y42783D01*
X307016Y42868D01*
X306991Y42952D01*
X306962Y43034D01*
X306929Y43115D01*
X306893Y43195D01*
X306854Y43273D01*
X306810Y43349D01*
X306764Y43423D01*
X306714Y43494D01*
X306661Y43564D01*
X306605Y43631D01*
X306546Y43695D01*
X306484Y43757D01*
X306420Y43816D01*
X306353Y43872D01*
X306283Y43925D01*
X306212Y43975D01*
X306138Y44021D01*
X306062Y44065D01*
X305984Y44104D01*
X305904Y44140D01*
X305823Y44173D01*
X305741Y44202D01*
X305657Y44227D01*
X305572Y44248D01*
X305487Y44266D01*
X305400Y44279D01*
X305314Y44289D01*
X305226Y44295D01*
X305139Y44297D01*
X301893Y44297D01*
X311359Y32613D02*
X312658Y32613D01*
X316552Y44297D01*
X311359Y44297D02*
X313956Y36508D01*
X327361Y36508D02*
X327361Y48192D01*
X327361Y44297D02*
X330607Y44297D01*
X330694Y44295D01*
X330782Y44289D01*
X330868Y44279D01*
X330955Y44266D01*
X331040Y44248D01*
X331125Y44227D01*
X331209Y44202D01*
X331291Y44173D01*
X331372Y44140D01*
X331452Y44104D01*
X331530Y44065D01*
X331606Y44021D01*
X331680Y43975D01*
X331751Y43925D01*
X331821Y43872D01*
X331888Y43816D01*
X331952Y43757D01*
X332014Y43696D01*
X332073Y43631D01*
X332129Y43564D01*
X332182Y43494D01*
X332232Y43423D01*
X332278Y43349D01*
X332322Y43273D01*
X332361Y43195D01*
X332397Y43115D01*
X332430Y43034D01*
X332459Y42952D01*
X332484Y42868D01*
X332505Y42783D01*
X332523Y42698D01*
X332536Y42611D01*
X332546Y42525D01*
X332552Y42437D01*
X332554Y42350D01*
X332554Y36508D01*
X338029Y38455D02*
X338029Y44297D01*
X338030Y38455D02*
X338032Y38368D01*
X338038Y38280D01*
X338048Y38194D01*
X338061Y38107D01*
X338079Y38022D01*
X338100Y37937D01*
X338125Y37853D01*
X338154Y37771D01*
X338187Y37690D01*
X338223Y37610D01*
X338262Y37532D01*
X338306Y37456D01*
X338352Y37382D01*
X338402Y37311D01*
X338455Y37241D01*
X338511Y37174D01*
X338570Y37110D01*
X338632Y37048D01*
X338696Y36989D01*
X338763Y36933D01*
X338833Y36880D01*
X338904Y36830D01*
X338978Y36784D01*
X339054Y36740D01*
X339132Y36701D01*
X339212Y36665D01*
X339293Y36632D01*
X339375Y36603D01*
X339459Y36578D01*
X339544Y36557D01*
X339629Y36539D01*
X339716Y36526D01*
X339802Y36516D01*
X339890Y36510D01*
X339977Y36508D01*
X343222Y36508D01*
X343222Y44297D01*
X348923Y44297D02*
X348923Y36508D01*
X348923Y44297D02*
X354765Y44297D01*
X354852Y44295D01*
X354940Y44289D01*
X355026Y44279D01*
X355113Y44266D01*
X355198Y44248D01*
X355283Y44227D01*
X355367Y44202D01*
X355449Y44173D01*
X355530Y44140D01*
X355610Y44104D01*
X355688Y44065D01*
X355764Y44021D01*
X355838Y43975D01*
X355909Y43925D01*
X355979Y43872D01*
X356046Y43816D01*
X356110Y43757D01*
X356172Y43695D01*
X356231Y43631D01*
X356287Y43564D01*
X356340Y43494D01*
X356390Y43423D01*
X356436Y43349D01*
X356480Y43273D01*
X356519Y43195D01*
X356555Y43115D01*
X356588Y43034D01*
X356617Y42952D01*
X356642Y42868D01*
X356663Y42783D01*
X356681Y42698D01*
X356694Y42611D01*
X356704Y42525D01*
X356710Y42437D01*
X356712Y42350D01*
X356713Y42350D02*
X356713Y36508D01*
X352818Y36508D02*
X352818Y44297D01*
X364245Y41052D02*
X367166Y41052D01*
X364245Y41052D02*
X364151Y41050D01*
X364057Y41044D01*
X363964Y41035D01*
X363871Y41021D01*
X363779Y41004D01*
X363687Y40982D01*
X363597Y40958D01*
X363507Y40929D01*
X363419Y40897D01*
X363332Y40861D01*
X363247Y40821D01*
X363164Y40778D01*
X363082Y40732D01*
X363002Y40682D01*
X362925Y40629D01*
X362850Y40573D01*
X362777Y40514D01*
X362706Y40452D01*
X362638Y40387D01*
X362573Y40319D01*
X362511Y40248D01*
X362452Y40175D01*
X362396Y40100D01*
X362343Y40023D01*
X362293Y39943D01*
X362247Y39861D01*
X362204Y39778D01*
X362164Y39693D01*
X362128Y39606D01*
X362096Y39518D01*
X362067Y39428D01*
X362043Y39338D01*
X362021Y39246D01*
X362004Y39154D01*
X361990Y39061D01*
X361981Y38968D01*
X361975Y38874D01*
X361973Y38780D01*
X361975Y38686D01*
X361981Y38592D01*
X361990Y38499D01*
X362004Y38406D01*
X362021Y38314D01*
X362043Y38222D01*
X362067Y38132D01*
X362096Y38042D01*
X362128Y37954D01*
X362164Y37867D01*
X362204Y37782D01*
X362247Y37699D01*
X362293Y37617D01*
X362343Y37537D01*
X362396Y37460D01*
X362452Y37385D01*
X362511Y37312D01*
X362573Y37241D01*
X362638Y37173D01*
X362706Y37108D01*
X362777Y37046D01*
X362850Y36987D01*
X362925Y36931D01*
X363002Y36878D01*
X363082Y36828D01*
X363164Y36782D01*
X363247Y36739D01*
X363332Y36699D01*
X363419Y36663D01*
X363507Y36631D01*
X363597Y36602D01*
X363687Y36578D01*
X363779Y36556D01*
X363871Y36539D01*
X363964Y36525D01*
X364057Y36516D01*
X364151Y36510D01*
X364245Y36508D01*
X367166Y36508D01*
X367166Y42350D01*
X367164Y42437D01*
X367158Y42525D01*
X367148Y42611D01*
X367135Y42698D01*
X367117Y42783D01*
X367096Y42868D01*
X367071Y42952D01*
X367042Y43034D01*
X367009Y43115D01*
X366973Y43195D01*
X366934Y43273D01*
X366890Y43349D01*
X366844Y43423D01*
X366794Y43494D01*
X366741Y43564D01*
X366685Y43631D01*
X366626Y43695D01*
X366564Y43757D01*
X366500Y43816D01*
X366433Y43872D01*
X366363Y43925D01*
X366292Y43975D01*
X366218Y44021D01*
X366142Y44065D01*
X366064Y44104D01*
X365984Y44140D01*
X365903Y44173D01*
X365821Y44202D01*
X365737Y44227D01*
X365652Y44248D01*
X365567Y44266D01*
X365480Y44279D01*
X365394Y44289D01*
X365306Y44295D01*
X365219Y44297D01*
X362623Y44297D01*
X372700Y44297D02*
X372700Y36508D01*
X372700Y44297D02*
X375946Y44297D01*
X376033Y44295D01*
X376121Y44289D01*
X376207Y44279D01*
X376294Y44266D01*
X376379Y44248D01*
X376464Y44227D01*
X376548Y44202D01*
X376630Y44173D01*
X376711Y44140D01*
X376791Y44104D01*
X376869Y44065D01*
X376945Y44021D01*
X377019Y43975D01*
X377090Y43925D01*
X377160Y43872D01*
X377227Y43816D01*
X377291Y43757D01*
X377353Y43696D01*
X377412Y43631D01*
X377468Y43564D01*
X377521Y43494D01*
X377571Y43423D01*
X377617Y43349D01*
X377661Y43273D01*
X377700Y43195D01*
X377736Y43115D01*
X377769Y43034D01*
X377798Y42952D01*
X377823Y42868D01*
X377844Y42783D01*
X377862Y42698D01*
X377875Y42611D01*
X377885Y42525D01*
X377891Y42437D01*
X377893Y42350D01*
X377893Y36508D01*
X383961Y41052D02*
X387207Y39754D01*
X383961Y41051D02*
X383886Y41084D01*
X383812Y41120D01*
X383740Y41159D01*
X383670Y41202D01*
X383603Y41248D01*
X383537Y41298D01*
X383475Y41350D01*
X383414Y41406D01*
X383357Y41464D01*
X383302Y41525D01*
X383251Y41589D01*
X383203Y41655D01*
X383158Y41724D01*
X383116Y41794D01*
X383078Y41867D01*
X383043Y41941D01*
X383012Y42017D01*
X382985Y42094D01*
X382962Y42173D01*
X382942Y42252D01*
X382927Y42333D01*
X382915Y42414D01*
X382907Y42496D01*
X382903Y42577D01*
X382904Y42659D01*
X382908Y42741D01*
X382916Y42823D01*
X382928Y42904D01*
X382944Y42984D01*
X382964Y43064D01*
X382988Y43142D01*
X383016Y43219D01*
X383047Y43295D01*
X383082Y43369D01*
X383120Y43441D01*
X383162Y43512D01*
X383208Y43580D01*
X383256Y43646D01*
X383308Y43709D01*
X383363Y43770D01*
X383421Y43828D01*
X383481Y43884D01*
X383544Y43936D01*
X383610Y43985D01*
X383678Y44031D01*
X383748Y44073D01*
X383820Y44113D01*
X383894Y44148D01*
X383969Y44180D01*
X384046Y44208D01*
X384124Y44232D01*
X384204Y44253D01*
X384284Y44270D01*
X384365Y44282D01*
X384446Y44291D01*
X384528Y44296D01*
X384610Y44297D01*
X384787Y44293D01*
X384964Y44284D01*
X385141Y44270D01*
X385318Y44253D01*
X385493Y44231D01*
X385669Y44206D01*
X385843Y44175D01*
X386017Y44141D01*
X386190Y44103D01*
X386362Y44060D01*
X386533Y44013D01*
X386703Y43963D01*
X386872Y43908D01*
X387039Y43849D01*
X387204Y43786D01*
X387369Y43719D01*
X387531Y43648D01*
X387207Y39754D02*
X387282Y39721D01*
X387356Y39685D01*
X387428Y39646D01*
X387498Y39603D01*
X387565Y39557D01*
X387631Y39507D01*
X387693Y39455D01*
X387754Y39399D01*
X387811Y39341D01*
X387866Y39280D01*
X387917Y39216D01*
X387965Y39150D01*
X388010Y39081D01*
X388052Y39011D01*
X388090Y38938D01*
X388125Y38864D01*
X388156Y38788D01*
X388183Y38711D01*
X388206Y38632D01*
X388226Y38553D01*
X388241Y38472D01*
X388253Y38391D01*
X388261Y38309D01*
X388265Y38228D01*
X388264Y38146D01*
X388260Y38064D01*
X388252Y37982D01*
X388240Y37901D01*
X388224Y37821D01*
X388204Y37741D01*
X388180Y37663D01*
X388152Y37586D01*
X388121Y37510D01*
X388086Y37436D01*
X388048Y37364D01*
X388006Y37293D01*
X387960Y37225D01*
X387912Y37159D01*
X387860Y37096D01*
X387805Y37035D01*
X387747Y36977D01*
X387687Y36921D01*
X387624Y36869D01*
X387558Y36820D01*
X387490Y36774D01*
X387420Y36732D01*
X387348Y36692D01*
X387274Y36657D01*
X387199Y36625D01*
X387122Y36597D01*
X387044Y36573D01*
X386964Y36552D01*
X386884Y36535D01*
X386803Y36523D01*
X386722Y36514D01*
X386640Y36509D01*
X386558Y36508D01*
X386298Y36515D01*
X386038Y36528D01*
X385778Y36547D01*
X385519Y36572D01*
X385260Y36604D01*
X385003Y36641D01*
X384746Y36685D01*
X384490Y36734D01*
X384236Y36790D01*
X383983Y36851D01*
X383732Y36919D01*
X383482Y36993D01*
X383234Y37072D01*
X382988Y37157D01*
X402729Y41052D02*
X402729Y44946D01*
X402729Y41052D02*
X405001Y38131D01*
X402729Y41052D02*
X400457Y38131D01*
X402729Y41052D02*
X406299Y42350D01*
X402729Y41052D02*
X399159Y42350D01*
D11*
X284000Y153000D02*
X284000Y157000D01*
X288000Y157000D01*
X310000Y157000D02*
X314000Y157000D01*
X314000Y153000D01*
X284000Y131000D02*
X284000Y127000D01*
X288000Y127000D01*
X310000Y127000D02*
X314000Y127000D01*
X314000Y131000D01*
D12*
X277750Y156000D02*
X277752Y156070D01*
X277758Y156140D01*
X277768Y156209D01*
X277781Y156278D01*
X277799Y156346D01*
X277820Y156413D01*
X277845Y156478D01*
X277874Y156542D01*
X277906Y156605D01*
X277942Y156665D01*
X277981Y156723D01*
X278023Y156779D01*
X278068Y156833D01*
X278116Y156884D01*
X278167Y156932D01*
X278221Y156977D01*
X278277Y157019D01*
X278335Y157058D01*
X278395Y157094D01*
X278458Y157126D01*
X278522Y157155D01*
X278587Y157180D01*
X278654Y157201D01*
X278722Y157219D01*
X278791Y157232D01*
X278860Y157242D01*
X278930Y157248D01*
X279000Y157250D01*
X279070Y157248D01*
X279140Y157242D01*
X279209Y157232D01*
X279278Y157219D01*
X279346Y157201D01*
X279413Y157180D01*
X279478Y157155D01*
X279542Y157126D01*
X279605Y157094D01*
X279665Y157058D01*
X279723Y157019D01*
X279779Y156977D01*
X279833Y156932D01*
X279884Y156884D01*
X279932Y156833D01*
X279977Y156779D01*
X280019Y156723D01*
X280058Y156665D01*
X280094Y156605D01*
X280126Y156542D01*
X280155Y156478D01*
X280180Y156413D01*
X280201Y156346D01*
X280219Y156278D01*
X280232Y156209D01*
X280242Y156140D01*
X280248Y156070D01*
X280250Y156000D01*
X280248Y155930D01*
X280242Y155860D01*
X280232Y155791D01*
X280219Y155722D01*
X280201Y155654D01*
X280180Y155587D01*
X280155Y155522D01*
X280126Y155458D01*
X280094Y155395D01*
X280058Y155335D01*
X280019Y155277D01*
X279977Y155221D01*
X279932Y155167D01*
X279884Y155116D01*
X279833Y155068D01*
X279779Y155023D01*
X279723Y154981D01*
X279665Y154942D01*
X279605Y154906D01*
X279542Y154874D01*
X279478Y154845D01*
X279413Y154820D01*
X279346Y154799D01*
X279278Y154781D01*
X279209Y154768D01*
X279140Y154758D01*
X279070Y154752D01*
X279000Y154750D01*
X278930Y154752D01*
X278860Y154758D01*
X278791Y154768D01*
X278722Y154781D01*
X278654Y154799D01*
X278587Y154820D01*
X278522Y154845D01*
X278458Y154874D01*
X278395Y154906D01*
X278335Y154942D01*
X278277Y154981D01*
X278221Y155023D01*
X278167Y155068D01*
X278116Y155116D01*
X278068Y155167D01*
X278023Y155221D01*
X277981Y155277D01*
X277942Y155335D01*
X277906Y155395D01*
X277874Y155458D01*
X277845Y155522D01*
X277820Y155587D01*
X277799Y155654D01*
X277781Y155722D01*
X277768Y155791D01*
X277758Y155860D01*
X277752Y155930D01*
X277750Y156000D01*
D10*
X274003Y199108D02*
X274003Y210792D01*
X274003Y199108D02*
X279196Y199108D01*
X283506Y208196D02*
X286751Y210792D01*
X286751Y199108D01*
X283506Y199108D02*
X289997Y199108D01*
X305739Y79108D02*
X308336Y79108D01*
X305739Y79108D02*
X305640Y79110D01*
X305540Y79116D01*
X305441Y79125D01*
X305343Y79138D01*
X305245Y79155D01*
X305147Y79176D01*
X305051Y79201D01*
X304956Y79229D01*
X304862Y79261D01*
X304769Y79296D01*
X304677Y79335D01*
X304587Y79378D01*
X304499Y79423D01*
X304412Y79473D01*
X304328Y79525D01*
X304245Y79581D01*
X304165Y79639D01*
X304087Y79701D01*
X304012Y79766D01*
X303939Y79834D01*
X303869Y79904D01*
X303801Y79977D01*
X303736Y80052D01*
X303674Y80130D01*
X303616Y80210D01*
X303560Y80293D01*
X303508Y80377D01*
X303458Y80464D01*
X303413Y80552D01*
X303370Y80642D01*
X303331Y80734D01*
X303296Y80827D01*
X303264Y80921D01*
X303236Y81016D01*
X303211Y81112D01*
X303190Y81210D01*
X303173Y81308D01*
X303160Y81406D01*
X303151Y81505D01*
X303145Y81605D01*
X303143Y81704D01*
X303143Y88196D01*
X303145Y88295D01*
X303151Y88395D01*
X303160Y88494D01*
X303173Y88592D01*
X303190Y88690D01*
X303211Y88788D01*
X303236Y88884D01*
X303264Y88979D01*
X303296Y89073D01*
X303331Y89166D01*
X303370Y89258D01*
X303413Y89348D01*
X303458Y89436D01*
X303508Y89523D01*
X303560Y89607D01*
X303616Y89690D01*
X303674Y89770D01*
X303736Y89848D01*
X303801Y89923D01*
X303869Y89996D01*
X303939Y90066D01*
X304012Y90134D01*
X304087Y90199D01*
X304165Y90261D01*
X304245Y90319D01*
X304328Y90375D01*
X304412Y90427D01*
X304499Y90477D01*
X304587Y90522D01*
X304677Y90565D01*
X304769Y90604D01*
X304861Y90639D01*
X304956Y90671D01*
X305051Y90699D01*
X305147Y90724D01*
X305245Y90745D01*
X305343Y90762D01*
X305441Y90775D01*
X305540Y90784D01*
X305640Y90790D01*
X305739Y90792D01*
X308336Y90792D01*
X312701Y88196D02*
X315946Y90792D01*
X315946Y79108D01*
X312701Y79108D02*
X319192Y79108D01*
X330404Y183208D02*
X333001Y183208D01*
X330404Y183208D02*
X330305Y183210D01*
X330205Y183216D01*
X330106Y183225D01*
X330008Y183238D01*
X329910Y183255D01*
X329812Y183276D01*
X329716Y183301D01*
X329621Y183329D01*
X329527Y183361D01*
X329434Y183396D01*
X329342Y183435D01*
X329252Y183478D01*
X329164Y183523D01*
X329077Y183573D01*
X328993Y183625D01*
X328910Y183681D01*
X328830Y183739D01*
X328752Y183801D01*
X328677Y183866D01*
X328604Y183934D01*
X328534Y184004D01*
X328466Y184077D01*
X328401Y184152D01*
X328339Y184230D01*
X328281Y184310D01*
X328225Y184393D01*
X328173Y184477D01*
X328123Y184564D01*
X328078Y184652D01*
X328035Y184742D01*
X327996Y184834D01*
X327961Y184927D01*
X327929Y185021D01*
X327901Y185116D01*
X327876Y185212D01*
X327855Y185310D01*
X327838Y185408D01*
X327825Y185506D01*
X327816Y185605D01*
X327810Y185705D01*
X327808Y185804D01*
X327808Y192296D01*
X327810Y192395D01*
X327816Y192495D01*
X327825Y192594D01*
X327838Y192692D01*
X327855Y192790D01*
X327876Y192888D01*
X327901Y192984D01*
X327929Y193079D01*
X327961Y193173D01*
X327996Y193266D01*
X328035Y193358D01*
X328078Y193448D01*
X328123Y193536D01*
X328173Y193623D01*
X328225Y193707D01*
X328281Y193790D01*
X328339Y193870D01*
X328401Y193948D01*
X328466Y194023D01*
X328534Y194096D01*
X328604Y194166D01*
X328677Y194234D01*
X328752Y194299D01*
X328830Y194361D01*
X328910Y194419D01*
X328993Y194475D01*
X329077Y194527D01*
X329164Y194577D01*
X329252Y194622D01*
X329342Y194665D01*
X329434Y194704D01*
X329526Y194739D01*
X329621Y194771D01*
X329716Y194799D01*
X329812Y194824D01*
X329910Y194845D01*
X330008Y194862D01*
X330106Y194875D01*
X330205Y194884D01*
X330305Y194890D01*
X330404Y194892D01*
X333001Y194892D01*
X340936Y194892D02*
X341043Y194890D01*
X341149Y194884D01*
X341255Y194874D01*
X341361Y194861D01*
X341467Y194843D01*
X341571Y194822D01*
X341675Y194797D01*
X341778Y194768D01*
X341879Y194736D01*
X341979Y194699D01*
X342078Y194659D01*
X342176Y194616D01*
X342272Y194569D01*
X342366Y194518D01*
X342458Y194464D01*
X342548Y194407D01*
X342636Y194347D01*
X342721Y194283D01*
X342804Y194216D01*
X342885Y194146D01*
X342963Y194074D01*
X343039Y193998D01*
X343111Y193920D01*
X343181Y193839D01*
X343248Y193756D01*
X343312Y193671D01*
X343372Y193583D01*
X343429Y193493D01*
X343483Y193401D01*
X343534Y193307D01*
X343581Y193211D01*
X343624Y193113D01*
X343664Y193014D01*
X343701Y192914D01*
X343733Y192813D01*
X343762Y192710D01*
X343787Y192606D01*
X343808Y192502D01*
X343826Y192396D01*
X343839Y192290D01*
X343849Y192184D01*
X343855Y192078D01*
X343857Y191971D01*
X340936Y194892D02*
X340815Y194890D01*
X340694Y194884D01*
X340574Y194874D01*
X340453Y194861D01*
X340334Y194843D01*
X340214Y194822D01*
X340096Y194797D01*
X339979Y194768D01*
X339862Y194735D01*
X339747Y194699D01*
X339633Y194658D01*
X339520Y194615D01*
X339408Y194567D01*
X339299Y194516D01*
X339191Y194461D01*
X339084Y194403D01*
X338980Y194342D01*
X338878Y194277D01*
X338778Y194209D01*
X338680Y194138D01*
X338584Y194064D01*
X338491Y193987D01*
X338401Y193906D01*
X338313Y193823D01*
X338228Y193737D01*
X338145Y193648D01*
X338066Y193557D01*
X337989Y193463D01*
X337916Y193367D01*
X337846Y193269D01*
X337779Y193168D01*
X337715Y193065D01*
X337655Y192960D01*
X337598Y192853D01*
X337544Y192745D01*
X337494Y192635D01*
X337448Y192523D01*
X337405Y192410D01*
X337366Y192295D01*
X342884Y189699D02*
X342963Y189776D01*
X343039Y189857D01*
X343112Y189940D01*
X343182Y190025D01*
X343249Y190113D01*
X343313Y190203D01*
X343373Y190295D01*
X343430Y190390D01*
X343484Y190486D01*
X343535Y190584D01*
X343582Y190684D01*
X343626Y190786D01*
X343666Y190889D01*
X343702Y190993D01*
X343734Y191099D01*
X343763Y191205D01*
X343788Y191313D01*
X343810Y191421D01*
X343827Y191531D01*
X343841Y191640D01*
X343850Y191750D01*
X343856Y191861D01*
X343858Y191971D01*
X342884Y189699D02*
X337366Y183208D01*
X343857Y183208D01*
X254001Y183208D02*
X251404Y183208D01*
X251305Y183210D01*
X251205Y183216D01*
X251106Y183225D01*
X251008Y183238D01*
X250910Y183255D01*
X250812Y183276D01*
X250716Y183301D01*
X250621Y183329D01*
X250527Y183361D01*
X250434Y183396D01*
X250342Y183435D01*
X250252Y183478D01*
X250164Y183523D01*
X250077Y183573D01*
X249993Y183625D01*
X249910Y183681D01*
X249830Y183739D01*
X249752Y183801D01*
X249677Y183866D01*
X249604Y183934D01*
X249534Y184004D01*
X249466Y184077D01*
X249401Y184152D01*
X249339Y184230D01*
X249281Y184310D01*
X249225Y184393D01*
X249173Y184477D01*
X249123Y184564D01*
X249078Y184652D01*
X249035Y184742D01*
X248996Y184834D01*
X248961Y184927D01*
X248929Y185021D01*
X248901Y185116D01*
X248876Y185212D01*
X248855Y185310D01*
X248838Y185408D01*
X248825Y185506D01*
X248816Y185605D01*
X248810Y185705D01*
X248808Y185804D01*
X248808Y192296D01*
X248810Y192395D01*
X248816Y192495D01*
X248825Y192594D01*
X248838Y192692D01*
X248855Y192790D01*
X248876Y192888D01*
X248901Y192984D01*
X248929Y193079D01*
X248961Y193173D01*
X248996Y193266D01*
X249035Y193358D01*
X249078Y193448D01*
X249123Y193536D01*
X249173Y193623D01*
X249225Y193707D01*
X249281Y193790D01*
X249339Y193870D01*
X249401Y193948D01*
X249466Y194023D01*
X249534Y194096D01*
X249604Y194166D01*
X249677Y194234D01*
X249752Y194299D01*
X249830Y194361D01*
X249910Y194419D01*
X249993Y194475D01*
X250077Y194527D01*
X250164Y194577D01*
X250252Y194622D01*
X250342Y194665D01*
X250434Y194704D01*
X250526Y194739D01*
X250621Y194771D01*
X250716Y194799D01*
X250812Y194824D01*
X250910Y194845D01*
X251008Y194862D01*
X251106Y194875D01*
X251205Y194884D01*
X251305Y194890D01*
X251404Y194892D01*
X254001Y194892D01*
X258366Y183208D02*
X261612Y183208D01*
X261725Y183210D01*
X261838Y183216D01*
X261951Y183226D01*
X262064Y183240D01*
X262176Y183257D01*
X262287Y183279D01*
X262397Y183304D01*
X262507Y183334D01*
X262615Y183367D01*
X262722Y183404D01*
X262828Y183444D01*
X262932Y183489D01*
X263035Y183537D01*
X263136Y183588D01*
X263235Y183643D01*
X263332Y183701D01*
X263427Y183763D01*
X263520Y183828D01*
X263610Y183896D01*
X263698Y183967D01*
X263784Y184042D01*
X263867Y184119D01*
X263947Y184199D01*
X264024Y184282D01*
X264099Y184368D01*
X264170Y184456D01*
X264238Y184546D01*
X264303Y184639D01*
X264365Y184734D01*
X264423Y184831D01*
X264478Y184930D01*
X264529Y185031D01*
X264577Y185134D01*
X264622Y185238D01*
X264662Y185344D01*
X264699Y185451D01*
X264732Y185559D01*
X264762Y185669D01*
X264787Y185779D01*
X264809Y185890D01*
X264826Y186002D01*
X264840Y186115D01*
X264850Y186228D01*
X264856Y186341D01*
X264858Y186454D01*
X264856Y186567D01*
X264850Y186680D01*
X264840Y186793D01*
X264826Y186906D01*
X264809Y187018D01*
X264787Y187129D01*
X264762Y187239D01*
X264732Y187349D01*
X264699Y187457D01*
X264662Y187564D01*
X264622Y187670D01*
X264577Y187774D01*
X264529Y187877D01*
X264478Y187978D01*
X264423Y188077D01*
X264365Y188174D01*
X264303Y188269D01*
X264238Y188362D01*
X264170Y188452D01*
X264099Y188540D01*
X264024Y188626D01*
X263947Y188709D01*
X263867Y188789D01*
X263784Y188866D01*
X263698Y188941D01*
X263610Y189012D01*
X263520Y189080D01*
X263427Y189145D01*
X263332Y189207D01*
X263235Y189265D01*
X263136Y189320D01*
X263035Y189371D01*
X262932Y189419D01*
X262828Y189464D01*
X262722Y189504D01*
X262615Y189541D01*
X262507Y189574D01*
X262397Y189604D01*
X262287Y189629D01*
X262176Y189651D01*
X262064Y189668D01*
X261951Y189682D01*
X261838Y189692D01*
X261725Y189698D01*
X261612Y189700D01*
X262261Y194892D02*
X258366Y194892D01*
X262261Y194892D02*
X262362Y194890D01*
X262462Y194884D01*
X262562Y194874D01*
X262662Y194861D01*
X262761Y194843D01*
X262860Y194822D01*
X262957Y194797D01*
X263054Y194768D01*
X263149Y194735D01*
X263243Y194699D01*
X263335Y194659D01*
X263426Y194616D01*
X263515Y194569D01*
X263602Y194519D01*
X263688Y194465D01*
X263771Y194408D01*
X263851Y194348D01*
X263930Y194285D01*
X264006Y194218D01*
X264079Y194149D01*
X264149Y194077D01*
X264217Y194003D01*
X264282Y193926D01*
X264343Y193846D01*
X264402Y193764D01*
X264457Y193680D01*
X264509Y193594D01*
X264558Y193506D01*
X264603Y193416D01*
X264645Y193324D01*
X264683Y193231D01*
X264717Y193136D01*
X264748Y193041D01*
X264775Y192944D01*
X264798Y192846D01*
X264818Y192747D01*
X264833Y192647D01*
X264845Y192547D01*
X264853Y192447D01*
X264857Y192346D01*
X264857Y192246D01*
X264853Y192145D01*
X264845Y192045D01*
X264833Y191945D01*
X264818Y191845D01*
X264798Y191746D01*
X264775Y191648D01*
X264748Y191551D01*
X264717Y191456D01*
X264683Y191361D01*
X264645Y191268D01*
X264603Y191176D01*
X264558Y191086D01*
X264509Y190998D01*
X264457Y190912D01*
X264402Y190828D01*
X264343Y190746D01*
X264282Y190666D01*
X264217Y190589D01*
X264149Y190515D01*
X264079Y190443D01*
X264006Y190374D01*
X263930Y190307D01*
X263851Y190244D01*
X263771Y190184D01*
X263688Y190127D01*
X263602Y190073D01*
X263515Y190023D01*
X263426Y189976D01*
X263335Y189933D01*
X263243Y189893D01*
X263149Y189857D01*
X263054Y189824D01*
X262957Y189795D01*
X262860Y189770D01*
X262761Y189749D01*
X262662Y189731D01*
X262562Y189718D01*
X262462Y189708D01*
X262362Y189702D01*
X262261Y189700D01*
X262261Y189699D02*
X259664Y189699D01*
X250995Y90792D02*
X250995Y79108D01*
X250995Y90792D02*
X254240Y90792D01*
X254353Y90790D01*
X254466Y90784D01*
X254579Y90774D01*
X254692Y90760D01*
X254804Y90743D01*
X254915Y90721D01*
X255025Y90696D01*
X255135Y90666D01*
X255243Y90633D01*
X255350Y90596D01*
X255456Y90556D01*
X255560Y90511D01*
X255663Y90463D01*
X255764Y90412D01*
X255863Y90357D01*
X255960Y90299D01*
X256055Y90237D01*
X256148Y90172D01*
X256238Y90104D01*
X256326Y90033D01*
X256412Y89958D01*
X256495Y89881D01*
X256575Y89801D01*
X256652Y89718D01*
X256727Y89632D01*
X256798Y89544D01*
X256866Y89454D01*
X256931Y89361D01*
X256993Y89266D01*
X257051Y89169D01*
X257106Y89070D01*
X257157Y88969D01*
X257205Y88866D01*
X257250Y88762D01*
X257290Y88656D01*
X257327Y88549D01*
X257360Y88441D01*
X257390Y88331D01*
X257415Y88221D01*
X257437Y88110D01*
X257454Y87998D01*
X257468Y87885D01*
X257478Y87772D01*
X257484Y87659D01*
X257486Y87546D01*
X257484Y87433D01*
X257478Y87320D01*
X257468Y87207D01*
X257454Y87094D01*
X257437Y86982D01*
X257415Y86871D01*
X257390Y86761D01*
X257360Y86651D01*
X257327Y86543D01*
X257290Y86436D01*
X257250Y86330D01*
X257205Y86226D01*
X257157Y86123D01*
X257106Y86022D01*
X257051Y85923D01*
X256993Y85826D01*
X256931Y85731D01*
X256866Y85638D01*
X256798Y85548D01*
X256727Y85460D01*
X256652Y85374D01*
X256575Y85291D01*
X256495Y85211D01*
X256412Y85134D01*
X256326Y85059D01*
X256238Y84988D01*
X256148Y84920D01*
X256055Y84855D01*
X255960Y84793D01*
X255863Y84735D01*
X255764Y84680D01*
X255663Y84629D01*
X255560Y84581D01*
X255456Y84536D01*
X255350Y84496D01*
X255243Y84459D01*
X255135Y84426D01*
X255025Y84396D01*
X254915Y84371D01*
X254804Y84349D01*
X254692Y84332D01*
X254579Y84318D01*
X254466Y84308D01*
X254353Y84302D01*
X254240Y84300D01*
X254240Y84301D02*
X250995Y84301D01*
X254889Y84301D02*
X257486Y79108D01*
X262351Y88196D02*
X265596Y90792D01*
X265596Y79108D01*
X262351Y79108D02*
X268842Y79108D01*
D11*
X414000Y153000D02*
X414000Y157000D01*
X418000Y157000D01*
X440000Y157000D02*
X444000Y157000D01*
X444000Y153000D01*
X414000Y131000D02*
X414000Y127000D01*
X418000Y127000D01*
X440000Y127000D02*
X444000Y127000D01*
X444000Y131000D01*
D12*
X407750Y156000D02*
X407752Y156070D01*
X407758Y156140D01*
X407768Y156209D01*
X407781Y156278D01*
X407799Y156346D01*
X407820Y156413D01*
X407845Y156478D01*
X407874Y156542D01*
X407906Y156605D01*
X407942Y156665D01*
X407981Y156723D01*
X408023Y156779D01*
X408068Y156833D01*
X408116Y156884D01*
X408167Y156932D01*
X408221Y156977D01*
X408277Y157019D01*
X408335Y157058D01*
X408395Y157094D01*
X408458Y157126D01*
X408522Y157155D01*
X408587Y157180D01*
X408654Y157201D01*
X408722Y157219D01*
X408791Y157232D01*
X408860Y157242D01*
X408930Y157248D01*
X409000Y157250D01*
X409070Y157248D01*
X409140Y157242D01*
X409209Y157232D01*
X409278Y157219D01*
X409346Y157201D01*
X409413Y157180D01*
X409478Y157155D01*
X409542Y157126D01*
X409605Y157094D01*
X409665Y157058D01*
X409723Y157019D01*
X409779Y156977D01*
X409833Y156932D01*
X409884Y156884D01*
X409932Y156833D01*
X409977Y156779D01*
X410019Y156723D01*
X410058Y156665D01*
X410094Y156605D01*
X410126Y156542D01*
X410155Y156478D01*
X410180Y156413D01*
X410201Y156346D01*
X410219Y156278D01*
X410232Y156209D01*
X410242Y156140D01*
X410248Y156070D01*
X410250Y156000D01*
X410248Y155930D01*
X410242Y155860D01*
X410232Y155791D01*
X410219Y155722D01*
X410201Y155654D01*
X410180Y155587D01*
X410155Y155522D01*
X410126Y155458D01*
X410094Y155395D01*
X410058Y155335D01*
X410019Y155277D01*
X409977Y155221D01*
X409932Y155167D01*
X409884Y155116D01*
X409833Y155068D01*
X409779Y155023D01*
X409723Y154981D01*
X409665Y154942D01*
X409605Y154906D01*
X409542Y154874D01*
X409478Y154845D01*
X409413Y154820D01*
X409346Y154799D01*
X409278Y154781D01*
X409209Y154768D01*
X409140Y154758D01*
X409070Y154752D01*
X409000Y154750D01*
X408930Y154752D01*
X408860Y154758D01*
X408791Y154768D01*
X408722Y154781D01*
X408654Y154799D01*
X408587Y154820D01*
X408522Y154845D01*
X408458Y154874D01*
X408395Y154906D01*
X408335Y154942D01*
X408277Y154981D01*
X408221Y155023D01*
X408167Y155068D01*
X408116Y155116D01*
X408068Y155167D01*
X408023Y155221D01*
X407981Y155277D01*
X407942Y155335D01*
X407906Y155395D01*
X407874Y155458D01*
X407845Y155522D01*
X407820Y155587D01*
X407799Y155654D01*
X407781Y155722D01*
X407768Y155791D01*
X407758Y155860D01*
X407752Y155930D01*
X407750Y156000D01*
D10*
X405003Y199108D02*
X405003Y210792D01*
X405003Y199108D02*
X410196Y199108D01*
X420997Y207871D02*
X420995Y207978D01*
X420989Y208084D01*
X420979Y208190D01*
X420966Y208296D01*
X420948Y208402D01*
X420927Y208506D01*
X420902Y208610D01*
X420873Y208713D01*
X420841Y208814D01*
X420804Y208914D01*
X420764Y209013D01*
X420721Y209111D01*
X420674Y209207D01*
X420623Y209301D01*
X420569Y209393D01*
X420512Y209483D01*
X420452Y209571D01*
X420388Y209656D01*
X420321Y209739D01*
X420251Y209820D01*
X420179Y209898D01*
X420103Y209974D01*
X420025Y210046D01*
X419944Y210116D01*
X419861Y210183D01*
X419776Y210247D01*
X419688Y210307D01*
X419598Y210364D01*
X419506Y210418D01*
X419412Y210469D01*
X419316Y210516D01*
X419218Y210559D01*
X419119Y210599D01*
X419019Y210636D01*
X418918Y210668D01*
X418815Y210697D01*
X418711Y210722D01*
X418607Y210743D01*
X418501Y210761D01*
X418395Y210774D01*
X418289Y210784D01*
X418183Y210790D01*
X418076Y210792D01*
X417955Y210790D01*
X417834Y210784D01*
X417714Y210774D01*
X417593Y210761D01*
X417474Y210743D01*
X417354Y210722D01*
X417236Y210697D01*
X417119Y210668D01*
X417002Y210635D01*
X416887Y210599D01*
X416773Y210558D01*
X416660Y210515D01*
X416548Y210467D01*
X416439Y210416D01*
X416331Y210361D01*
X416224Y210303D01*
X416120Y210242D01*
X416018Y210177D01*
X415918Y210109D01*
X415820Y210038D01*
X415724Y209964D01*
X415631Y209887D01*
X415541Y209806D01*
X415453Y209723D01*
X415368Y209637D01*
X415285Y209548D01*
X415206Y209457D01*
X415129Y209363D01*
X415056Y209267D01*
X414986Y209169D01*
X414919Y209068D01*
X414855Y208965D01*
X414795Y208860D01*
X414738Y208753D01*
X414684Y208645D01*
X414634Y208535D01*
X414588Y208423D01*
X414545Y208310D01*
X414506Y208195D01*
X420023Y205599D02*
X420102Y205676D01*
X420178Y205757D01*
X420251Y205840D01*
X420321Y205925D01*
X420388Y206013D01*
X420452Y206103D01*
X420512Y206195D01*
X420569Y206290D01*
X420623Y206386D01*
X420674Y206484D01*
X420721Y206584D01*
X420765Y206686D01*
X420805Y206789D01*
X420841Y206893D01*
X420873Y206999D01*
X420902Y207105D01*
X420927Y207213D01*
X420949Y207321D01*
X420966Y207431D01*
X420980Y207540D01*
X420989Y207650D01*
X420995Y207761D01*
X420997Y207871D01*
X420023Y205599D02*
X414506Y199108D01*
X420997Y199108D01*
X435739Y79108D02*
X438336Y79108D01*
X435739Y79108D02*
X435640Y79110D01*
X435540Y79116D01*
X435441Y79125D01*
X435343Y79138D01*
X435245Y79155D01*
X435147Y79176D01*
X435051Y79201D01*
X434956Y79229D01*
X434862Y79261D01*
X434769Y79296D01*
X434677Y79335D01*
X434587Y79378D01*
X434499Y79423D01*
X434412Y79473D01*
X434328Y79525D01*
X434245Y79581D01*
X434165Y79639D01*
X434087Y79701D01*
X434012Y79766D01*
X433939Y79834D01*
X433869Y79904D01*
X433801Y79977D01*
X433736Y80052D01*
X433674Y80130D01*
X433616Y80210D01*
X433560Y80293D01*
X433508Y80377D01*
X433458Y80464D01*
X433413Y80552D01*
X433370Y80642D01*
X433331Y80734D01*
X433296Y80827D01*
X433264Y80921D01*
X433236Y81016D01*
X433211Y81112D01*
X433190Y81210D01*
X433173Y81308D01*
X433160Y81406D01*
X433151Y81505D01*
X433145Y81605D01*
X433143Y81704D01*
X433143Y88196D01*
X433145Y88295D01*
X433151Y88395D01*
X433160Y88494D01*
X433173Y88592D01*
X433190Y88690D01*
X433211Y88788D01*
X433236Y88884D01*
X433264Y88979D01*
X433296Y89073D01*
X433331Y89166D01*
X433370Y89258D01*
X433413Y89348D01*
X433458Y89436D01*
X433508Y89523D01*
X433560Y89607D01*
X433616Y89690D01*
X433674Y89770D01*
X433736Y89848D01*
X433801Y89923D01*
X433869Y89996D01*
X433939Y90066D01*
X434012Y90134D01*
X434087Y90199D01*
X434165Y90261D01*
X434245Y90319D01*
X434328Y90375D01*
X434412Y90427D01*
X434499Y90477D01*
X434587Y90522D01*
X434677Y90565D01*
X434769Y90604D01*
X434861Y90639D01*
X434956Y90671D01*
X435051Y90699D01*
X435147Y90724D01*
X435245Y90745D01*
X435343Y90762D01*
X435441Y90775D01*
X435540Y90784D01*
X435640Y90790D01*
X435739Y90792D01*
X438336Y90792D01*
X445297Y90792D02*
X442701Y81704D01*
X449192Y81704D01*
X447245Y84301D02*
X447245Y79108D01*
X461404Y183208D02*
X464001Y183208D01*
X461404Y183208D02*
X461305Y183210D01*
X461205Y183216D01*
X461106Y183225D01*
X461008Y183238D01*
X460910Y183255D01*
X460812Y183276D01*
X460716Y183301D01*
X460621Y183329D01*
X460527Y183361D01*
X460434Y183396D01*
X460342Y183435D01*
X460252Y183478D01*
X460164Y183523D01*
X460077Y183573D01*
X459993Y183625D01*
X459910Y183681D01*
X459830Y183739D01*
X459752Y183801D01*
X459677Y183866D01*
X459604Y183934D01*
X459534Y184004D01*
X459466Y184077D01*
X459401Y184152D01*
X459339Y184230D01*
X459281Y184310D01*
X459225Y184393D01*
X459173Y184477D01*
X459123Y184564D01*
X459078Y184652D01*
X459035Y184742D01*
X458996Y184834D01*
X458961Y184927D01*
X458929Y185021D01*
X458901Y185116D01*
X458876Y185212D01*
X458855Y185310D01*
X458838Y185408D01*
X458825Y185506D01*
X458816Y185605D01*
X458810Y185705D01*
X458808Y185804D01*
X458808Y192296D01*
X458810Y192395D01*
X458816Y192495D01*
X458825Y192594D01*
X458838Y192692D01*
X458855Y192790D01*
X458876Y192888D01*
X458901Y192984D01*
X458929Y193079D01*
X458961Y193173D01*
X458996Y193266D01*
X459035Y193358D01*
X459078Y193448D01*
X459123Y193536D01*
X459173Y193623D01*
X459225Y193707D01*
X459281Y193790D01*
X459339Y193870D01*
X459401Y193948D01*
X459466Y194023D01*
X459534Y194096D01*
X459604Y194166D01*
X459677Y194234D01*
X459752Y194299D01*
X459830Y194361D01*
X459910Y194419D01*
X459993Y194475D01*
X460077Y194527D01*
X460164Y194577D01*
X460252Y194622D01*
X460342Y194665D01*
X460434Y194704D01*
X460526Y194739D01*
X460621Y194771D01*
X460716Y194799D01*
X460812Y194824D01*
X460910Y194845D01*
X461008Y194862D01*
X461106Y194875D01*
X461205Y194884D01*
X461305Y194890D01*
X461404Y194892D01*
X464001Y194892D01*
X468366Y183208D02*
X472261Y183208D01*
X472360Y183210D01*
X472460Y183216D01*
X472559Y183225D01*
X472657Y183238D01*
X472755Y183255D01*
X472853Y183276D01*
X472949Y183301D01*
X473044Y183329D01*
X473138Y183361D01*
X473231Y183396D01*
X473323Y183435D01*
X473413Y183478D01*
X473501Y183523D01*
X473588Y183573D01*
X473672Y183625D01*
X473755Y183681D01*
X473835Y183739D01*
X473913Y183801D01*
X473988Y183866D01*
X474061Y183934D01*
X474131Y184004D01*
X474199Y184077D01*
X474264Y184152D01*
X474326Y184230D01*
X474384Y184310D01*
X474440Y184393D01*
X474492Y184477D01*
X474542Y184564D01*
X474587Y184652D01*
X474630Y184742D01*
X474669Y184834D01*
X474704Y184927D01*
X474736Y185021D01*
X474764Y185116D01*
X474789Y185212D01*
X474810Y185310D01*
X474827Y185408D01*
X474840Y185506D01*
X474849Y185605D01*
X474855Y185705D01*
X474857Y185804D01*
X474857Y187103D01*
X474855Y187202D01*
X474849Y187302D01*
X474840Y187401D01*
X474827Y187499D01*
X474810Y187597D01*
X474789Y187695D01*
X474764Y187791D01*
X474736Y187886D01*
X474704Y187980D01*
X474669Y188073D01*
X474630Y188165D01*
X474587Y188255D01*
X474542Y188343D01*
X474492Y188430D01*
X474440Y188514D01*
X474384Y188597D01*
X474326Y188677D01*
X474264Y188755D01*
X474199Y188830D01*
X474131Y188903D01*
X474061Y188973D01*
X473988Y189041D01*
X473913Y189106D01*
X473835Y189168D01*
X473755Y189226D01*
X473672Y189282D01*
X473588Y189334D01*
X473501Y189384D01*
X473413Y189429D01*
X473323Y189472D01*
X473231Y189511D01*
X473138Y189546D01*
X473044Y189578D01*
X472949Y189606D01*
X472853Y189631D01*
X472755Y189652D01*
X472657Y189669D01*
X472559Y189682D01*
X472460Y189691D01*
X472360Y189697D01*
X472261Y189699D01*
X468366Y189699D01*
X468366Y194892D01*
X474857Y194892D01*
X384001Y183208D02*
X381404Y183208D01*
X381305Y183210D01*
X381205Y183216D01*
X381106Y183225D01*
X381008Y183238D01*
X380910Y183255D01*
X380812Y183276D01*
X380716Y183301D01*
X380621Y183329D01*
X380527Y183361D01*
X380434Y183396D01*
X380342Y183435D01*
X380252Y183478D01*
X380164Y183523D01*
X380077Y183573D01*
X379993Y183625D01*
X379910Y183681D01*
X379830Y183739D01*
X379752Y183801D01*
X379677Y183866D01*
X379604Y183934D01*
X379534Y184004D01*
X379466Y184077D01*
X379401Y184152D01*
X379339Y184230D01*
X379281Y184310D01*
X379225Y184393D01*
X379173Y184477D01*
X379123Y184564D01*
X379078Y184652D01*
X379035Y184742D01*
X378996Y184834D01*
X378961Y184927D01*
X378929Y185021D01*
X378901Y185116D01*
X378876Y185212D01*
X378855Y185310D01*
X378838Y185408D01*
X378825Y185506D01*
X378816Y185605D01*
X378810Y185705D01*
X378808Y185804D01*
X378808Y192296D01*
X378810Y192395D01*
X378816Y192495D01*
X378825Y192594D01*
X378838Y192692D01*
X378855Y192790D01*
X378876Y192888D01*
X378901Y192984D01*
X378929Y193079D01*
X378961Y193173D01*
X378996Y193266D01*
X379035Y193358D01*
X379078Y193448D01*
X379123Y193536D01*
X379173Y193623D01*
X379225Y193707D01*
X379281Y193790D01*
X379339Y193870D01*
X379401Y193948D01*
X379466Y194023D01*
X379534Y194096D01*
X379604Y194166D01*
X379677Y194234D01*
X379752Y194299D01*
X379830Y194361D01*
X379910Y194419D01*
X379993Y194475D01*
X380077Y194527D01*
X380164Y194577D01*
X380252Y194622D01*
X380342Y194665D01*
X380434Y194704D01*
X380526Y194739D01*
X380621Y194771D01*
X380716Y194799D01*
X380812Y194824D01*
X380910Y194845D01*
X381008Y194862D01*
X381106Y194875D01*
X381205Y194884D01*
X381305Y194890D01*
X381404Y194892D01*
X384001Y194892D01*
X388366Y189699D02*
X392261Y189699D01*
X392360Y189697D01*
X392460Y189691D01*
X392559Y189682D01*
X392657Y189669D01*
X392755Y189652D01*
X392853Y189631D01*
X392949Y189606D01*
X393044Y189578D01*
X393138Y189546D01*
X393231Y189511D01*
X393323Y189472D01*
X393413Y189429D01*
X393501Y189384D01*
X393588Y189334D01*
X393672Y189282D01*
X393755Y189226D01*
X393835Y189168D01*
X393913Y189106D01*
X393988Y189041D01*
X394061Y188973D01*
X394131Y188903D01*
X394199Y188830D01*
X394264Y188755D01*
X394326Y188677D01*
X394384Y188597D01*
X394440Y188514D01*
X394492Y188430D01*
X394542Y188343D01*
X394587Y188255D01*
X394630Y188165D01*
X394669Y188073D01*
X394704Y187980D01*
X394736Y187886D01*
X394764Y187791D01*
X394789Y187695D01*
X394810Y187597D01*
X394827Y187499D01*
X394840Y187401D01*
X394849Y187302D01*
X394855Y187202D01*
X394857Y187103D01*
X394857Y186454D01*
X394858Y186454D02*
X394856Y186341D01*
X394850Y186228D01*
X394840Y186115D01*
X394826Y186002D01*
X394809Y185890D01*
X394787Y185779D01*
X394762Y185669D01*
X394732Y185559D01*
X394699Y185451D01*
X394662Y185344D01*
X394622Y185238D01*
X394577Y185134D01*
X394529Y185031D01*
X394478Y184930D01*
X394423Y184831D01*
X394365Y184734D01*
X394303Y184639D01*
X394238Y184546D01*
X394170Y184456D01*
X394099Y184368D01*
X394024Y184282D01*
X393947Y184199D01*
X393867Y184119D01*
X393784Y184042D01*
X393698Y183967D01*
X393610Y183896D01*
X393520Y183828D01*
X393427Y183763D01*
X393332Y183701D01*
X393235Y183643D01*
X393136Y183588D01*
X393035Y183537D01*
X392932Y183489D01*
X392828Y183444D01*
X392722Y183404D01*
X392615Y183367D01*
X392507Y183334D01*
X392397Y183304D01*
X392287Y183279D01*
X392176Y183257D01*
X392064Y183240D01*
X391951Y183226D01*
X391838Y183216D01*
X391725Y183210D01*
X391612Y183208D01*
X391499Y183210D01*
X391386Y183216D01*
X391273Y183226D01*
X391160Y183240D01*
X391048Y183257D01*
X390937Y183279D01*
X390827Y183304D01*
X390717Y183334D01*
X390609Y183367D01*
X390502Y183404D01*
X390396Y183444D01*
X390292Y183489D01*
X390189Y183537D01*
X390088Y183588D01*
X389989Y183643D01*
X389892Y183701D01*
X389797Y183763D01*
X389704Y183828D01*
X389614Y183896D01*
X389526Y183967D01*
X389440Y184042D01*
X389357Y184119D01*
X389277Y184199D01*
X389200Y184282D01*
X389125Y184368D01*
X389054Y184456D01*
X388986Y184546D01*
X388921Y184639D01*
X388859Y184734D01*
X388801Y184831D01*
X388746Y184930D01*
X388695Y185031D01*
X388647Y185134D01*
X388602Y185238D01*
X388562Y185344D01*
X388525Y185451D01*
X388492Y185559D01*
X388462Y185669D01*
X388437Y185779D01*
X388415Y185890D01*
X388398Y186002D01*
X388384Y186115D01*
X388374Y186228D01*
X388368Y186341D01*
X388366Y186454D01*
X388366Y189699D01*
X388368Y189842D01*
X388374Y189985D01*
X388384Y190128D01*
X388398Y190270D01*
X388415Y190412D01*
X388437Y190554D01*
X388462Y190695D01*
X388492Y190835D01*
X388525Y190974D01*
X388562Y191112D01*
X388603Y191249D01*
X388647Y191385D01*
X388696Y191520D01*
X388748Y191653D01*
X388803Y191785D01*
X388863Y191915D01*
X388926Y192044D01*
X388992Y192171D01*
X389062Y192295D01*
X389135Y192418D01*
X389212Y192539D01*
X389292Y192658D01*
X389375Y192774D01*
X389461Y192889D01*
X389550Y193000D01*
X389643Y193110D01*
X389738Y193216D01*
X389837Y193320D01*
X389938Y193421D01*
X390042Y193520D01*
X390148Y193615D01*
X390258Y193708D01*
X390369Y193797D01*
X390484Y193883D01*
X390600Y193966D01*
X390719Y194046D01*
X390840Y194123D01*
X390962Y194196D01*
X391087Y194266D01*
X391214Y194332D01*
X391343Y194395D01*
X391473Y194455D01*
X391605Y194510D01*
X391738Y194562D01*
X391873Y194611D01*
X392009Y194655D01*
X392146Y194696D01*
X392284Y194733D01*
X392423Y194766D01*
X392563Y194796D01*
X392704Y194821D01*
X392846Y194843D01*
X392988Y194860D01*
X393130Y194874D01*
X393273Y194884D01*
X393416Y194890D01*
X393559Y194892D01*
X380995Y90792D02*
X380995Y79108D01*
X380995Y90792D02*
X384240Y90792D01*
X384353Y90790D01*
X384466Y90784D01*
X384579Y90774D01*
X384692Y90760D01*
X384804Y90743D01*
X384915Y90721D01*
X385025Y90696D01*
X385135Y90666D01*
X385243Y90633D01*
X385350Y90596D01*
X385456Y90556D01*
X385560Y90511D01*
X385663Y90463D01*
X385764Y90412D01*
X385863Y90357D01*
X385960Y90299D01*
X386055Y90237D01*
X386148Y90172D01*
X386238Y90104D01*
X386326Y90033D01*
X386412Y89958D01*
X386495Y89881D01*
X386575Y89801D01*
X386652Y89718D01*
X386727Y89632D01*
X386798Y89544D01*
X386866Y89454D01*
X386931Y89361D01*
X386993Y89266D01*
X387051Y89169D01*
X387106Y89070D01*
X387157Y88969D01*
X387205Y88866D01*
X387250Y88762D01*
X387290Y88656D01*
X387327Y88549D01*
X387360Y88441D01*
X387390Y88331D01*
X387415Y88221D01*
X387437Y88110D01*
X387454Y87998D01*
X387468Y87885D01*
X387478Y87772D01*
X387484Y87659D01*
X387486Y87546D01*
X387484Y87433D01*
X387478Y87320D01*
X387468Y87207D01*
X387454Y87094D01*
X387437Y86982D01*
X387415Y86871D01*
X387390Y86761D01*
X387360Y86651D01*
X387327Y86543D01*
X387290Y86436D01*
X387250Y86330D01*
X387205Y86226D01*
X387157Y86123D01*
X387106Y86022D01*
X387051Y85923D01*
X386993Y85826D01*
X386931Y85731D01*
X386866Y85638D01*
X386798Y85548D01*
X386727Y85460D01*
X386652Y85374D01*
X386575Y85291D01*
X386495Y85211D01*
X386412Y85134D01*
X386326Y85059D01*
X386238Y84988D01*
X386148Y84920D01*
X386055Y84855D01*
X385960Y84793D01*
X385863Y84735D01*
X385764Y84680D01*
X385663Y84629D01*
X385560Y84581D01*
X385456Y84536D01*
X385350Y84496D01*
X385243Y84459D01*
X385135Y84426D01*
X385025Y84396D01*
X384915Y84371D01*
X384804Y84349D01*
X384692Y84332D01*
X384579Y84318D01*
X384466Y84308D01*
X384353Y84302D01*
X384240Y84300D01*
X384240Y84301D02*
X380995Y84301D01*
X384889Y84301D02*
X387486Y79108D01*
X398842Y87871D02*
X398840Y87978D01*
X398834Y88084D01*
X398824Y88190D01*
X398811Y88296D01*
X398793Y88402D01*
X398772Y88506D01*
X398747Y88610D01*
X398718Y88713D01*
X398686Y88814D01*
X398649Y88914D01*
X398609Y89013D01*
X398566Y89111D01*
X398519Y89207D01*
X398468Y89301D01*
X398414Y89393D01*
X398357Y89483D01*
X398297Y89571D01*
X398233Y89656D01*
X398166Y89739D01*
X398096Y89820D01*
X398024Y89898D01*
X397948Y89974D01*
X397870Y90046D01*
X397789Y90116D01*
X397706Y90183D01*
X397621Y90247D01*
X397533Y90307D01*
X397443Y90364D01*
X397351Y90418D01*
X397257Y90469D01*
X397161Y90516D01*
X397063Y90559D01*
X396964Y90599D01*
X396864Y90636D01*
X396763Y90668D01*
X396660Y90697D01*
X396556Y90722D01*
X396452Y90743D01*
X396346Y90761D01*
X396240Y90774D01*
X396134Y90784D01*
X396028Y90790D01*
X395921Y90792D01*
X395800Y90790D01*
X395679Y90784D01*
X395559Y90774D01*
X395438Y90761D01*
X395319Y90743D01*
X395199Y90722D01*
X395081Y90697D01*
X394964Y90668D01*
X394847Y90635D01*
X394732Y90599D01*
X394618Y90558D01*
X394505Y90515D01*
X394393Y90467D01*
X394284Y90416D01*
X394176Y90361D01*
X394069Y90303D01*
X393965Y90242D01*
X393863Y90177D01*
X393763Y90109D01*
X393665Y90038D01*
X393569Y89964D01*
X393476Y89887D01*
X393386Y89806D01*
X393298Y89723D01*
X393213Y89637D01*
X393130Y89548D01*
X393051Y89457D01*
X392974Y89363D01*
X392901Y89267D01*
X392831Y89169D01*
X392764Y89068D01*
X392700Y88965D01*
X392640Y88860D01*
X392583Y88753D01*
X392529Y88645D01*
X392479Y88535D01*
X392433Y88423D01*
X392390Y88310D01*
X392351Y88195D01*
X397869Y85599D02*
X397948Y85676D01*
X398024Y85757D01*
X398097Y85840D01*
X398167Y85925D01*
X398234Y86013D01*
X398298Y86103D01*
X398358Y86195D01*
X398415Y86290D01*
X398469Y86386D01*
X398520Y86484D01*
X398567Y86584D01*
X398611Y86686D01*
X398651Y86789D01*
X398687Y86893D01*
X398719Y86999D01*
X398748Y87105D01*
X398773Y87213D01*
X398795Y87321D01*
X398812Y87431D01*
X398826Y87540D01*
X398835Y87650D01*
X398841Y87761D01*
X398843Y87871D01*
X397868Y85599D02*
X392351Y79108D01*
X398842Y79108D01*
D11*
X284000Y190000D02*
X284000Y195000D01*
X284002Y195087D01*
X284008Y195174D01*
X284017Y195261D01*
X284030Y195347D01*
X284047Y195433D01*
X284068Y195518D01*
X284093Y195601D01*
X284121Y195684D01*
X284152Y195765D01*
X284187Y195845D01*
X284226Y195923D01*
X284268Y196000D01*
X284313Y196075D01*
X284362Y196147D01*
X284413Y196218D01*
X284468Y196286D01*
X284525Y196351D01*
X284586Y196414D01*
X284649Y196475D01*
X284714Y196532D01*
X284782Y196587D01*
X284853Y196638D01*
X284925Y196687D01*
X285000Y196732D01*
X285077Y196774D01*
X285155Y196813D01*
X285235Y196848D01*
X285316Y196879D01*
X285399Y196907D01*
X285482Y196932D01*
X285567Y196953D01*
X285653Y196970D01*
X285739Y196983D01*
X285826Y196992D01*
X285913Y196998D01*
X286000Y197000D01*
X312000Y197000D01*
X312087Y196998D01*
X312174Y196992D01*
X312261Y196983D01*
X312347Y196970D01*
X312433Y196953D01*
X312518Y196932D01*
X312601Y196907D01*
X312684Y196879D01*
X312765Y196848D01*
X312845Y196813D01*
X312923Y196774D01*
X313000Y196732D01*
X313075Y196687D01*
X313147Y196638D01*
X313218Y196587D01*
X313286Y196532D01*
X313351Y196475D01*
X313414Y196414D01*
X313475Y196351D01*
X313532Y196286D01*
X313587Y196218D01*
X313638Y196147D01*
X313687Y196075D01*
X313732Y196000D01*
X313774Y195923D01*
X313813Y195845D01*
X313848Y195765D01*
X313879Y195684D01*
X313907Y195601D01*
X313932Y195518D01*
X313953Y195433D01*
X313970Y195347D01*
X313983Y195261D01*
X313992Y195174D01*
X313998Y195087D01*
X314000Y195000D01*
X314000Y190000D01*
X284000Y174000D02*
X284000Y169000D01*
X284002Y168913D01*
X284008Y168826D01*
X284017Y168739D01*
X284030Y168653D01*
X284047Y168567D01*
X284068Y168482D01*
X284093Y168399D01*
X284121Y168316D01*
X284152Y168235D01*
X284187Y168155D01*
X284226Y168077D01*
X284268Y168000D01*
X284313Y167925D01*
X284362Y167853D01*
X284413Y167782D01*
X284468Y167714D01*
X284525Y167649D01*
X284586Y167586D01*
X284649Y167525D01*
X284714Y167468D01*
X284782Y167413D01*
X284853Y167362D01*
X284925Y167313D01*
X285000Y167268D01*
X285077Y167226D01*
X285155Y167187D01*
X285235Y167152D01*
X285316Y167121D01*
X285399Y167093D01*
X285482Y167068D01*
X285567Y167047D01*
X285653Y167030D01*
X285739Y167017D01*
X285826Y167008D01*
X285913Y167002D01*
X286000Y167000D01*
X312000Y167000D01*
X312087Y167002D01*
X312174Y167008D01*
X312261Y167017D01*
X312347Y167030D01*
X312433Y167047D01*
X312518Y167068D01*
X312601Y167093D01*
X312684Y167121D01*
X312765Y167152D01*
X312845Y167187D01*
X312923Y167226D01*
X313000Y167268D01*
X313075Y167313D01*
X313147Y167362D01*
X313218Y167413D01*
X313286Y167468D01*
X313351Y167525D01*
X313414Y167586D01*
X313475Y167649D01*
X313532Y167714D01*
X313587Y167782D01*
X313638Y167853D01*
X313687Y167925D01*
X313732Y168000D01*
X313774Y168077D01*
X313813Y168155D01*
X313848Y168235D01*
X313879Y168316D01*
X313907Y168399D01*
X313932Y168482D01*
X313953Y168567D01*
X313970Y168653D01*
X313983Y168739D01*
X313992Y168826D01*
X313998Y168913D01*
X314000Y169000D01*
X314000Y174000D01*
X414000Y190000D02*
X414000Y195000D01*
X414002Y195087D01*
X414008Y195174D01*
X414017Y195261D01*
X414030Y195347D01*
X414047Y195433D01*
X414068Y195518D01*
X414093Y195601D01*
X414121Y195684D01*
X414152Y195765D01*
X414187Y195845D01*
X414226Y195923D01*
X414268Y196000D01*
X414313Y196075D01*
X414362Y196147D01*
X414413Y196218D01*
X414468Y196286D01*
X414525Y196351D01*
X414586Y196414D01*
X414649Y196475D01*
X414714Y196532D01*
X414782Y196587D01*
X414853Y196638D01*
X414925Y196687D01*
X415000Y196732D01*
X415077Y196774D01*
X415155Y196813D01*
X415235Y196848D01*
X415316Y196879D01*
X415399Y196907D01*
X415482Y196932D01*
X415567Y196953D01*
X415653Y196970D01*
X415739Y196983D01*
X415826Y196992D01*
X415913Y196998D01*
X416000Y197000D01*
X442000Y197000D01*
X442087Y196998D01*
X442174Y196992D01*
X442261Y196983D01*
X442347Y196970D01*
X442433Y196953D01*
X442518Y196932D01*
X442601Y196907D01*
X442684Y196879D01*
X442765Y196848D01*
X442845Y196813D01*
X442923Y196774D01*
X443000Y196732D01*
X443075Y196687D01*
X443147Y196638D01*
X443218Y196587D01*
X443286Y196532D01*
X443351Y196475D01*
X443414Y196414D01*
X443475Y196351D01*
X443532Y196286D01*
X443587Y196218D01*
X443638Y196147D01*
X443687Y196075D01*
X443732Y196000D01*
X443774Y195923D01*
X443813Y195845D01*
X443848Y195765D01*
X443879Y195684D01*
X443907Y195601D01*
X443932Y195518D01*
X443953Y195433D01*
X443970Y195347D01*
X443983Y195261D01*
X443992Y195174D01*
X443998Y195087D01*
X444000Y195000D01*
X444000Y190000D01*
X414000Y174000D02*
X414000Y169000D01*
X414002Y168913D01*
X414008Y168826D01*
X414017Y168739D01*
X414030Y168653D01*
X414047Y168567D01*
X414068Y168482D01*
X414093Y168399D01*
X414121Y168316D01*
X414152Y168235D01*
X414187Y168155D01*
X414226Y168077D01*
X414268Y168000D01*
X414313Y167925D01*
X414362Y167853D01*
X414413Y167782D01*
X414468Y167714D01*
X414525Y167649D01*
X414586Y167586D01*
X414649Y167525D01*
X414714Y167468D01*
X414782Y167413D01*
X414853Y167362D01*
X414925Y167313D01*
X415000Y167268D01*
X415077Y167226D01*
X415155Y167187D01*
X415235Y167152D01*
X415316Y167121D01*
X415399Y167093D01*
X415482Y167068D01*
X415567Y167047D01*
X415653Y167030D01*
X415739Y167017D01*
X415826Y167008D01*
X415913Y167002D01*
X416000Y167000D01*
X442000Y167000D01*
X442087Y167002D01*
X442174Y167008D01*
X442261Y167017D01*
X442347Y167030D01*
X442433Y167047D01*
X442518Y167068D01*
X442601Y167093D01*
X442684Y167121D01*
X442765Y167152D01*
X442845Y167187D01*
X442923Y167226D01*
X443000Y167268D01*
X443075Y167313D01*
X443147Y167362D01*
X443218Y167413D01*
X443286Y167468D01*
X443351Y167525D01*
X443414Y167586D01*
X443475Y167649D01*
X443532Y167714D01*
X443587Y167782D01*
X443638Y167853D01*
X443687Y167925D01*
X443732Y168000D01*
X443774Y168077D01*
X443813Y168155D01*
X443848Y168235D01*
X443879Y168316D01*
X443907Y168399D01*
X443932Y168482D01*
X443953Y168567D01*
X443970Y168653D01*
X443983Y168739D01*
X443992Y168826D01*
X443998Y168913D01*
X444000Y169000D01*
X444000Y174000D01*
D13*
X19650Y68000D02*
X13300Y74350D01*
X13300Y87050D01*
X19650Y93400D01*
X32350Y93400D01*
X38700Y87050D01*
X38700Y74350D01*
X32350Y68000D01*
X13300Y36250D02*
X13300Y23550D01*
X13300Y36250D02*
X19650Y42600D01*
X32350Y42600D01*
X38700Y36250D01*
X19650Y42600D02*
X13300Y48950D01*
X13300Y61650D01*
X19650Y68000D01*
X32350Y68000D01*
X38700Y61650D01*
X38700Y48950D01*
X32350Y42600D01*
X32350Y17200D02*
X19650Y17200D01*
X13300Y23550D01*
X32350Y17200D02*
X38700Y23550D01*
X38700Y36250D01*
X13300Y99750D02*
X13300Y112450D01*
X19650Y118800D01*
X32350Y118800D01*
X38700Y112450D01*
X19650Y93400D02*
X13300Y99750D01*
X32350Y93400D02*
X38700Y99750D01*
X38700Y112450D01*
D11*
X14423Y125463D02*
X14421Y125363D01*
X14415Y125264D01*
X14405Y125164D01*
X14392Y125066D01*
X14374Y124967D01*
X14353Y124870D01*
X14328Y124774D01*
X14299Y124678D01*
X14266Y124584D01*
X14230Y124491D01*
X14190Y124400D01*
X14146Y124310D01*
X14099Y124222D01*
X14049Y124136D01*
X13995Y124052D01*
X13938Y123970D01*
X13878Y123891D01*
X13814Y123813D01*
X13748Y123739D01*
X13679Y123667D01*
X13607Y123598D01*
X13533Y123532D01*
X13455Y123468D01*
X13376Y123408D01*
X13294Y123351D01*
X13210Y123297D01*
X13124Y123247D01*
X13036Y123200D01*
X12946Y123156D01*
X12855Y123116D01*
X12762Y123080D01*
X12668Y123047D01*
X12572Y123018D01*
X12476Y122993D01*
X12379Y122972D01*
X12280Y122954D01*
X12182Y122941D01*
X12082Y122931D01*
X11983Y122925D01*
X11883Y122923D01*
X11742Y122925D01*
X11601Y122930D01*
X11460Y122940D01*
X11319Y122953D01*
X11179Y122969D01*
X11039Y122990D01*
X10900Y123014D01*
X10761Y123042D01*
X10624Y123073D01*
X10487Y123108D01*
X10351Y123146D01*
X10216Y123188D01*
X10083Y123234D01*
X9950Y123283D01*
X9819Y123336D01*
X9690Y123392D01*
X9561Y123451D01*
X9435Y123514D01*
X9310Y123580D01*
X9187Y123649D01*
X9066Y123722D01*
X8947Y123798D01*
X8829Y123877D01*
X8714Y123958D01*
X8602Y124043D01*
X8491Y124131D01*
X8383Y124222D01*
X8277Y124315D01*
X8174Y124412D01*
X8073Y124511D01*
X8391Y131813D02*
X8393Y131913D01*
X8399Y132012D01*
X8409Y132112D01*
X8422Y132210D01*
X8440Y132309D01*
X8461Y132406D01*
X8486Y132502D01*
X8515Y132598D01*
X8548Y132692D01*
X8584Y132785D01*
X8624Y132876D01*
X8668Y132966D01*
X8715Y133054D01*
X8765Y133140D01*
X8819Y133224D01*
X8876Y133306D01*
X8936Y133385D01*
X9000Y133463D01*
X9066Y133537D01*
X9135Y133609D01*
X9207Y133678D01*
X9281Y133744D01*
X9359Y133808D01*
X9438Y133868D01*
X9520Y133925D01*
X9604Y133979D01*
X9690Y134029D01*
X9778Y134076D01*
X9868Y134120D01*
X9959Y134160D01*
X10052Y134196D01*
X10146Y134229D01*
X10242Y134258D01*
X10338Y134283D01*
X10435Y134304D01*
X10534Y134322D01*
X10632Y134335D01*
X10732Y134345D01*
X10831Y134351D01*
X10931Y134353D01*
X10931Y134354D02*
X11064Y134352D01*
X11197Y134347D01*
X11330Y134337D01*
X11463Y134324D01*
X11595Y134307D01*
X11727Y134287D01*
X11858Y134263D01*
X11988Y134235D01*
X12118Y134204D01*
X12246Y134169D01*
X12374Y134130D01*
X12500Y134088D01*
X12625Y134042D01*
X12749Y133993D01*
X12872Y133941D01*
X12993Y133885D01*
X13112Y133825D01*
X13230Y133763D01*
X13345Y133697D01*
X13459Y133628D01*
X13571Y133555D01*
X13681Y133480D01*
X13789Y133401D01*
X9660Y129590D02*
X9576Y129642D01*
X9493Y129697D01*
X9413Y129756D01*
X9335Y129817D01*
X9260Y129881D01*
X9187Y129949D01*
X9116Y130019D01*
X9049Y130091D01*
X8984Y130166D01*
X8922Y130244D01*
X8863Y130324D01*
X8807Y130406D01*
X8755Y130490D01*
X8706Y130576D01*
X8660Y130664D01*
X8617Y130754D01*
X8578Y130845D01*
X8543Y130938D01*
X8511Y131032D01*
X8483Y131127D01*
X8458Y131223D01*
X8438Y131320D01*
X8420Y131418D01*
X8407Y131516D01*
X8398Y131615D01*
X8392Y131714D01*
X8390Y131813D01*
X13153Y127686D02*
X13237Y127634D01*
X13320Y127579D01*
X13400Y127520D01*
X13478Y127459D01*
X13553Y127395D01*
X13626Y127327D01*
X13697Y127257D01*
X13764Y127185D01*
X13829Y127110D01*
X13891Y127032D01*
X13950Y126952D01*
X14006Y126870D01*
X14058Y126786D01*
X14107Y126700D01*
X14153Y126612D01*
X14196Y126522D01*
X14235Y126431D01*
X14270Y126338D01*
X14302Y126244D01*
X14330Y126149D01*
X14355Y126053D01*
X14375Y125956D01*
X14393Y125858D01*
X14406Y125760D01*
X14415Y125661D01*
X14421Y125562D01*
X14423Y125463D01*
X13153Y127686D02*
X9661Y129591D01*
X18487Y134353D02*
X22297Y128956D01*
X26107Y134353D01*
X22297Y128956D02*
X22297Y122923D01*
X33981Y122923D02*
X34081Y122925D01*
X34180Y122931D01*
X34280Y122941D01*
X34378Y122954D01*
X34477Y122972D01*
X34574Y122993D01*
X34670Y123018D01*
X34766Y123047D01*
X34860Y123080D01*
X34953Y123116D01*
X35044Y123156D01*
X35134Y123200D01*
X35222Y123247D01*
X35308Y123297D01*
X35392Y123351D01*
X35474Y123408D01*
X35553Y123468D01*
X35631Y123532D01*
X35705Y123598D01*
X35777Y123667D01*
X35846Y123739D01*
X35912Y123813D01*
X35976Y123891D01*
X36036Y123970D01*
X36093Y124052D01*
X36147Y124136D01*
X36197Y124222D01*
X36244Y124310D01*
X36288Y124400D01*
X36328Y124491D01*
X36364Y124584D01*
X36397Y124678D01*
X36426Y124774D01*
X36451Y124870D01*
X36472Y124967D01*
X36490Y125066D01*
X36503Y125164D01*
X36513Y125264D01*
X36519Y125363D01*
X36521Y125463D01*
X33981Y122923D02*
X33840Y122925D01*
X33699Y122930D01*
X33558Y122940D01*
X33417Y122953D01*
X33277Y122969D01*
X33137Y122990D01*
X32998Y123014D01*
X32859Y123042D01*
X32722Y123073D01*
X32585Y123108D01*
X32449Y123146D01*
X32314Y123188D01*
X32181Y123234D01*
X32048Y123283D01*
X31917Y123336D01*
X31788Y123392D01*
X31659Y123451D01*
X31533Y123514D01*
X31408Y123580D01*
X31285Y123649D01*
X31164Y123722D01*
X31045Y123798D01*
X30927Y123877D01*
X30812Y123958D01*
X30700Y124043D01*
X30589Y124131D01*
X30481Y124222D01*
X30375Y124315D01*
X30272Y124412D01*
X30171Y124511D01*
X30489Y131813D02*
X30491Y131913D01*
X30497Y132012D01*
X30507Y132112D01*
X30520Y132210D01*
X30538Y132309D01*
X30559Y132406D01*
X30584Y132502D01*
X30613Y132598D01*
X30646Y132692D01*
X30682Y132785D01*
X30722Y132876D01*
X30766Y132966D01*
X30813Y133054D01*
X30863Y133140D01*
X30917Y133224D01*
X30974Y133306D01*
X31034Y133385D01*
X31098Y133463D01*
X31164Y133537D01*
X31233Y133609D01*
X31305Y133678D01*
X31379Y133744D01*
X31457Y133808D01*
X31536Y133868D01*
X31618Y133925D01*
X31702Y133979D01*
X31788Y134029D01*
X31876Y134076D01*
X31966Y134120D01*
X32057Y134160D01*
X32150Y134196D01*
X32244Y134229D01*
X32340Y134258D01*
X32436Y134283D01*
X32533Y134304D01*
X32632Y134322D01*
X32730Y134335D01*
X32830Y134345D01*
X32929Y134351D01*
X33029Y134353D01*
X33029Y134354D02*
X33162Y134352D01*
X33295Y134347D01*
X33428Y134337D01*
X33561Y134324D01*
X33693Y134307D01*
X33825Y134287D01*
X33956Y134263D01*
X34086Y134235D01*
X34216Y134204D01*
X34344Y134169D01*
X34472Y134130D01*
X34598Y134088D01*
X34723Y134042D01*
X34847Y133993D01*
X34970Y133941D01*
X35091Y133885D01*
X35210Y133825D01*
X35328Y133763D01*
X35443Y133697D01*
X35557Y133628D01*
X35669Y133555D01*
X35779Y133480D01*
X35887Y133401D01*
X31758Y129590D02*
X31674Y129642D01*
X31591Y129697D01*
X31511Y129756D01*
X31433Y129817D01*
X31358Y129881D01*
X31285Y129949D01*
X31214Y130019D01*
X31147Y130091D01*
X31082Y130166D01*
X31020Y130244D01*
X30961Y130324D01*
X30905Y130406D01*
X30853Y130490D01*
X30804Y130576D01*
X30758Y130664D01*
X30715Y130754D01*
X30676Y130845D01*
X30641Y130938D01*
X30609Y131032D01*
X30581Y131127D01*
X30556Y131223D01*
X30536Y131320D01*
X30518Y131418D01*
X30505Y131516D01*
X30496Y131615D01*
X30490Y131714D01*
X30488Y131813D01*
X35251Y127686D02*
X35335Y127634D01*
X35418Y127579D01*
X35498Y127520D01*
X35576Y127459D01*
X35651Y127395D01*
X35724Y127327D01*
X35795Y127257D01*
X35862Y127185D01*
X35927Y127110D01*
X35989Y127032D01*
X36048Y126952D01*
X36104Y126870D01*
X36156Y126786D01*
X36205Y126700D01*
X36251Y126612D01*
X36294Y126522D01*
X36333Y126431D01*
X36368Y126338D01*
X36400Y126244D01*
X36428Y126149D01*
X36453Y126053D01*
X36473Y125956D01*
X36491Y125858D01*
X36504Y125760D01*
X36513Y125661D01*
X36519Y125562D01*
X36521Y125463D01*
X35251Y127686D02*
X31759Y129591D01*
X32000Y371500D02*
X32000Y380000D01*
X188000Y380000D01*
X188000Y371500D01*
X32000Y358500D02*
X32000Y351500D01*
X32000Y338500D02*
X32000Y331500D01*
X32000Y318500D02*
X32000Y311500D01*
X32000Y298500D02*
X32000Y291500D01*
X32000Y278500D02*
X32000Y271500D01*
X32000Y258500D02*
X32000Y251500D01*
X32000Y238500D02*
X32000Y231500D01*
X32000Y218500D02*
X32000Y210000D01*
X188000Y210000D01*
X188000Y218500D01*
X188000Y231500D02*
X188000Y238500D01*
X188000Y251500D02*
X188000Y258500D01*
X188000Y271500D02*
X188000Y278500D01*
X188000Y291500D02*
X188000Y298500D01*
X188000Y311500D02*
X188000Y318500D01*
X188000Y331500D02*
X188000Y338500D01*
X188000Y351500D02*
X188000Y358500D01*
X34172Y375000D02*
X34174Y375106D01*
X34180Y375211D01*
X34190Y375317D01*
X34204Y375421D01*
X34221Y375526D01*
X34243Y375629D01*
X34268Y375732D01*
X34298Y375834D01*
X34331Y375934D01*
X34367Y376033D01*
X34408Y376131D01*
X34452Y376227D01*
X34500Y376321D01*
X34551Y376414D01*
X34605Y376505D01*
X34663Y376593D01*
X34725Y376679D01*
X34789Y376763D01*
X34856Y376845D01*
X34927Y376924D01*
X35000Y377000D01*
X35076Y377073D01*
X35155Y377144D01*
X35237Y377211D01*
X35321Y377275D01*
X35407Y377337D01*
X35495Y377395D01*
X35586Y377449D01*
X35679Y377500D01*
X35773Y377548D01*
X35869Y377592D01*
X35967Y377633D01*
X36066Y377669D01*
X36166Y377702D01*
X36268Y377732D01*
X36371Y377757D01*
X36474Y377779D01*
X36579Y377796D01*
X36683Y377810D01*
X36789Y377820D01*
X36894Y377826D01*
X37000Y377828D01*
X37106Y377826D01*
X37211Y377820D01*
X37317Y377810D01*
X37421Y377796D01*
X37526Y377779D01*
X37629Y377757D01*
X37732Y377732D01*
X37834Y377702D01*
X37934Y377669D01*
X38033Y377633D01*
X38131Y377592D01*
X38227Y377548D01*
X38321Y377500D01*
X38414Y377449D01*
X38505Y377395D01*
X38593Y377337D01*
X38679Y377275D01*
X38763Y377211D01*
X38845Y377144D01*
X38924Y377073D01*
X39000Y377000D01*
X39073Y376924D01*
X39144Y376845D01*
X39211Y376763D01*
X39275Y376679D01*
X39337Y376593D01*
X39395Y376505D01*
X39449Y376414D01*
X39500Y376321D01*
X39548Y376227D01*
X39592Y376131D01*
X39633Y376033D01*
X39669Y375934D01*
X39702Y375834D01*
X39732Y375732D01*
X39757Y375629D01*
X39779Y375526D01*
X39796Y375421D01*
X39810Y375317D01*
X39820Y375211D01*
X39826Y375106D01*
X39828Y375000D01*
X39826Y374894D01*
X39820Y374789D01*
X39810Y374683D01*
X39796Y374579D01*
X39779Y374474D01*
X39757Y374371D01*
X39732Y374268D01*
X39702Y374166D01*
X39669Y374066D01*
X39633Y373967D01*
X39592Y373869D01*
X39548Y373773D01*
X39500Y373679D01*
X39449Y373586D01*
X39395Y373495D01*
X39337Y373407D01*
X39275Y373321D01*
X39211Y373237D01*
X39144Y373155D01*
X39073Y373076D01*
X39000Y373000D01*
X38924Y372927D01*
X38845Y372856D01*
X38763Y372789D01*
X38679Y372725D01*
X38593Y372663D01*
X38505Y372605D01*
X38414Y372551D01*
X38321Y372500D01*
X38227Y372452D01*
X38131Y372408D01*
X38033Y372367D01*
X37934Y372331D01*
X37834Y372298D01*
X37732Y372268D01*
X37629Y372243D01*
X37526Y372221D01*
X37421Y372204D01*
X37317Y372190D01*
X37211Y372180D01*
X37106Y372174D01*
X37000Y372172D01*
X36894Y372174D01*
X36789Y372180D01*
X36683Y372190D01*
X36579Y372204D01*
X36474Y372221D01*
X36371Y372243D01*
X36268Y372268D01*
X36166Y372298D01*
X36066Y372331D01*
X35967Y372367D01*
X35869Y372408D01*
X35773Y372452D01*
X35679Y372500D01*
X35586Y372551D01*
X35495Y372605D01*
X35407Y372663D01*
X35321Y372725D01*
X35237Y372789D01*
X35155Y372856D01*
X35076Y372927D01*
X35000Y373000D01*
X34927Y373076D01*
X34856Y373155D01*
X34789Y373237D01*
X34725Y373321D01*
X34663Y373407D01*
X34605Y373495D01*
X34551Y373586D01*
X34500Y373679D01*
X34452Y373773D01*
X34408Y373869D01*
X34367Y373967D01*
X34331Y374066D01*
X34298Y374166D01*
X34268Y374268D01*
X34243Y374371D01*
X34221Y374474D01*
X34204Y374579D01*
X34190Y374683D01*
X34180Y374789D01*
X34174Y374894D01*
X34172Y375000D01*
X222000Y371500D02*
X222000Y380000D01*
X378000Y380000D01*
X378000Y371500D01*
X222000Y358500D02*
X222000Y351500D01*
X222000Y338500D02*
X222000Y331500D01*
X222000Y318500D02*
X222000Y311500D01*
X222000Y298500D02*
X222000Y291500D01*
X222000Y278500D02*
X222000Y271500D01*
X222000Y258500D02*
X222000Y251500D01*
X222000Y238500D02*
X222000Y231500D01*
X222000Y218500D02*
X222000Y210000D01*
X378000Y210000D01*
X378000Y218500D01*
X378000Y231500D02*
X378000Y238500D01*
X378000Y251500D02*
X378000Y258500D01*
X378000Y271500D02*
X378000Y278500D01*
X378000Y291500D02*
X378000Y298500D01*
X378000Y311500D02*
X378000Y318500D01*
X378000Y331500D02*
X378000Y338500D01*
X378000Y351500D02*
X378000Y358500D01*
X224172Y375000D02*
X224174Y375106D01*
X224180Y375211D01*
X224190Y375317D01*
X224204Y375421D01*
X224221Y375526D01*
X224243Y375629D01*
X224268Y375732D01*
X224298Y375834D01*
X224331Y375934D01*
X224367Y376033D01*
X224408Y376131D01*
X224452Y376227D01*
X224500Y376321D01*
X224551Y376414D01*
X224605Y376505D01*
X224663Y376593D01*
X224725Y376679D01*
X224789Y376763D01*
X224856Y376845D01*
X224927Y376924D01*
X225000Y377000D01*
X225076Y377073D01*
X225155Y377144D01*
X225237Y377211D01*
X225321Y377275D01*
X225407Y377337D01*
X225495Y377395D01*
X225586Y377449D01*
X225679Y377500D01*
X225773Y377548D01*
X225869Y377592D01*
X225967Y377633D01*
X226066Y377669D01*
X226166Y377702D01*
X226268Y377732D01*
X226371Y377757D01*
X226474Y377779D01*
X226579Y377796D01*
X226683Y377810D01*
X226789Y377820D01*
X226894Y377826D01*
X227000Y377828D01*
X227106Y377826D01*
X227211Y377820D01*
X227317Y377810D01*
X227421Y377796D01*
X227526Y377779D01*
X227629Y377757D01*
X227732Y377732D01*
X227834Y377702D01*
X227934Y377669D01*
X228033Y377633D01*
X228131Y377592D01*
X228227Y377548D01*
X228321Y377500D01*
X228414Y377449D01*
X228505Y377395D01*
X228593Y377337D01*
X228679Y377275D01*
X228763Y377211D01*
X228845Y377144D01*
X228924Y377073D01*
X229000Y377000D01*
X229073Y376924D01*
X229144Y376845D01*
X229211Y376763D01*
X229275Y376679D01*
X229337Y376593D01*
X229395Y376505D01*
X229449Y376414D01*
X229500Y376321D01*
X229548Y376227D01*
X229592Y376131D01*
X229633Y376033D01*
X229669Y375934D01*
X229702Y375834D01*
X229732Y375732D01*
X229757Y375629D01*
X229779Y375526D01*
X229796Y375421D01*
X229810Y375317D01*
X229820Y375211D01*
X229826Y375106D01*
X229828Y375000D01*
X229826Y374894D01*
X229820Y374789D01*
X229810Y374683D01*
X229796Y374579D01*
X229779Y374474D01*
X229757Y374371D01*
X229732Y374268D01*
X229702Y374166D01*
X229669Y374066D01*
X229633Y373967D01*
X229592Y373869D01*
X229548Y373773D01*
X229500Y373679D01*
X229449Y373586D01*
X229395Y373495D01*
X229337Y373407D01*
X229275Y373321D01*
X229211Y373237D01*
X229144Y373155D01*
X229073Y373076D01*
X229000Y373000D01*
X228924Y372927D01*
X228845Y372856D01*
X228763Y372789D01*
X228679Y372725D01*
X228593Y372663D01*
X228505Y372605D01*
X228414Y372551D01*
X228321Y372500D01*
X228227Y372452D01*
X228131Y372408D01*
X228033Y372367D01*
X227934Y372331D01*
X227834Y372298D01*
X227732Y372268D01*
X227629Y372243D01*
X227526Y372221D01*
X227421Y372204D01*
X227317Y372190D01*
X227211Y372180D01*
X227106Y372174D01*
X227000Y372172D01*
X226894Y372174D01*
X226789Y372180D01*
X226683Y372190D01*
X226579Y372204D01*
X226474Y372221D01*
X226371Y372243D01*
X226268Y372268D01*
X226166Y372298D01*
X226066Y372331D01*
X225967Y372367D01*
X225869Y372408D01*
X225773Y372452D01*
X225679Y372500D01*
X225586Y372551D01*
X225495Y372605D01*
X225407Y372663D01*
X225321Y372725D01*
X225237Y372789D01*
X225155Y372856D01*
X225076Y372927D01*
X225000Y373000D01*
X224927Y373076D01*
X224856Y373155D01*
X224789Y373237D01*
X224725Y373321D01*
X224663Y373407D01*
X224605Y373495D01*
X224551Y373586D01*
X224500Y373679D01*
X224452Y373773D01*
X224408Y373869D01*
X224367Y373967D01*
X224331Y374066D01*
X224298Y374166D01*
X224268Y374268D01*
X224243Y374371D01*
X224221Y374474D01*
X224204Y374579D01*
X224190Y374683D01*
X224180Y374789D01*
X224174Y374894D01*
X224172Y375000D01*
D13*
X499610Y335930D02*
X499610Y236110D01*
X409690Y335930D02*
X407660Y335930D01*
X407660Y236110D01*
X475730Y236110D02*
X499610Y236110D01*
X475730Y236110D02*
X475730Y252110D01*
X475730Y269890D02*
X475730Y302150D01*
X475730Y319930D02*
X475730Y335930D01*
X475730Y236110D02*
X409690Y236110D01*
X475730Y335930D02*
X499610Y335930D01*
X409690Y335930D02*
X409690Y236110D01*
X407660Y236110D01*
X409690Y335930D02*
X475730Y335930D01*
X417822Y261000D02*
X417824Y261142D01*
X417830Y261285D01*
X417840Y261427D01*
X417854Y261569D01*
X417872Y261710D01*
X417894Y261851D01*
X417920Y261991D01*
X417949Y262130D01*
X417983Y262269D01*
X418021Y262406D01*
X418062Y262543D01*
X418107Y262678D01*
X418156Y262812D01*
X418209Y262944D01*
X418265Y263075D01*
X418325Y263204D01*
X418389Y263332D01*
X418456Y263457D01*
X418527Y263581D01*
X418601Y263703D01*
X418678Y263822D01*
X418759Y263940D01*
X418843Y264055D01*
X418930Y264167D01*
X419021Y264277D01*
X419114Y264385D01*
X419211Y264490D01*
X419310Y264592D01*
X419412Y264691D01*
X419517Y264788D01*
X419625Y264881D01*
X419735Y264972D01*
X419847Y265059D01*
X419962Y265143D01*
X420080Y265224D01*
X420199Y265301D01*
X420321Y265375D01*
X420445Y265446D01*
X420570Y265513D01*
X420698Y265577D01*
X420827Y265637D01*
X420958Y265693D01*
X421090Y265746D01*
X421224Y265795D01*
X421359Y265840D01*
X421496Y265881D01*
X421633Y265919D01*
X421772Y265953D01*
X421911Y265982D01*
X422051Y266008D01*
X422192Y266030D01*
X422333Y266048D01*
X422475Y266062D01*
X422617Y266072D01*
X422760Y266078D01*
X422902Y266080D01*
X423044Y266078D01*
X423187Y266072D01*
X423329Y266062D01*
X423471Y266048D01*
X423612Y266030D01*
X423753Y266008D01*
X423893Y265982D01*
X424032Y265953D01*
X424171Y265919D01*
X424308Y265881D01*
X424445Y265840D01*
X424580Y265795D01*
X424714Y265746D01*
X424846Y265693D01*
X424977Y265637D01*
X425106Y265577D01*
X425234Y265513D01*
X425359Y265446D01*
X425483Y265375D01*
X425605Y265301D01*
X425724Y265224D01*
X425842Y265143D01*
X425957Y265059D01*
X426069Y264972D01*
X426179Y264881D01*
X426287Y264788D01*
X426392Y264691D01*
X426494Y264592D01*
X426593Y264490D01*
X426690Y264385D01*
X426783Y264277D01*
X426874Y264167D01*
X426961Y264055D01*
X427045Y263940D01*
X427126Y263822D01*
X427203Y263703D01*
X427277Y263581D01*
X427348Y263457D01*
X427415Y263332D01*
X427479Y263204D01*
X427539Y263075D01*
X427595Y262944D01*
X427648Y262812D01*
X427697Y262678D01*
X427742Y262543D01*
X427783Y262406D01*
X427821Y262269D01*
X427855Y262130D01*
X427884Y261991D01*
X427910Y261851D01*
X427932Y261710D01*
X427950Y261569D01*
X427964Y261427D01*
X427974Y261285D01*
X427980Y261142D01*
X427982Y261000D01*
X427980Y260858D01*
X427974Y260715D01*
X427964Y260573D01*
X427950Y260431D01*
X427932Y260290D01*
X427910Y260149D01*
X427884Y260009D01*
X427855Y259870D01*
X427821Y259731D01*
X427783Y259594D01*
X427742Y259457D01*
X427697Y259322D01*
X427648Y259188D01*
X427595Y259056D01*
X427539Y258925D01*
X427479Y258796D01*
X427415Y258668D01*
X427348Y258543D01*
X427277Y258419D01*
X427203Y258297D01*
X427126Y258178D01*
X427045Y258060D01*
X426961Y257945D01*
X426874Y257833D01*
X426783Y257723D01*
X426690Y257615D01*
X426593Y257510D01*
X426494Y257408D01*
X426392Y257309D01*
X426287Y257212D01*
X426179Y257119D01*
X426069Y257028D01*
X425957Y256941D01*
X425842Y256857D01*
X425724Y256776D01*
X425605Y256699D01*
X425483Y256625D01*
X425359Y256554D01*
X425234Y256487D01*
X425106Y256423D01*
X424977Y256363D01*
X424846Y256307D01*
X424714Y256254D01*
X424580Y256205D01*
X424445Y256160D01*
X424308Y256119D01*
X424171Y256081D01*
X424032Y256047D01*
X423893Y256018D01*
X423753Y255992D01*
X423612Y255970D01*
X423471Y255952D01*
X423329Y255938D01*
X423187Y255928D01*
X423044Y255922D01*
X422902Y255920D01*
X422760Y255922D01*
X422617Y255928D01*
X422475Y255938D01*
X422333Y255952D01*
X422192Y255970D01*
X422051Y255992D01*
X421911Y256018D01*
X421772Y256047D01*
X421633Y256081D01*
X421496Y256119D01*
X421359Y256160D01*
X421224Y256205D01*
X421090Y256254D01*
X420958Y256307D01*
X420827Y256363D01*
X420698Y256423D01*
X420570Y256487D01*
X420445Y256554D01*
X420321Y256625D01*
X420199Y256699D01*
X420080Y256776D01*
X419962Y256857D01*
X419847Y256941D01*
X419735Y257028D01*
X419625Y257119D01*
X419517Y257212D01*
X419412Y257309D01*
X419310Y257408D01*
X419211Y257510D01*
X419114Y257615D01*
X419021Y257723D01*
X418930Y257833D01*
X418843Y257945D01*
X418759Y258060D01*
X418678Y258178D01*
X418601Y258297D01*
X418527Y258419D01*
X418456Y258543D01*
X418389Y258668D01*
X418325Y258796D01*
X418265Y258925D01*
X418209Y259056D01*
X418156Y259188D01*
X418107Y259322D01*
X418062Y259457D01*
X418021Y259594D01*
X417983Y259731D01*
X417949Y259870D01*
X417920Y260009D01*
X417894Y260149D01*
X417872Y260290D01*
X417854Y260431D01*
X417840Y260573D01*
X417830Y260715D01*
X417824Y260858D01*
X417822Y261000D01*
X417822Y311038D02*
X417824Y311180D01*
X417830Y311323D01*
X417840Y311465D01*
X417854Y311607D01*
X417872Y311748D01*
X417894Y311889D01*
X417920Y312029D01*
X417949Y312168D01*
X417983Y312307D01*
X418021Y312444D01*
X418062Y312581D01*
X418107Y312716D01*
X418156Y312850D01*
X418209Y312982D01*
X418265Y313113D01*
X418325Y313242D01*
X418389Y313370D01*
X418456Y313495D01*
X418527Y313619D01*
X418601Y313741D01*
X418678Y313860D01*
X418759Y313978D01*
X418843Y314093D01*
X418930Y314205D01*
X419021Y314315D01*
X419114Y314423D01*
X419211Y314528D01*
X419310Y314630D01*
X419412Y314729D01*
X419517Y314826D01*
X419625Y314919D01*
X419735Y315010D01*
X419847Y315097D01*
X419962Y315181D01*
X420080Y315262D01*
X420199Y315339D01*
X420321Y315413D01*
X420445Y315484D01*
X420570Y315551D01*
X420698Y315615D01*
X420827Y315675D01*
X420958Y315731D01*
X421090Y315784D01*
X421224Y315833D01*
X421359Y315878D01*
X421496Y315919D01*
X421633Y315957D01*
X421772Y315991D01*
X421911Y316020D01*
X422051Y316046D01*
X422192Y316068D01*
X422333Y316086D01*
X422475Y316100D01*
X422617Y316110D01*
X422760Y316116D01*
X422902Y316118D01*
X423044Y316116D01*
X423187Y316110D01*
X423329Y316100D01*
X423471Y316086D01*
X423612Y316068D01*
X423753Y316046D01*
X423893Y316020D01*
X424032Y315991D01*
X424171Y315957D01*
X424308Y315919D01*
X424445Y315878D01*
X424580Y315833D01*
X424714Y315784D01*
X424846Y315731D01*
X424977Y315675D01*
X425106Y315615D01*
X425234Y315551D01*
X425359Y315484D01*
X425483Y315413D01*
X425605Y315339D01*
X425724Y315262D01*
X425842Y315181D01*
X425957Y315097D01*
X426069Y315010D01*
X426179Y314919D01*
X426287Y314826D01*
X426392Y314729D01*
X426494Y314630D01*
X426593Y314528D01*
X426690Y314423D01*
X426783Y314315D01*
X426874Y314205D01*
X426961Y314093D01*
X427045Y313978D01*
X427126Y313860D01*
X427203Y313741D01*
X427277Y313619D01*
X427348Y313495D01*
X427415Y313370D01*
X427479Y313242D01*
X427539Y313113D01*
X427595Y312982D01*
X427648Y312850D01*
X427697Y312716D01*
X427742Y312581D01*
X427783Y312444D01*
X427821Y312307D01*
X427855Y312168D01*
X427884Y312029D01*
X427910Y311889D01*
X427932Y311748D01*
X427950Y311607D01*
X427964Y311465D01*
X427974Y311323D01*
X427980Y311180D01*
X427982Y311038D01*
X427980Y310896D01*
X427974Y310753D01*
X427964Y310611D01*
X427950Y310469D01*
X427932Y310328D01*
X427910Y310187D01*
X427884Y310047D01*
X427855Y309908D01*
X427821Y309769D01*
X427783Y309632D01*
X427742Y309495D01*
X427697Y309360D01*
X427648Y309226D01*
X427595Y309094D01*
X427539Y308963D01*
X427479Y308834D01*
X427415Y308706D01*
X427348Y308581D01*
X427277Y308457D01*
X427203Y308335D01*
X427126Y308216D01*
X427045Y308098D01*
X426961Y307983D01*
X426874Y307871D01*
X426783Y307761D01*
X426690Y307653D01*
X426593Y307548D01*
X426494Y307446D01*
X426392Y307347D01*
X426287Y307250D01*
X426179Y307157D01*
X426069Y307066D01*
X425957Y306979D01*
X425842Y306895D01*
X425724Y306814D01*
X425605Y306737D01*
X425483Y306663D01*
X425359Y306592D01*
X425234Y306525D01*
X425106Y306461D01*
X424977Y306401D01*
X424846Y306345D01*
X424714Y306292D01*
X424580Y306243D01*
X424445Y306198D01*
X424308Y306157D01*
X424171Y306119D01*
X424032Y306085D01*
X423893Y306056D01*
X423753Y306030D01*
X423612Y306008D01*
X423471Y305990D01*
X423329Y305976D01*
X423187Y305966D01*
X423044Y305960D01*
X422902Y305958D01*
X422760Y305960D01*
X422617Y305966D01*
X422475Y305976D01*
X422333Y305990D01*
X422192Y306008D01*
X422051Y306030D01*
X421911Y306056D01*
X421772Y306085D01*
X421633Y306119D01*
X421496Y306157D01*
X421359Y306198D01*
X421224Y306243D01*
X421090Y306292D01*
X420958Y306345D01*
X420827Y306401D01*
X420698Y306461D01*
X420570Y306525D01*
X420445Y306592D01*
X420321Y306663D01*
X420199Y306737D01*
X420080Y306814D01*
X419962Y306895D01*
X419847Y306979D01*
X419735Y307066D01*
X419625Y307157D01*
X419517Y307250D01*
X419412Y307347D01*
X419310Y307446D01*
X419211Y307548D01*
X419114Y307653D01*
X419021Y307761D01*
X418930Y307871D01*
X418843Y307983D01*
X418759Y308098D01*
X418678Y308216D01*
X418601Y308335D01*
X418527Y308457D01*
X418456Y308581D01*
X418389Y308706D01*
X418325Y308834D01*
X418265Y308963D01*
X418209Y309094D01*
X418156Y309226D01*
X418107Y309360D01*
X418062Y309495D01*
X418021Y309632D01*
X417983Y309769D01*
X417949Y309908D01*
X417920Y310047D01*
X417894Y310187D01*
X417872Y310328D01*
X417854Y310469D01*
X417840Y310611D01*
X417830Y310753D01*
X417824Y310896D01*
X417822Y311038D01*
D11*
X426585Y244490D02*
X429125Y241315D01*
X426585Y244490D02*
X438015Y244490D01*
X438015Y241315D02*
X438015Y247665D01*
X426585Y294338D02*
X426587Y294442D01*
X426593Y294547D01*
X426602Y294651D01*
X426615Y294754D01*
X426633Y294857D01*
X426653Y294959D01*
X426678Y295061D01*
X426706Y295161D01*
X426738Y295261D01*
X426774Y295359D01*
X426813Y295456D01*
X426855Y295551D01*
X426901Y295645D01*
X426951Y295737D01*
X427003Y295827D01*
X427059Y295915D01*
X427119Y296001D01*
X427181Y296085D01*
X427246Y296166D01*
X427314Y296245D01*
X427386Y296322D01*
X427459Y296395D01*
X427536Y296467D01*
X427615Y296535D01*
X427696Y296600D01*
X427780Y296662D01*
X427866Y296722D01*
X427954Y296778D01*
X428044Y296830D01*
X428136Y296880D01*
X428230Y296926D01*
X428325Y296968D01*
X428422Y297007D01*
X428520Y297043D01*
X428620Y297075D01*
X428720Y297103D01*
X428822Y297128D01*
X428924Y297148D01*
X429027Y297166D01*
X429130Y297179D01*
X429234Y297188D01*
X429339Y297194D01*
X429443Y297196D01*
X426585Y294338D02*
X426587Y294220D01*
X426593Y294101D01*
X426602Y293983D01*
X426615Y293866D01*
X426633Y293749D01*
X426653Y293632D01*
X426678Y293516D01*
X426706Y293401D01*
X426739Y293288D01*
X426774Y293175D01*
X426814Y293063D01*
X426856Y292953D01*
X426903Y292844D01*
X426953Y292736D01*
X427006Y292631D01*
X427063Y292527D01*
X427123Y292425D01*
X427186Y292325D01*
X427253Y292227D01*
X427322Y292131D01*
X427395Y292038D01*
X427471Y291947D01*
X427549Y291858D01*
X427631Y291772D01*
X427715Y291689D01*
X427801Y291608D01*
X427891Y291531D01*
X427982Y291456D01*
X428076Y291384D01*
X428173Y291315D01*
X428271Y291250D01*
X428372Y291187D01*
X428475Y291128D01*
X428579Y291072D01*
X428685Y291020D01*
X428793Y290971D01*
X428902Y290926D01*
X429013Y290884D01*
X429125Y290846D01*
X431665Y296243D02*
X431590Y296319D01*
X431511Y296394D01*
X431430Y296465D01*
X431346Y296534D01*
X431260Y296599D01*
X431172Y296661D01*
X431082Y296721D01*
X430990Y296777D01*
X430895Y296830D01*
X430799Y296879D01*
X430701Y296925D01*
X430602Y296968D01*
X430501Y297007D01*
X430399Y297042D01*
X430296Y297074D01*
X430192Y297102D01*
X430087Y297127D01*
X429980Y297148D01*
X429874Y297165D01*
X429767Y297178D01*
X429659Y297187D01*
X429551Y297193D01*
X429443Y297195D01*
X431665Y296243D02*
X438015Y290845D01*
X438015Y297195D01*
D13*
X415300Y344950D02*
X415300Y357650D01*
X421650Y364000D01*
X434350Y364000D01*
X440700Y357650D01*
X434350Y338600D02*
X421650Y338600D01*
X415300Y344950D01*
X434350Y338600D02*
X440700Y344950D01*
X440700Y357650D01*
X421650Y364000D02*
X415300Y370350D01*
X415300Y383050D01*
X421650Y389400D01*
X434350Y389400D01*
X440700Y383050D01*
X440700Y370350D01*
X434350Y364000D01*
D10*
X137906Y157108D02*
X135309Y157108D01*
X135210Y157110D01*
X135110Y157116D01*
X135011Y157125D01*
X134913Y157138D01*
X134815Y157155D01*
X134717Y157176D01*
X134621Y157201D01*
X134526Y157229D01*
X134432Y157261D01*
X134339Y157296D01*
X134247Y157335D01*
X134157Y157378D01*
X134069Y157423D01*
X133982Y157473D01*
X133898Y157525D01*
X133815Y157581D01*
X133735Y157639D01*
X133657Y157701D01*
X133582Y157766D01*
X133509Y157834D01*
X133439Y157904D01*
X133371Y157977D01*
X133306Y158052D01*
X133244Y158130D01*
X133186Y158210D01*
X133130Y158293D01*
X133078Y158377D01*
X133028Y158464D01*
X132983Y158552D01*
X132940Y158642D01*
X132901Y158734D01*
X132866Y158827D01*
X132834Y158921D01*
X132806Y159016D01*
X132781Y159112D01*
X132760Y159210D01*
X132743Y159308D01*
X132730Y159406D01*
X132721Y159505D01*
X132715Y159605D01*
X132713Y159704D01*
X132713Y166196D01*
X132715Y166295D01*
X132721Y166395D01*
X132730Y166494D01*
X132743Y166592D01*
X132760Y166690D01*
X132781Y166788D01*
X132806Y166884D01*
X132834Y166979D01*
X132866Y167073D01*
X132901Y167166D01*
X132940Y167258D01*
X132983Y167348D01*
X133028Y167436D01*
X133078Y167523D01*
X133130Y167607D01*
X133186Y167690D01*
X133244Y167770D01*
X133306Y167848D01*
X133371Y167923D01*
X133439Y167996D01*
X133509Y168066D01*
X133582Y168134D01*
X133657Y168199D01*
X133735Y168261D01*
X133815Y168319D01*
X133898Y168375D01*
X133982Y168427D01*
X134069Y168477D01*
X134157Y168522D01*
X134247Y168565D01*
X134339Y168604D01*
X134431Y168639D01*
X134526Y168671D01*
X134621Y168699D01*
X134717Y168724D01*
X134815Y168745D01*
X134913Y168762D01*
X135011Y168775D01*
X135110Y168784D01*
X135210Y168790D01*
X135309Y168792D01*
X137906Y168792D01*
X142271Y166196D02*
X145516Y168792D01*
X145516Y157108D01*
X142271Y157108D02*
X148762Y157108D01*
X153701Y159704D02*
X156297Y168792D01*
X153701Y159704D02*
X160192Y159704D01*
X158245Y162301D02*
X158245Y157108D01*
D14*
X177500Y202500D02*
X214000Y202500D01*
X177500Y169000D02*
X177500Y157500D01*
X214000Y157500D01*
X177500Y191000D02*
X177500Y202500D01*
X214000Y202500D02*
X222500Y194000D01*
X222500Y166000D02*
X214000Y157500D01*
X222500Y191000D02*
X222500Y194000D01*
X222500Y169000D02*
X222500Y166000D01*
D15*
X225867Y163036D02*
X232133Y163036D01*
X229000Y159903D02*
X229000Y166168D01*
D16*
X428790Y40000D02*
X431330Y40000D01*
X484670Y40000D02*
X487210Y40000D01*
D13*
X428790Y40000D02*
X428799Y40717D01*
X428825Y41433D01*
X428869Y42149D01*
X428931Y42863D01*
X429010Y43576D01*
X429106Y44286D01*
X429220Y44994D01*
X429351Y45699D01*
X429500Y46400D01*
X429665Y47097D01*
X429848Y47791D01*
X430048Y48479D01*
X430264Y49163D01*
X430497Y49841D01*
X430747Y50513D01*
X431013Y51178D01*
X431296Y51837D01*
X431594Y52489D01*
X431909Y53133D01*
X432239Y53769D01*
X432585Y54398D01*
X432946Y55017D01*
X433322Y55627D01*
X433713Y56228D01*
X434118Y56819D01*
X434538Y57400D01*
X434972Y57971D01*
X435420Y58531D01*
X435882Y59079D01*
X436357Y59616D01*
X436845Y60141D01*
X437345Y60655D01*
X437859Y61155D01*
X438384Y61643D01*
X438921Y62118D01*
X439469Y62580D01*
X440029Y63028D01*
X440600Y63462D01*
X441181Y63882D01*
X441772Y64287D01*
X442373Y64678D01*
X442983Y65054D01*
X443602Y65415D01*
X444231Y65761D01*
X444867Y66091D01*
X445511Y66406D01*
X446163Y66704D01*
X446822Y66987D01*
X447487Y67253D01*
X448159Y67503D01*
X448837Y67736D01*
X449521Y67952D01*
X450209Y68152D01*
X450903Y68335D01*
X451600Y68500D01*
X452301Y68649D01*
X453006Y68780D01*
X453714Y68894D01*
X454424Y68990D01*
X455137Y69069D01*
X455851Y69131D01*
X456567Y69175D01*
X457283Y69201D01*
X458000Y69210D01*
X458717Y69201D01*
X459433Y69175D01*
X460149Y69131D01*
X460863Y69069D01*
X461576Y68990D01*
X462286Y68894D01*
X462994Y68780D01*
X463699Y68649D01*
X464400Y68500D01*
X465097Y68335D01*
X465791Y68152D01*
X466479Y67952D01*
X467163Y67736D01*
X467841Y67503D01*
X468513Y67253D01*
X469178Y66987D01*
X469837Y66704D01*
X470489Y66406D01*
X471133Y66091D01*
X471769Y65761D01*
X472398Y65415D01*
X473017Y65054D01*
X473627Y64678D01*
X474228Y64287D01*
X474819Y63882D01*
X475400Y63462D01*
X475971Y63028D01*
X476531Y62580D01*
X477079Y62118D01*
X477616Y61643D01*
X478141Y61155D01*
X478655Y60655D01*
X479155Y60141D01*
X479643Y59616D01*
X480118Y59079D01*
X480580Y58531D01*
X481028Y57971D01*
X481462Y57400D01*
X481882Y56819D01*
X482287Y56228D01*
X482678Y55627D01*
X483054Y55017D01*
X483415Y54398D01*
X483761Y53769D01*
X484091Y53133D01*
X484406Y52489D01*
X484704Y51837D01*
X484987Y51178D01*
X485253Y50513D01*
X485503Y49841D01*
X485736Y49163D01*
X485952Y48479D01*
X486152Y47791D01*
X486335Y47097D01*
X486500Y46400D01*
X486649Y45699D01*
X486780Y44994D01*
X486894Y44286D01*
X486990Y43576D01*
X487069Y42863D01*
X487131Y42149D01*
X487175Y41433D01*
X487201Y40717D01*
X487210Y40000D01*
X487201Y39283D01*
X487175Y38567D01*
X487131Y37851D01*
X487069Y37137D01*
X486990Y36424D01*
X486894Y35714D01*
X486780Y35006D01*
X486649Y34301D01*
X486500Y33600D01*
X486335Y32903D01*
X486152Y32209D01*
X485952Y31521D01*
X485736Y30837D01*
X485503Y30159D01*
X485253Y29487D01*
X484987Y28822D01*
X484704Y28163D01*
X484406Y27511D01*
X484091Y26867D01*
X483761Y26231D01*
X483415Y25602D01*
X483054Y24983D01*
X482678Y24373D01*
X482287Y23772D01*
X481882Y23181D01*
X481462Y22600D01*
X481028Y22029D01*
X480580Y21469D01*
X480118Y20921D01*
X479643Y20384D01*
X479155Y19859D01*
X478655Y19345D01*
X478141Y18845D01*
X477616Y18357D01*
X477079Y17882D01*
X476531Y17420D01*
X475971Y16972D01*
X475400Y16538D01*
X474819Y16118D01*
X474228Y15713D01*
X473627Y15322D01*
X473017Y14946D01*
X472398Y14585D01*
X471769Y14239D01*
X471133Y13909D01*
X470489Y13594D01*
X469837Y13296D01*
X469178Y13013D01*
X468513Y12747D01*
X467841Y12497D01*
X467163Y12264D01*
X466479Y12048D01*
X465791Y11848D01*
X465097Y11665D01*
X464400Y11500D01*
X463699Y11351D01*
X462994Y11220D01*
X462286Y11106D01*
X461576Y11010D01*
X460863Y10931D01*
X460149Y10869D01*
X459433Y10825D01*
X458717Y10799D01*
X458000Y10790D01*
X457283Y10799D01*
X456567Y10825D01*
X455851Y10869D01*
X455137Y10931D01*
X454424Y11010D01*
X453714Y11106D01*
X453006Y11220D01*
X452301Y11351D01*
X451600Y11500D01*
X450903Y11665D01*
X450209Y11848D01*
X449521Y12048D01*
X448837Y12264D01*
X448159Y12497D01*
X447487Y12747D01*
X446822Y13013D01*
X446163Y13296D01*
X445511Y13594D01*
X444867Y13909D01*
X444231Y14239D01*
X443602Y14585D01*
X442983Y14946D01*
X442373Y15322D01*
X441772Y15713D01*
X441181Y16118D01*
X440600Y16538D01*
X440029Y16972D01*
X439469Y17420D01*
X438921Y17882D01*
X438384Y18357D01*
X437859Y18845D01*
X437345Y19345D01*
X436845Y19859D01*
X436357Y20384D01*
X435882Y20921D01*
X435420Y21469D01*
X434972Y22029D01*
X434538Y22600D01*
X434118Y23181D01*
X433713Y23772D01*
X433322Y24373D01*
X432946Y24983D01*
X432585Y25602D01*
X432239Y26231D01*
X431909Y26867D01*
X431594Y27511D01*
X431296Y28163D01*
X431013Y28822D01*
X430747Y29487D01*
X430497Y30159D01*
X430264Y30837D01*
X430048Y31521D01*
X429848Y32209D01*
X429665Y32903D01*
X429500Y33600D01*
X429351Y34301D01*
X429220Y35006D01*
X429106Y35714D01*
X429010Y36424D01*
X428931Y37137D01*
X428869Y37851D01*
X428825Y38567D01*
X428799Y39283D01*
X428790Y40000D01*
D17*
X443000Y40000D02*
X443005Y40368D01*
X443018Y40736D01*
X443041Y41103D01*
X443072Y41470D01*
X443113Y41836D01*
X443162Y42201D01*
X443221Y42564D01*
X443288Y42926D01*
X443364Y43287D01*
X443450Y43645D01*
X443543Y44001D01*
X443646Y44354D01*
X443757Y44705D01*
X443877Y45053D01*
X444005Y45398D01*
X444142Y45740D01*
X444287Y46079D01*
X444440Y46413D01*
X444602Y46744D01*
X444771Y47071D01*
X444949Y47393D01*
X445134Y47712D01*
X445327Y48025D01*
X445528Y48334D01*
X445736Y48637D01*
X445952Y48935D01*
X446175Y49228D01*
X446405Y49516D01*
X446642Y49798D01*
X446886Y50073D01*
X447136Y50343D01*
X447393Y50607D01*
X447657Y50864D01*
X447927Y51114D01*
X448202Y51358D01*
X448484Y51595D01*
X448772Y51825D01*
X449065Y52048D01*
X449363Y52264D01*
X449666Y52472D01*
X449975Y52673D01*
X450288Y52866D01*
X450607Y53051D01*
X450929Y53229D01*
X451256Y53398D01*
X451587Y53560D01*
X451921Y53713D01*
X452260Y53858D01*
X452602Y53995D01*
X452947Y54123D01*
X453295Y54243D01*
X453646Y54354D01*
X453999Y54457D01*
X454355Y54550D01*
X454713Y54636D01*
X455074Y54712D01*
X455436Y54779D01*
X455799Y54838D01*
X456164Y54887D01*
X456530Y54928D01*
X456897Y54959D01*
X457264Y54982D01*
X457632Y54995D01*
X458000Y55000D01*
X458368Y54995D01*
X458736Y54982D01*
X459103Y54959D01*
X459470Y54928D01*
X459836Y54887D01*
X460201Y54838D01*
X460564Y54779D01*
X460926Y54712D01*
X461287Y54636D01*
X461645Y54550D01*
X462001Y54457D01*
X462354Y54354D01*
X462705Y54243D01*
X463053Y54123D01*
X463398Y53995D01*
X463740Y53858D01*
X464079Y53713D01*
X464413Y53560D01*
X464744Y53398D01*
X465071Y53229D01*
X465393Y53051D01*
X465712Y52866D01*
X466025Y52673D01*
X466334Y52472D01*
X466637Y52264D01*
X466935Y52048D01*
X467228Y51825D01*
X467516Y51595D01*
X467798Y51358D01*
X468073Y51114D01*
X468343Y50864D01*
X468607Y50607D01*
X468864Y50343D01*
X469114Y50073D01*
X469358Y49798D01*
X469595Y49516D01*
X469825Y49228D01*
X470048Y48935D01*
X470264Y48637D01*
X470472Y48334D01*
X470673Y48025D01*
X470866Y47712D01*
X471051Y47393D01*
X471229Y47071D01*
X471398Y46744D01*
X471560Y46413D01*
X471713Y46079D01*
X471858Y45740D01*
X471995Y45398D01*
X472123Y45053D01*
X472243Y44705D01*
X472354Y44354D01*
X472457Y44001D01*
X472550Y43645D01*
X472636Y43287D01*
X472712Y42926D01*
X472779Y42564D01*
X472838Y42201D01*
X472887Y41836D01*
X472928Y41470D01*
X472959Y41103D01*
X472982Y40736D01*
X472995Y40368D01*
X473000Y40000D01*
X472995Y39632D01*
X472982Y39264D01*
X472959Y38897D01*
X472928Y38530D01*
X472887Y38164D01*
X472838Y37799D01*
X472779Y37436D01*
X472712Y37074D01*
X472636Y36713D01*
X472550Y36355D01*
X472457Y35999D01*
X472354Y35646D01*
X472243Y35295D01*
X472123Y34947D01*
X471995Y34602D01*
X471858Y34260D01*
X471713Y33921D01*
X471560Y33587D01*
X471398Y33256D01*
X471229Y32929D01*
X471051Y32607D01*
X470866Y32288D01*
X470673Y31975D01*
X470472Y31666D01*
X470264Y31363D01*
X470048Y31065D01*
X469825Y30772D01*
X469595Y30484D01*
X469358Y30202D01*
X469114Y29927D01*
X468864Y29657D01*
X468607Y29393D01*
X468343Y29136D01*
X468073Y28886D01*
X467798Y28642D01*
X467516Y28405D01*
X467228Y28175D01*
X466935Y27952D01*
X466637Y27736D01*
X466334Y27528D01*
X466025Y27327D01*
X465712Y27134D01*
X465393Y26949D01*
X465071Y26771D01*
X464744Y26602D01*
X464413Y26440D01*
X464079Y26287D01*
X463740Y26142D01*
X463398Y26005D01*
X463053Y25877D01*
X462705Y25757D01*
X462354Y25646D01*
X462001Y25543D01*
X461645Y25450D01*
X461287Y25364D01*
X460926Y25288D01*
X460564Y25221D01*
X460201Y25162D01*
X459836Y25113D01*
X459470Y25072D01*
X459103Y25041D01*
X458736Y25018D01*
X458368Y25005D01*
X458000Y25000D01*
X457632Y25005D01*
X457264Y25018D01*
X456897Y25041D01*
X456530Y25072D01*
X456164Y25113D01*
X455799Y25162D01*
X455436Y25221D01*
X455074Y25288D01*
X454713Y25364D01*
X454355Y25450D01*
X453999Y25543D01*
X453646Y25646D01*
X453295Y25757D01*
X452947Y25877D01*
X452602Y26005D01*
X452260Y26142D01*
X451921Y26287D01*
X451587Y26440D01*
X451256Y26602D01*
X450929Y26771D01*
X450607Y26949D01*
X450288Y27134D01*
X449975Y27327D01*
X449666Y27528D01*
X449363Y27736D01*
X449065Y27952D01*
X448772Y28175D01*
X448484Y28405D01*
X448202Y28642D01*
X447927Y28886D01*
X447657Y29136D01*
X447393Y29393D01*
X447136Y29657D01*
X446886Y29927D01*
X446642Y30202D01*
X446405Y30484D01*
X446175Y30772D01*
X445952Y31065D01*
X445736Y31363D01*
X445528Y31666D01*
X445327Y31975D01*
X445134Y32288D01*
X444949Y32607D01*
X444771Y32929D01*
X444602Y33256D01*
X444440Y33587D01*
X444287Y33921D01*
X444142Y34260D01*
X444005Y34602D01*
X443877Y34947D01*
X443757Y35295D01*
X443646Y35646D01*
X443543Y35999D01*
X443450Y36355D01*
X443364Y36713D01*
X443288Y37074D01*
X443221Y37436D01*
X443162Y37799D01*
X443113Y38164D01*
X443072Y38530D01*
X443041Y38897D01*
X443018Y39264D01*
X443005Y39632D01*
X443000Y40000D01*
D16*
X53000Y205670D02*
X53000Y208210D01*
X53000Y152330D02*
X53000Y149790D01*
D13*
X23790Y179000D02*
X23799Y179717D01*
X23825Y180433D01*
X23869Y181149D01*
X23931Y181863D01*
X24010Y182576D01*
X24106Y183286D01*
X24220Y183994D01*
X24351Y184699D01*
X24500Y185400D01*
X24665Y186097D01*
X24848Y186791D01*
X25048Y187479D01*
X25264Y188163D01*
X25497Y188841D01*
X25747Y189513D01*
X26013Y190178D01*
X26296Y190837D01*
X26594Y191489D01*
X26909Y192133D01*
X27239Y192769D01*
X27585Y193398D01*
X27946Y194017D01*
X28322Y194627D01*
X28713Y195228D01*
X29118Y195819D01*
X29538Y196400D01*
X29972Y196971D01*
X30420Y197531D01*
X30882Y198079D01*
X31357Y198616D01*
X31845Y199141D01*
X32345Y199655D01*
X32859Y200155D01*
X33384Y200643D01*
X33921Y201118D01*
X34469Y201580D01*
X35029Y202028D01*
X35600Y202462D01*
X36181Y202882D01*
X36772Y203287D01*
X37373Y203678D01*
X37983Y204054D01*
X38602Y204415D01*
X39231Y204761D01*
X39867Y205091D01*
X40511Y205406D01*
X41163Y205704D01*
X41822Y205987D01*
X42487Y206253D01*
X43159Y206503D01*
X43837Y206736D01*
X44521Y206952D01*
X45209Y207152D01*
X45903Y207335D01*
X46600Y207500D01*
X47301Y207649D01*
X48006Y207780D01*
X48714Y207894D01*
X49424Y207990D01*
X50137Y208069D01*
X50851Y208131D01*
X51567Y208175D01*
X52283Y208201D01*
X53000Y208210D01*
X53717Y208201D01*
X54433Y208175D01*
X55149Y208131D01*
X55863Y208069D01*
X56576Y207990D01*
X57286Y207894D01*
X57994Y207780D01*
X58699Y207649D01*
X59400Y207500D01*
X60097Y207335D01*
X60791Y207152D01*
X61479Y206952D01*
X62163Y206736D01*
X62841Y206503D01*
X63513Y206253D01*
X64178Y205987D01*
X64837Y205704D01*
X65489Y205406D01*
X66133Y205091D01*
X66769Y204761D01*
X67398Y204415D01*
X68017Y204054D01*
X68627Y203678D01*
X69228Y203287D01*
X69819Y202882D01*
X70400Y202462D01*
X70971Y202028D01*
X71531Y201580D01*
X72079Y201118D01*
X72616Y200643D01*
X73141Y200155D01*
X73655Y199655D01*
X74155Y199141D01*
X74643Y198616D01*
X75118Y198079D01*
X75580Y197531D01*
X76028Y196971D01*
X76462Y196400D01*
X76882Y195819D01*
X77287Y195228D01*
X77678Y194627D01*
X78054Y194017D01*
X78415Y193398D01*
X78761Y192769D01*
X79091Y192133D01*
X79406Y191489D01*
X79704Y190837D01*
X79987Y190178D01*
X80253Y189513D01*
X80503Y188841D01*
X80736Y188163D01*
X80952Y187479D01*
X81152Y186791D01*
X81335Y186097D01*
X81500Y185400D01*
X81649Y184699D01*
X81780Y183994D01*
X81894Y183286D01*
X81990Y182576D01*
X82069Y181863D01*
X82131Y181149D01*
X82175Y180433D01*
X82201Y179717D01*
X82210Y179000D01*
X82201Y178283D01*
X82175Y177567D01*
X82131Y176851D01*
X82069Y176137D01*
X81990Y175424D01*
X81894Y174714D01*
X81780Y174006D01*
X81649Y173301D01*
X81500Y172600D01*
X81335Y171903D01*
X81152Y171209D01*
X80952Y170521D01*
X80736Y169837D01*
X80503Y169159D01*
X80253Y168487D01*
X79987Y167822D01*
X79704Y167163D01*
X79406Y166511D01*
X79091Y165867D01*
X78761Y165231D01*
X78415Y164602D01*
X78054Y163983D01*
X77678Y163373D01*
X77287Y162772D01*
X76882Y162181D01*
X76462Y161600D01*
X76028Y161029D01*
X75580Y160469D01*
X75118Y159921D01*
X74643Y159384D01*
X74155Y158859D01*
X73655Y158345D01*
X73141Y157845D01*
X72616Y157357D01*
X72079Y156882D01*
X71531Y156420D01*
X70971Y155972D01*
X70400Y155538D01*
X69819Y155118D01*
X69228Y154713D01*
X68627Y154322D01*
X68017Y153946D01*
X67398Y153585D01*
X66769Y153239D01*
X66133Y152909D01*
X65489Y152594D01*
X64837Y152296D01*
X64178Y152013D01*
X63513Y151747D01*
X62841Y151497D01*
X62163Y151264D01*
X61479Y151048D01*
X60791Y150848D01*
X60097Y150665D01*
X59400Y150500D01*
X58699Y150351D01*
X57994Y150220D01*
X57286Y150106D01*
X56576Y150010D01*
X55863Y149931D01*
X55149Y149869D01*
X54433Y149825D01*
X53717Y149799D01*
X53000Y149790D01*
X52283Y149799D01*
X51567Y149825D01*
X50851Y149869D01*
X50137Y149931D01*
X49424Y150010D01*
X48714Y150106D01*
X48006Y150220D01*
X47301Y150351D01*
X46600Y150500D01*
X45903Y150665D01*
X45209Y150848D01*
X44521Y151048D01*
X43837Y151264D01*
X43159Y151497D01*
X42487Y151747D01*
X41822Y152013D01*
X41163Y152296D01*
X40511Y152594D01*
X39867Y152909D01*
X39231Y153239D01*
X38602Y153585D01*
X37983Y153946D01*
X37373Y154322D01*
X36772Y154713D01*
X36181Y155118D01*
X35600Y155538D01*
X35029Y155972D01*
X34469Y156420D01*
X33921Y156882D01*
X33384Y157357D01*
X32859Y157845D01*
X32345Y158345D01*
X31845Y158859D01*
X31357Y159384D01*
X30882Y159921D01*
X30420Y160469D01*
X29972Y161029D01*
X29538Y161600D01*
X29118Y162181D01*
X28713Y162772D01*
X28322Y163373D01*
X27946Y163983D01*
X27585Y164602D01*
X27239Y165231D01*
X26909Y165867D01*
X26594Y166511D01*
X26296Y167163D01*
X26013Y167822D01*
X25747Y168487D01*
X25497Y169159D01*
X25264Y169837D01*
X25048Y170521D01*
X24848Y171209D01*
X24665Y171903D01*
X24500Y172600D01*
X24351Y173301D01*
X24220Y174006D01*
X24106Y174714D01*
X24010Y175424D01*
X23931Y176137D01*
X23869Y176851D01*
X23825Y177567D01*
X23799Y178283D01*
X23790Y179000D01*
D17*
X38000Y179000D02*
X38005Y179368D01*
X38018Y179736D01*
X38041Y180103D01*
X38072Y180470D01*
X38113Y180836D01*
X38162Y181201D01*
X38221Y181564D01*
X38288Y181926D01*
X38364Y182287D01*
X38450Y182645D01*
X38543Y183001D01*
X38646Y183354D01*
X38757Y183705D01*
X38877Y184053D01*
X39005Y184398D01*
X39142Y184740D01*
X39287Y185079D01*
X39440Y185413D01*
X39602Y185744D01*
X39771Y186071D01*
X39949Y186393D01*
X40134Y186712D01*
X40327Y187025D01*
X40528Y187334D01*
X40736Y187637D01*
X40952Y187935D01*
X41175Y188228D01*
X41405Y188516D01*
X41642Y188798D01*
X41886Y189073D01*
X42136Y189343D01*
X42393Y189607D01*
X42657Y189864D01*
X42927Y190114D01*
X43202Y190358D01*
X43484Y190595D01*
X43772Y190825D01*
X44065Y191048D01*
X44363Y191264D01*
X44666Y191472D01*
X44975Y191673D01*
X45288Y191866D01*
X45607Y192051D01*
X45929Y192229D01*
X46256Y192398D01*
X46587Y192560D01*
X46921Y192713D01*
X47260Y192858D01*
X47602Y192995D01*
X47947Y193123D01*
X48295Y193243D01*
X48646Y193354D01*
X48999Y193457D01*
X49355Y193550D01*
X49713Y193636D01*
X50074Y193712D01*
X50436Y193779D01*
X50799Y193838D01*
X51164Y193887D01*
X51530Y193928D01*
X51897Y193959D01*
X52264Y193982D01*
X52632Y193995D01*
X53000Y194000D01*
X53368Y193995D01*
X53736Y193982D01*
X54103Y193959D01*
X54470Y193928D01*
X54836Y193887D01*
X55201Y193838D01*
X55564Y193779D01*
X55926Y193712D01*
X56287Y193636D01*
X56645Y193550D01*
X57001Y193457D01*
X57354Y193354D01*
X57705Y193243D01*
X58053Y193123D01*
X58398Y192995D01*
X58740Y192858D01*
X59079Y192713D01*
X59413Y192560D01*
X59744Y192398D01*
X60071Y192229D01*
X60393Y192051D01*
X60712Y191866D01*
X61025Y191673D01*
X61334Y191472D01*
X61637Y191264D01*
X61935Y191048D01*
X62228Y190825D01*
X62516Y190595D01*
X62798Y190358D01*
X63073Y190114D01*
X63343Y189864D01*
X63607Y189607D01*
X63864Y189343D01*
X64114Y189073D01*
X64358Y188798D01*
X64595Y188516D01*
X64825Y188228D01*
X65048Y187935D01*
X65264Y187637D01*
X65472Y187334D01*
X65673Y187025D01*
X65866Y186712D01*
X66051Y186393D01*
X66229Y186071D01*
X66398Y185744D01*
X66560Y185413D01*
X66713Y185079D01*
X66858Y184740D01*
X66995Y184398D01*
X67123Y184053D01*
X67243Y183705D01*
X67354Y183354D01*
X67457Y183001D01*
X67550Y182645D01*
X67636Y182287D01*
X67712Y181926D01*
X67779Y181564D01*
X67838Y181201D01*
X67887Y180836D01*
X67928Y180470D01*
X67959Y180103D01*
X67982Y179736D01*
X67995Y179368D01*
X68000Y179000D01*
X67995Y178632D01*
X67982Y178264D01*
X67959Y177897D01*
X67928Y177530D01*
X67887Y177164D01*
X67838Y176799D01*
X67779Y176436D01*
X67712Y176074D01*
X67636Y175713D01*
X67550Y175355D01*
X67457Y174999D01*
X67354Y174646D01*
X67243Y174295D01*
X67123Y173947D01*
X66995Y173602D01*
X66858Y173260D01*
X66713Y172921D01*
X66560Y172587D01*
X66398Y172256D01*
X66229Y171929D01*
X66051Y171607D01*
X65866Y171288D01*
X65673Y170975D01*
X65472Y170666D01*
X65264Y170363D01*
X65048Y170065D01*
X64825Y169772D01*
X64595Y169484D01*
X64358Y169202D01*
X64114Y168927D01*
X63864Y168657D01*
X63607Y168393D01*
X63343Y168136D01*
X63073Y167886D01*
X62798Y167642D01*
X62516Y167405D01*
X62228Y167175D01*
X61935Y166952D01*
X61637Y166736D01*
X61334Y166528D01*
X61025Y166327D01*
X60712Y166134D01*
X60393Y165949D01*
X60071Y165771D01*
X59744Y165602D01*
X59413Y165440D01*
X59079Y165287D01*
X58740Y165142D01*
X58398Y165005D01*
X58053Y164877D01*
X57705Y164757D01*
X57354Y164646D01*
X57001Y164543D01*
X56645Y164450D01*
X56287Y164364D01*
X55926Y164288D01*
X55564Y164221D01*
X55201Y164162D01*
X54836Y164113D01*
X54470Y164072D01*
X54103Y164041D01*
X53736Y164018D01*
X53368Y164005D01*
X53000Y164000D01*
X52632Y164005D01*
X52264Y164018D01*
X51897Y164041D01*
X51530Y164072D01*
X51164Y164113D01*
X50799Y164162D01*
X50436Y164221D01*
X50074Y164288D01*
X49713Y164364D01*
X49355Y164450D01*
X48999Y164543D01*
X48646Y164646D01*
X48295Y164757D01*
X47947Y164877D01*
X47602Y165005D01*
X47260Y165142D01*
X46921Y165287D01*
X46587Y165440D01*
X46256Y165602D01*
X45929Y165771D01*
X45607Y165949D01*
X45288Y166134D01*
X44975Y166327D01*
X44666Y166528D01*
X44363Y166736D01*
X44065Y166952D01*
X43772Y167175D01*
X43484Y167405D01*
X43202Y167642D01*
X42927Y167886D01*
X42657Y168136D01*
X42393Y168393D01*
X42136Y168657D01*
X41886Y168927D01*
X41642Y169202D01*
X41405Y169484D01*
X41175Y169772D01*
X40952Y170065D01*
X40736Y170363D01*
X40528Y170666D01*
X40327Y170975D01*
X40134Y171288D01*
X39949Y171607D01*
X39771Y171929D01*
X39602Y172256D01*
X39440Y172587D01*
X39287Y172921D01*
X39142Y173260D01*
X39005Y173602D01*
X38877Y173947D01*
X38757Y174295D01*
X38646Y174646D01*
X38543Y174999D01*
X38450Y175355D01*
X38364Y175713D01*
X38288Y176074D01*
X38221Y176436D01*
X38162Y176799D01*
X38113Y177164D01*
X38072Y177530D01*
X38041Y177897D01*
X38018Y178264D01*
X38005Y178632D01*
X38000Y179000D01*
D18*
X458000Y220500D02*
X459750Y222250D01*
X458000Y220500D02*
X456500Y222000D01*
X458250Y223750D01*
X459750Y222250D01*
D19*
X460750Y218000D03*
D10*
X434401Y211492D02*
X434401Y199808D01*
X439593Y199808D01*
X444307Y199808D02*
X449499Y199808D01*
X444307Y199808D02*
X444307Y211492D01*
X449499Y211492D01*
X448201Y206299D02*
X444307Y206299D01*
X454190Y211492D02*
X454190Y199808D01*
X454190Y211492D02*
X457435Y211492D01*
X457548Y211490D01*
X457661Y211484D01*
X457774Y211474D01*
X457887Y211460D01*
X457999Y211443D01*
X458110Y211421D01*
X458220Y211396D01*
X458330Y211366D01*
X458438Y211333D01*
X458545Y211296D01*
X458651Y211256D01*
X458755Y211211D01*
X458858Y211163D01*
X458959Y211112D01*
X459058Y211057D01*
X459155Y210999D01*
X459250Y210937D01*
X459343Y210872D01*
X459433Y210804D01*
X459521Y210733D01*
X459607Y210658D01*
X459690Y210581D01*
X459770Y210501D01*
X459847Y210418D01*
X459922Y210332D01*
X459993Y210244D01*
X460061Y210154D01*
X460126Y210061D01*
X460188Y209966D01*
X460246Y209869D01*
X460301Y209770D01*
X460352Y209669D01*
X460400Y209566D01*
X460445Y209462D01*
X460485Y209356D01*
X460522Y209249D01*
X460555Y209141D01*
X460585Y209031D01*
X460610Y208921D01*
X460632Y208810D01*
X460649Y208698D01*
X460663Y208585D01*
X460673Y208472D01*
X460679Y208359D01*
X460681Y208246D01*
X460681Y203054D01*
X460682Y203054D02*
X460680Y202941D01*
X460674Y202828D01*
X460664Y202715D01*
X460650Y202602D01*
X460633Y202490D01*
X460611Y202379D01*
X460586Y202269D01*
X460556Y202159D01*
X460523Y202051D01*
X460486Y201944D01*
X460446Y201838D01*
X460401Y201734D01*
X460353Y201631D01*
X460302Y201530D01*
X460247Y201431D01*
X460189Y201334D01*
X460127Y201239D01*
X460062Y201146D01*
X459994Y201056D01*
X459923Y200968D01*
X459848Y200882D01*
X459771Y200799D01*
X459691Y200719D01*
X459608Y200642D01*
X459522Y200567D01*
X459434Y200496D01*
X459344Y200428D01*
X459251Y200363D01*
X459156Y200301D01*
X459059Y200243D01*
X458960Y200188D01*
X458859Y200137D01*
X458756Y200089D01*
X458652Y200044D01*
X458546Y200004D01*
X458439Y199967D01*
X458331Y199934D01*
X458221Y199904D01*
X458111Y199879D01*
X458000Y199857D01*
X457888Y199840D01*
X457775Y199826D01*
X457662Y199816D01*
X457549Y199810D01*
X457436Y199808D01*
X457435Y199808D02*
X454190Y199808D01*
X466001Y208896D02*
X469246Y211492D01*
X469246Y199808D01*
X466001Y199808D02*
X472492Y199808D01*
X445995Y189792D02*
X445995Y178108D01*
X445995Y189792D02*
X449240Y189792D01*
X449353Y189790D01*
X449466Y189784D01*
X449579Y189774D01*
X449692Y189760D01*
X449804Y189743D01*
X449915Y189721D01*
X450025Y189696D01*
X450135Y189666D01*
X450243Y189633D01*
X450350Y189596D01*
X450456Y189556D01*
X450560Y189511D01*
X450663Y189463D01*
X450764Y189412D01*
X450863Y189357D01*
X450960Y189299D01*
X451055Y189237D01*
X451148Y189172D01*
X451238Y189104D01*
X451326Y189033D01*
X451412Y188958D01*
X451495Y188881D01*
X451575Y188801D01*
X451652Y188718D01*
X451727Y188632D01*
X451798Y188544D01*
X451866Y188454D01*
X451931Y188361D01*
X451993Y188266D01*
X452051Y188169D01*
X452106Y188070D01*
X452157Y187969D01*
X452205Y187866D01*
X452250Y187762D01*
X452290Y187656D01*
X452327Y187549D01*
X452360Y187441D01*
X452390Y187331D01*
X452415Y187221D01*
X452437Y187110D01*
X452454Y186998D01*
X452468Y186885D01*
X452478Y186772D01*
X452484Y186659D01*
X452486Y186546D01*
X452484Y186433D01*
X452478Y186320D01*
X452468Y186207D01*
X452454Y186094D01*
X452437Y185982D01*
X452415Y185871D01*
X452390Y185761D01*
X452360Y185651D01*
X452327Y185543D01*
X452290Y185436D01*
X452250Y185330D01*
X452205Y185226D01*
X452157Y185123D01*
X452106Y185022D01*
X452051Y184923D01*
X451993Y184826D01*
X451931Y184731D01*
X451866Y184638D01*
X451798Y184548D01*
X451727Y184460D01*
X451652Y184374D01*
X451575Y184291D01*
X451495Y184211D01*
X451412Y184134D01*
X451326Y184059D01*
X451238Y183988D01*
X451148Y183920D01*
X451055Y183855D01*
X450960Y183793D01*
X450863Y183735D01*
X450764Y183680D01*
X450663Y183629D01*
X450560Y183581D01*
X450456Y183536D01*
X450350Y183496D01*
X450243Y183459D01*
X450135Y183426D01*
X450025Y183396D01*
X449915Y183371D01*
X449804Y183349D01*
X449692Y183332D01*
X449579Y183318D01*
X449466Y183308D01*
X449353Y183302D01*
X449240Y183300D01*
X449240Y183301D02*
X445995Y183301D01*
X449889Y183301D02*
X452486Y178108D01*
X457351Y178108D02*
X460596Y178108D01*
X460709Y178110D01*
X460822Y178116D01*
X460935Y178126D01*
X461048Y178140D01*
X461160Y178157D01*
X461271Y178179D01*
X461381Y178204D01*
X461491Y178234D01*
X461599Y178267D01*
X461706Y178304D01*
X461812Y178344D01*
X461916Y178389D01*
X462019Y178437D01*
X462120Y178488D01*
X462219Y178543D01*
X462316Y178601D01*
X462411Y178663D01*
X462504Y178728D01*
X462594Y178796D01*
X462682Y178867D01*
X462768Y178942D01*
X462851Y179019D01*
X462931Y179099D01*
X463008Y179182D01*
X463083Y179268D01*
X463154Y179356D01*
X463222Y179446D01*
X463287Y179539D01*
X463349Y179634D01*
X463407Y179731D01*
X463462Y179830D01*
X463513Y179931D01*
X463561Y180034D01*
X463606Y180138D01*
X463646Y180244D01*
X463683Y180351D01*
X463716Y180459D01*
X463746Y180569D01*
X463771Y180679D01*
X463793Y180790D01*
X463810Y180902D01*
X463824Y181015D01*
X463834Y181128D01*
X463840Y181241D01*
X463842Y181354D01*
X463840Y181467D01*
X463834Y181580D01*
X463824Y181693D01*
X463810Y181806D01*
X463793Y181918D01*
X463771Y182029D01*
X463746Y182139D01*
X463716Y182249D01*
X463683Y182357D01*
X463646Y182464D01*
X463606Y182570D01*
X463561Y182674D01*
X463513Y182777D01*
X463462Y182878D01*
X463407Y182977D01*
X463349Y183074D01*
X463287Y183169D01*
X463222Y183262D01*
X463154Y183352D01*
X463083Y183440D01*
X463008Y183526D01*
X462931Y183609D01*
X462851Y183689D01*
X462768Y183766D01*
X462682Y183841D01*
X462594Y183912D01*
X462504Y183980D01*
X462411Y184045D01*
X462316Y184107D01*
X462219Y184165D01*
X462120Y184220D01*
X462019Y184271D01*
X461916Y184319D01*
X461812Y184364D01*
X461706Y184404D01*
X461599Y184441D01*
X461491Y184474D01*
X461381Y184504D01*
X461271Y184529D01*
X461160Y184551D01*
X461048Y184568D01*
X460935Y184582D01*
X460822Y184592D01*
X460709Y184598D01*
X460596Y184600D01*
X461246Y189792D02*
X457351Y189792D01*
X461246Y189792D02*
X461347Y189790D01*
X461447Y189784D01*
X461547Y189774D01*
X461647Y189761D01*
X461746Y189743D01*
X461845Y189722D01*
X461942Y189697D01*
X462039Y189668D01*
X462134Y189635D01*
X462228Y189599D01*
X462320Y189559D01*
X462411Y189516D01*
X462500Y189469D01*
X462587Y189419D01*
X462673Y189365D01*
X462756Y189308D01*
X462836Y189248D01*
X462915Y189185D01*
X462991Y189118D01*
X463064Y189049D01*
X463134Y188977D01*
X463202Y188903D01*
X463267Y188826D01*
X463328Y188746D01*
X463387Y188664D01*
X463442Y188580D01*
X463494Y188494D01*
X463543Y188406D01*
X463588Y188316D01*
X463630Y188224D01*
X463668Y188131D01*
X463702Y188036D01*
X463733Y187941D01*
X463760Y187844D01*
X463783Y187746D01*
X463803Y187647D01*
X463818Y187547D01*
X463830Y187447D01*
X463838Y187347D01*
X463842Y187246D01*
X463842Y187146D01*
X463838Y187045D01*
X463830Y186945D01*
X463818Y186845D01*
X463803Y186745D01*
X463783Y186646D01*
X463760Y186548D01*
X463733Y186451D01*
X463702Y186356D01*
X463668Y186261D01*
X463630Y186168D01*
X463588Y186076D01*
X463543Y185986D01*
X463494Y185898D01*
X463442Y185812D01*
X463387Y185728D01*
X463328Y185646D01*
X463267Y185566D01*
X463202Y185489D01*
X463134Y185415D01*
X463064Y185343D01*
X462991Y185274D01*
X462915Y185207D01*
X462836Y185144D01*
X462756Y185084D01*
X462673Y185027D01*
X462587Y184973D01*
X462500Y184923D01*
X462411Y184876D01*
X462320Y184833D01*
X462228Y184793D01*
X462134Y184757D01*
X462039Y184724D01*
X461942Y184695D01*
X461845Y184670D01*
X461746Y184649D01*
X461647Y184631D01*
X461547Y184618D01*
X461447Y184608D01*
X461347Y184602D01*
X461246Y184600D01*
X461246Y184599D02*
X458649Y184599D01*
M02*
