G04 EAGLE Gerber RS-274X export*
G75*
%MOMM*%
%FSLAX34Y34*%
%LPD*%
%INBottom Silkscreen*%
%IPPOS*%
%AMOC8*
5,1,8,0,0,1.08239X$1,22.5*%
G01*
%ADD10C,0.127000*%
%ADD11C,0.101600*%
%ADD12C,0.203200*%
%ADD13C,0.076200*%


D10*
X150000Y306000D02*
X150000Y310000D01*
X146000Y310000D01*
X146000Y240000D02*
X150000Y240000D01*
X150000Y244000D01*
X80000Y244000D02*
X80000Y240000D01*
X84000Y240000D01*
X84000Y310000D02*
X80000Y310000D01*
X80000Y306000D01*
D11*
X148999Y357208D02*
X151596Y357208D01*
X151695Y357210D01*
X151795Y357216D01*
X151894Y357225D01*
X151992Y357238D01*
X152090Y357255D01*
X152188Y357276D01*
X152284Y357301D01*
X152379Y357329D01*
X152473Y357361D01*
X152566Y357396D01*
X152658Y357435D01*
X152748Y357478D01*
X152836Y357523D01*
X152923Y357573D01*
X153007Y357625D01*
X153090Y357681D01*
X153170Y357739D01*
X153248Y357801D01*
X153323Y357866D01*
X153396Y357934D01*
X153466Y358004D01*
X153534Y358077D01*
X153599Y358152D01*
X153661Y358230D01*
X153719Y358310D01*
X153775Y358393D01*
X153827Y358477D01*
X153877Y358564D01*
X153922Y358652D01*
X153965Y358742D01*
X154004Y358834D01*
X154039Y358927D01*
X154071Y359021D01*
X154099Y359116D01*
X154124Y359212D01*
X154145Y359310D01*
X154162Y359408D01*
X154175Y359506D01*
X154184Y359605D01*
X154190Y359705D01*
X154192Y359804D01*
X154192Y366296D01*
X154190Y366395D01*
X154184Y366495D01*
X154175Y366594D01*
X154162Y366692D01*
X154145Y366790D01*
X154124Y366888D01*
X154099Y366984D01*
X154071Y367079D01*
X154039Y367173D01*
X154004Y367266D01*
X153965Y367358D01*
X153922Y367448D01*
X153877Y367536D01*
X153827Y367623D01*
X153775Y367707D01*
X153719Y367790D01*
X153661Y367870D01*
X153599Y367948D01*
X153534Y368023D01*
X153466Y368096D01*
X153396Y368166D01*
X153323Y368234D01*
X153248Y368299D01*
X153170Y368361D01*
X153090Y368419D01*
X153007Y368475D01*
X152923Y368527D01*
X152836Y368577D01*
X152748Y368622D01*
X152658Y368665D01*
X152566Y368704D01*
X152473Y368739D01*
X152379Y368771D01*
X152284Y368799D01*
X152188Y368824D01*
X152090Y368845D01*
X151992Y368862D01*
X151894Y368875D01*
X151795Y368884D01*
X151695Y368890D01*
X151596Y368892D01*
X148999Y368892D01*
X144634Y368892D02*
X144634Y367594D01*
X144634Y368892D02*
X138143Y368892D01*
X141388Y357208D01*
X111596Y357208D02*
X108999Y357208D01*
X111596Y357208D02*
X111695Y357210D01*
X111795Y357216D01*
X111894Y357225D01*
X111992Y357238D01*
X112090Y357255D01*
X112188Y357276D01*
X112284Y357301D01*
X112379Y357329D01*
X112473Y357361D01*
X112566Y357396D01*
X112658Y357435D01*
X112748Y357478D01*
X112836Y357523D01*
X112923Y357573D01*
X113007Y357625D01*
X113090Y357681D01*
X113170Y357739D01*
X113248Y357801D01*
X113323Y357866D01*
X113396Y357934D01*
X113466Y358004D01*
X113534Y358077D01*
X113599Y358152D01*
X113661Y358230D01*
X113719Y358310D01*
X113775Y358393D01*
X113827Y358477D01*
X113877Y358564D01*
X113922Y358652D01*
X113965Y358742D01*
X114004Y358834D01*
X114039Y358927D01*
X114071Y359021D01*
X114099Y359116D01*
X114124Y359212D01*
X114145Y359310D01*
X114162Y359408D01*
X114175Y359506D01*
X114184Y359605D01*
X114190Y359705D01*
X114192Y359804D01*
X114192Y366296D01*
X114190Y366395D01*
X114184Y366495D01*
X114175Y366594D01*
X114162Y366692D01*
X114145Y366790D01*
X114124Y366888D01*
X114099Y366984D01*
X114071Y367079D01*
X114039Y367173D01*
X114004Y367266D01*
X113965Y367358D01*
X113922Y367448D01*
X113877Y367536D01*
X113827Y367623D01*
X113775Y367707D01*
X113719Y367790D01*
X113661Y367870D01*
X113599Y367948D01*
X113534Y368023D01*
X113466Y368096D01*
X113396Y368166D01*
X113323Y368234D01*
X113248Y368299D01*
X113170Y368361D01*
X113090Y368419D01*
X113007Y368475D01*
X112923Y368527D01*
X112836Y368577D01*
X112748Y368622D01*
X112658Y368665D01*
X112566Y368704D01*
X112473Y368739D01*
X112379Y368771D01*
X112284Y368799D01*
X112188Y368824D01*
X112090Y368845D01*
X111992Y368862D01*
X111894Y368875D01*
X111795Y368884D01*
X111695Y368890D01*
X111596Y368892D01*
X108999Y368892D01*
X104634Y360454D02*
X104632Y360567D01*
X104626Y360680D01*
X104616Y360793D01*
X104602Y360906D01*
X104585Y361018D01*
X104563Y361129D01*
X104538Y361239D01*
X104508Y361349D01*
X104475Y361457D01*
X104438Y361564D01*
X104398Y361670D01*
X104353Y361774D01*
X104305Y361877D01*
X104254Y361978D01*
X104199Y362077D01*
X104141Y362174D01*
X104079Y362269D01*
X104014Y362362D01*
X103946Y362452D01*
X103875Y362540D01*
X103800Y362626D01*
X103723Y362709D01*
X103643Y362789D01*
X103560Y362866D01*
X103474Y362941D01*
X103386Y363012D01*
X103296Y363080D01*
X103203Y363145D01*
X103108Y363207D01*
X103011Y363265D01*
X102912Y363320D01*
X102811Y363371D01*
X102708Y363419D01*
X102604Y363464D01*
X102498Y363504D01*
X102391Y363541D01*
X102283Y363574D01*
X102173Y363604D01*
X102063Y363629D01*
X101952Y363651D01*
X101840Y363668D01*
X101727Y363682D01*
X101614Y363692D01*
X101501Y363698D01*
X101388Y363700D01*
X101275Y363698D01*
X101162Y363692D01*
X101049Y363682D01*
X100936Y363668D01*
X100824Y363651D01*
X100713Y363629D01*
X100603Y363604D01*
X100493Y363574D01*
X100385Y363541D01*
X100278Y363504D01*
X100172Y363464D01*
X100068Y363419D01*
X99965Y363371D01*
X99864Y363320D01*
X99765Y363265D01*
X99668Y363207D01*
X99573Y363145D01*
X99480Y363080D01*
X99390Y363012D01*
X99302Y362941D01*
X99216Y362866D01*
X99133Y362789D01*
X99053Y362709D01*
X98976Y362626D01*
X98901Y362540D01*
X98830Y362452D01*
X98762Y362362D01*
X98697Y362269D01*
X98635Y362174D01*
X98577Y362077D01*
X98522Y361978D01*
X98471Y361877D01*
X98423Y361774D01*
X98378Y361670D01*
X98338Y361564D01*
X98301Y361457D01*
X98268Y361349D01*
X98238Y361239D01*
X98213Y361129D01*
X98191Y361018D01*
X98174Y360906D01*
X98160Y360793D01*
X98150Y360680D01*
X98144Y360567D01*
X98142Y360454D01*
X98144Y360341D01*
X98150Y360228D01*
X98160Y360115D01*
X98174Y360002D01*
X98191Y359890D01*
X98213Y359779D01*
X98238Y359669D01*
X98268Y359559D01*
X98301Y359451D01*
X98338Y359344D01*
X98378Y359238D01*
X98423Y359134D01*
X98471Y359031D01*
X98522Y358930D01*
X98577Y358831D01*
X98635Y358734D01*
X98697Y358639D01*
X98762Y358546D01*
X98830Y358456D01*
X98901Y358368D01*
X98976Y358282D01*
X99053Y358199D01*
X99133Y358119D01*
X99216Y358042D01*
X99302Y357967D01*
X99390Y357896D01*
X99480Y357828D01*
X99573Y357763D01*
X99668Y357701D01*
X99765Y357643D01*
X99864Y357588D01*
X99965Y357537D01*
X100068Y357489D01*
X100172Y357444D01*
X100278Y357404D01*
X100385Y357367D01*
X100493Y357334D01*
X100603Y357304D01*
X100713Y357279D01*
X100824Y357257D01*
X100936Y357240D01*
X101049Y357226D01*
X101162Y357216D01*
X101275Y357210D01*
X101388Y357208D01*
X101501Y357210D01*
X101614Y357216D01*
X101727Y357226D01*
X101840Y357240D01*
X101952Y357257D01*
X102063Y357279D01*
X102173Y357304D01*
X102283Y357334D01*
X102391Y357367D01*
X102498Y357404D01*
X102604Y357444D01*
X102708Y357489D01*
X102811Y357537D01*
X102912Y357588D01*
X103011Y357643D01*
X103108Y357701D01*
X103203Y357763D01*
X103296Y357828D01*
X103386Y357896D01*
X103474Y357967D01*
X103560Y358042D01*
X103643Y358119D01*
X103723Y358199D01*
X103800Y358282D01*
X103875Y358368D01*
X103946Y358456D01*
X104014Y358546D01*
X104079Y358639D01*
X104141Y358734D01*
X104199Y358831D01*
X104254Y358930D01*
X104305Y359031D01*
X104353Y359134D01*
X104398Y359238D01*
X104438Y359344D01*
X104475Y359451D01*
X104508Y359559D01*
X104538Y359669D01*
X104563Y359779D01*
X104585Y359890D01*
X104602Y360002D01*
X104616Y360115D01*
X104626Y360228D01*
X104632Y360341D01*
X104634Y360454D01*
X103984Y366296D02*
X103982Y366397D01*
X103976Y366497D01*
X103966Y366597D01*
X103953Y366697D01*
X103935Y366796D01*
X103914Y366895D01*
X103889Y366992D01*
X103860Y367089D01*
X103827Y367184D01*
X103791Y367278D01*
X103751Y367370D01*
X103708Y367461D01*
X103661Y367550D01*
X103611Y367637D01*
X103557Y367723D01*
X103500Y367806D01*
X103440Y367886D01*
X103377Y367965D01*
X103310Y368041D01*
X103241Y368114D01*
X103169Y368184D01*
X103095Y368252D01*
X103018Y368317D01*
X102938Y368378D01*
X102856Y368437D01*
X102772Y368492D01*
X102686Y368544D01*
X102598Y368593D01*
X102508Y368638D01*
X102416Y368680D01*
X102323Y368718D01*
X102228Y368752D01*
X102133Y368783D01*
X102036Y368810D01*
X101938Y368833D01*
X101839Y368853D01*
X101739Y368868D01*
X101639Y368880D01*
X101539Y368888D01*
X101438Y368892D01*
X101338Y368892D01*
X101237Y368888D01*
X101137Y368880D01*
X101037Y368868D01*
X100937Y368853D01*
X100838Y368833D01*
X100740Y368810D01*
X100643Y368783D01*
X100548Y368752D01*
X100453Y368718D01*
X100360Y368680D01*
X100268Y368638D01*
X100178Y368593D01*
X100090Y368544D01*
X100004Y368492D01*
X99920Y368437D01*
X99838Y368378D01*
X99758Y368317D01*
X99681Y368252D01*
X99607Y368184D01*
X99535Y368114D01*
X99466Y368041D01*
X99399Y367965D01*
X99336Y367886D01*
X99276Y367806D01*
X99219Y367723D01*
X99165Y367637D01*
X99115Y367550D01*
X99068Y367461D01*
X99025Y367370D01*
X98985Y367278D01*
X98949Y367184D01*
X98916Y367089D01*
X98887Y366992D01*
X98862Y366895D01*
X98841Y366796D01*
X98823Y366697D01*
X98810Y366597D01*
X98800Y366497D01*
X98794Y366397D01*
X98792Y366296D01*
X98794Y366195D01*
X98800Y366095D01*
X98810Y365995D01*
X98823Y365895D01*
X98841Y365796D01*
X98862Y365697D01*
X98887Y365600D01*
X98916Y365503D01*
X98949Y365408D01*
X98985Y365314D01*
X99025Y365222D01*
X99068Y365131D01*
X99115Y365042D01*
X99165Y364955D01*
X99219Y364869D01*
X99276Y364786D01*
X99336Y364706D01*
X99399Y364627D01*
X99466Y364551D01*
X99535Y364478D01*
X99607Y364408D01*
X99681Y364340D01*
X99758Y364275D01*
X99838Y364214D01*
X99920Y364155D01*
X100004Y364100D01*
X100090Y364048D01*
X100178Y363999D01*
X100268Y363954D01*
X100360Y363912D01*
X100453Y363874D01*
X100548Y363840D01*
X100643Y363809D01*
X100740Y363782D01*
X100838Y363759D01*
X100937Y363739D01*
X101037Y363724D01*
X101137Y363712D01*
X101237Y363704D01*
X101338Y363700D01*
X101438Y363700D01*
X101539Y363704D01*
X101639Y363712D01*
X101739Y363724D01*
X101839Y363739D01*
X101938Y363759D01*
X102036Y363782D01*
X102133Y363809D01*
X102228Y363840D01*
X102323Y363874D01*
X102416Y363912D01*
X102508Y363954D01*
X102598Y363999D01*
X102686Y364048D01*
X102772Y364100D01*
X102856Y364155D01*
X102938Y364214D01*
X103018Y364275D01*
X103095Y364340D01*
X103169Y364408D01*
X103241Y364478D01*
X103310Y364551D01*
X103377Y364627D01*
X103440Y364706D01*
X103500Y364786D01*
X103557Y364869D01*
X103611Y364955D01*
X103661Y365042D01*
X103708Y365131D01*
X103751Y365222D01*
X103791Y365314D01*
X103827Y365408D01*
X103860Y365503D01*
X103889Y365600D01*
X103914Y365697D01*
X103935Y365796D01*
X103953Y365895D01*
X103966Y365995D01*
X103976Y366095D01*
X103982Y366195D01*
X103984Y366296D01*
X196208Y240001D02*
X196208Y237404D01*
X196210Y237305D01*
X196216Y237205D01*
X196225Y237106D01*
X196238Y237008D01*
X196255Y236910D01*
X196276Y236812D01*
X196301Y236716D01*
X196329Y236621D01*
X196361Y236527D01*
X196396Y236434D01*
X196435Y236342D01*
X196478Y236252D01*
X196523Y236164D01*
X196573Y236077D01*
X196625Y235993D01*
X196681Y235910D01*
X196739Y235830D01*
X196801Y235752D01*
X196866Y235677D01*
X196934Y235604D01*
X197004Y235534D01*
X197077Y235466D01*
X197152Y235401D01*
X197230Y235339D01*
X197310Y235281D01*
X197393Y235225D01*
X197477Y235173D01*
X197564Y235123D01*
X197652Y235078D01*
X197742Y235035D01*
X197834Y234996D01*
X197927Y234961D01*
X198021Y234929D01*
X198116Y234901D01*
X198212Y234876D01*
X198310Y234855D01*
X198408Y234838D01*
X198506Y234825D01*
X198605Y234816D01*
X198705Y234810D01*
X198804Y234808D01*
X205296Y234808D01*
X205395Y234810D01*
X205495Y234816D01*
X205594Y234825D01*
X205692Y234838D01*
X205790Y234855D01*
X205888Y234876D01*
X205984Y234901D01*
X206079Y234929D01*
X206173Y234961D01*
X206266Y234996D01*
X206358Y235035D01*
X206448Y235078D01*
X206536Y235123D01*
X206623Y235173D01*
X206707Y235225D01*
X206790Y235281D01*
X206870Y235339D01*
X206948Y235401D01*
X207023Y235466D01*
X207096Y235534D01*
X207166Y235604D01*
X207234Y235677D01*
X207299Y235752D01*
X207361Y235830D01*
X207419Y235910D01*
X207475Y235993D01*
X207527Y236077D01*
X207577Y236164D01*
X207622Y236252D01*
X207665Y236342D01*
X207704Y236434D01*
X207739Y236526D01*
X207771Y236621D01*
X207799Y236716D01*
X207824Y236812D01*
X207845Y236910D01*
X207862Y237008D01*
X207875Y237106D01*
X207884Y237205D01*
X207890Y237305D01*
X207892Y237404D01*
X207892Y240001D01*
X201401Y246963D02*
X201401Y250857D01*
X201401Y246963D02*
X201403Y246864D01*
X201409Y246764D01*
X201418Y246665D01*
X201431Y246567D01*
X201448Y246469D01*
X201469Y246371D01*
X201494Y246275D01*
X201522Y246180D01*
X201554Y246086D01*
X201589Y245993D01*
X201628Y245901D01*
X201671Y245811D01*
X201716Y245723D01*
X201766Y245636D01*
X201818Y245552D01*
X201874Y245469D01*
X201932Y245389D01*
X201994Y245311D01*
X202059Y245236D01*
X202127Y245163D01*
X202197Y245093D01*
X202270Y245025D01*
X202345Y244960D01*
X202423Y244898D01*
X202503Y244840D01*
X202586Y244784D01*
X202670Y244732D01*
X202757Y244682D01*
X202845Y244637D01*
X202935Y244594D01*
X203027Y244555D01*
X203120Y244520D01*
X203214Y244488D01*
X203309Y244460D01*
X203405Y244435D01*
X203503Y244414D01*
X203601Y244397D01*
X203699Y244384D01*
X203798Y244375D01*
X203898Y244369D01*
X203997Y244367D01*
X203997Y244366D02*
X204646Y244366D01*
X204759Y244368D01*
X204872Y244374D01*
X204985Y244384D01*
X205098Y244398D01*
X205210Y244415D01*
X205321Y244437D01*
X205431Y244462D01*
X205541Y244492D01*
X205649Y244525D01*
X205756Y244562D01*
X205862Y244602D01*
X205966Y244647D01*
X206069Y244695D01*
X206170Y244746D01*
X206269Y244801D01*
X206366Y244859D01*
X206461Y244921D01*
X206554Y244986D01*
X206644Y245054D01*
X206732Y245125D01*
X206818Y245200D01*
X206901Y245277D01*
X206981Y245357D01*
X207058Y245440D01*
X207133Y245526D01*
X207204Y245614D01*
X207272Y245704D01*
X207337Y245797D01*
X207399Y245892D01*
X207457Y245989D01*
X207512Y246088D01*
X207563Y246189D01*
X207611Y246292D01*
X207656Y246396D01*
X207696Y246502D01*
X207733Y246609D01*
X207766Y246717D01*
X207796Y246827D01*
X207821Y246937D01*
X207843Y247048D01*
X207860Y247160D01*
X207874Y247273D01*
X207884Y247386D01*
X207890Y247499D01*
X207892Y247612D01*
X207890Y247725D01*
X207884Y247838D01*
X207874Y247951D01*
X207860Y248064D01*
X207843Y248176D01*
X207821Y248287D01*
X207796Y248397D01*
X207766Y248507D01*
X207733Y248615D01*
X207696Y248722D01*
X207656Y248828D01*
X207611Y248932D01*
X207563Y249035D01*
X207512Y249136D01*
X207457Y249235D01*
X207399Y249332D01*
X207337Y249427D01*
X207272Y249520D01*
X207204Y249610D01*
X207133Y249698D01*
X207058Y249784D01*
X206981Y249867D01*
X206901Y249947D01*
X206818Y250024D01*
X206732Y250099D01*
X206644Y250170D01*
X206554Y250238D01*
X206461Y250303D01*
X206366Y250365D01*
X206269Y250423D01*
X206170Y250478D01*
X206069Y250529D01*
X205966Y250577D01*
X205862Y250622D01*
X205756Y250662D01*
X205649Y250699D01*
X205541Y250732D01*
X205431Y250762D01*
X205321Y250787D01*
X205210Y250809D01*
X205098Y250826D01*
X204985Y250840D01*
X204872Y250850D01*
X204759Y250856D01*
X204646Y250858D01*
X204646Y250857D02*
X201401Y250857D01*
X201258Y250855D01*
X201115Y250849D01*
X200972Y250839D01*
X200830Y250825D01*
X200688Y250808D01*
X200546Y250786D01*
X200405Y250761D01*
X200265Y250731D01*
X200126Y250698D01*
X199988Y250661D01*
X199851Y250620D01*
X199715Y250576D01*
X199580Y250527D01*
X199447Y250475D01*
X199315Y250420D01*
X199185Y250360D01*
X199056Y250297D01*
X198929Y250231D01*
X198805Y250161D01*
X198682Y250088D01*
X198561Y250011D01*
X198442Y249931D01*
X198326Y249848D01*
X198211Y249762D01*
X198100Y249673D01*
X197990Y249580D01*
X197884Y249485D01*
X197780Y249386D01*
X197679Y249285D01*
X197580Y249181D01*
X197485Y249075D01*
X197392Y248965D01*
X197303Y248854D01*
X197217Y248739D01*
X197134Y248623D01*
X197054Y248504D01*
X196977Y248383D01*
X196904Y248261D01*
X196834Y248136D01*
X196768Y248009D01*
X196705Y247880D01*
X196645Y247750D01*
X196590Y247618D01*
X196538Y247485D01*
X196489Y247350D01*
X196445Y247214D01*
X196404Y247077D01*
X196367Y246939D01*
X196334Y246800D01*
X196304Y246660D01*
X196279Y246519D01*
X196257Y246377D01*
X196240Y246235D01*
X196226Y246093D01*
X196216Y245950D01*
X196210Y245807D01*
X196208Y245664D01*
X196208Y278404D02*
X196208Y281001D01*
X196208Y278404D02*
X196210Y278305D01*
X196216Y278205D01*
X196225Y278106D01*
X196238Y278008D01*
X196255Y277910D01*
X196276Y277812D01*
X196301Y277716D01*
X196329Y277621D01*
X196361Y277527D01*
X196396Y277434D01*
X196435Y277342D01*
X196478Y277252D01*
X196523Y277164D01*
X196573Y277077D01*
X196625Y276993D01*
X196681Y276910D01*
X196739Y276830D01*
X196801Y276752D01*
X196866Y276677D01*
X196934Y276604D01*
X197004Y276534D01*
X197077Y276466D01*
X197152Y276401D01*
X197230Y276339D01*
X197310Y276281D01*
X197393Y276225D01*
X197477Y276173D01*
X197564Y276123D01*
X197652Y276078D01*
X197742Y276035D01*
X197834Y275996D01*
X197927Y275961D01*
X198021Y275929D01*
X198116Y275901D01*
X198212Y275876D01*
X198310Y275855D01*
X198408Y275838D01*
X198506Y275825D01*
X198605Y275816D01*
X198705Y275810D01*
X198804Y275808D01*
X205296Y275808D01*
X205395Y275810D01*
X205495Y275816D01*
X205594Y275825D01*
X205692Y275838D01*
X205790Y275855D01*
X205888Y275876D01*
X205984Y275901D01*
X206079Y275929D01*
X206173Y275961D01*
X206266Y275996D01*
X206358Y276035D01*
X206448Y276078D01*
X206536Y276123D01*
X206623Y276173D01*
X206707Y276225D01*
X206790Y276281D01*
X206870Y276339D01*
X206948Y276401D01*
X207023Y276466D01*
X207096Y276534D01*
X207166Y276604D01*
X207234Y276677D01*
X207299Y276752D01*
X207361Y276830D01*
X207419Y276910D01*
X207475Y276993D01*
X207527Y277077D01*
X207577Y277164D01*
X207622Y277252D01*
X207665Y277342D01*
X207704Y277434D01*
X207739Y277526D01*
X207771Y277621D01*
X207799Y277716D01*
X207824Y277812D01*
X207845Y277910D01*
X207862Y278008D01*
X207875Y278106D01*
X207884Y278205D01*
X207890Y278305D01*
X207892Y278404D01*
X207892Y281001D01*
X205296Y285366D02*
X207892Y288612D01*
X196208Y288612D01*
X196208Y291857D02*
X196208Y285366D01*
X202050Y296797D02*
X202280Y296800D01*
X202510Y296808D01*
X202739Y296822D01*
X202968Y296841D01*
X203197Y296866D01*
X203424Y296896D01*
X203652Y296931D01*
X203878Y296972D01*
X204103Y297018D01*
X204327Y297070D01*
X204549Y297127D01*
X204771Y297189D01*
X204990Y297257D01*
X205208Y297330D01*
X205425Y297408D01*
X205639Y297491D01*
X205851Y297579D01*
X206061Y297672D01*
X206269Y297771D01*
X206269Y297770D02*
X206359Y297803D01*
X206448Y297839D01*
X206536Y297879D01*
X206621Y297923D01*
X206705Y297970D01*
X206787Y298020D01*
X206867Y298074D01*
X206944Y298130D01*
X207020Y298190D01*
X207093Y298253D01*
X207163Y298318D01*
X207231Y298387D01*
X207295Y298458D01*
X207357Y298531D01*
X207416Y298607D01*
X207472Y298685D01*
X207525Y298766D01*
X207574Y298848D01*
X207620Y298932D01*
X207663Y299019D01*
X207702Y299106D01*
X207738Y299196D01*
X207770Y299286D01*
X207798Y299378D01*
X207823Y299471D01*
X207844Y299565D01*
X207861Y299659D01*
X207875Y299754D01*
X207884Y299850D01*
X207890Y299946D01*
X207892Y300042D01*
X207890Y300138D01*
X207884Y300234D01*
X207875Y300330D01*
X207861Y300425D01*
X207844Y300519D01*
X207823Y300613D01*
X207798Y300706D01*
X207770Y300798D01*
X207738Y300888D01*
X207702Y300978D01*
X207663Y301065D01*
X207620Y301152D01*
X207574Y301236D01*
X207525Y301318D01*
X207472Y301399D01*
X207416Y301477D01*
X207357Y301553D01*
X207295Y301626D01*
X207231Y301697D01*
X207163Y301766D01*
X207093Y301831D01*
X207020Y301894D01*
X206944Y301954D01*
X206867Y302010D01*
X206787Y302064D01*
X206705Y302114D01*
X206621Y302161D01*
X206536Y302205D01*
X206448Y302245D01*
X206359Y302281D01*
X206269Y302314D01*
X206062Y302413D01*
X205852Y302506D01*
X205639Y302594D01*
X205425Y302677D01*
X205209Y302755D01*
X204991Y302828D01*
X204771Y302896D01*
X204550Y302958D01*
X204327Y303015D01*
X204103Y303067D01*
X203878Y303113D01*
X203652Y303154D01*
X203425Y303189D01*
X203197Y303219D01*
X202968Y303244D01*
X202739Y303263D01*
X202510Y303277D01*
X202280Y303285D01*
X202050Y303288D01*
X202050Y296796D02*
X201820Y296799D01*
X201590Y296807D01*
X201361Y296821D01*
X201132Y296840D01*
X200903Y296865D01*
X200675Y296895D01*
X200448Y296930D01*
X200222Y296971D01*
X199997Y297017D01*
X199773Y297069D01*
X199550Y297126D01*
X199329Y297188D01*
X199109Y297256D01*
X198891Y297329D01*
X198675Y297407D01*
X198461Y297490D01*
X198249Y297578D01*
X198038Y297671D01*
X197831Y297770D01*
X197741Y297803D01*
X197652Y297839D01*
X197564Y297880D01*
X197479Y297923D01*
X197395Y297970D01*
X197313Y298020D01*
X197233Y298074D01*
X197156Y298130D01*
X197080Y298190D01*
X197007Y298253D01*
X196937Y298318D01*
X196869Y298387D01*
X196805Y298458D01*
X196743Y298531D01*
X196684Y298607D01*
X196628Y298685D01*
X196575Y298766D01*
X196526Y298848D01*
X196480Y298932D01*
X196437Y299019D01*
X196398Y299106D01*
X196362Y299196D01*
X196330Y299286D01*
X196302Y299378D01*
X196277Y299471D01*
X196256Y299565D01*
X196239Y299659D01*
X196225Y299754D01*
X196216Y299850D01*
X196210Y299946D01*
X196208Y300042D01*
X197831Y302314D02*
X198038Y302413D01*
X198249Y302506D01*
X198461Y302594D01*
X198675Y302677D01*
X198891Y302755D01*
X199109Y302828D01*
X199329Y302896D01*
X199550Y302958D01*
X199773Y303015D01*
X199997Y303067D01*
X200222Y303113D01*
X200448Y303154D01*
X200675Y303189D01*
X200903Y303219D01*
X201132Y303244D01*
X201361Y303263D01*
X201590Y303277D01*
X201820Y303285D01*
X202050Y303288D01*
X197831Y302314D02*
X197741Y302281D01*
X197652Y302245D01*
X197564Y302205D01*
X197479Y302161D01*
X197395Y302114D01*
X197313Y302064D01*
X197233Y302010D01*
X197156Y301954D01*
X197080Y301894D01*
X197007Y301831D01*
X196937Y301766D01*
X196869Y301697D01*
X196805Y301626D01*
X196743Y301553D01*
X196684Y301477D01*
X196628Y301399D01*
X196575Y301318D01*
X196526Y301236D01*
X196480Y301152D01*
X196437Y301065D01*
X196398Y300978D01*
X196362Y300888D01*
X196330Y300798D01*
X196302Y300706D01*
X196277Y300613D01*
X196256Y300519D01*
X196239Y300425D01*
X196225Y300330D01*
X196216Y300234D01*
X196210Y300138D01*
X196208Y300042D01*
X198804Y297445D02*
X205296Y302638D01*
X21108Y252906D02*
X21108Y250309D01*
X21110Y250210D01*
X21116Y250110D01*
X21125Y250011D01*
X21138Y249913D01*
X21155Y249815D01*
X21176Y249717D01*
X21201Y249621D01*
X21229Y249526D01*
X21261Y249432D01*
X21296Y249339D01*
X21335Y249247D01*
X21378Y249157D01*
X21423Y249069D01*
X21473Y248982D01*
X21525Y248898D01*
X21581Y248815D01*
X21639Y248735D01*
X21701Y248657D01*
X21766Y248582D01*
X21834Y248509D01*
X21904Y248439D01*
X21977Y248371D01*
X22052Y248306D01*
X22130Y248244D01*
X22210Y248186D01*
X22293Y248130D01*
X22377Y248078D01*
X22464Y248028D01*
X22552Y247983D01*
X22642Y247940D01*
X22734Y247901D01*
X22827Y247866D01*
X22921Y247834D01*
X23016Y247806D01*
X23112Y247781D01*
X23210Y247760D01*
X23308Y247743D01*
X23406Y247730D01*
X23505Y247721D01*
X23605Y247715D01*
X23704Y247713D01*
X30196Y247713D01*
X30295Y247715D01*
X30395Y247721D01*
X30494Y247730D01*
X30592Y247743D01*
X30690Y247760D01*
X30788Y247781D01*
X30884Y247806D01*
X30979Y247834D01*
X31073Y247866D01*
X31166Y247901D01*
X31258Y247940D01*
X31348Y247983D01*
X31436Y248028D01*
X31523Y248078D01*
X31607Y248130D01*
X31690Y248186D01*
X31770Y248244D01*
X31848Y248306D01*
X31923Y248371D01*
X31996Y248439D01*
X32066Y248509D01*
X32134Y248582D01*
X32199Y248657D01*
X32261Y248735D01*
X32319Y248815D01*
X32375Y248898D01*
X32427Y248982D01*
X32477Y249069D01*
X32522Y249157D01*
X32565Y249247D01*
X32604Y249339D01*
X32639Y249431D01*
X32671Y249526D01*
X32699Y249621D01*
X32724Y249717D01*
X32745Y249815D01*
X32762Y249913D01*
X32775Y250011D01*
X32784Y250110D01*
X32790Y250210D01*
X32792Y250309D01*
X32792Y252906D01*
X30196Y257271D02*
X32792Y260516D01*
X21108Y260516D01*
X21108Y257271D02*
X21108Y263762D01*
X30196Y268701D02*
X32792Y271946D01*
X21108Y271946D01*
X21108Y268701D02*
X21108Y275192D01*
X108999Y182208D02*
X111596Y182208D01*
X111695Y182210D01*
X111795Y182216D01*
X111894Y182225D01*
X111992Y182238D01*
X112090Y182255D01*
X112188Y182276D01*
X112284Y182301D01*
X112379Y182329D01*
X112473Y182361D01*
X112566Y182396D01*
X112658Y182435D01*
X112748Y182478D01*
X112836Y182523D01*
X112923Y182573D01*
X113007Y182625D01*
X113090Y182681D01*
X113170Y182739D01*
X113248Y182801D01*
X113323Y182866D01*
X113396Y182934D01*
X113466Y183004D01*
X113534Y183077D01*
X113599Y183152D01*
X113661Y183230D01*
X113719Y183310D01*
X113775Y183393D01*
X113827Y183477D01*
X113877Y183564D01*
X113922Y183652D01*
X113965Y183742D01*
X114004Y183834D01*
X114039Y183927D01*
X114071Y184021D01*
X114099Y184116D01*
X114124Y184212D01*
X114145Y184310D01*
X114162Y184408D01*
X114175Y184506D01*
X114184Y184605D01*
X114190Y184705D01*
X114192Y184804D01*
X114192Y191296D01*
X114190Y191395D01*
X114184Y191495D01*
X114175Y191594D01*
X114162Y191692D01*
X114145Y191790D01*
X114124Y191888D01*
X114099Y191984D01*
X114071Y192079D01*
X114039Y192173D01*
X114004Y192266D01*
X113965Y192358D01*
X113922Y192448D01*
X113877Y192536D01*
X113827Y192623D01*
X113775Y192707D01*
X113719Y192790D01*
X113661Y192870D01*
X113599Y192948D01*
X113534Y193023D01*
X113466Y193096D01*
X113396Y193166D01*
X113323Y193234D01*
X113248Y193299D01*
X113170Y193361D01*
X113090Y193419D01*
X113007Y193475D01*
X112923Y193527D01*
X112836Y193577D01*
X112748Y193622D01*
X112658Y193665D01*
X112566Y193704D01*
X112473Y193739D01*
X112379Y193771D01*
X112284Y193799D01*
X112188Y193824D01*
X112090Y193845D01*
X111992Y193862D01*
X111894Y193875D01*
X111795Y193884D01*
X111695Y193890D01*
X111596Y193892D01*
X108999Y193892D01*
X104634Y191296D02*
X101388Y193892D01*
X101388Y182208D01*
X98143Y182208D02*
X104634Y182208D01*
X89634Y193892D02*
X89527Y193890D01*
X89421Y193884D01*
X89315Y193874D01*
X89209Y193861D01*
X89103Y193843D01*
X88999Y193822D01*
X88895Y193797D01*
X88792Y193768D01*
X88691Y193736D01*
X88591Y193699D01*
X88492Y193659D01*
X88394Y193616D01*
X88298Y193569D01*
X88204Y193518D01*
X88112Y193464D01*
X88022Y193407D01*
X87934Y193347D01*
X87849Y193283D01*
X87766Y193216D01*
X87685Y193146D01*
X87607Y193074D01*
X87531Y192998D01*
X87459Y192920D01*
X87389Y192839D01*
X87322Y192756D01*
X87258Y192671D01*
X87198Y192583D01*
X87141Y192493D01*
X87087Y192401D01*
X87036Y192307D01*
X86989Y192211D01*
X86946Y192113D01*
X86906Y192014D01*
X86869Y191914D01*
X86837Y191813D01*
X86808Y191710D01*
X86783Y191606D01*
X86762Y191502D01*
X86744Y191396D01*
X86731Y191290D01*
X86721Y191184D01*
X86715Y191078D01*
X86713Y190971D01*
X89634Y193892D02*
X89755Y193890D01*
X89876Y193884D01*
X89996Y193874D01*
X90117Y193861D01*
X90236Y193843D01*
X90356Y193822D01*
X90474Y193797D01*
X90591Y193768D01*
X90708Y193735D01*
X90823Y193699D01*
X90937Y193658D01*
X91050Y193615D01*
X91162Y193567D01*
X91271Y193516D01*
X91379Y193461D01*
X91486Y193403D01*
X91590Y193342D01*
X91692Y193277D01*
X91792Y193209D01*
X91890Y193138D01*
X91986Y193064D01*
X92079Y192987D01*
X92169Y192906D01*
X92257Y192823D01*
X92342Y192737D01*
X92425Y192648D01*
X92504Y192557D01*
X92581Y192463D01*
X92654Y192367D01*
X92724Y192269D01*
X92791Y192168D01*
X92855Y192065D01*
X92916Y191960D01*
X92973Y191853D01*
X93026Y191745D01*
X93076Y191635D01*
X93122Y191523D01*
X93165Y191410D01*
X93204Y191295D01*
X87687Y188699D02*
X87608Y188777D01*
X87532Y188857D01*
X87459Y188940D01*
X87389Y189026D01*
X87322Y189113D01*
X87258Y189204D01*
X87198Y189296D01*
X87140Y189390D01*
X87086Y189487D01*
X87036Y189585D01*
X86989Y189685D01*
X86945Y189786D01*
X86905Y189889D01*
X86869Y189994D01*
X86837Y190099D01*
X86808Y190206D01*
X86783Y190313D01*
X86761Y190422D01*
X86744Y190531D01*
X86730Y190640D01*
X86721Y190750D01*
X86715Y190861D01*
X86713Y190971D01*
X87686Y188699D02*
X93204Y182208D01*
X86713Y182208D01*
X148999Y182208D02*
X151596Y182208D01*
X151695Y182210D01*
X151795Y182216D01*
X151894Y182225D01*
X151992Y182238D01*
X152090Y182255D01*
X152188Y182276D01*
X152284Y182301D01*
X152379Y182329D01*
X152473Y182361D01*
X152566Y182396D01*
X152658Y182435D01*
X152748Y182478D01*
X152836Y182523D01*
X152923Y182573D01*
X153007Y182625D01*
X153090Y182681D01*
X153170Y182739D01*
X153248Y182801D01*
X153323Y182866D01*
X153396Y182934D01*
X153466Y183004D01*
X153534Y183077D01*
X153599Y183152D01*
X153661Y183230D01*
X153719Y183310D01*
X153775Y183393D01*
X153827Y183477D01*
X153877Y183564D01*
X153922Y183652D01*
X153965Y183742D01*
X154004Y183834D01*
X154039Y183927D01*
X154071Y184021D01*
X154099Y184116D01*
X154124Y184212D01*
X154145Y184310D01*
X154162Y184408D01*
X154175Y184506D01*
X154184Y184605D01*
X154190Y184705D01*
X154192Y184804D01*
X154192Y191296D01*
X154190Y191395D01*
X154184Y191495D01*
X154175Y191594D01*
X154162Y191692D01*
X154145Y191790D01*
X154124Y191888D01*
X154099Y191984D01*
X154071Y192079D01*
X154039Y192173D01*
X154004Y192266D01*
X153965Y192358D01*
X153922Y192448D01*
X153877Y192536D01*
X153827Y192623D01*
X153775Y192707D01*
X153719Y192790D01*
X153661Y192870D01*
X153599Y192948D01*
X153534Y193023D01*
X153466Y193096D01*
X153396Y193166D01*
X153323Y193234D01*
X153248Y193299D01*
X153170Y193361D01*
X153090Y193419D01*
X153007Y193475D01*
X152923Y193527D01*
X152836Y193577D01*
X152748Y193622D01*
X152658Y193665D01*
X152566Y193704D01*
X152473Y193739D01*
X152379Y193771D01*
X152284Y193799D01*
X152188Y193824D01*
X152090Y193845D01*
X151992Y193862D01*
X151894Y193875D01*
X151795Y193884D01*
X151695Y193890D01*
X151596Y193892D01*
X148999Y193892D01*
X144634Y191296D02*
X141388Y193892D01*
X141388Y182208D01*
X138143Y182208D02*
X144634Y182208D01*
X133204Y182208D02*
X129958Y182208D01*
X129845Y182210D01*
X129732Y182216D01*
X129619Y182226D01*
X129506Y182240D01*
X129394Y182257D01*
X129283Y182279D01*
X129173Y182304D01*
X129063Y182334D01*
X128955Y182367D01*
X128848Y182404D01*
X128742Y182444D01*
X128638Y182489D01*
X128535Y182537D01*
X128434Y182588D01*
X128335Y182643D01*
X128238Y182701D01*
X128143Y182763D01*
X128050Y182828D01*
X127960Y182896D01*
X127872Y182967D01*
X127786Y183042D01*
X127703Y183119D01*
X127623Y183199D01*
X127546Y183282D01*
X127471Y183368D01*
X127400Y183456D01*
X127332Y183546D01*
X127267Y183639D01*
X127205Y183734D01*
X127147Y183831D01*
X127092Y183930D01*
X127041Y184031D01*
X126993Y184134D01*
X126948Y184238D01*
X126908Y184344D01*
X126871Y184451D01*
X126838Y184559D01*
X126808Y184669D01*
X126783Y184779D01*
X126761Y184890D01*
X126744Y185002D01*
X126730Y185115D01*
X126720Y185228D01*
X126714Y185341D01*
X126712Y185454D01*
X126714Y185567D01*
X126720Y185680D01*
X126730Y185793D01*
X126744Y185906D01*
X126761Y186018D01*
X126783Y186129D01*
X126808Y186239D01*
X126838Y186349D01*
X126871Y186457D01*
X126908Y186564D01*
X126948Y186670D01*
X126993Y186774D01*
X127041Y186877D01*
X127092Y186978D01*
X127147Y187077D01*
X127205Y187174D01*
X127267Y187269D01*
X127332Y187362D01*
X127400Y187452D01*
X127471Y187540D01*
X127546Y187626D01*
X127623Y187709D01*
X127703Y187789D01*
X127786Y187866D01*
X127872Y187941D01*
X127960Y188012D01*
X128050Y188080D01*
X128143Y188145D01*
X128238Y188207D01*
X128335Y188265D01*
X128434Y188320D01*
X128535Y188371D01*
X128638Y188419D01*
X128742Y188464D01*
X128848Y188504D01*
X128955Y188541D01*
X129063Y188574D01*
X129173Y188604D01*
X129283Y188629D01*
X129394Y188651D01*
X129506Y188668D01*
X129619Y188682D01*
X129732Y188692D01*
X129845Y188698D01*
X129958Y188700D01*
X129309Y193892D02*
X133204Y193892D01*
X129309Y193892D02*
X129208Y193890D01*
X129108Y193884D01*
X129008Y193874D01*
X128908Y193861D01*
X128809Y193843D01*
X128710Y193822D01*
X128613Y193797D01*
X128516Y193768D01*
X128421Y193735D01*
X128327Y193699D01*
X128235Y193659D01*
X128144Y193616D01*
X128055Y193569D01*
X127968Y193519D01*
X127882Y193465D01*
X127799Y193408D01*
X127719Y193348D01*
X127640Y193285D01*
X127564Y193218D01*
X127491Y193149D01*
X127421Y193077D01*
X127353Y193003D01*
X127288Y192926D01*
X127227Y192846D01*
X127168Y192764D01*
X127113Y192680D01*
X127061Y192594D01*
X127012Y192506D01*
X126967Y192416D01*
X126925Y192324D01*
X126887Y192231D01*
X126853Y192136D01*
X126822Y192041D01*
X126795Y191944D01*
X126772Y191846D01*
X126752Y191747D01*
X126737Y191647D01*
X126725Y191547D01*
X126717Y191447D01*
X126713Y191346D01*
X126713Y191246D01*
X126717Y191145D01*
X126725Y191045D01*
X126737Y190945D01*
X126752Y190845D01*
X126772Y190746D01*
X126795Y190648D01*
X126822Y190551D01*
X126853Y190456D01*
X126887Y190361D01*
X126925Y190268D01*
X126967Y190176D01*
X127012Y190086D01*
X127061Y189998D01*
X127113Y189912D01*
X127168Y189828D01*
X127227Y189746D01*
X127288Y189666D01*
X127353Y189589D01*
X127421Y189515D01*
X127491Y189443D01*
X127564Y189374D01*
X127640Y189307D01*
X127719Y189244D01*
X127799Y189184D01*
X127882Y189127D01*
X127968Y189073D01*
X128055Y189023D01*
X128144Y188976D01*
X128235Y188933D01*
X128327Y188893D01*
X128421Y188857D01*
X128516Y188824D01*
X128613Y188795D01*
X128710Y188770D01*
X128809Y188749D01*
X128908Y188731D01*
X129008Y188718D01*
X129108Y188708D01*
X129208Y188702D01*
X129309Y188700D01*
X129309Y188699D02*
X131906Y188699D01*
X160108Y322309D02*
X160108Y324906D01*
X160108Y322309D02*
X160110Y322210D01*
X160116Y322110D01*
X160125Y322011D01*
X160138Y321913D01*
X160155Y321815D01*
X160176Y321717D01*
X160201Y321621D01*
X160229Y321526D01*
X160261Y321432D01*
X160296Y321339D01*
X160335Y321247D01*
X160378Y321157D01*
X160423Y321069D01*
X160473Y320982D01*
X160525Y320898D01*
X160581Y320815D01*
X160639Y320735D01*
X160701Y320657D01*
X160766Y320582D01*
X160834Y320509D01*
X160904Y320439D01*
X160977Y320371D01*
X161052Y320306D01*
X161130Y320244D01*
X161210Y320186D01*
X161293Y320130D01*
X161377Y320078D01*
X161464Y320028D01*
X161552Y319983D01*
X161642Y319940D01*
X161734Y319901D01*
X161827Y319866D01*
X161921Y319834D01*
X162016Y319806D01*
X162112Y319781D01*
X162210Y319760D01*
X162308Y319743D01*
X162406Y319730D01*
X162505Y319721D01*
X162605Y319715D01*
X162704Y319713D01*
X169196Y319713D01*
X169295Y319715D01*
X169395Y319721D01*
X169494Y319730D01*
X169592Y319743D01*
X169690Y319760D01*
X169788Y319781D01*
X169884Y319806D01*
X169979Y319834D01*
X170073Y319866D01*
X170166Y319901D01*
X170258Y319940D01*
X170348Y319983D01*
X170436Y320028D01*
X170523Y320078D01*
X170607Y320130D01*
X170690Y320186D01*
X170770Y320244D01*
X170848Y320306D01*
X170923Y320371D01*
X170996Y320439D01*
X171066Y320509D01*
X171134Y320582D01*
X171199Y320657D01*
X171261Y320735D01*
X171319Y320815D01*
X171375Y320898D01*
X171427Y320982D01*
X171477Y321069D01*
X171522Y321157D01*
X171565Y321247D01*
X171604Y321339D01*
X171639Y321431D01*
X171671Y321526D01*
X171699Y321621D01*
X171724Y321717D01*
X171745Y321815D01*
X171762Y321913D01*
X171775Y322011D01*
X171784Y322110D01*
X171790Y322210D01*
X171792Y322309D01*
X171792Y324906D01*
X169196Y329271D02*
X171792Y332516D01*
X160108Y332516D01*
X160108Y329271D02*
X160108Y335762D01*
X160108Y340701D02*
X160108Y344596D01*
X160110Y344695D01*
X160116Y344795D01*
X160125Y344894D01*
X160138Y344992D01*
X160155Y345090D01*
X160176Y345188D01*
X160201Y345284D01*
X160229Y345379D01*
X160261Y345473D01*
X160296Y345566D01*
X160335Y345658D01*
X160378Y345748D01*
X160423Y345836D01*
X160473Y345923D01*
X160525Y346007D01*
X160581Y346090D01*
X160639Y346170D01*
X160701Y346248D01*
X160766Y346323D01*
X160834Y346396D01*
X160904Y346466D01*
X160977Y346534D01*
X161052Y346599D01*
X161130Y346661D01*
X161210Y346719D01*
X161293Y346775D01*
X161377Y346827D01*
X161464Y346877D01*
X161552Y346922D01*
X161642Y346965D01*
X161734Y347004D01*
X161827Y347039D01*
X161921Y347071D01*
X162016Y347099D01*
X162112Y347124D01*
X162210Y347145D01*
X162308Y347162D01*
X162406Y347175D01*
X162505Y347184D01*
X162605Y347190D01*
X162704Y347192D01*
X164003Y347192D01*
X164102Y347190D01*
X164202Y347184D01*
X164301Y347175D01*
X164399Y347162D01*
X164497Y347145D01*
X164595Y347124D01*
X164691Y347099D01*
X164786Y347071D01*
X164880Y347039D01*
X164973Y347004D01*
X165065Y346965D01*
X165155Y346922D01*
X165243Y346877D01*
X165330Y346827D01*
X165414Y346775D01*
X165497Y346719D01*
X165577Y346661D01*
X165655Y346599D01*
X165730Y346534D01*
X165803Y346466D01*
X165873Y346396D01*
X165941Y346323D01*
X166006Y346248D01*
X166068Y346170D01*
X166126Y346090D01*
X166182Y346007D01*
X166234Y345923D01*
X166284Y345836D01*
X166329Y345748D01*
X166372Y345658D01*
X166411Y345566D01*
X166446Y345473D01*
X166478Y345379D01*
X166506Y345284D01*
X166531Y345188D01*
X166552Y345090D01*
X166569Y344992D01*
X166582Y344894D01*
X166591Y344795D01*
X166597Y344695D01*
X166599Y344596D01*
X166599Y340701D01*
X171792Y340701D01*
X171792Y347192D01*
D12*
X224000Y6000D02*
X223999Y6000D01*
X221000Y6000D01*
X218000Y3000D02*
X100000Y3000D01*
X97000Y6000D02*
X94000Y6000D01*
X94000Y93000D01*
X94000Y118000D01*
X94000Y142000D01*
X224000Y142000D01*
X224000Y118000D01*
X224000Y93000D01*
X224000Y6000D01*
X223999Y6000D02*
X224001Y5893D01*
X224007Y5786D01*
X224016Y5679D01*
X224030Y5573D01*
X224047Y5467D01*
X224068Y5362D01*
X224092Y5258D01*
X224121Y5155D01*
X224153Y5053D01*
X224188Y4952D01*
X224227Y4852D01*
X224270Y4754D01*
X224316Y4657D01*
X224366Y4562D01*
X224419Y4469D01*
X224475Y4378D01*
X224535Y4289D01*
X224597Y4202D01*
X224663Y4118D01*
X224732Y4035D01*
X224803Y3956D01*
X224878Y3879D01*
X224955Y3804D01*
X225034Y3733D01*
X225117Y3664D01*
X225201Y3598D01*
X225288Y3536D01*
X225377Y3476D01*
X225468Y3420D01*
X225561Y3367D01*
X225656Y3317D01*
X225753Y3271D01*
X225851Y3228D01*
X225951Y3189D01*
X226052Y3154D01*
X226154Y3122D01*
X226257Y3093D01*
X226361Y3069D01*
X226466Y3048D01*
X226572Y3031D01*
X226678Y3017D01*
X226785Y3008D01*
X226892Y3002D01*
X226999Y3000D01*
X227000Y3000D02*
X229000Y3000D01*
X221000Y6000D02*
X220893Y5998D01*
X220786Y5992D01*
X220679Y5983D01*
X220573Y5969D01*
X220467Y5952D01*
X220362Y5931D01*
X220258Y5907D01*
X220155Y5878D01*
X220053Y5846D01*
X219952Y5811D01*
X219852Y5772D01*
X219754Y5729D01*
X219657Y5683D01*
X219562Y5633D01*
X219469Y5580D01*
X219378Y5524D01*
X219289Y5464D01*
X219202Y5402D01*
X219118Y5336D01*
X219035Y5267D01*
X218956Y5196D01*
X218879Y5121D01*
X218804Y5044D01*
X218733Y4965D01*
X218664Y4882D01*
X218598Y4798D01*
X218536Y4711D01*
X218476Y4622D01*
X218420Y4531D01*
X218367Y4438D01*
X218317Y4343D01*
X218271Y4246D01*
X218228Y4148D01*
X218189Y4048D01*
X218154Y3947D01*
X218122Y3845D01*
X218093Y3742D01*
X218069Y3638D01*
X218048Y3533D01*
X218031Y3427D01*
X218017Y3321D01*
X218008Y3214D01*
X218002Y3107D01*
X218000Y3000D01*
X94000Y6000D02*
X93998Y5893D01*
X93992Y5786D01*
X93983Y5679D01*
X93969Y5573D01*
X93952Y5467D01*
X93931Y5362D01*
X93907Y5258D01*
X93878Y5155D01*
X93846Y5053D01*
X93811Y4952D01*
X93772Y4852D01*
X93729Y4754D01*
X93683Y4657D01*
X93633Y4562D01*
X93580Y4469D01*
X93524Y4378D01*
X93464Y4289D01*
X93402Y4202D01*
X93336Y4118D01*
X93267Y4035D01*
X93196Y3956D01*
X93121Y3879D01*
X93044Y3804D01*
X92965Y3733D01*
X92882Y3664D01*
X92798Y3598D01*
X92711Y3536D01*
X92622Y3476D01*
X92531Y3420D01*
X92438Y3367D01*
X92343Y3317D01*
X92246Y3271D01*
X92148Y3228D01*
X92048Y3189D01*
X91947Y3154D01*
X91845Y3122D01*
X91742Y3093D01*
X91638Y3069D01*
X91533Y3048D01*
X91427Y3031D01*
X91321Y3017D01*
X91214Y3008D01*
X91107Y3002D01*
X91000Y3000D01*
X97000Y6001D02*
X97107Y5999D01*
X97214Y5993D01*
X97321Y5984D01*
X97427Y5970D01*
X97533Y5953D01*
X97638Y5932D01*
X97742Y5908D01*
X97845Y5879D01*
X97947Y5847D01*
X98048Y5812D01*
X98148Y5772D01*
X98246Y5730D01*
X98343Y5683D01*
X98438Y5634D01*
X98531Y5581D01*
X98622Y5524D01*
X98711Y5465D01*
X98798Y5402D01*
X98882Y5336D01*
X98965Y5268D01*
X99044Y5196D01*
X99121Y5122D01*
X99196Y5045D01*
X99267Y4965D01*
X99336Y4883D01*
X99402Y4798D01*
X99464Y4711D01*
X99524Y4622D01*
X99580Y4531D01*
X99633Y4438D01*
X99683Y4343D01*
X99729Y4246D01*
X99772Y4148D01*
X99811Y4049D01*
X99846Y3948D01*
X99878Y3845D01*
X99907Y3742D01*
X99931Y3638D01*
X99952Y3533D01*
X99969Y3427D01*
X99983Y3321D01*
X99992Y3214D01*
X99998Y3107D01*
X100000Y3000D01*
X199000Y23000D02*
X209000Y83000D01*
X199000Y23000D02*
X189000Y23000D01*
X179000Y83000D01*
X109000Y83000D02*
X119000Y23000D01*
X129000Y23000D01*
X139000Y83000D01*
X224000Y118000D02*
X239000Y113000D01*
X239000Y98000D01*
X224000Y93000D01*
X94000Y118000D02*
X79000Y113000D01*
X79000Y98000D01*
X94000Y93000D01*
X91000Y3000D02*
X89000Y3000D01*
D13*
X206286Y19129D02*
X209419Y9731D01*
X203154Y9731D02*
X206286Y19129D01*
X203937Y12081D02*
X208636Y12081D01*
X199361Y9731D02*
X199361Y19129D01*
X196228Y13908D01*
X193095Y19129D01*
X193095Y9731D01*
X188344Y9731D02*
X188344Y19129D01*
X185734Y19129D01*
X185633Y19127D01*
X185532Y19121D01*
X185431Y19111D01*
X185331Y19098D01*
X185231Y19080D01*
X185132Y19059D01*
X185034Y19033D01*
X184937Y19004D01*
X184841Y18972D01*
X184747Y18935D01*
X184654Y18895D01*
X184562Y18851D01*
X184473Y18804D01*
X184385Y18753D01*
X184299Y18699D01*
X184216Y18642D01*
X184134Y18582D01*
X184056Y18518D01*
X183979Y18452D01*
X183906Y18382D01*
X183835Y18310D01*
X183767Y18235D01*
X183702Y18157D01*
X183640Y18077D01*
X183581Y17995D01*
X183525Y17910D01*
X183473Y17824D01*
X183424Y17735D01*
X183378Y17644D01*
X183337Y17552D01*
X183298Y17458D01*
X183264Y17363D01*
X183233Y17267D01*
X183206Y17169D01*
X183182Y17071D01*
X183163Y16971D01*
X183147Y16871D01*
X183135Y16771D01*
X183127Y16670D01*
X183123Y16569D01*
X183123Y16467D01*
X183127Y16366D01*
X183135Y16265D01*
X183147Y16165D01*
X183163Y16065D01*
X183182Y15965D01*
X183206Y15867D01*
X183233Y15769D01*
X183264Y15673D01*
X183298Y15578D01*
X183337Y15484D01*
X183378Y15392D01*
X183424Y15301D01*
X183473Y15213D01*
X183525Y15126D01*
X183581Y15041D01*
X183640Y14959D01*
X183702Y14879D01*
X183767Y14801D01*
X183835Y14726D01*
X183906Y14654D01*
X183979Y14584D01*
X184056Y14518D01*
X184134Y14454D01*
X184216Y14394D01*
X184299Y14337D01*
X184385Y14283D01*
X184473Y14232D01*
X184562Y14185D01*
X184654Y14141D01*
X184747Y14101D01*
X184841Y14064D01*
X184937Y14032D01*
X185034Y14003D01*
X185132Y13977D01*
X185231Y13956D01*
X185331Y13938D01*
X185431Y13925D01*
X185532Y13915D01*
X185633Y13909D01*
X185734Y13907D01*
X185734Y13908D02*
X188344Y13908D01*
X174759Y18085D02*
X174759Y19129D01*
X169538Y19129D01*
X172149Y9731D01*
X165616Y12342D02*
X165614Y12443D01*
X165608Y12544D01*
X165598Y12645D01*
X165585Y12745D01*
X165567Y12845D01*
X165546Y12944D01*
X165520Y13042D01*
X165491Y13139D01*
X165459Y13235D01*
X165422Y13329D01*
X165382Y13422D01*
X165338Y13514D01*
X165291Y13603D01*
X165240Y13691D01*
X165186Y13777D01*
X165129Y13860D01*
X165069Y13942D01*
X165005Y14020D01*
X164939Y14097D01*
X164869Y14170D01*
X164797Y14241D01*
X164722Y14309D01*
X164644Y14374D01*
X164564Y14436D01*
X164482Y14495D01*
X164397Y14551D01*
X164311Y14603D01*
X164222Y14652D01*
X164131Y14698D01*
X164039Y14739D01*
X163945Y14778D01*
X163850Y14812D01*
X163754Y14843D01*
X163656Y14870D01*
X163558Y14894D01*
X163458Y14913D01*
X163358Y14929D01*
X163258Y14941D01*
X163157Y14949D01*
X163056Y14953D01*
X162954Y14953D01*
X162853Y14949D01*
X162752Y14941D01*
X162652Y14929D01*
X162552Y14913D01*
X162452Y14894D01*
X162354Y14870D01*
X162256Y14843D01*
X162160Y14812D01*
X162065Y14778D01*
X161971Y14739D01*
X161879Y14698D01*
X161788Y14652D01*
X161700Y14603D01*
X161613Y14551D01*
X161528Y14495D01*
X161446Y14436D01*
X161366Y14374D01*
X161288Y14309D01*
X161213Y14241D01*
X161141Y14170D01*
X161071Y14097D01*
X161005Y14020D01*
X160941Y13942D01*
X160881Y13860D01*
X160824Y13777D01*
X160770Y13691D01*
X160719Y13603D01*
X160672Y13514D01*
X160628Y13422D01*
X160588Y13329D01*
X160551Y13235D01*
X160519Y13139D01*
X160490Y13042D01*
X160464Y12944D01*
X160443Y12845D01*
X160425Y12745D01*
X160412Y12645D01*
X160402Y12544D01*
X160396Y12443D01*
X160394Y12342D01*
X160396Y12241D01*
X160402Y12140D01*
X160412Y12039D01*
X160425Y11939D01*
X160443Y11839D01*
X160464Y11740D01*
X160490Y11642D01*
X160519Y11545D01*
X160551Y11449D01*
X160588Y11355D01*
X160628Y11262D01*
X160672Y11170D01*
X160719Y11081D01*
X160770Y10993D01*
X160824Y10907D01*
X160881Y10824D01*
X160941Y10742D01*
X161005Y10664D01*
X161071Y10587D01*
X161141Y10514D01*
X161213Y10443D01*
X161288Y10375D01*
X161366Y10310D01*
X161446Y10248D01*
X161528Y10189D01*
X161613Y10133D01*
X161700Y10081D01*
X161788Y10032D01*
X161879Y9986D01*
X161971Y9945D01*
X162065Y9906D01*
X162160Y9872D01*
X162256Y9841D01*
X162354Y9814D01*
X162452Y9790D01*
X162552Y9771D01*
X162652Y9755D01*
X162752Y9743D01*
X162853Y9735D01*
X162954Y9731D01*
X163056Y9731D01*
X163157Y9735D01*
X163258Y9743D01*
X163358Y9755D01*
X163458Y9771D01*
X163558Y9790D01*
X163656Y9814D01*
X163754Y9841D01*
X163850Y9872D01*
X163945Y9906D01*
X164039Y9945D01*
X164131Y9986D01*
X164222Y10032D01*
X164310Y10081D01*
X164397Y10133D01*
X164482Y10189D01*
X164564Y10248D01*
X164644Y10310D01*
X164722Y10375D01*
X164797Y10443D01*
X164869Y10514D01*
X164939Y10587D01*
X165005Y10664D01*
X165069Y10742D01*
X165129Y10824D01*
X165186Y10907D01*
X165240Y10993D01*
X165291Y11081D01*
X165338Y11170D01*
X165382Y11262D01*
X165422Y11355D01*
X165459Y11449D01*
X165491Y11545D01*
X165520Y11642D01*
X165546Y11740D01*
X165567Y11839D01*
X165585Y11939D01*
X165598Y12039D01*
X165608Y12140D01*
X165614Y12241D01*
X165616Y12342D01*
X165093Y17041D02*
X165091Y17131D01*
X165085Y17220D01*
X165076Y17310D01*
X165062Y17399D01*
X165045Y17487D01*
X165024Y17574D01*
X164999Y17661D01*
X164970Y17746D01*
X164938Y17830D01*
X164903Y17912D01*
X164863Y17993D01*
X164821Y18072D01*
X164775Y18149D01*
X164725Y18224D01*
X164673Y18297D01*
X164617Y18368D01*
X164559Y18436D01*
X164497Y18501D01*
X164433Y18564D01*
X164366Y18624D01*
X164297Y18681D01*
X164225Y18735D01*
X164151Y18786D01*
X164075Y18834D01*
X163997Y18878D01*
X163917Y18919D01*
X163835Y18957D01*
X163752Y18991D01*
X163667Y19021D01*
X163581Y19048D01*
X163495Y19071D01*
X163407Y19090D01*
X163318Y19105D01*
X163229Y19117D01*
X163140Y19125D01*
X163050Y19129D01*
X162960Y19129D01*
X162870Y19125D01*
X162781Y19117D01*
X162692Y19105D01*
X162603Y19090D01*
X162515Y19071D01*
X162429Y19048D01*
X162343Y19021D01*
X162258Y18991D01*
X162175Y18957D01*
X162093Y18919D01*
X162013Y18878D01*
X161935Y18834D01*
X161859Y18786D01*
X161785Y18735D01*
X161713Y18681D01*
X161644Y18624D01*
X161577Y18564D01*
X161513Y18501D01*
X161451Y18436D01*
X161393Y18368D01*
X161337Y18297D01*
X161285Y18224D01*
X161235Y18149D01*
X161189Y18072D01*
X161147Y17993D01*
X161107Y17912D01*
X161072Y17830D01*
X161040Y17746D01*
X161011Y17661D01*
X160986Y17574D01*
X160965Y17487D01*
X160948Y17399D01*
X160934Y17310D01*
X160925Y17220D01*
X160919Y17131D01*
X160917Y17041D01*
X160919Y16951D01*
X160925Y16862D01*
X160934Y16772D01*
X160948Y16683D01*
X160965Y16595D01*
X160986Y16508D01*
X161011Y16421D01*
X161040Y16336D01*
X161072Y16252D01*
X161107Y16170D01*
X161147Y16089D01*
X161189Y16010D01*
X161235Y15933D01*
X161285Y15858D01*
X161337Y15785D01*
X161393Y15714D01*
X161451Y15646D01*
X161513Y15581D01*
X161577Y15518D01*
X161644Y15458D01*
X161713Y15401D01*
X161785Y15347D01*
X161859Y15296D01*
X161935Y15248D01*
X162013Y15204D01*
X162093Y15163D01*
X162175Y15125D01*
X162258Y15091D01*
X162343Y15061D01*
X162429Y15034D01*
X162515Y15011D01*
X162603Y14992D01*
X162692Y14977D01*
X162781Y14965D01*
X162870Y14957D01*
X162960Y14953D01*
X163050Y14953D01*
X163140Y14957D01*
X163229Y14965D01*
X163318Y14977D01*
X163407Y14992D01*
X163495Y15011D01*
X163581Y15034D01*
X163667Y15061D01*
X163752Y15091D01*
X163835Y15125D01*
X163917Y15163D01*
X163997Y15204D01*
X164075Y15248D01*
X164151Y15296D01*
X164225Y15347D01*
X164297Y15401D01*
X164366Y15458D01*
X164433Y15518D01*
X164497Y15581D01*
X164559Y15646D01*
X164617Y15714D01*
X164673Y15785D01*
X164725Y15858D01*
X164775Y15933D01*
X164821Y16010D01*
X164863Y16089D01*
X164903Y16170D01*
X164938Y16252D01*
X164970Y16336D01*
X164999Y16421D01*
X165024Y16508D01*
X165045Y16595D01*
X165062Y16683D01*
X165076Y16772D01*
X165085Y16862D01*
X165091Y16951D01*
X165093Y17041D01*
X156472Y18085D02*
X156472Y19129D01*
X151250Y19129D01*
X153861Y9731D01*
X147328Y14952D02*
X144195Y14952D01*
X144106Y14950D01*
X144018Y14944D01*
X143930Y14935D01*
X143842Y14922D01*
X143755Y14905D01*
X143669Y14885D01*
X143584Y14860D01*
X143499Y14833D01*
X143416Y14801D01*
X143335Y14767D01*
X143255Y14728D01*
X143177Y14687D01*
X143100Y14642D01*
X143026Y14594D01*
X142953Y14543D01*
X142883Y14489D01*
X142816Y14431D01*
X142750Y14371D01*
X142688Y14309D01*
X142628Y14243D01*
X142570Y14176D01*
X142516Y14106D01*
X142465Y14033D01*
X142417Y13959D01*
X142372Y13882D01*
X142331Y13804D01*
X142292Y13724D01*
X142258Y13643D01*
X142226Y13560D01*
X142199Y13475D01*
X142174Y13390D01*
X142154Y13304D01*
X142137Y13217D01*
X142124Y13129D01*
X142115Y13041D01*
X142109Y12953D01*
X142107Y12864D01*
X142106Y12864D02*
X142106Y12342D01*
X142108Y12241D01*
X142114Y12140D01*
X142124Y12039D01*
X142137Y11939D01*
X142155Y11839D01*
X142176Y11740D01*
X142202Y11642D01*
X142231Y11545D01*
X142263Y11449D01*
X142300Y11355D01*
X142340Y11262D01*
X142384Y11170D01*
X142431Y11081D01*
X142482Y10993D01*
X142536Y10907D01*
X142593Y10824D01*
X142653Y10742D01*
X142717Y10664D01*
X142783Y10587D01*
X142853Y10514D01*
X142925Y10443D01*
X143000Y10375D01*
X143078Y10310D01*
X143158Y10248D01*
X143240Y10189D01*
X143325Y10133D01*
X143412Y10081D01*
X143500Y10032D01*
X143591Y9986D01*
X143683Y9945D01*
X143777Y9906D01*
X143872Y9872D01*
X143968Y9841D01*
X144066Y9814D01*
X144164Y9790D01*
X144264Y9771D01*
X144364Y9755D01*
X144464Y9743D01*
X144565Y9735D01*
X144666Y9731D01*
X144768Y9731D01*
X144869Y9735D01*
X144970Y9743D01*
X145070Y9755D01*
X145170Y9771D01*
X145270Y9790D01*
X145368Y9814D01*
X145466Y9841D01*
X145562Y9872D01*
X145657Y9906D01*
X145751Y9945D01*
X145843Y9986D01*
X145934Y10032D01*
X146022Y10081D01*
X146109Y10133D01*
X146194Y10189D01*
X146276Y10248D01*
X146356Y10310D01*
X146434Y10375D01*
X146509Y10443D01*
X146581Y10514D01*
X146651Y10587D01*
X146717Y10664D01*
X146781Y10742D01*
X146841Y10824D01*
X146898Y10907D01*
X146952Y10993D01*
X147003Y11081D01*
X147050Y11170D01*
X147094Y11262D01*
X147134Y11355D01*
X147171Y11449D01*
X147203Y11545D01*
X147232Y11642D01*
X147258Y11740D01*
X147279Y11839D01*
X147297Y11939D01*
X147310Y12039D01*
X147320Y12140D01*
X147326Y12241D01*
X147328Y12342D01*
X147328Y14952D01*
X147326Y15078D01*
X147320Y15204D01*
X147311Y15330D01*
X147298Y15455D01*
X147280Y15580D01*
X147260Y15705D01*
X147235Y15829D01*
X147207Y15952D01*
X147175Y16074D01*
X147139Y16195D01*
X147100Y16315D01*
X147057Y16433D01*
X147010Y16550D01*
X146960Y16666D01*
X146906Y16781D01*
X146850Y16893D01*
X146789Y17004D01*
X146726Y17113D01*
X146659Y17220D01*
X146589Y17325D01*
X146515Y17428D01*
X146439Y17528D01*
X146360Y17626D01*
X146278Y17722D01*
X146192Y17815D01*
X146105Y17906D01*
X146014Y17993D01*
X145921Y18079D01*
X145825Y18161D01*
X145727Y18240D01*
X145627Y18316D01*
X145524Y18390D01*
X145419Y18460D01*
X145312Y18527D01*
X145203Y18590D01*
X145092Y18651D01*
X144980Y18707D01*
X144865Y18761D01*
X144749Y18811D01*
X144632Y18858D01*
X144514Y18901D01*
X144394Y18940D01*
X144273Y18976D01*
X144151Y19008D01*
X144028Y19036D01*
X143904Y19061D01*
X143779Y19081D01*
X143654Y19099D01*
X143529Y19112D01*
X143403Y19121D01*
X143277Y19127D01*
X143151Y19129D01*
X138184Y17041D02*
X135573Y19129D01*
X135573Y9731D01*
X132963Y9731D02*
X138184Y9731D01*
X129040Y14952D02*
X125907Y14952D01*
X125818Y14950D01*
X125730Y14944D01*
X125642Y14935D01*
X125554Y14922D01*
X125467Y14905D01*
X125381Y14885D01*
X125296Y14860D01*
X125211Y14833D01*
X125128Y14801D01*
X125047Y14767D01*
X124967Y14728D01*
X124889Y14687D01*
X124812Y14642D01*
X124738Y14594D01*
X124665Y14543D01*
X124595Y14489D01*
X124528Y14431D01*
X124462Y14371D01*
X124400Y14309D01*
X124340Y14243D01*
X124282Y14176D01*
X124228Y14106D01*
X124177Y14033D01*
X124129Y13959D01*
X124084Y13882D01*
X124043Y13804D01*
X124004Y13724D01*
X123970Y13643D01*
X123938Y13560D01*
X123911Y13475D01*
X123886Y13390D01*
X123866Y13304D01*
X123849Y13217D01*
X123836Y13129D01*
X123827Y13041D01*
X123821Y12953D01*
X123819Y12864D01*
X123819Y12342D01*
X123818Y12342D02*
X123820Y12241D01*
X123826Y12140D01*
X123836Y12039D01*
X123849Y11939D01*
X123867Y11839D01*
X123888Y11740D01*
X123914Y11642D01*
X123943Y11545D01*
X123975Y11449D01*
X124012Y11355D01*
X124052Y11262D01*
X124096Y11170D01*
X124143Y11081D01*
X124194Y10993D01*
X124248Y10907D01*
X124305Y10824D01*
X124365Y10742D01*
X124429Y10664D01*
X124495Y10587D01*
X124565Y10514D01*
X124637Y10443D01*
X124712Y10375D01*
X124790Y10310D01*
X124870Y10248D01*
X124952Y10189D01*
X125037Y10133D01*
X125124Y10081D01*
X125212Y10032D01*
X125303Y9986D01*
X125395Y9945D01*
X125489Y9906D01*
X125584Y9872D01*
X125680Y9841D01*
X125778Y9814D01*
X125876Y9790D01*
X125976Y9771D01*
X126076Y9755D01*
X126176Y9743D01*
X126277Y9735D01*
X126378Y9731D01*
X126480Y9731D01*
X126581Y9735D01*
X126682Y9743D01*
X126782Y9755D01*
X126882Y9771D01*
X126982Y9790D01*
X127080Y9814D01*
X127178Y9841D01*
X127274Y9872D01*
X127369Y9906D01*
X127463Y9945D01*
X127555Y9986D01*
X127646Y10032D01*
X127734Y10081D01*
X127821Y10133D01*
X127906Y10189D01*
X127988Y10248D01*
X128068Y10310D01*
X128146Y10375D01*
X128221Y10443D01*
X128293Y10514D01*
X128363Y10587D01*
X128429Y10664D01*
X128493Y10742D01*
X128553Y10824D01*
X128610Y10907D01*
X128664Y10993D01*
X128715Y11081D01*
X128762Y11170D01*
X128806Y11262D01*
X128846Y11355D01*
X128883Y11449D01*
X128915Y11545D01*
X128944Y11642D01*
X128970Y11740D01*
X128991Y11839D01*
X129009Y11939D01*
X129022Y12039D01*
X129032Y12140D01*
X129038Y12241D01*
X129040Y12342D01*
X129040Y14952D01*
X129038Y15078D01*
X129032Y15204D01*
X129023Y15330D01*
X129010Y15455D01*
X128992Y15580D01*
X128972Y15705D01*
X128947Y15829D01*
X128919Y15952D01*
X128887Y16074D01*
X128851Y16195D01*
X128812Y16315D01*
X128769Y16433D01*
X128722Y16550D01*
X128672Y16666D01*
X128618Y16781D01*
X128562Y16893D01*
X128501Y17004D01*
X128438Y17113D01*
X128371Y17220D01*
X128301Y17325D01*
X128227Y17428D01*
X128151Y17528D01*
X128072Y17626D01*
X127990Y17722D01*
X127904Y17815D01*
X127817Y17906D01*
X127726Y17993D01*
X127633Y18079D01*
X127537Y18161D01*
X127439Y18240D01*
X127339Y18316D01*
X127236Y18390D01*
X127131Y18460D01*
X127024Y18527D01*
X126915Y18590D01*
X126804Y18651D01*
X126692Y18707D01*
X126577Y18761D01*
X126461Y18811D01*
X126344Y18858D01*
X126226Y18901D01*
X126106Y18940D01*
X125985Y18976D01*
X125863Y19008D01*
X125740Y19036D01*
X125616Y19061D01*
X125491Y19081D01*
X125366Y19099D01*
X125241Y19112D01*
X125115Y19121D01*
X124989Y19127D01*
X124863Y19129D01*
X119808Y13386D02*
X113543Y13386D01*
X109532Y17041D02*
X106922Y19129D01*
X106922Y9731D01*
X109532Y9731D02*
X104311Y9731D01*
D11*
X223493Y148509D02*
X215704Y160193D01*
X223493Y160193D02*
X215704Y148509D01*
X211414Y148509D02*
X208168Y148509D01*
X208055Y148511D01*
X207942Y148517D01*
X207829Y148527D01*
X207716Y148541D01*
X207604Y148558D01*
X207493Y148580D01*
X207383Y148605D01*
X207273Y148635D01*
X207165Y148668D01*
X207058Y148705D01*
X206952Y148745D01*
X206848Y148790D01*
X206745Y148838D01*
X206644Y148889D01*
X206545Y148944D01*
X206448Y149002D01*
X206353Y149064D01*
X206260Y149129D01*
X206170Y149197D01*
X206082Y149268D01*
X205996Y149343D01*
X205913Y149420D01*
X205833Y149500D01*
X205756Y149583D01*
X205681Y149669D01*
X205610Y149757D01*
X205542Y149847D01*
X205477Y149940D01*
X205415Y150035D01*
X205357Y150132D01*
X205302Y150231D01*
X205251Y150332D01*
X205203Y150435D01*
X205158Y150539D01*
X205118Y150645D01*
X205081Y150752D01*
X205048Y150860D01*
X205018Y150970D01*
X204993Y151080D01*
X204971Y151191D01*
X204954Y151303D01*
X204940Y151416D01*
X204930Y151529D01*
X204924Y151642D01*
X204922Y151755D01*
X204924Y151868D01*
X204930Y151981D01*
X204940Y152094D01*
X204954Y152207D01*
X204971Y152319D01*
X204993Y152430D01*
X205018Y152540D01*
X205048Y152650D01*
X205081Y152758D01*
X205118Y152865D01*
X205158Y152971D01*
X205203Y153075D01*
X205251Y153178D01*
X205302Y153279D01*
X205357Y153378D01*
X205415Y153475D01*
X205477Y153570D01*
X205542Y153663D01*
X205610Y153753D01*
X205681Y153841D01*
X205756Y153927D01*
X205833Y154010D01*
X205913Y154090D01*
X205996Y154167D01*
X206082Y154242D01*
X206170Y154313D01*
X206260Y154381D01*
X206353Y154446D01*
X206448Y154508D01*
X206545Y154566D01*
X206644Y154621D01*
X206745Y154672D01*
X206848Y154720D01*
X206952Y154765D01*
X207058Y154805D01*
X207165Y154842D01*
X207273Y154875D01*
X207383Y154905D01*
X207493Y154930D01*
X207604Y154952D01*
X207716Y154969D01*
X207829Y154983D01*
X207942Y154993D01*
X208055Y154999D01*
X208168Y155001D01*
X207519Y160193D02*
X211414Y160193D01*
X207519Y160193D02*
X207418Y160191D01*
X207318Y160185D01*
X207218Y160175D01*
X207118Y160162D01*
X207019Y160144D01*
X206920Y160123D01*
X206823Y160098D01*
X206726Y160069D01*
X206631Y160036D01*
X206537Y160000D01*
X206445Y159960D01*
X206354Y159917D01*
X206265Y159870D01*
X206178Y159820D01*
X206092Y159766D01*
X206009Y159709D01*
X205929Y159649D01*
X205850Y159586D01*
X205774Y159519D01*
X205701Y159450D01*
X205631Y159378D01*
X205563Y159304D01*
X205498Y159227D01*
X205437Y159147D01*
X205378Y159065D01*
X205323Y158981D01*
X205271Y158895D01*
X205222Y158807D01*
X205177Y158717D01*
X205135Y158625D01*
X205097Y158532D01*
X205063Y158437D01*
X205032Y158342D01*
X205005Y158245D01*
X204982Y158147D01*
X204962Y158048D01*
X204947Y157948D01*
X204935Y157848D01*
X204927Y157748D01*
X204923Y157647D01*
X204923Y157547D01*
X204927Y157446D01*
X204935Y157346D01*
X204947Y157246D01*
X204962Y157146D01*
X204982Y157047D01*
X205005Y156949D01*
X205032Y156852D01*
X205063Y156757D01*
X205097Y156662D01*
X205135Y156569D01*
X205177Y156477D01*
X205222Y156387D01*
X205271Y156299D01*
X205323Y156213D01*
X205378Y156129D01*
X205437Y156047D01*
X205498Y155967D01*
X205563Y155890D01*
X205631Y155816D01*
X205701Y155744D01*
X205774Y155675D01*
X205850Y155608D01*
X205929Y155545D01*
X206009Y155485D01*
X206092Y155428D01*
X206178Y155374D01*
X206265Y155324D01*
X206354Y155277D01*
X206445Y155234D01*
X206537Y155194D01*
X206631Y155158D01*
X206726Y155125D01*
X206823Y155096D01*
X206920Y155071D01*
X207019Y155050D01*
X207118Y155032D01*
X207218Y155019D01*
X207318Y155009D01*
X207418Y155003D01*
X207519Y155001D01*
X207519Y155000D02*
X210116Y155000D01*
M02*
