M48
;GenerationSoftware,Autodesk,EAGLE,9.6.2*%
;CreationDate,2022-06-13T20:32:53Z*%
FMAT,2
ICI,OFF
METRIC,TZ,000.000
T6C0.350
T5C1.000
T4C1.016
T3C1.194
T2C2.300
T1C2.800
%
G90
M71
T1
X45800Y4000
X5300Y17900
T2
X22470Y10580
X9330Y10580
T3
X45770Y26100
X45770Y31100
T4
X2600Y2990
X2600Y5530
X2600Y8070
X2600Y10610
X42800Y35130
X42800Y37670
T5
X12400Y13290
X19400Y13290
X16900Y13290
X14900Y13290
T6
X16400Y25100
X12300Y22200
X11800Y23000
X13400Y22400
X42400Y16450
X7000Y26500
X10800Y23000
X14800Y22000
X5900Y24200
X45300Y17100
X16200Y20500
X36500Y16200
X24400Y34500
X5500Y32700
X25275Y31175
X10600Y18000
X7407Y30700
X27600Y14800
X26800Y18900
X6800Y28400
X6500Y27500
X10100Y22400
X7100Y23500
X16800Y22800
X6200Y26000
M30