G04 EAGLE Gerber RS-274X export*
G75*
%MOMM*%
%FSLAX34Y34*%
%LPD*%
%INTop Solder Mask*%
%IPPOS*%
%AMOC8*
5,1,8,0,0,1.08239X$1,22.5*%
G01*
%ADD10R,1.503200X1.703200*%
%ADD11R,1.703200X1.503200*%
%ADD12R,1.703200X1.403200*%
%ADD13C,1.727200*%
%ADD14R,3.003200X1.303200*%
%ADD15R,2.803200X1.303200*%
%ADD16C,1.993900*%
%ADD17R,2.803200X1.803200*%
%ADD18C,5.537200*%
%ADD19C,1.711200*%
%ADD20C,2.503200*%
%ADD21R,1.403200X1.403200*%
%ADD22C,0.959600*%

G36*
X437042Y132919D02*
X437042Y132919D01*
X437183Y132935D01*
X437195Y132939D01*
X437207Y132941D01*
X437339Y132995D01*
X437472Y133046D01*
X437481Y133053D01*
X437493Y133057D01*
X437607Y133144D01*
X437722Y133227D01*
X437730Y133236D01*
X437739Y133244D01*
X437828Y133356D01*
X437918Y133466D01*
X437923Y133477D01*
X437930Y133487D01*
X437987Y133617D01*
X438046Y133747D01*
X438048Y133758D01*
X438053Y133770D01*
X438099Y134076D01*
X438098Y134089D01*
X438099Y134100D01*
X438099Y149900D01*
X438081Y150042D01*
X438065Y150183D01*
X438061Y150195D01*
X438059Y150207D01*
X438005Y150339D01*
X437954Y150472D01*
X437947Y150481D01*
X437943Y150493D01*
X437856Y150607D01*
X437773Y150722D01*
X437764Y150730D01*
X437756Y150739D01*
X437644Y150828D01*
X437534Y150918D01*
X437523Y150923D01*
X437513Y150930D01*
X437383Y150987D01*
X437253Y151046D01*
X437242Y151048D01*
X437230Y151053D01*
X436924Y151099D01*
X436911Y151098D01*
X436900Y151099D01*
X421100Y151099D01*
X420958Y151081D01*
X420817Y151065D01*
X420806Y151061D01*
X420793Y151059D01*
X420661Y151005D01*
X420528Y150954D01*
X420519Y150947D01*
X420507Y150943D01*
X420393Y150856D01*
X420278Y150773D01*
X420270Y150764D01*
X420261Y150756D01*
X420172Y150644D01*
X420082Y150534D01*
X420077Y150523D01*
X420070Y150513D01*
X420013Y150383D01*
X419954Y150253D01*
X419952Y150242D01*
X419947Y150230D01*
X419901Y149924D01*
X419902Y149911D01*
X419901Y149900D01*
X419901Y134100D01*
X419919Y133958D01*
X419935Y133817D01*
X419939Y133806D01*
X419941Y133793D01*
X419995Y133661D01*
X420046Y133528D01*
X420053Y133519D01*
X420057Y133507D01*
X420144Y133393D01*
X420227Y133278D01*
X420236Y133270D01*
X420244Y133261D01*
X420356Y133172D01*
X420466Y133082D01*
X420477Y133077D01*
X420487Y133070D01*
X420617Y133013D01*
X420747Y132954D01*
X420758Y132952D01*
X420770Y132947D01*
X421076Y132901D01*
X421089Y132902D01*
X421100Y132901D01*
X436900Y132901D01*
X437042Y132919D01*
G37*
G36*
X307042Y132919D02*
X307042Y132919D01*
X307183Y132935D01*
X307195Y132939D01*
X307207Y132941D01*
X307339Y132995D01*
X307472Y133046D01*
X307481Y133053D01*
X307493Y133057D01*
X307607Y133144D01*
X307722Y133227D01*
X307730Y133236D01*
X307739Y133244D01*
X307828Y133356D01*
X307918Y133466D01*
X307923Y133477D01*
X307930Y133487D01*
X307987Y133617D01*
X308046Y133747D01*
X308048Y133758D01*
X308053Y133770D01*
X308099Y134076D01*
X308098Y134089D01*
X308099Y134100D01*
X308099Y149900D01*
X308081Y150042D01*
X308065Y150183D01*
X308061Y150195D01*
X308059Y150207D01*
X308005Y150339D01*
X307954Y150472D01*
X307947Y150481D01*
X307943Y150493D01*
X307856Y150607D01*
X307773Y150722D01*
X307764Y150730D01*
X307756Y150739D01*
X307644Y150828D01*
X307534Y150918D01*
X307523Y150923D01*
X307513Y150930D01*
X307383Y150987D01*
X307253Y151046D01*
X307242Y151048D01*
X307230Y151053D01*
X306924Y151099D01*
X306911Y151098D01*
X306900Y151099D01*
X291100Y151099D01*
X290958Y151081D01*
X290817Y151065D01*
X290806Y151061D01*
X290793Y151059D01*
X290661Y151005D01*
X290528Y150954D01*
X290519Y150947D01*
X290507Y150943D01*
X290393Y150856D01*
X290278Y150773D01*
X290270Y150764D01*
X290261Y150756D01*
X290172Y150644D01*
X290082Y150534D01*
X290077Y150523D01*
X290070Y150513D01*
X290013Y150383D01*
X289954Y150253D01*
X289952Y150242D01*
X289947Y150230D01*
X289901Y149924D01*
X289902Y149911D01*
X289901Y149900D01*
X289901Y134100D01*
X289919Y133958D01*
X289935Y133817D01*
X289939Y133806D01*
X289941Y133793D01*
X289995Y133661D01*
X290046Y133528D01*
X290053Y133519D01*
X290057Y133507D01*
X290144Y133393D01*
X290227Y133278D01*
X290236Y133270D01*
X290244Y133261D01*
X290356Y133172D01*
X290466Y133082D01*
X290477Y133077D01*
X290487Y133070D01*
X290617Y133013D01*
X290747Y132954D01*
X290758Y132952D01*
X290770Y132947D01*
X291076Y132901D01*
X291089Y132902D01*
X291100Y132901D01*
X306900Y132901D01*
X307042Y132919D01*
G37*
G36*
X292342Y152319D02*
X292342Y152319D01*
X292483Y152335D01*
X292495Y152339D01*
X292507Y152341D01*
X292639Y152395D01*
X292772Y152446D01*
X292781Y152453D01*
X292793Y152457D01*
X292907Y152544D01*
X293022Y152627D01*
X293030Y152636D01*
X293039Y152644D01*
X293128Y152756D01*
X293218Y152866D01*
X293223Y152877D01*
X293230Y152887D01*
X293287Y153017D01*
X293346Y153147D01*
X293348Y153158D01*
X293353Y153170D01*
X293399Y153476D01*
X293398Y153489D01*
X293399Y153500D01*
X293399Y158500D01*
X293381Y158642D01*
X293365Y158783D01*
X293361Y158795D01*
X293359Y158807D01*
X293305Y158939D01*
X293254Y159072D01*
X293247Y159081D01*
X293243Y159093D01*
X293156Y159207D01*
X293073Y159322D01*
X293064Y159330D01*
X293056Y159339D01*
X292944Y159428D01*
X292834Y159518D01*
X292823Y159523D01*
X292813Y159530D01*
X292683Y159587D01*
X292553Y159646D01*
X292542Y159648D01*
X292530Y159653D01*
X292224Y159699D01*
X292211Y159698D01*
X292200Y159699D01*
X290800Y159699D01*
X290658Y159681D01*
X290517Y159665D01*
X290506Y159661D01*
X290493Y159659D01*
X290361Y159605D01*
X290228Y159554D01*
X290219Y159547D01*
X290207Y159543D01*
X290093Y159456D01*
X289978Y159373D01*
X289970Y159364D01*
X289961Y159356D01*
X289872Y159244D01*
X289782Y159134D01*
X289777Y159123D01*
X289770Y159113D01*
X289713Y158983D01*
X289654Y158853D01*
X289652Y158842D01*
X289647Y158830D01*
X289601Y158524D01*
X289602Y158511D01*
X289601Y158500D01*
X289601Y153500D01*
X289619Y153358D01*
X289635Y153217D01*
X289639Y153206D01*
X289641Y153193D01*
X289695Y153061D01*
X289746Y152928D01*
X289753Y152919D01*
X289757Y152907D01*
X289844Y152793D01*
X289927Y152678D01*
X289936Y152670D01*
X289944Y152661D01*
X290056Y152572D01*
X290166Y152482D01*
X290177Y152477D01*
X290187Y152470D01*
X290317Y152413D01*
X290447Y152354D01*
X290458Y152352D01*
X290470Y152347D01*
X290776Y152301D01*
X290789Y152302D01*
X290800Y152301D01*
X292200Y152301D01*
X292342Y152319D01*
G37*
G36*
X297342Y152319D02*
X297342Y152319D01*
X297483Y152335D01*
X297495Y152339D01*
X297507Y152341D01*
X297639Y152395D01*
X297772Y152446D01*
X297781Y152453D01*
X297793Y152457D01*
X297907Y152544D01*
X298022Y152627D01*
X298030Y152636D01*
X298039Y152644D01*
X298128Y152756D01*
X298218Y152866D01*
X298223Y152877D01*
X298230Y152887D01*
X298287Y153017D01*
X298346Y153147D01*
X298348Y153158D01*
X298353Y153170D01*
X298399Y153476D01*
X298398Y153489D01*
X298399Y153500D01*
X298399Y158500D01*
X298381Y158642D01*
X298365Y158783D01*
X298361Y158795D01*
X298359Y158807D01*
X298305Y158939D01*
X298254Y159072D01*
X298247Y159081D01*
X298243Y159093D01*
X298156Y159207D01*
X298073Y159322D01*
X298064Y159330D01*
X298056Y159339D01*
X297944Y159428D01*
X297834Y159518D01*
X297823Y159523D01*
X297813Y159530D01*
X297683Y159587D01*
X297553Y159646D01*
X297542Y159648D01*
X297530Y159653D01*
X297224Y159699D01*
X297211Y159698D01*
X297200Y159699D01*
X295800Y159699D01*
X295658Y159681D01*
X295517Y159665D01*
X295506Y159661D01*
X295493Y159659D01*
X295361Y159605D01*
X295228Y159554D01*
X295219Y159547D01*
X295207Y159543D01*
X295093Y159456D01*
X294978Y159373D01*
X294970Y159364D01*
X294961Y159356D01*
X294872Y159244D01*
X294782Y159134D01*
X294777Y159123D01*
X294770Y159113D01*
X294713Y158983D01*
X294654Y158853D01*
X294652Y158842D01*
X294647Y158830D01*
X294601Y158524D01*
X294602Y158511D01*
X294601Y158500D01*
X294601Y153500D01*
X294619Y153358D01*
X294635Y153217D01*
X294639Y153206D01*
X294641Y153193D01*
X294695Y153061D01*
X294746Y152928D01*
X294753Y152919D01*
X294757Y152907D01*
X294844Y152793D01*
X294927Y152678D01*
X294936Y152670D01*
X294944Y152661D01*
X295056Y152572D01*
X295166Y152482D01*
X295177Y152477D01*
X295187Y152470D01*
X295317Y152413D01*
X295447Y152354D01*
X295458Y152352D01*
X295470Y152347D01*
X295776Y152301D01*
X295789Y152302D01*
X295800Y152301D01*
X297200Y152301D01*
X297342Y152319D01*
G37*
G36*
X437342Y152319D02*
X437342Y152319D01*
X437483Y152335D01*
X437495Y152339D01*
X437507Y152341D01*
X437639Y152395D01*
X437772Y152446D01*
X437781Y152453D01*
X437793Y152457D01*
X437907Y152544D01*
X438022Y152627D01*
X438030Y152636D01*
X438039Y152644D01*
X438128Y152756D01*
X438218Y152866D01*
X438223Y152877D01*
X438230Y152887D01*
X438287Y153017D01*
X438346Y153147D01*
X438348Y153158D01*
X438353Y153170D01*
X438399Y153476D01*
X438398Y153489D01*
X438399Y153500D01*
X438399Y158500D01*
X438381Y158642D01*
X438365Y158783D01*
X438361Y158795D01*
X438359Y158807D01*
X438305Y158939D01*
X438254Y159072D01*
X438247Y159081D01*
X438243Y159093D01*
X438156Y159207D01*
X438073Y159322D01*
X438064Y159330D01*
X438056Y159339D01*
X437944Y159428D01*
X437834Y159518D01*
X437823Y159523D01*
X437813Y159530D01*
X437683Y159587D01*
X437553Y159646D01*
X437542Y159648D01*
X437530Y159653D01*
X437224Y159699D01*
X437211Y159698D01*
X437200Y159699D01*
X435800Y159699D01*
X435658Y159681D01*
X435517Y159665D01*
X435506Y159661D01*
X435493Y159659D01*
X435361Y159605D01*
X435228Y159554D01*
X435219Y159547D01*
X435207Y159543D01*
X435093Y159456D01*
X434978Y159373D01*
X434970Y159364D01*
X434961Y159356D01*
X434872Y159244D01*
X434782Y159134D01*
X434777Y159123D01*
X434770Y159113D01*
X434713Y158983D01*
X434654Y158853D01*
X434652Y158842D01*
X434647Y158830D01*
X434601Y158524D01*
X434602Y158511D01*
X434601Y158500D01*
X434601Y153500D01*
X434619Y153358D01*
X434635Y153217D01*
X434639Y153206D01*
X434641Y153193D01*
X434695Y153061D01*
X434746Y152928D01*
X434753Y152919D01*
X434757Y152907D01*
X434844Y152793D01*
X434927Y152678D01*
X434936Y152670D01*
X434944Y152661D01*
X435056Y152572D01*
X435166Y152482D01*
X435177Y152477D01*
X435187Y152470D01*
X435317Y152413D01*
X435447Y152354D01*
X435458Y152352D01*
X435470Y152347D01*
X435776Y152301D01*
X435789Y152302D01*
X435800Y152301D01*
X437200Y152301D01*
X437342Y152319D01*
G37*
G36*
X302342Y152319D02*
X302342Y152319D01*
X302483Y152335D01*
X302495Y152339D01*
X302507Y152341D01*
X302639Y152395D01*
X302772Y152446D01*
X302781Y152453D01*
X302793Y152457D01*
X302907Y152544D01*
X303022Y152627D01*
X303030Y152636D01*
X303039Y152644D01*
X303128Y152756D01*
X303218Y152866D01*
X303223Y152877D01*
X303230Y152887D01*
X303287Y153017D01*
X303346Y153147D01*
X303348Y153158D01*
X303353Y153170D01*
X303399Y153476D01*
X303398Y153489D01*
X303399Y153500D01*
X303399Y158500D01*
X303381Y158642D01*
X303365Y158783D01*
X303361Y158795D01*
X303359Y158807D01*
X303305Y158939D01*
X303254Y159072D01*
X303247Y159081D01*
X303243Y159093D01*
X303156Y159207D01*
X303073Y159322D01*
X303064Y159330D01*
X303056Y159339D01*
X302944Y159428D01*
X302834Y159518D01*
X302823Y159523D01*
X302813Y159530D01*
X302683Y159587D01*
X302553Y159646D01*
X302542Y159648D01*
X302530Y159653D01*
X302224Y159699D01*
X302211Y159698D01*
X302200Y159699D01*
X300800Y159699D01*
X300658Y159681D01*
X300517Y159665D01*
X300506Y159661D01*
X300493Y159659D01*
X300361Y159605D01*
X300228Y159554D01*
X300219Y159547D01*
X300207Y159543D01*
X300093Y159456D01*
X299978Y159373D01*
X299970Y159364D01*
X299961Y159356D01*
X299872Y159244D01*
X299782Y159134D01*
X299777Y159123D01*
X299770Y159113D01*
X299713Y158983D01*
X299654Y158853D01*
X299652Y158842D01*
X299647Y158830D01*
X299601Y158524D01*
X299602Y158511D01*
X299601Y158500D01*
X299601Y153500D01*
X299619Y153358D01*
X299635Y153217D01*
X299639Y153206D01*
X299641Y153193D01*
X299695Y153061D01*
X299746Y152928D01*
X299753Y152919D01*
X299757Y152907D01*
X299844Y152793D01*
X299927Y152678D01*
X299936Y152670D01*
X299944Y152661D01*
X300056Y152572D01*
X300166Y152482D01*
X300177Y152477D01*
X300187Y152470D01*
X300317Y152413D01*
X300447Y152354D01*
X300458Y152352D01*
X300470Y152347D01*
X300776Y152301D01*
X300789Y152302D01*
X300800Y152301D01*
X302200Y152301D01*
X302342Y152319D01*
G37*
G36*
X307342Y152319D02*
X307342Y152319D01*
X307483Y152335D01*
X307495Y152339D01*
X307507Y152341D01*
X307639Y152395D01*
X307772Y152446D01*
X307781Y152453D01*
X307793Y152457D01*
X307907Y152544D01*
X308022Y152627D01*
X308030Y152636D01*
X308039Y152644D01*
X308128Y152756D01*
X308218Y152866D01*
X308223Y152877D01*
X308230Y152887D01*
X308287Y153017D01*
X308346Y153147D01*
X308348Y153158D01*
X308353Y153170D01*
X308399Y153476D01*
X308398Y153489D01*
X308399Y153500D01*
X308399Y158500D01*
X308381Y158642D01*
X308365Y158783D01*
X308361Y158795D01*
X308359Y158807D01*
X308305Y158939D01*
X308254Y159072D01*
X308247Y159081D01*
X308243Y159093D01*
X308156Y159207D01*
X308073Y159322D01*
X308064Y159330D01*
X308056Y159339D01*
X307944Y159428D01*
X307834Y159518D01*
X307823Y159523D01*
X307813Y159530D01*
X307683Y159587D01*
X307553Y159646D01*
X307542Y159648D01*
X307530Y159653D01*
X307224Y159699D01*
X307211Y159698D01*
X307200Y159699D01*
X305800Y159699D01*
X305658Y159681D01*
X305517Y159665D01*
X305506Y159661D01*
X305493Y159659D01*
X305361Y159605D01*
X305228Y159554D01*
X305219Y159547D01*
X305207Y159543D01*
X305093Y159456D01*
X304978Y159373D01*
X304970Y159364D01*
X304961Y159356D01*
X304872Y159244D01*
X304782Y159134D01*
X304777Y159123D01*
X304770Y159113D01*
X304713Y158983D01*
X304654Y158853D01*
X304652Y158842D01*
X304647Y158830D01*
X304601Y158524D01*
X304602Y158511D01*
X304601Y158500D01*
X304601Y153500D01*
X304619Y153358D01*
X304635Y153217D01*
X304639Y153206D01*
X304641Y153193D01*
X304695Y153061D01*
X304746Y152928D01*
X304753Y152919D01*
X304757Y152907D01*
X304844Y152793D01*
X304927Y152678D01*
X304936Y152670D01*
X304944Y152661D01*
X305056Y152572D01*
X305166Y152482D01*
X305177Y152477D01*
X305187Y152470D01*
X305317Y152413D01*
X305447Y152354D01*
X305458Y152352D01*
X305470Y152347D01*
X305776Y152301D01*
X305789Y152302D01*
X305800Y152301D01*
X307200Y152301D01*
X307342Y152319D01*
G37*
G36*
X422342Y152319D02*
X422342Y152319D01*
X422483Y152335D01*
X422495Y152339D01*
X422507Y152341D01*
X422639Y152395D01*
X422772Y152446D01*
X422781Y152453D01*
X422793Y152457D01*
X422907Y152544D01*
X423022Y152627D01*
X423030Y152636D01*
X423039Y152644D01*
X423128Y152756D01*
X423218Y152866D01*
X423223Y152877D01*
X423230Y152887D01*
X423287Y153017D01*
X423346Y153147D01*
X423348Y153158D01*
X423353Y153170D01*
X423399Y153476D01*
X423398Y153489D01*
X423399Y153500D01*
X423399Y158500D01*
X423381Y158642D01*
X423365Y158783D01*
X423361Y158795D01*
X423359Y158807D01*
X423305Y158939D01*
X423254Y159072D01*
X423247Y159081D01*
X423243Y159093D01*
X423156Y159207D01*
X423073Y159322D01*
X423064Y159330D01*
X423056Y159339D01*
X422944Y159428D01*
X422834Y159518D01*
X422823Y159523D01*
X422813Y159530D01*
X422683Y159587D01*
X422553Y159646D01*
X422542Y159648D01*
X422530Y159653D01*
X422224Y159699D01*
X422211Y159698D01*
X422200Y159699D01*
X420800Y159699D01*
X420658Y159681D01*
X420517Y159665D01*
X420506Y159661D01*
X420493Y159659D01*
X420361Y159605D01*
X420228Y159554D01*
X420219Y159547D01*
X420207Y159543D01*
X420093Y159456D01*
X419978Y159373D01*
X419970Y159364D01*
X419961Y159356D01*
X419872Y159244D01*
X419782Y159134D01*
X419777Y159123D01*
X419770Y159113D01*
X419713Y158983D01*
X419654Y158853D01*
X419652Y158842D01*
X419647Y158830D01*
X419601Y158524D01*
X419602Y158511D01*
X419601Y158500D01*
X419601Y153500D01*
X419619Y153358D01*
X419635Y153217D01*
X419639Y153206D01*
X419641Y153193D01*
X419695Y153061D01*
X419746Y152928D01*
X419753Y152919D01*
X419757Y152907D01*
X419844Y152793D01*
X419927Y152678D01*
X419936Y152670D01*
X419944Y152661D01*
X420056Y152572D01*
X420166Y152482D01*
X420177Y152477D01*
X420187Y152470D01*
X420317Y152413D01*
X420447Y152354D01*
X420458Y152352D01*
X420470Y152347D01*
X420776Y152301D01*
X420789Y152302D01*
X420800Y152301D01*
X422200Y152301D01*
X422342Y152319D01*
G37*
G36*
X432342Y152319D02*
X432342Y152319D01*
X432483Y152335D01*
X432495Y152339D01*
X432507Y152341D01*
X432639Y152395D01*
X432772Y152446D01*
X432781Y152453D01*
X432793Y152457D01*
X432907Y152544D01*
X433022Y152627D01*
X433030Y152636D01*
X433039Y152644D01*
X433128Y152756D01*
X433218Y152866D01*
X433223Y152877D01*
X433230Y152887D01*
X433287Y153017D01*
X433346Y153147D01*
X433348Y153158D01*
X433353Y153170D01*
X433399Y153476D01*
X433398Y153489D01*
X433399Y153500D01*
X433399Y158500D01*
X433381Y158642D01*
X433365Y158783D01*
X433361Y158795D01*
X433359Y158807D01*
X433305Y158939D01*
X433254Y159072D01*
X433247Y159081D01*
X433243Y159093D01*
X433156Y159207D01*
X433073Y159322D01*
X433064Y159330D01*
X433056Y159339D01*
X432944Y159428D01*
X432834Y159518D01*
X432823Y159523D01*
X432813Y159530D01*
X432683Y159587D01*
X432553Y159646D01*
X432542Y159648D01*
X432530Y159653D01*
X432224Y159699D01*
X432211Y159698D01*
X432200Y159699D01*
X430800Y159699D01*
X430658Y159681D01*
X430517Y159665D01*
X430506Y159661D01*
X430493Y159659D01*
X430361Y159605D01*
X430228Y159554D01*
X430219Y159547D01*
X430207Y159543D01*
X430093Y159456D01*
X429978Y159373D01*
X429970Y159364D01*
X429961Y159356D01*
X429872Y159244D01*
X429782Y159134D01*
X429777Y159123D01*
X429770Y159113D01*
X429713Y158983D01*
X429654Y158853D01*
X429652Y158842D01*
X429647Y158830D01*
X429601Y158524D01*
X429602Y158511D01*
X429601Y158500D01*
X429601Y153500D01*
X429619Y153358D01*
X429635Y153217D01*
X429639Y153206D01*
X429641Y153193D01*
X429695Y153061D01*
X429746Y152928D01*
X429753Y152919D01*
X429757Y152907D01*
X429844Y152793D01*
X429927Y152678D01*
X429936Y152670D01*
X429944Y152661D01*
X430056Y152572D01*
X430166Y152482D01*
X430177Y152477D01*
X430187Y152470D01*
X430317Y152413D01*
X430447Y152354D01*
X430458Y152352D01*
X430470Y152347D01*
X430776Y152301D01*
X430789Y152302D01*
X430800Y152301D01*
X432200Y152301D01*
X432342Y152319D01*
G37*
G36*
X427342Y152319D02*
X427342Y152319D01*
X427483Y152335D01*
X427495Y152339D01*
X427507Y152341D01*
X427639Y152395D01*
X427772Y152446D01*
X427781Y152453D01*
X427793Y152457D01*
X427907Y152544D01*
X428022Y152627D01*
X428030Y152636D01*
X428039Y152644D01*
X428128Y152756D01*
X428218Y152866D01*
X428223Y152877D01*
X428230Y152887D01*
X428287Y153017D01*
X428346Y153147D01*
X428348Y153158D01*
X428353Y153170D01*
X428399Y153476D01*
X428398Y153489D01*
X428399Y153500D01*
X428399Y158500D01*
X428381Y158642D01*
X428365Y158783D01*
X428361Y158795D01*
X428359Y158807D01*
X428305Y158939D01*
X428254Y159072D01*
X428247Y159081D01*
X428243Y159093D01*
X428156Y159207D01*
X428073Y159322D01*
X428064Y159330D01*
X428056Y159339D01*
X427944Y159428D01*
X427834Y159518D01*
X427823Y159523D01*
X427813Y159530D01*
X427683Y159587D01*
X427553Y159646D01*
X427542Y159648D01*
X427530Y159653D01*
X427224Y159699D01*
X427211Y159698D01*
X427200Y159699D01*
X425800Y159699D01*
X425658Y159681D01*
X425517Y159665D01*
X425506Y159661D01*
X425493Y159659D01*
X425361Y159605D01*
X425228Y159554D01*
X425219Y159547D01*
X425207Y159543D01*
X425093Y159456D01*
X424978Y159373D01*
X424970Y159364D01*
X424961Y159356D01*
X424872Y159244D01*
X424782Y159134D01*
X424777Y159123D01*
X424770Y159113D01*
X424713Y158983D01*
X424654Y158853D01*
X424652Y158842D01*
X424647Y158830D01*
X424601Y158524D01*
X424602Y158511D01*
X424601Y158500D01*
X424601Y153500D01*
X424619Y153358D01*
X424635Y153217D01*
X424639Y153206D01*
X424641Y153193D01*
X424695Y153061D01*
X424746Y152928D01*
X424753Y152919D01*
X424757Y152907D01*
X424844Y152793D01*
X424927Y152678D01*
X424936Y152670D01*
X424944Y152661D01*
X425056Y152572D01*
X425166Y152482D01*
X425177Y152477D01*
X425187Y152470D01*
X425317Y152413D01*
X425447Y152354D01*
X425458Y152352D01*
X425470Y152347D01*
X425776Y152301D01*
X425789Y152302D01*
X425800Y152301D01*
X427200Y152301D01*
X427342Y152319D01*
G37*
G36*
X445642Y147619D02*
X445642Y147619D01*
X445783Y147635D01*
X445795Y147639D01*
X445807Y147641D01*
X445939Y147695D01*
X446072Y147746D01*
X446081Y147753D01*
X446093Y147757D01*
X446207Y147844D01*
X446322Y147927D01*
X446330Y147936D01*
X446339Y147944D01*
X446428Y148056D01*
X446518Y148166D01*
X446523Y148177D01*
X446530Y148187D01*
X446587Y148317D01*
X446646Y148447D01*
X446648Y148458D01*
X446653Y148470D01*
X446699Y148776D01*
X446698Y148789D01*
X446699Y148800D01*
X446699Y150200D01*
X446681Y150342D01*
X446665Y150483D01*
X446661Y150495D01*
X446659Y150507D01*
X446605Y150639D01*
X446554Y150772D01*
X446547Y150781D01*
X446543Y150793D01*
X446456Y150907D01*
X446373Y151022D01*
X446364Y151030D01*
X446356Y151039D01*
X446244Y151128D01*
X446134Y151218D01*
X446123Y151223D01*
X446113Y151230D01*
X445983Y151287D01*
X445853Y151346D01*
X445842Y151348D01*
X445830Y151353D01*
X445524Y151399D01*
X445511Y151398D01*
X445500Y151399D01*
X440500Y151399D01*
X440358Y151381D01*
X440217Y151365D01*
X440206Y151361D01*
X440193Y151359D01*
X440061Y151305D01*
X439928Y151254D01*
X439919Y151247D01*
X439907Y151243D01*
X439793Y151156D01*
X439678Y151073D01*
X439670Y151064D01*
X439661Y151056D01*
X439572Y150944D01*
X439482Y150834D01*
X439477Y150823D01*
X439470Y150813D01*
X439413Y150683D01*
X439354Y150553D01*
X439352Y150542D01*
X439347Y150530D01*
X439301Y150224D01*
X439302Y150211D01*
X439301Y150200D01*
X439301Y148800D01*
X439319Y148658D01*
X439335Y148517D01*
X439339Y148506D01*
X439341Y148493D01*
X439395Y148361D01*
X439446Y148228D01*
X439453Y148219D01*
X439457Y148207D01*
X439544Y148093D01*
X439627Y147978D01*
X439636Y147970D01*
X439644Y147961D01*
X439756Y147872D01*
X439866Y147782D01*
X439877Y147777D01*
X439887Y147770D01*
X440017Y147713D01*
X440147Y147654D01*
X440158Y147652D01*
X440170Y147647D01*
X440476Y147601D01*
X440489Y147602D01*
X440500Y147601D01*
X445500Y147601D01*
X445642Y147619D01*
G37*
G36*
X287642Y147619D02*
X287642Y147619D01*
X287783Y147635D01*
X287795Y147639D01*
X287807Y147641D01*
X287939Y147695D01*
X288072Y147746D01*
X288081Y147753D01*
X288093Y147757D01*
X288207Y147844D01*
X288322Y147927D01*
X288330Y147936D01*
X288339Y147944D01*
X288428Y148056D01*
X288518Y148166D01*
X288523Y148177D01*
X288530Y148187D01*
X288587Y148317D01*
X288646Y148447D01*
X288648Y148458D01*
X288653Y148470D01*
X288699Y148776D01*
X288698Y148789D01*
X288699Y148800D01*
X288699Y150200D01*
X288681Y150342D01*
X288665Y150483D01*
X288661Y150495D01*
X288659Y150507D01*
X288605Y150639D01*
X288554Y150772D01*
X288547Y150781D01*
X288543Y150793D01*
X288456Y150907D01*
X288373Y151022D01*
X288364Y151030D01*
X288356Y151039D01*
X288244Y151128D01*
X288134Y151218D01*
X288123Y151223D01*
X288113Y151230D01*
X287983Y151287D01*
X287853Y151346D01*
X287842Y151348D01*
X287830Y151353D01*
X287524Y151399D01*
X287511Y151398D01*
X287500Y151399D01*
X282500Y151399D01*
X282358Y151381D01*
X282217Y151365D01*
X282206Y151361D01*
X282193Y151359D01*
X282061Y151305D01*
X281928Y151254D01*
X281919Y151247D01*
X281907Y151243D01*
X281793Y151156D01*
X281678Y151073D01*
X281670Y151064D01*
X281661Y151056D01*
X281572Y150944D01*
X281482Y150834D01*
X281477Y150823D01*
X281470Y150813D01*
X281413Y150683D01*
X281354Y150553D01*
X281352Y150542D01*
X281347Y150530D01*
X281301Y150224D01*
X281302Y150211D01*
X281301Y150200D01*
X281301Y148800D01*
X281319Y148658D01*
X281335Y148517D01*
X281339Y148506D01*
X281341Y148493D01*
X281395Y148361D01*
X281446Y148228D01*
X281453Y148219D01*
X281457Y148207D01*
X281544Y148093D01*
X281627Y147978D01*
X281636Y147970D01*
X281644Y147961D01*
X281756Y147872D01*
X281866Y147782D01*
X281877Y147777D01*
X281887Y147770D01*
X282017Y147713D01*
X282147Y147654D01*
X282158Y147652D01*
X282170Y147647D01*
X282476Y147601D01*
X282489Y147602D01*
X282500Y147601D01*
X287500Y147601D01*
X287642Y147619D01*
G37*
G36*
X417642Y147619D02*
X417642Y147619D01*
X417783Y147635D01*
X417795Y147639D01*
X417807Y147641D01*
X417939Y147695D01*
X418072Y147746D01*
X418081Y147753D01*
X418093Y147757D01*
X418207Y147844D01*
X418322Y147927D01*
X418330Y147936D01*
X418339Y147944D01*
X418428Y148056D01*
X418518Y148166D01*
X418523Y148177D01*
X418530Y148187D01*
X418587Y148317D01*
X418646Y148447D01*
X418648Y148458D01*
X418653Y148470D01*
X418699Y148776D01*
X418698Y148789D01*
X418699Y148800D01*
X418699Y150200D01*
X418681Y150342D01*
X418665Y150483D01*
X418661Y150495D01*
X418659Y150507D01*
X418605Y150639D01*
X418554Y150772D01*
X418547Y150781D01*
X418543Y150793D01*
X418456Y150907D01*
X418373Y151022D01*
X418364Y151030D01*
X418356Y151039D01*
X418244Y151128D01*
X418134Y151218D01*
X418123Y151223D01*
X418113Y151230D01*
X417983Y151287D01*
X417853Y151346D01*
X417842Y151348D01*
X417830Y151353D01*
X417524Y151399D01*
X417511Y151398D01*
X417500Y151399D01*
X412500Y151399D01*
X412358Y151381D01*
X412217Y151365D01*
X412206Y151361D01*
X412193Y151359D01*
X412061Y151305D01*
X411928Y151254D01*
X411919Y151247D01*
X411907Y151243D01*
X411793Y151156D01*
X411678Y151073D01*
X411670Y151064D01*
X411661Y151056D01*
X411572Y150944D01*
X411482Y150834D01*
X411477Y150823D01*
X411470Y150813D01*
X411413Y150683D01*
X411354Y150553D01*
X411352Y150542D01*
X411347Y150530D01*
X411301Y150224D01*
X411302Y150211D01*
X411301Y150200D01*
X411301Y148800D01*
X411319Y148658D01*
X411335Y148517D01*
X411339Y148506D01*
X411341Y148493D01*
X411395Y148361D01*
X411446Y148228D01*
X411453Y148219D01*
X411457Y148207D01*
X411544Y148093D01*
X411627Y147978D01*
X411636Y147970D01*
X411644Y147961D01*
X411756Y147872D01*
X411866Y147782D01*
X411877Y147777D01*
X411887Y147770D01*
X412017Y147713D01*
X412147Y147654D01*
X412158Y147652D01*
X412170Y147647D01*
X412476Y147601D01*
X412489Y147602D01*
X412500Y147601D01*
X417500Y147601D01*
X417642Y147619D01*
G37*
G36*
X315642Y147619D02*
X315642Y147619D01*
X315783Y147635D01*
X315795Y147639D01*
X315807Y147641D01*
X315939Y147695D01*
X316072Y147746D01*
X316081Y147753D01*
X316093Y147757D01*
X316207Y147844D01*
X316322Y147927D01*
X316330Y147936D01*
X316339Y147944D01*
X316428Y148056D01*
X316518Y148166D01*
X316523Y148177D01*
X316530Y148187D01*
X316587Y148317D01*
X316646Y148447D01*
X316648Y148458D01*
X316653Y148470D01*
X316699Y148776D01*
X316698Y148789D01*
X316699Y148800D01*
X316699Y150200D01*
X316681Y150342D01*
X316665Y150483D01*
X316661Y150495D01*
X316659Y150507D01*
X316605Y150639D01*
X316554Y150772D01*
X316547Y150781D01*
X316543Y150793D01*
X316456Y150907D01*
X316373Y151022D01*
X316364Y151030D01*
X316356Y151039D01*
X316244Y151128D01*
X316134Y151218D01*
X316123Y151223D01*
X316113Y151230D01*
X315983Y151287D01*
X315853Y151346D01*
X315842Y151348D01*
X315830Y151353D01*
X315524Y151399D01*
X315511Y151398D01*
X315500Y151399D01*
X310500Y151399D01*
X310358Y151381D01*
X310217Y151365D01*
X310206Y151361D01*
X310193Y151359D01*
X310061Y151305D01*
X309928Y151254D01*
X309919Y151247D01*
X309907Y151243D01*
X309793Y151156D01*
X309678Y151073D01*
X309670Y151064D01*
X309661Y151056D01*
X309572Y150944D01*
X309482Y150834D01*
X309477Y150823D01*
X309470Y150813D01*
X309413Y150683D01*
X309354Y150553D01*
X309352Y150542D01*
X309347Y150530D01*
X309301Y150224D01*
X309302Y150211D01*
X309301Y150200D01*
X309301Y148800D01*
X309319Y148658D01*
X309335Y148517D01*
X309339Y148506D01*
X309341Y148493D01*
X309395Y148361D01*
X309446Y148228D01*
X309453Y148219D01*
X309457Y148207D01*
X309544Y148093D01*
X309627Y147978D01*
X309636Y147970D01*
X309644Y147961D01*
X309756Y147872D01*
X309866Y147782D01*
X309877Y147777D01*
X309887Y147770D01*
X310017Y147713D01*
X310147Y147654D01*
X310158Y147652D01*
X310170Y147647D01*
X310476Y147601D01*
X310489Y147602D01*
X310500Y147601D01*
X315500Y147601D01*
X315642Y147619D01*
G37*
G36*
X315642Y142619D02*
X315642Y142619D01*
X315783Y142635D01*
X315795Y142639D01*
X315807Y142641D01*
X315939Y142695D01*
X316072Y142746D01*
X316081Y142753D01*
X316093Y142757D01*
X316207Y142844D01*
X316322Y142927D01*
X316330Y142936D01*
X316339Y142944D01*
X316428Y143056D01*
X316518Y143166D01*
X316523Y143177D01*
X316530Y143187D01*
X316587Y143317D01*
X316646Y143447D01*
X316648Y143458D01*
X316653Y143470D01*
X316699Y143776D01*
X316698Y143789D01*
X316699Y143800D01*
X316699Y145200D01*
X316681Y145342D01*
X316665Y145483D01*
X316661Y145495D01*
X316659Y145507D01*
X316605Y145639D01*
X316554Y145772D01*
X316547Y145781D01*
X316543Y145793D01*
X316456Y145907D01*
X316373Y146022D01*
X316364Y146030D01*
X316356Y146039D01*
X316244Y146128D01*
X316134Y146218D01*
X316123Y146223D01*
X316113Y146230D01*
X315983Y146287D01*
X315853Y146346D01*
X315842Y146348D01*
X315830Y146353D01*
X315524Y146399D01*
X315511Y146398D01*
X315500Y146399D01*
X310500Y146399D01*
X310358Y146381D01*
X310217Y146365D01*
X310206Y146361D01*
X310193Y146359D01*
X310061Y146305D01*
X309928Y146254D01*
X309919Y146247D01*
X309907Y146243D01*
X309793Y146156D01*
X309678Y146073D01*
X309670Y146064D01*
X309661Y146056D01*
X309572Y145944D01*
X309482Y145834D01*
X309477Y145823D01*
X309470Y145813D01*
X309413Y145683D01*
X309354Y145553D01*
X309352Y145542D01*
X309347Y145530D01*
X309301Y145224D01*
X309302Y145211D01*
X309301Y145200D01*
X309301Y143800D01*
X309319Y143658D01*
X309335Y143517D01*
X309339Y143506D01*
X309341Y143493D01*
X309395Y143361D01*
X309446Y143228D01*
X309453Y143219D01*
X309457Y143207D01*
X309544Y143093D01*
X309627Y142978D01*
X309636Y142970D01*
X309644Y142961D01*
X309756Y142872D01*
X309866Y142782D01*
X309877Y142777D01*
X309887Y142770D01*
X310017Y142713D01*
X310147Y142654D01*
X310158Y142652D01*
X310170Y142647D01*
X310476Y142601D01*
X310489Y142602D01*
X310500Y142601D01*
X315500Y142601D01*
X315642Y142619D01*
G37*
G36*
X445642Y142619D02*
X445642Y142619D01*
X445783Y142635D01*
X445795Y142639D01*
X445807Y142641D01*
X445939Y142695D01*
X446072Y142746D01*
X446081Y142753D01*
X446093Y142757D01*
X446207Y142844D01*
X446322Y142927D01*
X446330Y142936D01*
X446339Y142944D01*
X446428Y143056D01*
X446518Y143166D01*
X446523Y143177D01*
X446530Y143187D01*
X446587Y143317D01*
X446646Y143447D01*
X446648Y143458D01*
X446653Y143470D01*
X446699Y143776D01*
X446698Y143789D01*
X446699Y143800D01*
X446699Y145200D01*
X446681Y145342D01*
X446665Y145483D01*
X446661Y145495D01*
X446659Y145507D01*
X446605Y145639D01*
X446554Y145772D01*
X446547Y145781D01*
X446543Y145793D01*
X446456Y145907D01*
X446373Y146022D01*
X446364Y146030D01*
X446356Y146039D01*
X446244Y146128D01*
X446134Y146218D01*
X446123Y146223D01*
X446113Y146230D01*
X445983Y146287D01*
X445853Y146346D01*
X445842Y146348D01*
X445830Y146353D01*
X445524Y146399D01*
X445511Y146398D01*
X445500Y146399D01*
X440500Y146399D01*
X440358Y146381D01*
X440217Y146365D01*
X440206Y146361D01*
X440193Y146359D01*
X440061Y146305D01*
X439928Y146254D01*
X439919Y146247D01*
X439907Y146243D01*
X439793Y146156D01*
X439678Y146073D01*
X439670Y146064D01*
X439661Y146056D01*
X439572Y145944D01*
X439482Y145834D01*
X439477Y145823D01*
X439470Y145813D01*
X439413Y145683D01*
X439354Y145553D01*
X439352Y145542D01*
X439347Y145530D01*
X439301Y145224D01*
X439302Y145211D01*
X439301Y145200D01*
X439301Y143800D01*
X439319Y143658D01*
X439335Y143517D01*
X439339Y143506D01*
X439341Y143493D01*
X439395Y143361D01*
X439446Y143228D01*
X439453Y143219D01*
X439457Y143207D01*
X439544Y143093D01*
X439627Y142978D01*
X439636Y142970D01*
X439644Y142961D01*
X439756Y142872D01*
X439866Y142782D01*
X439877Y142777D01*
X439887Y142770D01*
X440017Y142713D01*
X440147Y142654D01*
X440158Y142652D01*
X440170Y142647D01*
X440476Y142601D01*
X440489Y142602D01*
X440500Y142601D01*
X445500Y142601D01*
X445642Y142619D01*
G37*
G36*
X417642Y142619D02*
X417642Y142619D01*
X417783Y142635D01*
X417795Y142639D01*
X417807Y142641D01*
X417939Y142695D01*
X418072Y142746D01*
X418081Y142753D01*
X418093Y142757D01*
X418207Y142844D01*
X418322Y142927D01*
X418330Y142936D01*
X418339Y142944D01*
X418428Y143056D01*
X418518Y143166D01*
X418523Y143177D01*
X418530Y143187D01*
X418587Y143317D01*
X418646Y143447D01*
X418648Y143458D01*
X418653Y143470D01*
X418699Y143776D01*
X418698Y143789D01*
X418699Y143800D01*
X418699Y145200D01*
X418681Y145342D01*
X418665Y145483D01*
X418661Y145495D01*
X418659Y145507D01*
X418605Y145639D01*
X418554Y145772D01*
X418547Y145781D01*
X418543Y145793D01*
X418456Y145907D01*
X418373Y146022D01*
X418364Y146030D01*
X418356Y146039D01*
X418244Y146128D01*
X418134Y146218D01*
X418123Y146223D01*
X418113Y146230D01*
X417983Y146287D01*
X417853Y146346D01*
X417842Y146348D01*
X417830Y146353D01*
X417524Y146399D01*
X417511Y146398D01*
X417500Y146399D01*
X412500Y146399D01*
X412358Y146381D01*
X412217Y146365D01*
X412206Y146361D01*
X412193Y146359D01*
X412061Y146305D01*
X411928Y146254D01*
X411919Y146247D01*
X411907Y146243D01*
X411793Y146156D01*
X411678Y146073D01*
X411670Y146064D01*
X411661Y146056D01*
X411572Y145944D01*
X411482Y145834D01*
X411477Y145823D01*
X411470Y145813D01*
X411413Y145683D01*
X411354Y145553D01*
X411352Y145542D01*
X411347Y145530D01*
X411301Y145224D01*
X411302Y145211D01*
X411301Y145200D01*
X411301Y143800D01*
X411319Y143658D01*
X411335Y143517D01*
X411339Y143506D01*
X411341Y143493D01*
X411395Y143361D01*
X411446Y143228D01*
X411453Y143219D01*
X411457Y143207D01*
X411544Y143093D01*
X411627Y142978D01*
X411636Y142970D01*
X411644Y142961D01*
X411756Y142872D01*
X411866Y142782D01*
X411877Y142777D01*
X411887Y142770D01*
X412017Y142713D01*
X412147Y142654D01*
X412158Y142652D01*
X412170Y142647D01*
X412476Y142601D01*
X412489Y142602D01*
X412500Y142601D01*
X417500Y142601D01*
X417642Y142619D01*
G37*
G36*
X287642Y142619D02*
X287642Y142619D01*
X287783Y142635D01*
X287795Y142639D01*
X287807Y142641D01*
X287939Y142695D01*
X288072Y142746D01*
X288081Y142753D01*
X288093Y142757D01*
X288207Y142844D01*
X288322Y142927D01*
X288330Y142936D01*
X288339Y142944D01*
X288428Y143056D01*
X288518Y143166D01*
X288523Y143177D01*
X288530Y143187D01*
X288587Y143317D01*
X288646Y143447D01*
X288648Y143458D01*
X288653Y143470D01*
X288699Y143776D01*
X288698Y143789D01*
X288699Y143800D01*
X288699Y145200D01*
X288681Y145342D01*
X288665Y145483D01*
X288661Y145495D01*
X288659Y145507D01*
X288605Y145639D01*
X288554Y145772D01*
X288547Y145781D01*
X288543Y145793D01*
X288456Y145907D01*
X288373Y146022D01*
X288364Y146030D01*
X288356Y146039D01*
X288244Y146128D01*
X288134Y146218D01*
X288123Y146223D01*
X288113Y146230D01*
X287983Y146287D01*
X287853Y146346D01*
X287842Y146348D01*
X287830Y146353D01*
X287524Y146399D01*
X287511Y146398D01*
X287500Y146399D01*
X282500Y146399D01*
X282358Y146381D01*
X282217Y146365D01*
X282206Y146361D01*
X282193Y146359D01*
X282061Y146305D01*
X281928Y146254D01*
X281919Y146247D01*
X281907Y146243D01*
X281793Y146156D01*
X281678Y146073D01*
X281670Y146064D01*
X281661Y146056D01*
X281572Y145944D01*
X281482Y145834D01*
X281477Y145823D01*
X281470Y145813D01*
X281413Y145683D01*
X281354Y145553D01*
X281352Y145542D01*
X281347Y145530D01*
X281301Y145224D01*
X281302Y145211D01*
X281301Y145200D01*
X281301Y143800D01*
X281319Y143658D01*
X281335Y143517D01*
X281339Y143506D01*
X281341Y143493D01*
X281395Y143361D01*
X281446Y143228D01*
X281453Y143219D01*
X281457Y143207D01*
X281544Y143093D01*
X281627Y142978D01*
X281636Y142970D01*
X281644Y142961D01*
X281756Y142872D01*
X281866Y142782D01*
X281877Y142777D01*
X281887Y142770D01*
X282017Y142713D01*
X282147Y142654D01*
X282158Y142652D01*
X282170Y142647D01*
X282476Y142601D01*
X282489Y142602D01*
X282500Y142601D01*
X287500Y142601D01*
X287642Y142619D01*
G37*
G36*
X315642Y137619D02*
X315642Y137619D01*
X315783Y137635D01*
X315795Y137639D01*
X315807Y137641D01*
X315939Y137695D01*
X316072Y137746D01*
X316081Y137753D01*
X316093Y137757D01*
X316207Y137844D01*
X316322Y137927D01*
X316330Y137936D01*
X316339Y137944D01*
X316428Y138056D01*
X316518Y138166D01*
X316523Y138177D01*
X316530Y138187D01*
X316587Y138317D01*
X316646Y138447D01*
X316648Y138458D01*
X316653Y138470D01*
X316699Y138776D01*
X316698Y138789D01*
X316699Y138800D01*
X316699Y140200D01*
X316681Y140342D01*
X316665Y140483D01*
X316661Y140495D01*
X316659Y140507D01*
X316605Y140639D01*
X316554Y140772D01*
X316547Y140781D01*
X316543Y140793D01*
X316456Y140907D01*
X316373Y141022D01*
X316364Y141030D01*
X316356Y141039D01*
X316244Y141128D01*
X316134Y141218D01*
X316123Y141223D01*
X316113Y141230D01*
X315983Y141287D01*
X315853Y141346D01*
X315842Y141348D01*
X315830Y141353D01*
X315524Y141399D01*
X315511Y141398D01*
X315500Y141399D01*
X310500Y141399D01*
X310358Y141381D01*
X310217Y141365D01*
X310206Y141361D01*
X310193Y141359D01*
X310061Y141305D01*
X309928Y141254D01*
X309919Y141247D01*
X309907Y141243D01*
X309793Y141156D01*
X309678Y141073D01*
X309670Y141064D01*
X309661Y141056D01*
X309572Y140944D01*
X309482Y140834D01*
X309477Y140823D01*
X309470Y140813D01*
X309413Y140683D01*
X309354Y140553D01*
X309352Y140542D01*
X309347Y140530D01*
X309301Y140224D01*
X309302Y140211D01*
X309301Y140200D01*
X309301Y138800D01*
X309319Y138658D01*
X309335Y138517D01*
X309339Y138506D01*
X309341Y138493D01*
X309395Y138361D01*
X309446Y138228D01*
X309453Y138219D01*
X309457Y138207D01*
X309544Y138093D01*
X309627Y137978D01*
X309636Y137970D01*
X309644Y137961D01*
X309756Y137872D01*
X309866Y137782D01*
X309877Y137777D01*
X309887Y137770D01*
X310017Y137713D01*
X310147Y137654D01*
X310158Y137652D01*
X310170Y137647D01*
X310476Y137601D01*
X310489Y137602D01*
X310500Y137601D01*
X315500Y137601D01*
X315642Y137619D01*
G37*
G36*
X287642Y137619D02*
X287642Y137619D01*
X287783Y137635D01*
X287795Y137639D01*
X287807Y137641D01*
X287939Y137695D01*
X288072Y137746D01*
X288081Y137753D01*
X288093Y137757D01*
X288207Y137844D01*
X288322Y137927D01*
X288330Y137936D01*
X288339Y137944D01*
X288428Y138056D01*
X288518Y138166D01*
X288523Y138177D01*
X288530Y138187D01*
X288587Y138317D01*
X288646Y138447D01*
X288648Y138458D01*
X288653Y138470D01*
X288699Y138776D01*
X288698Y138789D01*
X288699Y138800D01*
X288699Y140200D01*
X288681Y140342D01*
X288665Y140483D01*
X288661Y140495D01*
X288659Y140507D01*
X288605Y140639D01*
X288554Y140772D01*
X288547Y140781D01*
X288543Y140793D01*
X288456Y140907D01*
X288373Y141022D01*
X288364Y141030D01*
X288356Y141039D01*
X288244Y141128D01*
X288134Y141218D01*
X288123Y141223D01*
X288113Y141230D01*
X287983Y141287D01*
X287853Y141346D01*
X287842Y141348D01*
X287830Y141353D01*
X287524Y141399D01*
X287511Y141398D01*
X287500Y141399D01*
X282500Y141399D01*
X282358Y141381D01*
X282217Y141365D01*
X282206Y141361D01*
X282193Y141359D01*
X282061Y141305D01*
X281928Y141254D01*
X281919Y141247D01*
X281907Y141243D01*
X281793Y141156D01*
X281678Y141073D01*
X281670Y141064D01*
X281661Y141056D01*
X281572Y140944D01*
X281482Y140834D01*
X281477Y140823D01*
X281470Y140813D01*
X281413Y140683D01*
X281354Y140553D01*
X281352Y140542D01*
X281347Y140530D01*
X281301Y140224D01*
X281302Y140211D01*
X281301Y140200D01*
X281301Y138800D01*
X281319Y138658D01*
X281335Y138517D01*
X281339Y138506D01*
X281341Y138493D01*
X281395Y138361D01*
X281446Y138228D01*
X281453Y138219D01*
X281457Y138207D01*
X281544Y138093D01*
X281627Y137978D01*
X281636Y137970D01*
X281644Y137961D01*
X281756Y137872D01*
X281866Y137782D01*
X281877Y137777D01*
X281887Y137770D01*
X282017Y137713D01*
X282147Y137654D01*
X282158Y137652D01*
X282170Y137647D01*
X282476Y137601D01*
X282489Y137602D01*
X282500Y137601D01*
X287500Y137601D01*
X287642Y137619D01*
G37*
G36*
X445642Y137619D02*
X445642Y137619D01*
X445783Y137635D01*
X445795Y137639D01*
X445807Y137641D01*
X445939Y137695D01*
X446072Y137746D01*
X446081Y137753D01*
X446093Y137757D01*
X446207Y137844D01*
X446322Y137927D01*
X446330Y137936D01*
X446339Y137944D01*
X446428Y138056D01*
X446518Y138166D01*
X446523Y138177D01*
X446530Y138187D01*
X446587Y138317D01*
X446646Y138447D01*
X446648Y138458D01*
X446653Y138470D01*
X446699Y138776D01*
X446698Y138789D01*
X446699Y138800D01*
X446699Y140200D01*
X446681Y140342D01*
X446665Y140483D01*
X446661Y140495D01*
X446659Y140507D01*
X446605Y140639D01*
X446554Y140772D01*
X446547Y140781D01*
X446543Y140793D01*
X446456Y140907D01*
X446373Y141022D01*
X446364Y141030D01*
X446356Y141039D01*
X446244Y141128D01*
X446134Y141218D01*
X446123Y141223D01*
X446113Y141230D01*
X445983Y141287D01*
X445853Y141346D01*
X445842Y141348D01*
X445830Y141353D01*
X445524Y141399D01*
X445511Y141398D01*
X445500Y141399D01*
X440500Y141399D01*
X440358Y141381D01*
X440217Y141365D01*
X440206Y141361D01*
X440193Y141359D01*
X440061Y141305D01*
X439928Y141254D01*
X439919Y141247D01*
X439907Y141243D01*
X439793Y141156D01*
X439678Y141073D01*
X439670Y141064D01*
X439661Y141056D01*
X439572Y140944D01*
X439482Y140834D01*
X439477Y140823D01*
X439470Y140813D01*
X439413Y140683D01*
X439354Y140553D01*
X439352Y140542D01*
X439347Y140530D01*
X439301Y140224D01*
X439302Y140211D01*
X439301Y140200D01*
X439301Y138800D01*
X439319Y138658D01*
X439335Y138517D01*
X439339Y138506D01*
X439341Y138493D01*
X439395Y138361D01*
X439446Y138228D01*
X439453Y138219D01*
X439457Y138207D01*
X439544Y138093D01*
X439627Y137978D01*
X439636Y137970D01*
X439644Y137961D01*
X439756Y137872D01*
X439866Y137782D01*
X439877Y137777D01*
X439887Y137770D01*
X440017Y137713D01*
X440147Y137654D01*
X440158Y137652D01*
X440170Y137647D01*
X440476Y137601D01*
X440489Y137602D01*
X440500Y137601D01*
X445500Y137601D01*
X445642Y137619D01*
G37*
G36*
X417642Y137619D02*
X417642Y137619D01*
X417783Y137635D01*
X417795Y137639D01*
X417807Y137641D01*
X417939Y137695D01*
X418072Y137746D01*
X418081Y137753D01*
X418093Y137757D01*
X418207Y137844D01*
X418322Y137927D01*
X418330Y137936D01*
X418339Y137944D01*
X418428Y138056D01*
X418518Y138166D01*
X418523Y138177D01*
X418530Y138187D01*
X418587Y138317D01*
X418646Y138447D01*
X418648Y138458D01*
X418653Y138470D01*
X418699Y138776D01*
X418698Y138789D01*
X418699Y138800D01*
X418699Y140200D01*
X418681Y140342D01*
X418665Y140483D01*
X418661Y140495D01*
X418659Y140507D01*
X418605Y140639D01*
X418554Y140772D01*
X418547Y140781D01*
X418543Y140793D01*
X418456Y140907D01*
X418373Y141022D01*
X418364Y141030D01*
X418356Y141039D01*
X418244Y141128D01*
X418134Y141218D01*
X418123Y141223D01*
X418113Y141230D01*
X417983Y141287D01*
X417853Y141346D01*
X417842Y141348D01*
X417830Y141353D01*
X417524Y141399D01*
X417511Y141398D01*
X417500Y141399D01*
X412500Y141399D01*
X412358Y141381D01*
X412217Y141365D01*
X412206Y141361D01*
X412193Y141359D01*
X412061Y141305D01*
X411928Y141254D01*
X411919Y141247D01*
X411907Y141243D01*
X411793Y141156D01*
X411678Y141073D01*
X411670Y141064D01*
X411661Y141056D01*
X411572Y140944D01*
X411482Y140834D01*
X411477Y140823D01*
X411470Y140813D01*
X411413Y140683D01*
X411354Y140553D01*
X411352Y140542D01*
X411347Y140530D01*
X411301Y140224D01*
X411302Y140211D01*
X411301Y140200D01*
X411301Y138800D01*
X411319Y138658D01*
X411335Y138517D01*
X411339Y138506D01*
X411341Y138493D01*
X411395Y138361D01*
X411446Y138228D01*
X411453Y138219D01*
X411457Y138207D01*
X411544Y138093D01*
X411627Y137978D01*
X411636Y137970D01*
X411644Y137961D01*
X411756Y137872D01*
X411866Y137782D01*
X411877Y137777D01*
X411887Y137770D01*
X412017Y137713D01*
X412147Y137654D01*
X412158Y137652D01*
X412170Y137647D01*
X412476Y137601D01*
X412489Y137602D01*
X412500Y137601D01*
X417500Y137601D01*
X417642Y137619D01*
G37*
G36*
X445642Y132619D02*
X445642Y132619D01*
X445783Y132635D01*
X445795Y132639D01*
X445807Y132641D01*
X445939Y132695D01*
X446072Y132746D01*
X446081Y132753D01*
X446093Y132757D01*
X446207Y132844D01*
X446322Y132927D01*
X446330Y132936D01*
X446339Y132944D01*
X446428Y133056D01*
X446518Y133166D01*
X446523Y133177D01*
X446530Y133187D01*
X446587Y133317D01*
X446646Y133447D01*
X446648Y133458D01*
X446653Y133470D01*
X446699Y133776D01*
X446698Y133789D01*
X446699Y133800D01*
X446699Y135200D01*
X446681Y135342D01*
X446665Y135483D01*
X446661Y135495D01*
X446659Y135507D01*
X446605Y135639D01*
X446554Y135772D01*
X446547Y135781D01*
X446543Y135793D01*
X446456Y135907D01*
X446373Y136022D01*
X446364Y136030D01*
X446356Y136039D01*
X446244Y136128D01*
X446134Y136218D01*
X446123Y136223D01*
X446113Y136230D01*
X445983Y136287D01*
X445853Y136346D01*
X445842Y136348D01*
X445830Y136353D01*
X445524Y136399D01*
X445511Y136398D01*
X445500Y136399D01*
X440500Y136399D01*
X440358Y136381D01*
X440217Y136365D01*
X440206Y136361D01*
X440193Y136359D01*
X440061Y136305D01*
X439928Y136254D01*
X439919Y136247D01*
X439907Y136243D01*
X439793Y136156D01*
X439678Y136073D01*
X439670Y136064D01*
X439661Y136056D01*
X439572Y135944D01*
X439482Y135834D01*
X439477Y135823D01*
X439470Y135813D01*
X439413Y135683D01*
X439354Y135553D01*
X439352Y135542D01*
X439347Y135530D01*
X439301Y135224D01*
X439302Y135211D01*
X439301Y135200D01*
X439301Y133800D01*
X439319Y133658D01*
X439335Y133517D01*
X439339Y133506D01*
X439341Y133493D01*
X439395Y133361D01*
X439446Y133228D01*
X439453Y133219D01*
X439457Y133207D01*
X439544Y133093D01*
X439627Y132978D01*
X439636Y132970D01*
X439644Y132961D01*
X439756Y132872D01*
X439866Y132782D01*
X439877Y132777D01*
X439887Y132770D01*
X440017Y132713D01*
X440147Y132654D01*
X440158Y132652D01*
X440170Y132647D01*
X440476Y132601D01*
X440489Y132602D01*
X440500Y132601D01*
X445500Y132601D01*
X445642Y132619D01*
G37*
G36*
X417642Y132619D02*
X417642Y132619D01*
X417783Y132635D01*
X417795Y132639D01*
X417807Y132641D01*
X417939Y132695D01*
X418072Y132746D01*
X418081Y132753D01*
X418093Y132757D01*
X418207Y132844D01*
X418322Y132927D01*
X418330Y132936D01*
X418339Y132944D01*
X418428Y133056D01*
X418518Y133166D01*
X418523Y133177D01*
X418530Y133187D01*
X418587Y133317D01*
X418646Y133447D01*
X418648Y133458D01*
X418653Y133470D01*
X418699Y133776D01*
X418698Y133789D01*
X418699Y133800D01*
X418699Y135200D01*
X418681Y135342D01*
X418665Y135483D01*
X418661Y135495D01*
X418659Y135507D01*
X418605Y135639D01*
X418554Y135772D01*
X418547Y135781D01*
X418543Y135793D01*
X418456Y135907D01*
X418373Y136022D01*
X418364Y136030D01*
X418356Y136039D01*
X418244Y136128D01*
X418134Y136218D01*
X418123Y136223D01*
X418113Y136230D01*
X417983Y136287D01*
X417853Y136346D01*
X417842Y136348D01*
X417830Y136353D01*
X417524Y136399D01*
X417511Y136398D01*
X417500Y136399D01*
X412500Y136399D01*
X412358Y136381D01*
X412217Y136365D01*
X412206Y136361D01*
X412193Y136359D01*
X412061Y136305D01*
X411928Y136254D01*
X411919Y136247D01*
X411907Y136243D01*
X411793Y136156D01*
X411678Y136073D01*
X411670Y136064D01*
X411661Y136056D01*
X411572Y135944D01*
X411482Y135834D01*
X411477Y135823D01*
X411470Y135813D01*
X411413Y135683D01*
X411354Y135553D01*
X411352Y135542D01*
X411347Y135530D01*
X411301Y135224D01*
X411302Y135211D01*
X411301Y135200D01*
X411301Y133800D01*
X411319Y133658D01*
X411335Y133517D01*
X411339Y133506D01*
X411341Y133493D01*
X411395Y133361D01*
X411446Y133228D01*
X411453Y133219D01*
X411457Y133207D01*
X411544Y133093D01*
X411627Y132978D01*
X411636Y132970D01*
X411644Y132961D01*
X411756Y132872D01*
X411866Y132782D01*
X411877Y132777D01*
X411887Y132770D01*
X412017Y132713D01*
X412147Y132654D01*
X412158Y132652D01*
X412170Y132647D01*
X412476Y132601D01*
X412489Y132602D01*
X412500Y132601D01*
X417500Y132601D01*
X417642Y132619D01*
G37*
G36*
X315642Y132619D02*
X315642Y132619D01*
X315783Y132635D01*
X315795Y132639D01*
X315807Y132641D01*
X315939Y132695D01*
X316072Y132746D01*
X316081Y132753D01*
X316093Y132757D01*
X316207Y132844D01*
X316322Y132927D01*
X316330Y132936D01*
X316339Y132944D01*
X316428Y133056D01*
X316518Y133166D01*
X316523Y133177D01*
X316530Y133187D01*
X316587Y133317D01*
X316646Y133447D01*
X316648Y133458D01*
X316653Y133470D01*
X316699Y133776D01*
X316698Y133789D01*
X316699Y133800D01*
X316699Y135200D01*
X316681Y135342D01*
X316665Y135483D01*
X316661Y135495D01*
X316659Y135507D01*
X316605Y135639D01*
X316554Y135772D01*
X316547Y135781D01*
X316543Y135793D01*
X316456Y135907D01*
X316373Y136022D01*
X316364Y136030D01*
X316356Y136039D01*
X316244Y136128D01*
X316134Y136218D01*
X316123Y136223D01*
X316113Y136230D01*
X315983Y136287D01*
X315853Y136346D01*
X315842Y136348D01*
X315830Y136353D01*
X315524Y136399D01*
X315511Y136398D01*
X315500Y136399D01*
X310500Y136399D01*
X310358Y136381D01*
X310217Y136365D01*
X310206Y136361D01*
X310193Y136359D01*
X310061Y136305D01*
X309928Y136254D01*
X309919Y136247D01*
X309907Y136243D01*
X309793Y136156D01*
X309678Y136073D01*
X309670Y136064D01*
X309661Y136056D01*
X309572Y135944D01*
X309482Y135834D01*
X309477Y135823D01*
X309470Y135813D01*
X309413Y135683D01*
X309354Y135553D01*
X309352Y135542D01*
X309347Y135530D01*
X309301Y135224D01*
X309302Y135211D01*
X309301Y135200D01*
X309301Y133800D01*
X309319Y133658D01*
X309335Y133517D01*
X309339Y133506D01*
X309341Y133493D01*
X309395Y133361D01*
X309446Y133228D01*
X309453Y133219D01*
X309457Y133207D01*
X309544Y133093D01*
X309627Y132978D01*
X309636Y132970D01*
X309644Y132961D01*
X309756Y132872D01*
X309866Y132782D01*
X309877Y132777D01*
X309887Y132770D01*
X310017Y132713D01*
X310147Y132654D01*
X310158Y132652D01*
X310170Y132647D01*
X310476Y132601D01*
X310489Y132602D01*
X310500Y132601D01*
X315500Y132601D01*
X315642Y132619D01*
G37*
G36*
X287642Y132619D02*
X287642Y132619D01*
X287783Y132635D01*
X287795Y132639D01*
X287807Y132641D01*
X287939Y132695D01*
X288072Y132746D01*
X288081Y132753D01*
X288093Y132757D01*
X288207Y132844D01*
X288322Y132927D01*
X288330Y132936D01*
X288339Y132944D01*
X288428Y133056D01*
X288518Y133166D01*
X288523Y133177D01*
X288530Y133187D01*
X288587Y133317D01*
X288646Y133447D01*
X288648Y133458D01*
X288653Y133470D01*
X288699Y133776D01*
X288698Y133789D01*
X288699Y133800D01*
X288699Y135200D01*
X288681Y135342D01*
X288665Y135483D01*
X288661Y135495D01*
X288659Y135507D01*
X288605Y135639D01*
X288554Y135772D01*
X288547Y135781D01*
X288543Y135793D01*
X288456Y135907D01*
X288373Y136022D01*
X288364Y136030D01*
X288356Y136039D01*
X288244Y136128D01*
X288134Y136218D01*
X288123Y136223D01*
X288113Y136230D01*
X287983Y136287D01*
X287853Y136346D01*
X287842Y136348D01*
X287830Y136353D01*
X287524Y136399D01*
X287511Y136398D01*
X287500Y136399D01*
X282500Y136399D01*
X282358Y136381D01*
X282217Y136365D01*
X282206Y136361D01*
X282193Y136359D01*
X282061Y136305D01*
X281928Y136254D01*
X281919Y136247D01*
X281907Y136243D01*
X281793Y136156D01*
X281678Y136073D01*
X281670Y136064D01*
X281661Y136056D01*
X281572Y135944D01*
X281482Y135834D01*
X281477Y135823D01*
X281470Y135813D01*
X281413Y135683D01*
X281354Y135553D01*
X281352Y135542D01*
X281347Y135530D01*
X281301Y135224D01*
X281302Y135211D01*
X281301Y135200D01*
X281301Y133800D01*
X281319Y133658D01*
X281335Y133517D01*
X281339Y133506D01*
X281341Y133493D01*
X281395Y133361D01*
X281446Y133228D01*
X281453Y133219D01*
X281457Y133207D01*
X281544Y133093D01*
X281627Y132978D01*
X281636Y132970D01*
X281644Y132961D01*
X281756Y132872D01*
X281866Y132782D01*
X281877Y132777D01*
X281887Y132770D01*
X282017Y132713D01*
X282147Y132654D01*
X282158Y132652D01*
X282170Y132647D01*
X282476Y132601D01*
X282489Y132602D01*
X282500Y132601D01*
X287500Y132601D01*
X287642Y132619D01*
G37*
G36*
X302342Y124319D02*
X302342Y124319D01*
X302483Y124335D01*
X302495Y124339D01*
X302507Y124341D01*
X302639Y124395D01*
X302772Y124446D01*
X302781Y124453D01*
X302793Y124457D01*
X302907Y124544D01*
X303022Y124627D01*
X303030Y124636D01*
X303039Y124644D01*
X303128Y124756D01*
X303218Y124866D01*
X303223Y124877D01*
X303230Y124887D01*
X303287Y125017D01*
X303346Y125147D01*
X303348Y125158D01*
X303353Y125170D01*
X303399Y125476D01*
X303398Y125489D01*
X303399Y125500D01*
X303399Y130500D01*
X303381Y130642D01*
X303365Y130783D01*
X303361Y130795D01*
X303359Y130807D01*
X303305Y130939D01*
X303254Y131072D01*
X303247Y131081D01*
X303243Y131093D01*
X303156Y131207D01*
X303073Y131322D01*
X303064Y131330D01*
X303056Y131339D01*
X302944Y131428D01*
X302834Y131518D01*
X302823Y131523D01*
X302813Y131530D01*
X302683Y131587D01*
X302553Y131646D01*
X302542Y131648D01*
X302530Y131653D01*
X302224Y131699D01*
X302211Y131698D01*
X302200Y131699D01*
X300800Y131699D01*
X300658Y131681D01*
X300517Y131665D01*
X300506Y131661D01*
X300493Y131659D01*
X300361Y131605D01*
X300228Y131554D01*
X300219Y131547D01*
X300207Y131543D01*
X300093Y131456D01*
X299978Y131373D01*
X299970Y131364D01*
X299961Y131356D01*
X299872Y131244D01*
X299782Y131134D01*
X299777Y131123D01*
X299770Y131113D01*
X299713Y130983D01*
X299654Y130853D01*
X299652Y130842D01*
X299647Y130830D01*
X299601Y130524D01*
X299602Y130511D01*
X299601Y130500D01*
X299601Y125500D01*
X299619Y125358D01*
X299635Y125217D01*
X299639Y125206D01*
X299641Y125193D01*
X299695Y125061D01*
X299746Y124928D01*
X299753Y124919D01*
X299757Y124907D01*
X299844Y124793D01*
X299927Y124678D01*
X299936Y124670D01*
X299944Y124661D01*
X300056Y124572D01*
X300166Y124482D01*
X300177Y124477D01*
X300187Y124470D01*
X300317Y124413D01*
X300447Y124354D01*
X300458Y124352D01*
X300470Y124347D01*
X300776Y124301D01*
X300789Y124302D01*
X300800Y124301D01*
X302200Y124301D01*
X302342Y124319D01*
G37*
G36*
X427342Y124319D02*
X427342Y124319D01*
X427483Y124335D01*
X427495Y124339D01*
X427507Y124341D01*
X427639Y124395D01*
X427772Y124446D01*
X427781Y124453D01*
X427793Y124457D01*
X427907Y124544D01*
X428022Y124627D01*
X428030Y124636D01*
X428039Y124644D01*
X428128Y124756D01*
X428218Y124866D01*
X428223Y124877D01*
X428230Y124887D01*
X428287Y125017D01*
X428346Y125147D01*
X428348Y125158D01*
X428353Y125170D01*
X428399Y125476D01*
X428398Y125489D01*
X428399Y125500D01*
X428399Y130500D01*
X428381Y130642D01*
X428365Y130783D01*
X428361Y130795D01*
X428359Y130807D01*
X428305Y130939D01*
X428254Y131072D01*
X428247Y131081D01*
X428243Y131093D01*
X428156Y131207D01*
X428073Y131322D01*
X428064Y131330D01*
X428056Y131339D01*
X427944Y131428D01*
X427834Y131518D01*
X427823Y131523D01*
X427813Y131530D01*
X427683Y131587D01*
X427553Y131646D01*
X427542Y131648D01*
X427530Y131653D01*
X427224Y131699D01*
X427211Y131698D01*
X427200Y131699D01*
X425800Y131699D01*
X425658Y131681D01*
X425517Y131665D01*
X425506Y131661D01*
X425493Y131659D01*
X425361Y131605D01*
X425228Y131554D01*
X425219Y131547D01*
X425207Y131543D01*
X425093Y131456D01*
X424978Y131373D01*
X424970Y131364D01*
X424961Y131356D01*
X424872Y131244D01*
X424782Y131134D01*
X424777Y131123D01*
X424770Y131113D01*
X424713Y130983D01*
X424654Y130853D01*
X424652Y130842D01*
X424647Y130830D01*
X424601Y130524D01*
X424602Y130511D01*
X424601Y130500D01*
X424601Y125500D01*
X424619Y125358D01*
X424635Y125217D01*
X424639Y125206D01*
X424641Y125193D01*
X424695Y125061D01*
X424746Y124928D01*
X424753Y124919D01*
X424757Y124907D01*
X424844Y124793D01*
X424927Y124678D01*
X424936Y124670D01*
X424944Y124661D01*
X425056Y124572D01*
X425166Y124482D01*
X425177Y124477D01*
X425187Y124470D01*
X425317Y124413D01*
X425447Y124354D01*
X425458Y124352D01*
X425470Y124347D01*
X425776Y124301D01*
X425789Y124302D01*
X425800Y124301D01*
X427200Y124301D01*
X427342Y124319D01*
G37*
G36*
X292342Y124319D02*
X292342Y124319D01*
X292483Y124335D01*
X292495Y124339D01*
X292507Y124341D01*
X292639Y124395D01*
X292772Y124446D01*
X292781Y124453D01*
X292793Y124457D01*
X292907Y124544D01*
X293022Y124627D01*
X293030Y124636D01*
X293039Y124644D01*
X293128Y124756D01*
X293218Y124866D01*
X293223Y124877D01*
X293230Y124887D01*
X293287Y125017D01*
X293346Y125147D01*
X293348Y125158D01*
X293353Y125170D01*
X293399Y125476D01*
X293398Y125489D01*
X293399Y125500D01*
X293399Y130500D01*
X293381Y130642D01*
X293365Y130783D01*
X293361Y130795D01*
X293359Y130807D01*
X293305Y130939D01*
X293254Y131072D01*
X293247Y131081D01*
X293243Y131093D01*
X293156Y131207D01*
X293073Y131322D01*
X293064Y131330D01*
X293056Y131339D01*
X292944Y131428D01*
X292834Y131518D01*
X292823Y131523D01*
X292813Y131530D01*
X292683Y131587D01*
X292553Y131646D01*
X292542Y131648D01*
X292530Y131653D01*
X292224Y131699D01*
X292211Y131698D01*
X292200Y131699D01*
X290800Y131699D01*
X290658Y131681D01*
X290517Y131665D01*
X290506Y131661D01*
X290493Y131659D01*
X290361Y131605D01*
X290228Y131554D01*
X290219Y131547D01*
X290207Y131543D01*
X290093Y131456D01*
X289978Y131373D01*
X289970Y131364D01*
X289961Y131356D01*
X289872Y131244D01*
X289782Y131134D01*
X289777Y131123D01*
X289770Y131113D01*
X289713Y130983D01*
X289654Y130853D01*
X289652Y130842D01*
X289647Y130830D01*
X289601Y130524D01*
X289602Y130511D01*
X289601Y130500D01*
X289601Y125500D01*
X289619Y125358D01*
X289635Y125217D01*
X289639Y125206D01*
X289641Y125193D01*
X289695Y125061D01*
X289746Y124928D01*
X289753Y124919D01*
X289757Y124907D01*
X289844Y124793D01*
X289927Y124678D01*
X289936Y124670D01*
X289944Y124661D01*
X290056Y124572D01*
X290166Y124482D01*
X290177Y124477D01*
X290187Y124470D01*
X290317Y124413D01*
X290447Y124354D01*
X290458Y124352D01*
X290470Y124347D01*
X290776Y124301D01*
X290789Y124302D01*
X290800Y124301D01*
X292200Y124301D01*
X292342Y124319D01*
G37*
G36*
X307342Y124319D02*
X307342Y124319D01*
X307483Y124335D01*
X307495Y124339D01*
X307507Y124341D01*
X307639Y124395D01*
X307772Y124446D01*
X307781Y124453D01*
X307793Y124457D01*
X307907Y124544D01*
X308022Y124627D01*
X308030Y124636D01*
X308039Y124644D01*
X308128Y124756D01*
X308218Y124866D01*
X308223Y124877D01*
X308230Y124887D01*
X308287Y125017D01*
X308346Y125147D01*
X308348Y125158D01*
X308353Y125170D01*
X308399Y125476D01*
X308398Y125489D01*
X308399Y125500D01*
X308399Y130500D01*
X308381Y130642D01*
X308365Y130783D01*
X308361Y130795D01*
X308359Y130807D01*
X308305Y130939D01*
X308254Y131072D01*
X308247Y131081D01*
X308243Y131093D01*
X308156Y131207D01*
X308073Y131322D01*
X308064Y131330D01*
X308056Y131339D01*
X307944Y131428D01*
X307834Y131518D01*
X307823Y131523D01*
X307813Y131530D01*
X307683Y131587D01*
X307553Y131646D01*
X307542Y131648D01*
X307530Y131653D01*
X307224Y131699D01*
X307211Y131698D01*
X307200Y131699D01*
X305800Y131699D01*
X305658Y131681D01*
X305517Y131665D01*
X305506Y131661D01*
X305493Y131659D01*
X305361Y131605D01*
X305228Y131554D01*
X305219Y131547D01*
X305207Y131543D01*
X305093Y131456D01*
X304978Y131373D01*
X304970Y131364D01*
X304961Y131356D01*
X304872Y131244D01*
X304782Y131134D01*
X304777Y131123D01*
X304770Y131113D01*
X304713Y130983D01*
X304654Y130853D01*
X304652Y130842D01*
X304647Y130830D01*
X304601Y130524D01*
X304602Y130511D01*
X304601Y130500D01*
X304601Y125500D01*
X304619Y125358D01*
X304635Y125217D01*
X304639Y125206D01*
X304641Y125193D01*
X304695Y125061D01*
X304746Y124928D01*
X304753Y124919D01*
X304757Y124907D01*
X304844Y124793D01*
X304927Y124678D01*
X304936Y124670D01*
X304944Y124661D01*
X305056Y124572D01*
X305166Y124482D01*
X305177Y124477D01*
X305187Y124470D01*
X305317Y124413D01*
X305447Y124354D01*
X305458Y124352D01*
X305470Y124347D01*
X305776Y124301D01*
X305789Y124302D01*
X305800Y124301D01*
X307200Y124301D01*
X307342Y124319D01*
G37*
G36*
X437342Y124319D02*
X437342Y124319D01*
X437483Y124335D01*
X437495Y124339D01*
X437507Y124341D01*
X437639Y124395D01*
X437772Y124446D01*
X437781Y124453D01*
X437793Y124457D01*
X437907Y124544D01*
X438022Y124627D01*
X438030Y124636D01*
X438039Y124644D01*
X438128Y124756D01*
X438218Y124866D01*
X438223Y124877D01*
X438230Y124887D01*
X438287Y125017D01*
X438346Y125147D01*
X438348Y125158D01*
X438353Y125170D01*
X438399Y125476D01*
X438398Y125489D01*
X438399Y125500D01*
X438399Y130500D01*
X438381Y130642D01*
X438365Y130783D01*
X438361Y130795D01*
X438359Y130807D01*
X438305Y130939D01*
X438254Y131072D01*
X438247Y131081D01*
X438243Y131093D01*
X438156Y131207D01*
X438073Y131322D01*
X438064Y131330D01*
X438056Y131339D01*
X437944Y131428D01*
X437834Y131518D01*
X437823Y131523D01*
X437813Y131530D01*
X437683Y131587D01*
X437553Y131646D01*
X437542Y131648D01*
X437530Y131653D01*
X437224Y131699D01*
X437211Y131698D01*
X437200Y131699D01*
X435800Y131699D01*
X435658Y131681D01*
X435517Y131665D01*
X435506Y131661D01*
X435493Y131659D01*
X435361Y131605D01*
X435228Y131554D01*
X435219Y131547D01*
X435207Y131543D01*
X435093Y131456D01*
X434978Y131373D01*
X434970Y131364D01*
X434961Y131356D01*
X434872Y131244D01*
X434782Y131134D01*
X434777Y131123D01*
X434770Y131113D01*
X434713Y130983D01*
X434654Y130853D01*
X434652Y130842D01*
X434647Y130830D01*
X434601Y130524D01*
X434602Y130511D01*
X434601Y130500D01*
X434601Y125500D01*
X434619Y125358D01*
X434635Y125217D01*
X434639Y125206D01*
X434641Y125193D01*
X434695Y125061D01*
X434746Y124928D01*
X434753Y124919D01*
X434757Y124907D01*
X434844Y124793D01*
X434927Y124678D01*
X434936Y124670D01*
X434944Y124661D01*
X435056Y124572D01*
X435166Y124482D01*
X435177Y124477D01*
X435187Y124470D01*
X435317Y124413D01*
X435447Y124354D01*
X435458Y124352D01*
X435470Y124347D01*
X435776Y124301D01*
X435789Y124302D01*
X435800Y124301D01*
X437200Y124301D01*
X437342Y124319D01*
G37*
G36*
X422342Y124319D02*
X422342Y124319D01*
X422483Y124335D01*
X422495Y124339D01*
X422507Y124341D01*
X422639Y124395D01*
X422772Y124446D01*
X422781Y124453D01*
X422793Y124457D01*
X422907Y124544D01*
X423022Y124627D01*
X423030Y124636D01*
X423039Y124644D01*
X423128Y124756D01*
X423218Y124866D01*
X423223Y124877D01*
X423230Y124887D01*
X423287Y125017D01*
X423346Y125147D01*
X423348Y125158D01*
X423353Y125170D01*
X423399Y125476D01*
X423398Y125489D01*
X423399Y125500D01*
X423399Y130500D01*
X423381Y130642D01*
X423365Y130783D01*
X423361Y130795D01*
X423359Y130807D01*
X423305Y130939D01*
X423254Y131072D01*
X423247Y131081D01*
X423243Y131093D01*
X423156Y131207D01*
X423073Y131322D01*
X423064Y131330D01*
X423056Y131339D01*
X422944Y131428D01*
X422834Y131518D01*
X422823Y131523D01*
X422813Y131530D01*
X422683Y131587D01*
X422553Y131646D01*
X422542Y131648D01*
X422530Y131653D01*
X422224Y131699D01*
X422211Y131698D01*
X422200Y131699D01*
X420800Y131699D01*
X420658Y131681D01*
X420517Y131665D01*
X420506Y131661D01*
X420493Y131659D01*
X420361Y131605D01*
X420228Y131554D01*
X420219Y131547D01*
X420207Y131543D01*
X420093Y131456D01*
X419978Y131373D01*
X419970Y131364D01*
X419961Y131356D01*
X419872Y131244D01*
X419782Y131134D01*
X419777Y131123D01*
X419770Y131113D01*
X419713Y130983D01*
X419654Y130853D01*
X419652Y130842D01*
X419647Y130830D01*
X419601Y130524D01*
X419602Y130511D01*
X419601Y130500D01*
X419601Y125500D01*
X419619Y125358D01*
X419635Y125217D01*
X419639Y125206D01*
X419641Y125193D01*
X419695Y125061D01*
X419746Y124928D01*
X419753Y124919D01*
X419757Y124907D01*
X419844Y124793D01*
X419927Y124678D01*
X419936Y124670D01*
X419944Y124661D01*
X420056Y124572D01*
X420166Y124482D01*
X420177Y124477D01*
X420187Y124470D01*
X420317Y124413D01*
X420447Y124354D01*
X420458Y124352D01*
X420470Y124347D01*
X420776Y124301D01*
X420789Y124302D01*
X420800Y124301D01*
X422200Y124301D01*
X422342Y124319D01*
G37*
G36*
X297342Y124319D02*
X297342Y124319D01*
X297483Y124335D01*
X297495Y124339D01*
X297507Y124341D01*
X297639Y124395D01*
X297772Y124446D01*
X297781Y124453D01*
X297793Y124457D01*
X297907Y124544D01*
X298022Y124627D01*
X298030Y124636D01*
X298039Y124644D01*
X298128Y124756D01*
X298218Y124866D01*
X298223Y124877D01*
X298230Y124887D01*
X298287Y125017D01*
X298346Y125147D01*
X298348Y125158D01*
X298353Y125170D01*
X298399Y125476D01*
X298398Y125489D01*
X298399Y125500D01*
X298399Y130500D01*
X298381Y130642D01*
X298365Y130783D01*
X298361Y130795D01*
X298359Y130807D01*
X298305Y130939D01*
X298254Y131072D01*
X298247Y131081D01*
X298243Y131093D01*
X298156Y131207D01*
X298073Y131322D01*
X298064Y131330D01*
X298056Y131339D01*
X297944Y131428D01*
X297834Y131518D01*
X297823Y131523D01*
X297813Y131530D01*
X297683Y131587D01*
X297553Y131646D01*
X297542Y131648D01*
X297530Y131653D01*
X297224Y131699D01*
X297211Y131698D01*
X297200Y131699D01*
X295800Y131699D01*
X295658Y131681D01*
X295517Y131665D01*
X295506Y131661D01*
X295493Y131659D01*
X295361Y131605D01*
X295228Y131554D01*
X295219Y131547D01*
X295207Y131543D01*
X295093Y131456D01*
X294978Y131373D01*
X294970Y131364D01*
X294961Y131356D01*
X294872Y131244D01*
X294782Y131134D01*
X294777Y131123D01*
X294770Y131113D01*
X294713Y130983D01*
X294654Y130853D01*
X294652Y130842D01*
X294647Y130830D01*
X294601Y130524D01*
X294602Y130511D01*
X294601Y130500D01*
X294601Y125500D01*
X294619Y125358D01*
X294635Y125217D01*
X294639Y125206D01*
X294641Y125193D01*
X294695Y125061D01*
X294746Y124928D01*
X294753Y124919D01*
X294757Y124907D01*
X294844Y124793D01*
X294927Y124678D01*
X294936Y124670D01*
X294944Y124661D01*
X295056Y124572D01*
X295166Y124482D01*
X295177Y124477D01*
X295187Y124470D01*
X295317Y124413D01*
X295447Y124354D01*
X295458Y124352D01*
X295470Y124347D01*
X295776Y124301D01*
X295789Y124302D01*
X295800Y124301D01*
X297200Y124301D01*
X297342Y124319D01*
G37*
G36*
X432342Y124319D02*
X432342Y124319D01*
X432483Y124335D01*
X432495Y124339D01*
X432507Y124341D01*
X432639Y124395D01*
X432772Y124446D01*
X432781Y124453D01*
X432793Y124457D01*
X432907Y124544D01*
X433022Y124627D01*
X433030Y124636D01*
X433039Y124644D01*
X433128Y124756D01*
X433218Y124866D01*
X433223Y124877D01*
X433230Y124887D01*
X433287Y125017D01*
X433346Y125147D01*
X433348Y125158D01*
X433353Y125170D01*
X433399Y125476D01*
X433398Y125489D01*
X433399Y125500D01*
X433399Y130500D01*
X433381Y130642D01*
X433365Y130783D01*
X433361Y130795D01*
X433359Y130807D01*
X433305Y130939D01*
X433254Y131072D01*
X433247Y131081D01*
X433243Y131093D01*
X433156Y131207D01*
X433073Y131322D01*
X433064Y131330D01*
X433056Y131339D01*
X432944Y131428D01*
X432834Y131518D01*
X432823Y131523D01*
X432813Y131530D01*
X432683Y131587D01*
X432553Y131646D01*
X432542Y131648D01*
X432530Y131653D01*
X432224Y131699D01*
X432211Y131698D01*
X432200Y131699D01*
X430800Y131699D01*
X430658Y131681D01*
X430517Y131665D01*
X430506Y131661D01*
X430493Y131659D01*
X430361Y131605D01*
X430228Y131554D01*
X430219Y131547D01*
X430207Y131543D01*
X430093Y131456D01*
X429978Y131373D01*
X429970Y131364D01*
X429961Y131356D01*
X429872Y131244D01*
X429782Y131134D01*
X429777Y131123D01*
X429770Y131113D01*
X429713Y130983D01*
X429654Y130853D01*
X429652Y130842D01*
X429647Y130830D01*
X429601Y130524D01*
X429602Y130511D01*
X429601Y130500D01*
X429601Y125500D01*
X429619Y125358D01*
X429635Y125217D01*
X429639Y125206D01*
X429641Y125193D01*
X429695Y125061D01*
X429746Y124928D01*
X429753Y124919D01*
X429757Y124907D01*
X429844Y124793D01*
X429927Y124678D01*
X429936Y124670D01*
X429944Y124661D01*
X430056Y124572D01*
X430166Y124482D01*
X430177Y124477D01*
X430187Y124470D01*
X430317Y124413D01*
X430447Y124354D01*
X430458Y124352D01*
X430470Y124347D01*
X430776Y124301D01*
X430789Y124302D01*
X430800Y124301D01*
X432200Y124301D01*
X432342Y124319D01*
G37*
D10*
X308500Y102000D03*
X289500Y102000D03*
D11*
X339000Y171500D03*
X339000Y152500D03*
X259000Y152500D03*
X259000Y171500D03*
X259000Y121500D03*
X259000Y102500D03*
D10*
X438500Y102000D03*
X419500Y102000D03*
D11*
X469000Y171500D03*
X469000Y152500D03*
X389000Y152500D03*
X389000Y171500D03*
X389000Y121500D03*
X389000Y102500D03*
D12*
X285500Y182000D03*
X312500Y182000D03*
X415500Y182000D03*
X442500Y182000D03*
D13*
X33620Y29900D02*
X18380Y29900D01*
X18380Y55300D02*
X33620Y55300D01*
X33620Y80700D02*
X18380Y80700D01*
X18380Y106100D02*
X33620Y106100D01*
D14*
X34000Y365000D03*
D15*
X33000Y345000D03*
X33000Y325000D03*
X33000Y305000D03*
X33000Y285000D03*
X33000Y265000D03*
X33000Y245000D03*
X33000Y225000D03*
X187000Y365000D03*
X187000Y345000D03*
X187000Y325000D03*
X187000Y305000D03*
X187000Y285000D03*
X187000Y265000D03*
X187000Y245000D03*
X187000Y225000D03*
D14*
X224000Y365000D03*
D15*
X223000Y345000D03*
X223000Y325000D03*
X223000Y305000D03*
X223000Y285000D03*
X223000Y265000D03*
X223000Y245000D03*
X223000Y225000D03*
X377000Y365000D03*
X377000Y345000D03*
X377000Y325000D03*
X377000Y305000D03*
X377000Y285000D03*
X377000Y265000D03*
X377000Y245000D03*
X377000Y225000D03*
D16*
X448747Y261000D02*
X466654Y261000D01*
X466654Y311000D02*
X448747Y311000D01*
D13*
X435620Y351300D02*
X420380Y351300D01*
X420380Y376700D02*
X435620Y376700D01*
D10*
X149500Y180000D03*
X130500Y180000D03*
D17*
X182000Y180000D03*
X218000Y180000D03*
D18*
X458000Y40000D03*
X53000Y179000D03*
D19*
X194001Y132901D03*
X169000Y132901D03*
X149000Y132901D03*
X123999Y132901D03*
D20*
X224700Y105799D03*
X93300Y105799D03*
D21*
X468500Y222000D03*
X447500Y222000D03*
D10*
X467500Y203000D03*
X448500Y203000D03*
D22*
X424000Y164500D03*
X453000Y171000D03*
X162000Y205000D03*
X365000Y162000D03*
X244000Y345000D03*
X55000Y327000D03*
X252750Y311750D03*
X106000Y180000D03*
X74068Y307000D03*
X276000Y148000D03*
X268000Y189000D03*
X68000Y284000D03*
X65000Y275000D03*
X101000Y224000D03*
X71000Y235000D03*
X168000Y228000D03*
X164000Y251000D03*
X123000Y222000D03*
X118000Y230000D03*
X134000Y224000D03*
X62000Y260000D03*
X70000Y265000D03*
X108000Y230000D03*
X148000Y220000D03*
X59000Y242000D03*
M02*
