G04 EAGLE Gerber RS-274X export*
G75*
%MOMM*%
%FSLAX34Y34*%
%LPD*%
%INBottom Solder Mask*%
%IPPOS*%
%AMOC8*
5,1,8,0,0,1.08239X$1,22.5*%
G01*
%ADD10R,0.603200X0.403200*%
%ADD11R,5.803200X5.803200*%
%ADD12R,0.753200X0.503200*%
%ADD13R,0.503200X0.753200*%
%ADD14C,1.727200*%
%ADD15R,1.503200X1.703200*%
%ADD16R,1.703200X1.503200*%
%ADD17C,1.993900*%
%ADD18C,5.537200*%
%ADD19C,1.711200*%
%ADD20C,2.503200*%
%ADD21C,0.959600*%


D10*
X148750Y302500D03*
D11*
X115000Y275000D03*
D12*
X148750Y297500D03*
X148750Y292500D03*
X148750Y287500D03*
X148750Y282500D03*
X148750Y277500D03*
X148750Y272500D03*
X148750Y267500D03*
X148750Y262500D03*
X148750Y257500D03*
X148750Y252500D03*
X148750Y247500D03*
D13*
X142500Y241250D03*
X137500Y241250D03*
X132500Y241250D03*
X127500Y241250D03*
X122500Y241250D03*
X117500Y241250D03*
X112500Y241250D03*
X107500Y241250D03*
X102500Y241250D03*
X97500Y241250D03*
X92500Y241250D03*
X87500Y241250D03*
D12*
X81250Y247500D03*
X81250Y252500D03*
X81250Y257500D03*
X81250Y262500D03*
X81250Y267500D03*
X81250Y272500D03*
X81250Y277500D03*
X81250Y282500D03*
X81250Y287500D03*
X81250Y292500D03*
X81250Y297500D03*
X81250Y302500D03*
D13*
X87500Y308750D03*
X92500Y308750D03*
X97500Y308750D03*
X102500Y308750D03*
X107500Y308750D03*
X112500Y308750D03*
X117500Y308750D03*
X122500Y308750D03*
X127500Y308750D03*
X132500Y308750D03*
X137500Y308750D03*
X142500Y308750D03*
D14*
X33620Y29900D02*
X18380Y29900D01*
X18380Y55300D02*
X33620Y55300D01*
X33620Y80700D02*
X18380Y80700D01*
X18380Y106100D02*
X33620Y106100D01*
D15*
X125500Y345000D03*
X144500Y345000D03*
X104500Y345000D03*
X85500Y345000D03*
D16*
X185000Y264500D03*
X185000Y245500D03*
X185000Y304500D03*
X185000Y285500D03*
X45000Y264500D03*
X45000Y245500D03*
D15*
X104500Y205000D03*
X85500Y205000D03*
X144500Y205000D03*
X125500Y205000D03*
D17*
X448747Y261000D02*
X466654Y261000D01*
X466654Y311000D02*
X448747Y311000D01*
D14*
X435620Y351300D02*
X420380Y351300D01*
X420380Y376700D02*
X435620Y376700D01*
D18*
X458000Y40000D03*
X53000Y179000D03*
D16*
X185000Y344500D03*
X185000Y325500D03*
D19*
X194001Y132901D03*
X169000Y132901D03*
X149000Y132901D03*
X123999Y132901D03*
D20*
X224700Y105799D03*
X93300Y105799D03*
D21*
X424000Y164500D03*
X453000Y171000D03*
X162000Y205000D03*
X365000Y162000D03*
X244000Y345000D03*
X55000Y327000D03*
X252750Y311750D03*
X106000Y180000D03*
X74068Y307000D03*
X276000Y148000D03*
X268000Y189000D03*
X68000Y284000D03*
X65000Y275000D03*
X101000Y224000D03*
X71000Y235000D03*
X168000Y228000D03*
X164000Y251000D03*
X123000Y222000D03*
X118000Y230000D03*
X134000Y224000D03*
X62000Y260000D03*
X70000Y265000D03*
X108000Y230000D03*
X148000Y220000D03*
X59000Y242000D03*
M02*
