G04 EAGLE Gerber RS-274X export*
G75*
%MOMM*%
%FSLAX34Y34*%
%LPD*%
%INBottom Paste*%
%IPPOS*%
%AMOC8*
5,1,8,0,0,1.08239X$1,22.5*%
G01*
%ADD10R,0.400000X0.200000*%
%ADD11R,5.600000X5.600000*%
%ADD12R,0.550000X0.300000*%
%ADD13R,0.300000X0.550000*%
%ADD14R,1.300000X1.500000*%
%ADD15R,1.500000X1.300000*%


D10*
X148750Y302500D03*
D11*
X115000Y275000D03*
D12*
X148750Y297500D03*
X148750Y292500D03*
X148750Y287500D03*
X148750Y282500D03*
X148750Y277500D03*
X148750Y272500D03*
X148750Y267500D03*
X148750Y262500D03*
X148750Y257500D03*
X148750Y252500D03*
X148750Y247500D03*
D13*
X142500Y241250D03*
X137500Y241250D03*
X132500Y241250D03*
X127500Y241250D03*
X122500Y241250D03*
X117500Y241250D03*
X112500Y241250D03*
X107500Y241250D03*
X102500Y241250D03*
X97500Y241250D03*
X92500Y241250D03*
X87500Y241250D03*
D12*
X81250Y247500D03*
X81250Y252500D03*
X81250Y257500D03*
X81250Y262500D03*
X81250Y267500D03*
X81250Y272500D03*
X81250Y277500D03*
X81250Y282500D03*
X81250Y287500D03*
X81250Y292500D03*
X81250Y297500D03*
X81250Y302500D03*
D13*
X87500Y308750D03*
X92500Y308750D03*
X97500Y308750D03*
X102500Y308750D03*
X107500Y308750D03*
X112500Y308750D03*
X117500Y308750D03*
X122500Y308750D03*
X127500Y308750D03*
X132500Y308750D03*
X137500Y308750D03*
X142500Y308750D03*
D14*
X125500Y345000D03*
X144500Y345000D03*
X104500Y345000D03*
X85500Y345000D03*
D15*
X185000Y264500D03*
X185000Y245500D03*
X185000Y304500D03*
X185000Y285500D03*
X45000Y264500D03*
X45000Y245500D03*
D14*
X104500Y205000D03*
X85500Y205000D03*
X144500Y205000D03*
X125500Y205000D03*
D15*
X185000Y344500D03*
X185000Y325500D03*
M02*
