G04 EAGLE Gerber RS-274X export*
G75*
%MOMM*%
%FSLAX34Y34*%
%LPD*%
%INTop Paste*%
%IPPOS*%
%AMOC8*
5,1,8,0,0,1.08239X$1,22.5*%
G01*
%ADD10R,1.300000X1.500000*%
%ADD11R,1.500000X1.300000*%
%ADD12R,1.500000X1.200000*%
%ADD13R,2.800000X1.100000*%
%ADD14R,2.600000X1.100000*%
%ADD15R,2.600000X1.600000*%
%ADD16R,1.200000X1.200000*%

G36*
X436258Y134252D02*
X436258Y134252D01*
X436267Y134251D01*
X436355Y134272D01*
X436445Y134290D01*
X436452Y134295D01*
X436460Y134297D01*
X436533Y134351D01*
X436609Y134403D01*
X436613Y134410D01*
X436620Y134415D01*
X436667Y134493D01*
X436716Y134570D01*
X436717Y134579D01*
X436722Y134586D01*
X436749Y134750D01*
X436749Y149250D01*
X436748Y149258D01*
X436749Y149267D01*
X436728Y149355D01*
X436710Y149445D01*
X436705Y149452D01*
X436703Y149460D01*
X436649Y149533D01*
X436597Y149609D01*
X436590Y149613D01*
X436585Y149620D01*
X436507Y149667D01*
X436430Y149716D01*
X436421Y149717D01*
X436414Y149722D01*
X436250Y149749D01*
X421750Y149749D01*
X421742Y149748D01*
X421733Y149749D01*
X421645Y149728D01*
X421555Y149710D01*
X421548Y149705D01*
X421540Y149703D01*
X421467Y149649D01*
X421391Y149597D01*
X421387Y149590D01*
X421380Y149585D01*
X421333Y149507D01*
X421284Y149430D01*
X421283Y149421D01*
X421278Y149414D01*
X421251Y149250D01*
X421251Y134750D01*
X421252Y134742D01*
X421251Y134733D01*
X421272Y134645D01*
X421290Y134555D01*
X421295Y134548D01*
X421297Y134540D01*
X421351Y134467D01*
X421403Y134391D01*
X421410Y134387D01*
X421415Y134380D01*
X421493Y134333D01*
X421570Y134284D01*
X421579Y134283D01*
X421586Y134278D01*
X421750Y134251D01*
X436250Y134251D01*
X436258Y134252D01*
G37*
G36*
X306258Y134252D02*
X306258Y134252D01*
X306267Y134251D01*
X306355Y134272D01*
X306445Y134290D01*
X306452Y134295D01*
X306460Y134297D01*
X306533Y134351D01*
X306609Y134403D01*
X306613Y134410D01*
X306620Y134415D01*
X306667Y134493D01*
X306716Y134570D01*
X306717Y134579D01*
X306722Y134586D01*
X306749Y134750D01*
X306749Y149250D01*
X306748Y149258D01*
X306749Y149267D01*
X306728Y149355D01*
X306710Y149445D01*
X306705Y149452D01*
X306703Y149460D01*
X306649Y149533D01*
X306597Y149609D01*
X306590Y149613D01*
X306585Y149620D01*
X306507Y149667D01*
X306430Y149716D01*
X306421Y149717D01*
X306414Y149722D01*
X306250Y149749D01*
X291750Y149749D01*
X291742Y149748D01*
X291733Y149749D01*
X291645Y149728D01*
X291555Y149710D01*
X291548Y149705D01*
X291540Y149703D01*
X291467Y149649D01*
X291391Y149597D01*
X291387Y149590D01*
X291380Y149585D01*
X291333Y149507D01*
X291284Y149430D01*
X291283Y149421D01*
X291278Y149414D01*
X291251Y149250D01*
X291251Y134750D01*
X291252Y134742D01*
X291251Y134733D01*
X291272Y134645D01*
X291290Y134555D01*
X291295Y134548D01*
X291297Y134540D01*
X291351Y134467D01*
X291403Y134391D01*
X291410Y134387D01*
X291415Y134380D01*
X291493Y134333D01*
X291570Y134284D01*
X291579Y134283D01*
X291586Y134278D01*
X291750Y134251D01*
X306250Y134251D01*
X306258Y134252D01*
G37*
G36*
X422208Y153002D02*
X422208Y153002D01*
X422217Y153001D01*
X422305Y153022D01*
X422395Y153040D01*
X422402Y153045D01*
X422410Y153047D01*
X422483Y153101D01*
X422559Y153153D01*
X422563Y153160D01*
X422570Y153165D01*
X422617Y153243D01*
X422666Y153320D01*
X422667Y153329D01*
X422672Y153336D01*
X422699Y153500D01*
X422699Y158500D01*
X422698Y158505D01*
X422699Y158509D01*
X422698Y158512D01*
X422699Y158517D01*
X422678Y158605D01*
X422660Y158695D01*
X422655Y158702D01*
X422653Y158710D01*
X422599Y158783D01*
X422547Y158859D01*
X422540Y158863D01*
X422535Y158870D01*
X422457Y158917D01*
X422380Y158966D01*
X422371Y158967D01*
X422364Y158972D01*
X422200Y158999D01*
X420800Y158999D01*
X420792Y158998D01*
X420783Y158999D01*
X420695Y158978D01*
X420605Y158960D01*
X420598Y158955D01*
X420590Y158953D01*
X420517Y158899D01*
X420441Y158847D01*
X420437Y158840D01*
X420430Y158835D01*
X420383Y158757D01*
X420334Y158680D01*
X420333Y158671D01*
X420328Y158664D01*
X420301Y158500D01*
X420301Y153500D01*
X420302Y153492D01*
X420301Y153483D01*
X420322Y153395D01*
X420340Y153305D01*
X420345Y153298D01*
X420347Y153290D01*
X420401Y153217D01*
X420453Y153141D01*
X420460Y153137D01*
X420465Y153130D01*
X420543Y153083D01*
X420620Y153034D01*
X420629Y153033D01*
X420636Y153028D01*
X420800Y153001D01*
X422200Y153001D01*
X422208Y153002D01*
G37*
G36*
X307208Y153002D02*
X307208Y153002D01*
X307217Y153001D01*
X307305Y153022D01*
X307395Y153040D01*
X307402Y153045D01*
X307410Y153047D01*
X307483Y153101D01*
X307559Y153153D01*
X307563Y153160D01*
X307570Y153165D01*
X307617Y153243D01*
X307666Y153320D01*
X307667Y153329D01*
X307672Y153336D01*
X307699Y153500D01*
X307699Y158500D01*
X307698Y158505D01*
X307699Y158509D01*
X307698Y158512D01*
X307699Y158517D01*
X307678Y158605D01*
X307660Y158695D01*
X307655Y158702D01*
X307653Y158710D01*
X307599Y158783D01*
X307547Y158859D01*
X307540Y158863D01*
X307535Y158870D01*
X307457Y158917D01*
X307380Y158966D01*
X307371Y158967D01*
X307364Y158972D01*
X307200Y158999D01*
X305800Y158999D01*
X305792Y158998D01*
X305783Y158999D01*
X305695Y158978D01*
X305605Y158960D01*
X305598Y158955D01*
X305590Y158953D01*
X305517Y158899D01*
X305441Y158847D01*
X305437Y158840D01*
X305430Y158835D01*
X305383Y158757D01*
X305334Y158680D01*
X305333Y158671D01*
X305328Y158664D01*
X305301Y158500D01*
X305301Y153500D01*
X305302Y153492D01*
X305301Y153483D01*
X305322Y153395D01*
X305340Y153305D01*
X305345Y153298D01*
X305347Y153290D01*
X305401Y153217D01*
X305453Y153141D01*
X305460Y153137D01*
X305465Y153130D01*
X305543Y153083D01*
X305620Y153034D01*
X305629Y153033D01*
X305636Y153028D01*
X305800Y153001D01*
X307200Y153001D01*
X307208Y153002D01*
G37*
G36*
X427208Y153002D02*
X427208Y153002D01*
X427217Y153001D01*
X427305Y153022D01*
X427395Y153040D01*
X427402Y153045D01*
X427410Y153047D01*
X427483Y153101D01*
X427559Y153153D01*
X427563Y153160D01*
X427570Y153165D01*
X427617Y153243D01*
X427666Y153320D01*
X427667Y153329D01*
X427672Y153336D01*
X427699Y153500D01*
X427699Y158500D01*
X427698Y158505D01*
X427699Y158509D01*
X427698Y158512D01*
X427699Y158517D01*
X427678Y158605D01*
X427660Y158695D01*
X427655Y158702D01*
X427653Y158710D01*
X427599Y158783D01*
X427547Y158859D01*
X427540Y158863D01*
X427535Y158870D01*
X427457Y158917D01*
X427380Y158966D01*
X427371Y158967D01*
X427364Y158972D01*
X427200Y158999D01*
X425800Y158999D01*
X425792Y158998D01*
X425783Y158999D01*
X425695Y158978D01*
X425605Y158960D01*
X425598Y158955D01*
X425590Y158953D01*
X425517Y158899D01*
X425441Y158847D01*
X425437Y158840D01*
X425430Y158835D01*
X425383Y158757D01*
X425334Y158680D01*
X425333Y158671D01*
X425328Y158664D01*
X425301Y158500D01*
X425301Y153500D01*
X425302Y153492D01*
X425301Y153483D01*
X425322Y153395D01*
X425340Y153305D01*
X425345Y153298D01*
X425347Y153290D01*
X425401Y153217D01*
X425453Y153141D01*
X425460Y153137D01*
X425465Y153130D01*
X425543Y153083D01*
X425620Y153034D01*
X425629Y153033D01*
X425636Y153028D01*
X425800Y153001D01*
X427200Y153001D01*
X427208Y153002D01*
G37*
G36*
X432208Y153002D02*
X432208Y153002D01*
X432217Y153001D01*
X432305Y153022D01*
X432395Y153040D01*
X432402Y153045D01*
X432410Y153047D01*
X432483Y153101D01*
X432559Y153153D01*
X432563Y153160D01*
X432570Y153165D01*
X432617Y153243D01*
X432666Y153320D01*
X432667Y153329D01*
X432672Y153336D01*
X432699Y153500D01*
X432699Y158500D01*
X432698Y158505D01*
X432699Y158509D01*
X432698Y158512D01*
X432699Y158517D01*
X432678Y158605D01*
X432660Y158695D01*
X432655Y158702D01*
X432653Y158710D01*
X432599Y158783D01*
X432547Y158859D01*
X432540Y158863D01*
X432535Y158870D01*
X432457Y158917D01*
X432380Y158966D01*
X432371Y158967D01*
X432364Y158972D01*
X432200Y158999D01*
X430800Y158999D01*
X430792Y158998D01*
X430783Y158999D01*
X430695Y158978D01*
X430605Y158960D01*
X430598Y158955D01*
X430590Y158953D01*
X430517Y158899D01*
X430441Y158847D01*
X430437Y158840D01*
X430430Y158835D01*
X430383Y158757D01*
X430334Y158680D01*
X430333Y158671D01*
X430328Y158664D01*
X430301Y158500D01*
X430301Y153500D01*
X430302Y153492D01*
X430301Y153483D01*
X430322Y153395D01*
X430340Y153305D01*
X430345Y153298D01*
X430347Y153290D01*
X430401Y153217D01*
X430453Y153141D01*
X430460Y153137D01*
X430465Y153130D01*
X430543Y153083D01*
X430620Y153034D01*
X430629Y153033D01*
X430636Y153028D01*
X430800Y153001D01*
X432200Y153001D01*
X432208Y153002D01*
G37*
G36*
X292208Y153002D02*
X292208Y153002D01*
X292217Y153001D01*
X292305Y153022D01*
X292395Y153040D01*
X292402Y153045D01*
X292410Y153047D01*
X292483Y153101D01*
X292559Y153153D01*
X292563Y153160D01*
X292570Y153165D01*
X292617Y153243D01*
X292666Y153320D01*
X292667Y153329D01*
X292672Y153336D01*
X292699Y153500D01*
X292699Y158500D01*
X292698Y158505D01*
X292699Y158509D01*
X292698Y158512D01*
X292699Y158517D01*
X292678Y158605D01*
X292660Y158695D01*
X292655Y158702D01*
X292653Y158710D01*
X292599Y158783D01*
X292547Y158859D01*
X292540Y158863D01*
X292535Y158870D01*
X292457Y158917D01*
X292380Y158966D01*
X292371Y158967D01*
X292364Y158972D01*
X292200Y158999D01*
X290800Y158999D01*
X290792Y158998D01*
X290783Y158999D01*
X290695Y158978D01*
X290605Y158960D01*
X290598Y158955D01*
X290590Y158953D01*
X290517Y158899D01*
X290441Y158847D01*
X290437Y158840D01*
X290430Y158835D01*
X290383Y158757D01*
X290334Y158680D01*
X290333Y158671D01*
X290328Y158664D01*
X290301Y158500D01*
X290301Y153500D01*
X290302Y153492D01*
X290301Y153483D01*
X290322Y153395D01*
X290340Y153305D01*
X290345Y153298D01*
X290347Y153290D01*
X290401Y153217D01*
X290453Y153141D01*
X290460Y153137D01*
X290465Y153130D01*
X290543Y153083D01*
X290620Y153034D01*
X290629Y153033D01*
X290636Y153028D01*
X290800Y153001D01*
X292200Y153001D01*
X292208Y153002D01*
G37*
G36*
X437208Y153002D02*
X437208Y153002D01*
X437217Y153001D01*
X437305Y153022D01*
X437395Y153040D01*
X437402Y153045D01*
X437410Y153047D01*
X437483Y153101D01*
X437559Y153153D01*
X437563Y153160D01*
X437570Y153165D01*
X437617Y153243D01*
X437666Y153320D01*
X437667Y153329D01*
X437672Y153336D01*
X437699Y153500D01*
X437699Y158500D01*
X437698Y158505D01*
X437699Y158509D01*
X437698Y158512D01*
X437699Y158517D01*
X437678Y158605D01*
X437660Y158695D01*
X437655Y158702D01*
X437653Y158710D01*
X437599Y158783D01*
X437547Y158859D01*
X437540Y158863D01*
X437535Y158870D01*
X437457Y158917D01*
X437380Y158966D01*
X437371Y158967D01*
X437364Y158972D01*
X437200Y158999D01*
X435800Y158999D01*
X435792Y158998D01*
X435783Y158999D01*
X435695Y158978D01*
X435605Y158960D01*
X435598Y158955D01*
X435590Y158953D01*
X435517Y158899D01*
X435441Y158847D01*
X435437Y158840D01*
X435430Y158835D01*
X435383Y158757D01*
X435334Y158680D01*
X435333Y158671D01*
X435328Y158664D01*
X435301Y158500D01*
X435301Y153500D01*
X435302Y153492D01*
X435301Y153483D01*
X435322Y153395D01*
X435340Y153305D01*
X435345Y153298D01*
X435347Y153290D01*
X435401Y153217D01*
X435453Y153141D01*
X435460Y153137D01*
X435465Y153130D01*
X435543Y153083D01*
X435620Y153034D01*
X435629Y153033D01*
X435636Y153028D01*
X435800Y153001D01*
X437200Y153001D01*
X437208Y153002D01*
G37*
G36*
X302208Y153002D02*
X302208Y153002D01*
X302217Y153001D01*
X302305Y153022D01*
X302395Y153040D01*
X302402Y153045D01*
X302410Y153047D01*
X302483Y153101D01*
X302559Y153153D01*
X302563Y153160D01*
X302570Y153165D01*
X302617Y153243D01*
X302666Y153320D01*
X302667Y153329D01*
X302672Y153336D01*
X302699Y153500D01*
X302699Y158500D01*
X302698Y158505D01*
X302699Y158509D01*
X302698Y158512D01*
X302699Y158517D01*
X302678Y158605D01*
X302660Y158695D01*
X302655Y158702D01*
X302653Y158710D01*
X302599Y158783D01*
X302547Y158859D01*
X302540Y158863D01*
X302535Y158870D01*
X302457Y158917D01*
X302380Y158966D01*
X302371Y158967D01*
X302364Y158972D01*
X302200Y158999D01*
X300800Y158999D01*
X300792Y158998D01*
X300783Y158999D01*
X300695Y158978D01*
X300605Y158960D01*
X300598Y158955D01*
X300590Y158953D01*
X300517Y158899D01*
X300441Y158847D01*
X300437Y158840D01*
X300430Y158835D01*
X300383Y158757D01*
X300334Y158680D01*
X300333Y158671D01*
X300328Y158664D01*
X300301Y158500D01*
X300301Y153500D01*
X300302Y153492D01*
X300301Y153483D01*
X300322Y153395D01*
X300340Y153305D01*
X300345Y153298D01*
X300347Y153290D01*
X300401Y153217D01*
X300453Y153141D01*
X300460Y153137D01*
X300465Y153130D01*
X300543Y153083D01*
X300620Y153034D01*
X300629Y153033D01*
X300636Y153028D01*
X300800Y153001D01*
X302200Y153001D01*
X302208Y153002D01*
G37*
G36*
X297208Y153002D02*
X297208Y153002D01*
X297217Y153001D01*
X297305Y153022D01*
X297395Y153040D01*
X297402Y153045D01*
X297410Y153047D01*
X297483Y153101D01*
X297559Y153153D01*
X297563Y153160D01*
X297570Y153165D01*
X297617Y153243D01*
X297666Y153320D01*
X297667Y153329D01*
X297672Y153336D01*
X297699Y153500D01*
X297699Y158500D01*
X297698Y158505D01*
X297699Y158509D01*
X297698Y158512D01*
X297699Y158517D01*
X297678Y158605D01*
X297660Y158695D01*
X297655Y158702D01*
X297653Y158710D01*
X297599Y158783D01*
X297547Y158859D01*
X297540Y158863D01*
X297535Y158870D01*
X297457Y158917D01*
X297380Y158966D01*
X297371Y158967D01*
X297364Y158972D01*
X297200Y158999D01*
X295800Y158999D01*
X295792Y158998D01*
X295783Y158999D01*
X295695Y158978D01*
X295605Y158960D01*
X295598Y158955D01*
X295590Y158953D01*
X295517Y158899D01*
X295441Y158847D01*
X295437Y158840D01*
X295430Y158835D01*
X295383Y158757D01*
X295334Y158680D01*
X295333Y158671D01*
X295328Y158664D01*
X295301Y158500D01*
X295301Y153500D01*
X295302Y153492D01*
X295301Y153483D01*
X295322Y153395D01*
X295340Y153305D01*
X295345Y153298D01*
X295347Y153290D01*
X295401Y153217D01*
X295453Y153141D01*
X295460Y153137D01*
X295465Y153130D01*
X295543Y153083D01*
X295620Y153034D01*
X295629Y153033D01*
X295636Y153028D01*
X295800Y153001D01*
X297200Y153001D01*
X297208Y153002D01*
G37*
G36*
X432208Y125002D02*
X432208Y125002D01*
X432217Y125001D01*
X432305Y125022D01*
X432395Y125040D01*
X432402Y125045D01*
X432410Y125047D01*
X432483Y125101D01*
X432559Y125153D01*
X432563Y125160D01*
X432570Y125165D01*
X432617Y125243D01*
X432666Y125320D01*
X432667Y125329D01*
X432672Y125336D01*
X432699Y125500D01*
X432699Y130500D01*
X432698Y130505D01*
X432699Y130509D01*
X432698Y130512D01*
X432699Y130517D01*
X432678Y130605D01*
X432660Y130695D01*
X432655Y130702D01*
X432653Y130710D01*
X432599Y130783D01*
X432547Y130859D01*
X432540Y130863D01*
X432535Y130870D01*
X432457Y130917D01*
X432380Y130966D01*
X432371Y130967D01*
X432364Y130972D01*
X432200Y130999D01*
X430800Y130999D01*
X430792Y130998D01*
X430783Y130999D01*
X430695Y130978D01*
X430605Y130960D01*
X430598Y130955D01*
X430590Y130953D01*
X430517Y130899D01*
X430441Y130847D01*
X430437Y130840D01*
X430430Y130835D01*
X430383Y130757D01*
X430334Y130680D01*
X430333Y130671D01*
X430328Y130664D01*
X430301Y130500D01*
X430301Y125500D01*
X430302Y125492D01*
X430301Y125483D01*
X430322Y125395D01*
X430340Y125305D01*
X430345Y125298D01*
X430347Y125290D01*
X430401Y125217D01*
X430453Y125141D01*
X430460Y125137D01*
X430465Y125130D01*
X430543Y125083D01*
X430620Y125034D01*
X430629Y125033D01*
X430636Y125028D01*
X430800Y125001D01*
X432200Y125001D01*
X432208Y125002D01*
G37*
G36*
X307208Y125002D02*
X307208Y125002D01*
X307217Y125001D01*
X307305Y125022D01*
X307395Y125040D01*
X307402Y125045D01*
X307410Y125047D01*
X307483Y125101D01*
X307559Y125153D01*
X307563Y125160D01*
X307570Y125165D01*
X307617Y125243D01*
X307666Y125320D01*
X307667Y125329D01*
X307672Y125336D01*
X307699Y125500D01*
X307699Y130500D01*
X307698Y130505D01*
X307699Y130509D01*
X307698Y130512D01*
X307699Y130517D01*
X307678Y130605D01*
X307660Y130695D01*
X307655Y130702D01*
X307653Y130710D01*
X307599Y130783D01*
X307547Y130859D01*
X307540Y130863D01*
X307535Y130870D01*
X307457Y130917D01*
X307380Y130966D01*
X307371Y130967D01*
X307364Y130972D01*
X307200Y130999D01*
X305800Y130999D01*
X305792Y130998D01*
X305783Y130999D01*
X305695Y130978D01*
X305605Y130960D01*
X305598Y130955D01*
X305590Y130953D01*
X305517Y130899D01*
X305441Y130847D01*
X305437Y130840D01*
X305430Y130835D01*
X305383Y130757D01*
X305334Y130680D01*
X305333Y130671D01*
X305328Y130664D01*
X305301Y130500D01*
X305301Y125500D01*
X305302Y125492D01*
X305301Y125483D01*
X305322Y125395D01*
X305340Y125305D01*
X305345Y125298D01*
X305347Y125290D01*
X305401Y125217D01*
X305453Y125141D01*
X305460Y125137D01*
X305465Y125130D01*
X305543Y125083D01*
X305620Y125034D01*
X305629Y125033D01*
X305636Y125028D01*
X305800Y125001D01*
X307200Y125001D01*
X307208Y125002D01*
G37*
G36*
X427208Y125002D02*
X427208Y125002D01*
X427217Y125001D01*
X427305Y125022D01*
X427395Y125040D01*
X427402Y125045D01*
X427410Y125047D01*
X427483Y125101D01*
X427559Y125153D01*
X427563Y125160D01*
X427570Y125165D01*
X427617Y125243D01*
X427666Y125320D01*
X427667Y125329D01*
X427672Y125336D01*
X427699Y125500D01*
X427699Y130500D01*
X427698Y130505D01*
X427699Y130509D01*
X427698Y130512D01*
X427699Y130517D01*
X427678Y130605D01*
X427660Y130695D01*
X427655Y130702D01*
X427653Y130710D01*
X427599Y130783D01*
X427547Y130859D01*
X427540Y130863D01*
X427535Y130870D01*
X427457Y130917D01*
X427380Y130966D01*
X427371Y130967D01*
X427364Y130972D01*
X427200Y130999D01*
X425800Y130999D01*
X425792Y130998D01*
X425783Y130999D01*
X425695Y130978D01*
X425605Y130960D01*
X425598Y130955D01*
X425590Y130953D01*
X425517Y130899D01*
X425441Y130847D01*
X425437Y130840D01*
X425430Y130835D01*
X425383Y130757D01*
X425334Y130680D01*
X425333Y130671D01*
X425328Y130664D01*
X425301Y130500D01*
X425301Y125500D01*
X425302Y125492D01*
X425301Y125483D01*
X425322Y125395D01*
X425340Y125305D01*
X425345Y125298D01*
X425347Y125290D01*
X425401Y125217D01*
X425453Y125141D01*
X425460Y125137D01*
X425465Y125130D01*
X425543Y125083D01*
X425620Y125034D01*
X425629Y125033D01*
X425636Y125028D01*
X425800Y125001D01*
X427200Y125001D01*
X427208Y125002D01*
G37*
G36*
X302208Y125002D02*
X302208Y125002D01*
X302217Y125001D01*
X302305Y125022D01*
X302395Y125040D01*
X302402Y125045D01*
X302410Y125047D01*
X302483Y125101D01*
X302559Y125153D01*
X302563Y125160D01*
X302570Y125165D01*
X302617Y125243D01*
X302666Y125320D01*
X302667Y125329D01*
X302672Y125336D01*
X302699Y125500D01*
X302699Y130500D01*
X302698Y130505D01*
X302699Y130509D01*
X302698Y130512D01*
X302699Y130517D01*
X302678Y130605D01*
X302660Y130695D01*
X302655Y130702D01*
X302653Y130710D01*
X302599Y130783D01*
X302547Y130859D01*
X302540Y130863D01*
X302535Y130870D01*
X302457Y130917D01*
X302380Y130966D01*
X302371Y130967D01*
X302364Y130972D01*
X302200Y130999D01*
X300800Y130999D01*
X300792Y130998D01*
X300783Y130999D01*
X300695Y130978D01*
X300605Y130960D01*
X300598Y130955D01*
X300590Y130953D01*
X300517Y130899D01*
X300441Y130847D01*
X300437Y130840D01*
X300430Y130835D01*
X300383Y130757D01*
X300334Y130680D01*
X300333Y130671D01*
X300328Y130664D01*
X300301Y130500D01*
X300301Y125500D01*
X300302Y125492D01*
X300301Y125483D01*
X300322Y125395D01*
X300340Y125305D01*
X300345Y125298D01*
X300347Y125290D01*
X300401Y125217D01*
X300453Y125141D01*
X300460Y125137D01*
X300465Y125130D01*
X300543Y125083D01*
X300620Y125034D01*
X300629Y125033D01*
X300636Y125028D01*
X300800Y125001D01*
X302200Y125001D01*
X302208Y125002D01*
G37*
G36*
X422208Y125002D02*
X422208Y125002D01*
X422217Y125001D01*
X422305Y125022D01*
X422395Y125040D01*
X422402Y125045D01*
X422410Y125047D01*
X422483Y125101D01*
X422559Y125153D01*
X422563Y125160D01*
X422570Y125165D01*
X422617Y125243D01*
X422666Y125320D01*
X422667Y125329D01*
X422672Y125336D01*
X422699Y125500D01*
X422699Y130500D01*
X422698Y130505D01*
X422699Y130509D01*
X422698Y130512D01*
X422699Y130517D01*
X422678Y130605D01*
X422660Y130695D01*
X422655Y130702D01*
X422653Y130710D01*
X422599Y130783D01*
X422547Y130859D01*
X422540Y130863D01*
X422535Y130870D01*
X422457Y130917D01*
X422380Y130966D01*
X422371Y130967D01*
X422364Y130972D01*
X422200Y130999D01*
X420800Y130999D01*
X420792Y130998D01*
X420783Y130999D01*
X420695Y130978D01*
X420605Y130960D01*
X420598Y130955D01*
X420590Y130953D01*
X420517Y130899D01*
X420441Y130847D01*
X420437Y130840D01*
X420430Y130835D01*
X420383Y130757D01*
X420334Y130680D01*
X420333Y130671D01*
X420328Y130664D01*
X420301Y130500D01*
X420301Y125500D01*
X420302Y125492D01*
X420301Y125483D01*
X420322Y125395D01*
X420340Y125305D01*
X420345Y125298D01*
X420347Y125290D01*
X420401Y125217D01*
X420453Y125141D01*
X420460Y125137D01*
X420465Y125130D01*
X420543Y125083D01*
X420620Y125034D01*
X420629Y125033D01*
X420636Y125028D01*
X420800Y125001D01*
X422200Y125001D01*
X422208Y125002D01*
G37*
G36*
X292208Y125002D02*
X292208Y125002D01*
X292217Y125001D01*
X292305Y125022D01*
X292395Y125040D01*
X292402Y125045D01*
X292410Y125047D01*
X292483Y125101D01*
X292559Y125153D01*
X292563Y125160D01*
X292570Y125165D01*
X292617Y125243D01*
X292666Y125320D01*
X292667Y125329D01*
X292672Y125336D01*
X292699Y125500D01*
X292699Y130500D01*
X292698Y130505D01*
X292699Y130509D01*
X292698Y130512D01*
X292699Y130517D01*
X292678Y130605D01*
X292660Y130695D01*
X292655Y130702D01*
X292653Y130710D01*
X292599Y130783D01*
X292547Y130859D01*
X292540Y130863D01*
X292535Y130870D01*
X292457Y130917D01*
X292380Y130966D01*
X292371Y130967D01*
X292364Y130972D01*
X292200Y130999D01*
X290800Y130999D01*
X290792Y130998D01*
X290783Y130999D01*
X290695Y130978D01*
X290605Y130960D01*
X290598Y130955D01*
X290590Y130953D01*
X290517Y130899D01*
X290441Y130847D01*
X290437Y130840D01*
X290430Y130835D01*
X290383Y130757D01*
X290334Y130680D01*
X290333Y130671D01*
X290328Y130664D01*
X290301Y130500D01*
X290301Y125500D01*
X290302Y125492D01*
X290301Y125483D01*
X290322Y125395D01*
X290340Y125305D01*
X290345Y125298D01*
X290347Y125290D01*
X290401Y125217D01*
X290453Y125141D01*
X290460Y125137D01*
X290465Y125130D01*
X290543Y125083D01*
X290620Y125034D01*
X290629Y125033D01*
X290636Y125028D01*
X290800Y125001D01*
X292200Y125001D01*
X292208Y125002D01*
G37*
G36*
X437208Y125002D02*
X437208Y125002D01*
X437217Y125001D01*
X437305Y125022D01*
X437395Y125040D01*
X437402Y125045D01*
X437410Y125047D01*
X437483Y125101D01*
X437559Y125153D01*
X437563Y125160D01*
X437570Y125165D01*
X437617Y125243D01*
X437666Y125320D01*
X437667Y125329D01*
X437672Y125336D01*
X437699Y125500D01*
X437699Y130500D01*
X437698Y130505D01*
X437699Y130509D01*
X437698Y130512D01*
X437699Y130517D01*
X437678Y130605D01*
X437660Y130695D01*
X437655Y130702D01*
X437653Y130710D01*
X437599Y130783D01*
X437547Y130859D01*
X437540Y130863D01*
X437535Y130870D01*
X437457Y130917D01*
X437380Y130966D01*
X437371Y130967D01*
X437364Y130972D01*
X437200Y130999D01*
X435800Y130999D01*
X435792Y130998D01*
X435783Y130999D01*
X435695Y130978D01*
X435605Y130960D01*
X435598Y130955D01*
X435590Y130953D01*
X435517Y130899D01*
X435441Y130847D01*
X435437Y130840D01*
X435430Y130835D01*
X435383Y130757D01*
X435334Y130680D01*
X435333Y130671D01*
X435328Y130664D01*
X435301Y130500D01*
X435301Y125500D01*
X435302Y125492D01*
X435301Y125483D01*
X435322Y125395D01*
X435340Y125305D01*
X435345Y125298D01*
X435347Y125290D01*
X435401Y125217D01*
X435453Y125141D01*
X435460Y125137D01*
X435465Y125130D01*
X435543Y125083D01*
X435620Y125034D01*
X435629Y125033D01*
X435636Y125028D01*
X435800Y125001D01*
X437200Y125001D01*
X437208Y125002D01*
G37*
G36*
X297208Y125002D02*
X297208Y125002D01*
X297217Y125001D01*
X297305Y125022D01*
X297395Y125040D01*
X297402Y125045D01*
X297410Y125047D01*
X297483Y125101D01*
X297559Y125153D01*
X297563Y125160D01*
X297570Y125165D01*
X297617Y125243D01*
X297666Y125320D01*
X297667Y125329D01*
X297672Y125336D01*
X297699Y125500D01*
X297699Y130500D01*
X297698Y130505D01*
X297699Y130509D01*
X297698Y130512D01*
X297699Y130517D01*
X297678Y130605D01*
X297660Y130695D01*
X297655Y130702D01*
X297653Y130710D01*
X297599Y130783D01*
X297547Y130859D01*
X297540Y130863D01*
X297535Y130870D01*
X297457Y130917D01*
X297380Y130966D01*
X297371Y130967D01*
X297364Y130972D01*
X297200Y130999D01*
X295800Y130999D01*
X295792Y130998D01*
X295783Y130999D01*
X295695Y130978D01*
X295605Y130960D01*
X295598Y130955D01*
X295590Y130953D01*
X295517Y130899D01*
X295441Y130847D01*
X295437Y130840D01*
X295430Y130835D01*
X295383Y130757D01*
X295334Y130680D01*
X295333Y130671D01*
X295328Y130664D01*
X295301Y130500D01*
X295301Y125500D01*
X295302Y125492D01*
X295301Y125483D01*
X295322Y125395D01*
X295340Y125305D01*
X295345Y125298D01*
X295347Y125290D01*
X295401Y125217D01*
X295453Y125141D01*
X295460Y125137D01*
X295465Y125130D01*
X295543Y125083D01*
X295620Y125034D01*
X295629Y125033D01*
X295636Y125028D01*
X295800Y125001D01*
X297200Y125001D01*
X297208Y125002D01*
G37*
G36*
X287508Y148302D02*
X287508Y148302D01*
X287517Y148301D01*
X287605Y148322D01*
X287695Y148340D01*
X287702Y148345D01*
X287710Y148347D01*
X287783Y148401D01*
X287859Y148453D01*
X287863Y148460D01*
X287870Y148465D01*
X287917Y148543D01*
X287966Y148620D01*
X287967Y148629D01*
X287972Y148636D01*
X287999Y148800D01*
X287999Y150200D01*
X287998Y150208D01*
X287999Y150217D01*
X287978Y150305D01*
X287960Y150395D01*
X287955Y150402D01*
X287953Y150410D01*
X287899Y150483D01*
X287847Y150559D01*
X287840Y150563D01*
X287835Y150570D01*
X287757Y150617D01*
X287680Y150666D01*
X287671Y150667D01*
X287664Y150672D01*
X287500Y150699D01*
X282500Y150699D01*
X282492Y150698D01*
X282483Y150699D01*
X282395Y150678D01*
X282305Y150660D01*
X282298Y150655D01*
X282290Y150653D01*
X282217Y150599D01*
X282141Y150547D01*
X282137Y150540D01*
X282130Y150535D01*
X282083Y150457D01*
X282034Y150380D01*
X282033Y150371D01*
X282028Y150364D01*
X282001Y150200D01*
X282001Y148800D01*
X282002Y148792D01*
X282001Y148783D01*
X282022Y148695D01*
X282040Y148605D01*
X282045Y148598D01*
X282047Y148590D01*
X282101Y148517D01*
X282153Y148441D01*
X282160Y148437D01*
X282165Y148430D01*
X282243Y148383D01*
X282320Y148334D01*
X282329Y148333D01*
X282336Y148328D01*
X282500Y148301D01*
X287500Y148301D01*
X287508Y148302D01*
G37*
G36*
X315508Y148302D02*
X315508Y148302D01*
X315517Y148301D01*
X315605Y148322D01*
X315695Y148340D01*
X315702Y148345D01*
X315710Y148347D01*
X315783Y148401D01*
X315859Y148453D01*
X315863Y148460D01*
X315870Y148465D01*
X315917Y148543D01*
X315966Y148620D01*
X315967Y148629D01*
X315972Y148636D01*
X315999Y148800D01*
X315999Y150200D01*
X315998Y150208D01*
X315999Y150217D01*
X315978Y150305D01*
X315960Y150395D01*
X315955Y150402D01*
X315953Y150410D01*
X315899Y150483D01*
X315847Y150559D01*
X315840Y150563D01*
X315835Y150570D01*
X315757Y150617D01*
X315680Y150666D01*
X315671Y150667D01*
X315664Y150672D01*
X315500Y150699D01*
X310500Y150699D01*
X310492Y150698D01*
X310483Y150699D01*
X310395Y150678D01*
X310305Y150660D01*
X310298Y150655D01*
X310290Y150653D01*
X310217Y150599D01*
X310141Y150547D01*
X310137Y150540D01*
X310130Y150535D01*
X310083Y150457D01*
X310034Y150380D01*
X310033Y150371D01*
X310028Y150364D01*
X310001Y150200D01*
X310001Y148800D01*
X310002Y148792D01*
X310001Y148783D01*
X310022Y148695D01*
X310040Y148605D01*
X310045Y148598D01*
X310047Y148590D01*
X310101Y148517D01*
X310153Y148441D01*
X310160Y148437D01*
X310165Y148430D01*
X310243Y148383D01*
X310320Y148334D01*
X310329Y148333D01*
X310336Y148328D01*
X310500Y148301D01*
X315500Y148301D01*
X315508Y148302D01*
G37*
G36*
X417508Y148302D02*
X417508Y148302D01*
X417517Y148301D01*
X417605Y148322D01*
X417695Y148340D01*
X417702Y148345D01*
X417710Y148347D01*
X417783Y148401D01*
X417859Y148453D01*
X417863Y148460D01*
X417870Y148465D01*
X417917Y148543D01*
X417966Y148620D01*
X417967Y148629D01*
X417972Y148636D01*
X417999Y148800D01*
X417999Y150200D01*
X417998Y150208D01*
X417999Y150217D01*
X417978Y150305D01*
X417960Y150395D01*
X417955Y150402D01*
X417953Y150410D01*
X417899Y150483D01*
X417847Y150559D01*
X417840Y150563D01*
X417835Y150570D01*
X417757Y150617D01*
X417680Y150666D01*
X417671Y150667D01*
X417664Y150672D01*
X417500Y150699D01*
X412500Y150699D01*
X412492Y150698D01*
X412483Y150699D01*
X412395Y150678D01*
X412305Y150660D01*
X412298Y150655D01*
X412290Y150653D01*
X412217Y150599D01*
X412141Y150547D01*
X412137Y150540D01*
X412130Y150535D01*
X412083Y150457D01*
X412034Y150380D01*
X412033Y150371D01*
X412028Y150364D01*
X412001Y150200D01*
X412001Y148800D01*
X412002Y148792D01*
X412001Y148783D01*
X412022Y148695D01*
X412040Y148605D01*
X412045Y148598D01*
X412047Y148590D01*
X412101Y148517D01*
X412153Y148441D01*
X412160Y148437D01*
X412165Y148430D01*
X412243Y148383D01*
X412320Y148334D01*
X412329Y148333D01*
X412336Y148328D01*
X412500Y148301D01*
X417500Y148301D01*
X417508Y148302D01*
G37*
G36*
X445508Y148302D02*
X445508Y148302D01*
X445517Y148301D01*
X445605Y148322D01*
X445695Y148340D01*
X445702Y148345D01*
X445710Y148347D01*
X445783Y148401D01*
X445859Y148453D01*
X445863Y148460D01*
X445870Y148465D01*
X445917Y148543D01*
X445966Y148620D01*
X445967Y148629D01*
X445972Y148636D01*
X445999Y148800D01*
X445999Y150200D01*
X445998Y150208D01*
X445999Y150217D01*
X445978Y150305D01*
X445960Y150395D01*
X445955Y150402D01*
X445953Y150410D01*
X445899Y150483D01*
X445847Y150559D01*
X445840Y150563D01*
X445835Y150570D01*
X445757Y150617D01*
X445680Y150666D01*
X445671Y150667D01*
X445664Y150672D01*
X445500Y150699D01*
X440500Y150699D01*
X440492Y150698D01*
X440483Y150699D01*
X440395Y150678D01*
X440305Y150660D01*
X440298Y150655D01*
X440290Y150653D01*
X440217Y150599D01*
X440141Y150547D01*
X440137Y150540D01*
X440130Y150535D01*
X440083Y150457D01*
X440034Y150380D01*
X440033Y150371D01*
X440028Y150364D01*
X440001Y150200D01*
X440001Y148800D01*
X440002Y148792D01*
X440001Y148783D01*
X440022Y148695D01*
X440040Y148605D01*
X440045Y148598D01*
X440047Y148590D01*
X440101Y148517D01*
X440153Y148441D01*
X440160Y148437D01*
X440165Y148430D01*
X440243Y148383D01*
X440320Y148334D01*
X440329Y148333D01*
X440336Y148328D01*
X440500Y148301D01*
X445500Y148301D01*
X445508Y148302D01*
G37*
G36*
X315508Y143302D02*
X315508Y143302D01*
X315517Y143301D01*
X315605Y143322D01*
X315695Y143340D01*
X315702Y143345D01*
X315710Y143347D01*
X315783Y143401D01*
X315859Y143453D01*
X315863Y143460D01*
X315870Y143465D01*
X315917Y143543D01*
X315966Y143620D01*
X315967Y143629D01*
X315972Y143636D01*
X315999Y143800D01*
X315999Y145200D01*
X315998Y145208D01*
X315999Y145217D01*
X315978Y145305D01*
X315960Y145395D01*
X315955Y145402D01*
X315953Y145410D01*
X315899Y145483D01*
X315847Y145559D01*
X315840Y145563D01*
X315835Y145570D01*
X315757Y145617D01*
X315680Y145666D01*
X315671Y145667D01*
X315664Y145672D01*
X315500Y145699D01*
X310500Y145699D01*
X310492Y145698D01*
X310483Y145699D01*
X310395Y145678D01*
X310305Y145660D01*
X310298Y145655D01*
X310290Y145653D01*
X310217Y145599D01*
X310141Y145547D01*
X310137Y145540D01*
X310130Y145535D01*
X310083Y145457D01*
X310034Y145380D01*
X310033Y145371D01*
X310028Y145364D01*
X310001Y145200D01*
X310001Y143800D01*
X310002Y143792D01*
X310001Y143783D01*
X310022Y143695D01*
X310040Y143605D01*
X310045Y143598D01*
X310047Y143590D01*
X310101Y143517D01*
X310153Y143441D01*
X310160Y143437D01*
X310165Y143430D01*
X310243Y143383D01*
X310320Y143334D01*
X310329Y143333D01*
X310336Y143328D01*
X310500Y143301D01*
X315500Y143301D01*
X315508Y143302D01*
G37*
G36*
X445508Y143302D02*
X445508Y143302D01*
X445517Y143301D01*
X445605Y143322D01*
X445695Y143340D01*
X445702Y143345D01*
X445710Y143347D01*
X445783Y143401D01*
X445859Y143453D01*
X445863Y143460D01*
X445870Y143465D01*
X445917Y143543D01*
X445966Y143620D01*
X445967Y143629D01*
X445972Y143636D01*
X445999Y143800D01*
X445999Y145200D01*
X445998Y145208D01*
X445999Y145217D01*
X445978Y145305D01*
X445960Y145395D01*
X445955Y145402D01*
X445953Y145410D01*
X445899Y145483D01*
X445847Y145559D01*
X445840Y145563D01*
X445835Y145570D01*
X445757Y145617D01*
X445680Y145666D01*
X445671Y145667D01*
X445664Y145672D01*
X445500Y145699D01*
X440500Y145699D01*
X440492Y145698D01*
X440483Y145699D01*
X440395Y145678D01*
X440305Y145660D01*
X440298Y145655D01*
X440290Y145653D01*
X440217Y145599D01*
X440141Y145547D01*
X440137Y145540D01*
X440130Y145535D01*
X440083Y145457D01*
X440034Y145380D01*
X440033Y145371D01*
X440028Y145364D01*
X440001Y145200D01*
X440001Y143800D01*
X440002Y143792D01*
X440001Y143783D01*
X440022Y143695D01*
X440040Y143605D01*
X440045Y143598D01*
X440047Y143590D01*
X440101Y143517D01*
X440153Y143441D01*
X440160Y143437D01*
X440165Y143430D01*
X440243Y143383D01*
X440320Y143334D01*
X440329Y143333D01*
X440336Y143328D01*
X440500Y143301D01*
X445500Y143301D01*
X445508Y143302D01*
G37*
G36*
X287508Y143302D02*
X287508Y143302D01*
X287517Y143301D01*
X287605Y143322D01*
X287695Y143340D01*
X287702Y143345D01*
X287710Y143347D01*
X287783Y143401D01*
X287859Y143453D01*
X287863Y143460D01*
X287870Y143465D01*
X287917Y143543D01*
X287966Y143620D01*
X287967Y143629D01*
X287972Y143636D01*
X287999Y143800D01*
X287999Y145200D01*
X287998Y145208D01*
X287999Y145217D01*
X287978Y145305D01*
X287960Y145395D01*
X287955Y145402D01*
X287953Y145410D01*
X287899Y145483D01*
X287847Y145559D01*
X287840Y145563D01*
X287835Y145570D01*
X287757Y145617D01*
X287680Y145666D01*
X287671Y145667D01*
X287664Y145672D01*
X287500Y145699D01*
X282500Y145699D01*
X282492Y145698D01*
X282483Y145699D01*
X282395Y145678D01*
X282305Y145660D01*
X282298Y145655D01*
X282290Y145653D01*
X282217Y145599D01*
X282141Y145547D01*
X282137Y145540D01*
X282130Y145535D01*
X282083Y145457D01*
X282034Y145380D01*
X282033Y145371D01*
X282028Y145364D01*
X282001Y145200D01*
X282001Y143800D01*
X282002Y143792D01*
X282001Y143783D01*
X282022Y143695D01*
X282040Y143605D01*
X282045Y143598D01*
X282047Y143590D01*
X282101Y143517D01*
X282153Y143441D01*
X282160Y143437D01*
X282165Y143430D01*
X282243Y143383D01*
X282320Y143334D01*
X282329Y143333D01*
X282336Y143328D01*
X282500Y143301D01*
X287500Y143301D01*
X287508Y143302D01*
G37*
G36*
X315508Y133302D02*
X315508Y133302D01*
X315517Y133301D01*
X315605Y133322D01*
X315695Y133340D01*
X315702Y133345D01*
X315710Y133347D01*
X315783Y133401D01*
X315859Y133453D01*
X315863Y133460D01*
X315870Y133465D01*
X315917Y133543D01*
X315966Y133620D01*
X315967Y133629D01*
X315972Y133636D01*
X315999Y133800D01*
X315999Y135200D01*
X315998Y135208D01*
X315999Y135217D01*
X315978Y135305D01*
X315960Y135395D01*
X315955Y135402D01*
X315953Y135410D01*
X315899Y135483D01*
X315847Y135559D01*
X315840Y135563D01*
X315835Y135570D01*
X315757Y135617D01*
X315680Y135666D01*
X315671Y135667D01*
X315664Y135672D01*
X315500Y135699D01*
X310500Y135699D01*
X310492Y135698D01*
X310483Y135699D01*
X310395Y135678D01*
X310305Y135660D01*
X310298Y135655D01*
X310290Y135653D01*
X310217Y135599D01*
X310141Y135547D01*
X310137Y135540D01*
X310130Y135535D01*
X310083Y135457D01*
X310034Y135380D01*
X310033Y135371D01*
X310028Y135364D01*
X310001Y135200D01*
X310001Y133800D01*
X310002Y133792D01*
X310001Y133783D01*
X310022Y133695D01*
X310040Y133605D01*
X310045Y133598D01*
X310047Y133590D01*
X310101Y133517D01*
X310153Y133441D01*
X310160Y133437D01*
X310165Y133430D01*
X310243Y133383D01*
X310320Y133334D01*
X310329Y133333D01*
X310336Y133328D01*
X310500Y133301D01*
X315500Y133301D01*
X315508Y133302D01*
G37*
G36*
X315508Y138302D02*
X315508Y138302D01*
X315517Y138301D01*
X315605Y138322D01*
X315695Y138340D01*
X315702Y138345D01*
X315710Y138347D01*
X315783Y138401D01*
X315859Y138453D01*
X315863Y138460D01*
X315870Y138465D01*
X315917Y138543D01*
X315966Y138620D01*
X315967Y138629D01*
X315972Y138636D01*
X315999Y138800D01*
X315999Y140200D01*
X315998Y140208D01*
X315999Y140217D01*
X315978Y140305D01*
X315960Y140395D01*
X315955Y140402D01*
X315953Y140410D01*
X315899Y140483D01*
X315847Y140559D01*
X315840Y140563D01*
X315835Y140570D01*
X315757Y140617D01*
X315680Y140666D01*
X315671Y140667D01*
X315664Y140672D01*
X315500Y140699D01*
X310500Y140699D01*
X310492Y140698D01*
X310483Y140699D01*
X310395Y140678D01*
X310305Y140660D01*
X310298Y140655D01*
X310290Y140653D01*
X310217Y140599D01*
X310141Y140547D01*
X310137Y140540D01*
X310130Y140535D01*
X310083Y140457D01*
X310034Y140380D01*
X310033Y140371D01*
X310028Y140364D01*
X310001Y140200D01*
X310001Y138800D01*
X310002Y138792D01*
X310001Y138783D01*
X310022Y138695D01*
X310040Y138605D01*
X310045Y138598D01*
X310047Y138590D01*
X310101Y138517D01*
X310153Y138441D01*
X310160Y138437D01*
X310165Y138430D01*
X310243Y138383D01*
X310320Y138334D01*
X310329Y138333D01*
X310336Y138328D01*
X310500Y138301D01*
X315500Y138301D01*
X315508Y138302D01*
G37*
G36*
X287508Y138302D02*
X287508Y138302D01*
X287517Y138301D01*
X287605Y138322D01*
X287695Y138340D01*
X287702Y138345D01*
X287710Y138347D01*
X287783Y138401D01*
X287859Y138453D01*
X287863Y138460D01*
X287870Y138465D01*
X287917Y138543D01*
X287966Y138620D01*
X287967Y138629D01*
X287972Y138636D01*
X287999Y138800D01*
X287999Y140200D01*
X287998Y140208D01*
X287999Y140217D01*
X287978Y140305D01*
X287960Y140395D01*
X287955Y140402D01*
X287953Y140410D01*
X287899Y140483D01*
X287847Y140559D01*
X287840Y140563D01*
X287835Y140570D01*
X287757Y140617D01*
X287680Y140666D01*
X287671Y140667D01*
X287664Y140672D01*
X287500Y140699D01*
X282500Y140699D01*
X282492Y140698D01*
X282483Y140699D01*
X282395Y140678D01*
X282305Y140660D01*
X282298Y140655D01*
X282290Y140653D01*
X282217Y140599D01*
X282141Y140547D01*
X282137Y140540D01*
X282130Y140535D01*
X282083Y140457D01*
X282034Y140380D01*
X282033Y140371D01*
X282028Y140364D01*
X282001Y140200D01*
X282001Y138800D01*
X282002Y138792D01*
X282001Y138783D01*
X282022Y138695D01*
X282040Y138605D01*
X282045Y138598D01*
X282047Y138590D01*
X282101Y138517D01*
X282153Y138441D01*
X282160Y138437D01*
X282165Y138430D01*
X282243Y138383D01*
X282320Y138334D01*
X282329Y138333D01*
X282336Y138328D01*
X282500Y138301D01*
X287500Y138301D01*
X287508Y138302D01*
G37*
G36*
X417508Y138302D02*
X417508Y138302D01*
X417517Y138301D01*
X417605Y138322D01*
X417695Y138340D01*
X417702Y138345D01*
X417710Y138347D01*
X417783Y138401D01*
X417859Y138453D01*
X417863Y138460D01*
X417870Y138465D01*
X417917Y138543D01*
X417966Y138620D01*
X417967Y138629D01*
X417972Y138636D01*
X417999Y138800D01*
X417999Y140200D01*
X417998Y140208D01*
X417999Y140217D01*
X417978Y140305D01*
X417960Y140395D01*
X417955Y140402D01*
X417953Y140410D01*
X417899Y140483D01*
X417847Y140559D01*
X417840Y140563D01*
X417835Y140570D01*
X417757Y140617D01*
X417680Y140666D01*
X417671Y140667D01*
X417664Y140672D01*
X417500Y140699D01*
X412500Y140699D01*
X412492Y140698D01*
X412483Y140699D01*
X412395Y140678D01*
X412305Y140660D01*
X412298Y140655D01*
X412290Y140653D01*
X412217Y140599D01*
X412141Y140547D01*
X412137Y140540D01*
X412130Y140535D01*
X412083Y140457D01*
X412034Y140380D01*
X412033Y140371D01*
X412028Y140364D01*
X412001Y140200D01*
X412001Y138800D01*
X412002Y138792D01*
X412001Y138783D01*
X412022Y138695D01*
X412040Y138605D01*
X412045Y138598D01*
X412047Y138590D01*
X412101Y138517D01*
X412153Y138441D01*
X412160Y138437D01*
X412165Y138430D01*
X412243Y138383D01*
X412320Y138334D01*
X412329Y138333D01*
X412336Y138328D01*
X412500Y138301D01*
X417500Y138301D01*
X417508Y138302D01*
G37*
G36*
X445508Y138302D02*
X445508Y138302D01*
X445517Y138301D01*
X445605Y138322D01*
X445695Y138340D01*
X445702Y138345D01*
X445710Y138347D01*
X445783Y138401D01*
X445859Y138453D01*
X445863Y138460D01*
X445870Y138465D01*
X445917Y138543D01*
X445966Y138620D01*
X445967Y138629D01*
X445972Y138636D01*
X445999Y138800D01*
X445999Y140200D01*
X445998Y140208D01*
X445999Y140217D01*
X445978Y140305D01*
X445960Y140395D01*
X445955Y140402D01*
X445953Y140410D01*
X445899Y140483D01*
X445847Y140559D01*
X445840Y140563D01*
X445835Y140570D01*
X445757Y140617D01*
X445680Y140666D01*
X445671Y140667D01*
X445664Y140672D01*
X445500Y140699D01*
X440500Y140699D01*
X440492Y140698D01*
X440483Y140699D01*
X440395Y140678D01*
X440305Y140660D01*
X440298Y140655D01*
X440290Y140653D01*
X440217Y140599D01*
X440141Y140547D01*
X440137Y140540D01*
X440130Y140535D01*
X440083Y140457D01*
X440034Y140380D01*
X440033Y140371D01*
X440028Y140364D01*
X440001Y140200D01*
X440001Y138800D01*
X440002Y138792D01*
X440001Y138783D01*
X440022Y138695D01*
X440040Y138605D01*
X440045Y138598D01*
X440047Y138590D01*
X440101Y138517D01*
X440153Y138441D01*
X440160Y138437D01*
X440165Y138430D01*
X440243Y138383D01*
X440320Y138334D01*
X440329Y138333D01*
X440336Y138328D01*
X440500Y138301D01*
X445500Y138301D01*
X445508Y138302D01*
G37*
G36*
X417508Y133302D02*
X417508Y133302D01*
X417517Y133301D01*
X417605Y133322D01*
X417695Y133340D01*
X417702Y133345D01*
X417710Y133347D01*
X417783Y133401D01*
X417859Y133453D01*
X417863Y133460D01*
X417870Y133465D01*
X417917Y133543D01*
X417966Y133620D01*
X417967Y133629D01*
X417972Y133636D01*
X417999Y133800D01*
X417999Y135200D01*
X417998Y135208D01*
X417999Y135217D01*
X417978Y135305D01*
X417960Y135395D01*
X417955Y135402D01*
X417953Y135410D01*
X417899Y135483D01*
X417847Y135559D01*
X417840Y135563D01*
X417835Y135570D01*
X417757Y135617D01*
X417680Y135666D01*
X417671Y135667D01*
X417664Y135672D01*
X417500Y135699D01*
X412500Y135699D01*
X412492Y135698D01*
X412483Y135699D01*
X412395Y135678D01*
X412305Y135660D01*
X412298Y135655D01*
X412290Y135653D01*
X412217Y135599D01*
X412141Y135547D01*
X412137Y135540D01*
X412130Y135535D01*
X412083Y135457D01*
X412034Y135380D01*
X412033Y135371D01*
X412028Y135364D01*
X412001Y135200D01*
X412001Y133800D01*
X412002Y133792D01*
X412001Y133783D01*
X412022Y133695D01*
X412040Y133605D01*
X412045Y133598D01*
X412047Y133590D01*
X412101Y133517D01*
X412153Y133441D01*
X412160Y133437D01*
X412165Y133430D01*
X412243Y133383D01*
X412320Y133334D01*
X412329Y133333D01*
X412336Y133328D01*
X412500Y133301D01*
X417500Y133301D01*
X417508Y133302D01*
G37*
G36*
X287508Y133302D02*
X287508Y133302D01*
X287517Y133301D01*
X287605Y133322D01*
X287695Y133340D01*
X287702Y133345D01*
X287710Y133347D01*
X287783Y133401D01*
X287859Y133453D01*
X287863Y133460D01*
X287870Y133465D01*
X287917Y133543D01*
X287966Y133620D01*
X287967Y133629D01*
X287972Y133636D01*
X287999Y133800D01*
X287999Y135200D01*
X287998Y135208D01*
X287999Y135217D01*
X287978Y135305D01*
X287960Y135395D01*
X287955Y135402D01*
X287953Y135410D01*
X287899Y135483D01*
X287847Y135559D01*
X287840Y135563D01*
X287835Y135570D01*
X287757Y135617D01*
X287680Y135666D01*
X287671Y135667D01*
X287664Y135672D01*
X287500Y135699D01*
X282500Y135699D01*
X282492Y135698D01*
X282483Y135699D01*
X282395Y135678D01*
X282305Y135660D01*
X282298Y135655D01*
X282290Y135653D01*
X282217Y135599D01*
X282141Y135547D01*
X282137Y135540D01*
X282130Y135535D01*
X282083Y135457D01*
X282034Y135380D01*
X282033Y135371D01*
X282028Y135364D01*
X282001Y135200D01*
X282001Y133800D01*
X282002Y133792D01*
X282001Y133783D01*
X282022Y133695D01*
X282040Y133605D01*
X282045Y133598D01*
X282047Y133590D01*
X282101Y133517D01*
X282153Y133441D01*
X282160Y133437D01*
X282165Y133430D01*
X282243Y133383D01*
X282320Y133334D01*
X282329Y133333D01*
X282336Y133328D01*
X282500Y133301D01*
X287500Y133301D01*
X287508Y133302D01*
G37*
G36*
X445508Y133302D02*
X445508Y133302D01*
X445517Y133301D01*
X445605Y133322D01*
X445695Y133340D01*
X445702Y133345D01*
X445710Y133347D01*
X445783Y133401D01*
X445859Y133453D01*
X445863Y133460D01*
X445870Y133465D01*
X445917Y133543D01*
X445966Y133620D01*
X445967Y133629D01*
X445972Y133636D01*
X445999Y133800D01*
X445999Y135200D01*
X445998Y135208D01*
X445999Y135217D01*
X445978Y135305D01*
X445960Y135395D01*
X445955Y135402D01*
X445953Y135410D01*
X445899Y135483D01*
X445847Y135559D01*
X445840Y135563D01*
X445835Y135570D01*
X445757Y135617D01*
X445680Y135666D01*
X445671Y135667D01*
X445664Y135672D01*
X445500Y135699D01*
X440500Y135699D01*
X440492Y135698D01*
X440483Y135699D01*
X440395Y135678D01*
X440305Y135660D01*
X440298Y135655D01*
X440290Y135653D01*
X440217Y135599D01*
X440141Y135547D01*
X440137Y135540D01*
X440130Y135535D01*
X440083Y135457D01*
X440034Y135380D01*
X440033Y135371D01*
X440028Y135364D01*
X440001Y135200D01*
X440001Y133800D01*
X440002Y133792D01*
X440001Y133783D01*
X440022Y133695D01*
X440040Y133605D01*
X440045Y133598D01*
X440047Y133590D01*
X440101Y133517D01*
X440153Y133441D01*
X440160Y133437D01*
X440165Y133430D01*
X440243Y133383D01*
X440320Y133334D01*
X440329Y133333D01*
X440336Y133328D01*
X440500Y133301D01*
X445500Y133301D01*
X445508Y133302D01*
G37*
G36*
X417508Y143302D02*
X417508Y143302D01*
X417517Y143301D01*
X417605Y143322D01*
X417695Y143340D01*
X417702Y143345D01*
X417710Y143347D01*
X417783Y143401D01*
X417859Y143453D01*
X417863Y143460D01*
X417870Y143465D01*
X417917Y143543D01*
X417966Y143620D01*
X417967Y143629D01*
X417972Y143636D01*
X417999Y143800D01*
X417999Y145200D01*
X417998Y145208D01*
X417999Y145217D01*
X417978Y145305D01*
X417960Y145395D01*
X417955Y145402D01*
X417953Y145410D01*
X417899Y145483D01*
X417847Y145559D01*
X417840Y145563D01*
X417835Y145570D01*
X417757Y145617D01*
X417680Y145666D01*
X417671Y145667D01*
X417664Y145672D01*
X417500Y145699D01*
X412500Y145699D01*
X412492Y145698D01*
X412483Y145699D01*
X412395Y145678D01*
X412305Y145660D01*
X412298Y145655D01*
X412290Y145653D01*
X412217Y145599D01*
X412141Y145547D01*
X412137Y145540D01*
X412130Y145535D01*
X412083Y145457D01*
X412034Y145380D01*
X412033Y145371D01*
X412028Y145364D01*
X412001Y145200D01*
X412001Y143800D01*
X412002Y143792D01*
X412001Y143783D01*
X412022Y143695D01*
X412040Y143605D01*
X412045Y143598D01*
X412047Y143590D01*
X412101Y143517D01*
X412153Y143441D01*
X412160Y143437D01*
X412165Y143430D01*
X412243Y143383D01*
X412320Y143334D01*
X412329Y143333D01*
X412336Y143328D01*
X412500Y143301D01*
X417500Y143301D01*
X417508Y143302D01*
G37*
D10*
X308500Y102000D03*
X289500Y102000D03*
D11*
X339000Y171500D03*
X339000Y152500D03*
X259000Y152500D03*
X259000Y171500D03*
X259000Y121500D03*
X259000Y102500D03*
D10*
X438500Y102000D03*
X419500Y102000D03*
D11*
X469000Y171500D03*
X469000Y152500D03*
X389000Y152500D03*
X389000Y171500D03*
X389000Y121500D03*
X389000Y102500D03*
D12*
X285500Y182000D03*
X312500Y182000D03*
X415500Y182000D03*
X442500Y182000D03*
D13*
X34000Y365000D03*
D14*
X33000Y345000D03*
X33000Y325000D03*
X33000Y305000D03*
X33000Y285000D03*
X33000Y265000D03*
X33000Y245000D03*
X33000Y225000D03*
X187000Y365000D03*
X187000Y345000D03*
X187000Y325000D03*
X187000Y305000D03*
X187000Y285000D03*
X187000Y265000D03*
X187000Y245000D03*
X187000Y225000D03*
D13*
X224000Y365000D03*
D14*
X223000Y345000D03*
X223000Y325000D03*
X223000Y305000D03*
X223000Y285000D03*
X223000Y265000D03*
X223000Y245000D03*
X223000Y225000D03*
X377000Y365000D03*
X377000Y345000D03*
X377000Y325000D03*
X377000Y305000D03*
X377000Y285000D03*
X377000Y265000D03*
X377000Y245000D03*
X377000Y225000D03*
D10*
X149500Y180000D03*
X130500Y180000D03*
D15*
X182000Y180000D03*
X218000Y180000D03*
D16*
X468500Y222000D03*
X447500Y222000D03*
D10*
X467500Y203000D03*
X448500Y203000D03*
M02*
